G04 #@! TF.GenerationSoftware,KiCad,Pcbnew,5.1.5*
G04 #@! TF.CreationDate,2019-12-27T12:01:36+00:00*
G04 #@! TF.ProjectId,wkday,776b6461-792e-46b6-9963-61645f706362,rev?*
G04 #@! TF.SameCoordinates,Original*
G04 #@! TF.FileFunction,Legend,Top*
G04 #@! TF.FilePolarity,Positive*
%FSLAX46Y46*%
G04 Gerber Fmt 4.6, Leading zero omitted, Abs format (unit mm)*
G04 Created by KiCad (PCBNEW 5.1.5) date 2019-12-27 12:01:36*
%MOMM*%
%LPD*%
G04 APERTURE LIST*
%ADD10C,0.150000*%
%ADD11C,0.120000*%
G04 APERTURE END LIST*
D10*
X173842107Y-62365442D02*
X174279840Y-61927709D01*
X174313511Y-62432785D01*
X174414527Y-62331770D01*
X174515542Y-62298098D01*
X174582885Y-62298098D01*
X174683901Y-62331770D01*
X174852259Y-62500129D01*
X174885931Y-62601144D01*
X174885931Y-62668488D01*
X174852259Y-62769503D01*
X174650229Y-62971533D01*
X174549214Y-63005205D01*
X174481870Y-63005205D01*
X174515542Y-61692007D02*
X174986946Y-61220602D01*
X175391007Y-62230755D01*
X175424679Y-61254274D02*
X176064442Y-61557320D01*
X175761397Y-60917557D02*
X176064442Y-61557320D01*
X176165458Y-61793022D01*
X176165458Y-61860366D01*
X176131786Y-61961381D01*
X175727725Y-60479824D02*
X176165458Y-60042091D01*
X176199129Y-60547167D01*
X176300145Y-60446152D01*
X176401160Y-60412480D01*
X176468503Y-60412480D01*
X176569519Y-60446152D01*
X176737877Y-60614511D01*
X176771549Y-60715526D01*
X176771549Y-60782870D01*
X176737877Y-60883885D01*
X176535847Y-61085915D01*
X176434832Y-61119587D01*
X176367488Y-61119587D01*
X177007251Y-59671702D02*
X177478656Y-60143106D01*
X176569519Y-59570687D02*
X176906236Y-60244122D01*
X177343969Y-59806389D01*
X177276625Y-59402328D02*
X177546000Y-59132954D01*
X177849045Y-59772717D02*
X177242954Y-59166625D01*
X177209282Y-59065610D01*
X177242954Y-58964595D01*
X177310297Y-58897251D01*
X177882717Y-58324832D02*
X177546000Y-58661549D01*
X177849045Y-59031938D01*
X177849045Y-58964595D01*
X177882717Y-58863580D01*
X178051076Y-58695221D01*
X178152091Y-58661549D01*
X178219435Y-58661549D01*
X178320450Y-58695221D01*
X178488809Y-58863580D01*
X178522480Y-58964595D01*
X178522480Y-59031938D01*
X178488809Y-59132954D01*
X178320450Y-59301312D01*
X178219435Y-59334984D01*
X178152091Y-59334984D01*
X178859198Y-58762564D02*
X178758183Y-57920771D01*
X178387793Y-58291160D02*
X179229587Y-58392175D01*
X178926541Y-57281007D02*
X179061228Y-57146320D01*
X179162244Y-57112649D01*
X179296931Y-57112649D01*
X179465289Y-57213664D01*
X179700992Y-57449366D01*
X179802007Y-57617725D01*
X179802007Y-57752412D01*
X179768335Y-57853427D01*
X179633648Y-57988114D01*
X179532633Y-58021786D01*
X179397946Y-58021786D01*
X179229587Y-57920771D01*
X178993885Y-57685068D01*
X178892870Y-57516710D01*
X178892870Y-57382023D01*
X178926541Y-57281007D01*
X180172396Y-57449366D02*
X180071381Y-56607572D01*
X179700992Y-56977962D02*
X180542785Y-57078977D01*
X180441770Y-56439214D02*
X180677472Y-56203511D01*
X181148877Y-56472885D02*
X180812159Y-56809603D01*
X180105053Y-56102496D01*
X180441770Y-55765779D01*
D11*
X177419000Y-97663000D02*
X177419000Y-98425000D01*
X177038000Y-97663000D02*
X177419000Y-97663000D01*
X177038000Y-98044000D02*
X177038000Y-97663000D01*
D10*
X161822666Y-93495761D02*
X161965523Y-93543380D01*
X162203619Y-93543380D01*
X162298857Y-93495761D01*
X162346476Y-93448142D01*
X162394095Y-93352904D01*
X162394095Y-93257666D01*
X162346476Y-93162428D01*
X162298857Y-93114809D01*
X162203619Y-93067190D01*
X162013142Y-93019571D01*
X161917904Y-92971952D01*
X161870285Y-92924333D01*
X161822666Y-92829095D01*
X161822666Y-92733857D01*
X161870285Y-92638619D01*
X161917904Y-92591000D01*
X162013142Y-92543380D01*
X162251238Y-92543380D01*
X162394095Y-92591000D01*
X162679809Y-92876714D02*
X163060761Y-92876714D01*
X162822666Y-92543380D02*
X162822666Y-93400523D01*
X162870285Y-93495761D01*
X162965523Y-93543380D01*
X163060761Y-93543380D01*
X163822666Y-93543380D02*
X163822666Y-93019571D01*
X163775047Y-92924333D01*
X163679809Y-92876714D01*
X163489333Y-92876714D01*
X163394095Y-92924333D01*
X163822666Y-93495761D02*
X163727428Y-93543380D01*
X163489333Y-93543380D01*
X163394095Y-93495761D01*
X163346476Y-93400523D01*
X163346476Y-93305285D01*
X163394095Y-93210047D01*
X163489333Y-93162428D01*
X163727428Y-93162428D01*
X163822666Y-93114809D01*
X164298857Y-92876714D02*
X164298857Y-93543380D01*
X164298857Y-92971952D02*
X164346476Y-92924333D01*
X164441714Y-92876714D01*
X164584571Y-92876714D01*
X164679809Y-92924333D01*
X164727428Y-93019571D01*
X164727428Y-93543380D01*
X165632190Y-93543380D02*
X165632190Y-92543380D01*
X165632190Y-93495761D02*
X165536952Y-93543380D01*
X165346476Y-93543380D01*
X165251238Y-93495761D01*
X165203619Y-93448142D01*
X165156000Y-93352904D01*
X165156000Y-93067190D01*
X165203619Y-92971952D01*
X165251238Y-92924333D01*
X165346476Y-92876714D01*
X165536952Y-92876714D01*
X165632190Y-92924333D01*
X166536952Y-93543380D02*
X166536952Y-93019571D01*
X166489333Y-92924333D01*
X166394095Y-92876714D01*
X166203619Y-92876714D01*
X166108380Y-92924333D01*
X166536952Y-93495761D02*
X166441714Y-93543380D01*
X166203619Y-93543380D01*
X166108380Y-93495761D01*
X166060761Y-93400523D01*
X166060761Y-93305285D01*
X166108380Y-93210047D01*
X166203619Y-93162428D01*
X166441714Y-93162428D01*
X166536952Y-93114809D01*
X167013142Y-93543380D02*
X167013142Y-92876714D01*
X167013142Y-93067190D02*
X167060761Y-92971952D01*
X167108380Y-92924333D01*
X167203619Y-92876714D01*
X167298857Y-92876714D01*
X168060761Y-93543380D02*
X168060761Y-92543380D01*
X168060761Y-93495761D02*
X167965523Y-93543380D01*
X167775047Y-93543380D01*
X167679809Y-93495761D01*
X167632190Y-93448142D01*
X167584571Y-93352904D01*
X167584571Y-93067190D01*
X167632190Y-92971952D01*
X167679809Y-92924333D01*
X167775047Y-92876714D01*
X167965523Y-92876714D01*
X168060761Y-92924333D01*
X169298857Y-93543380D02*
X169298857Y-92543380D01*
X169679809Y-92543380D01*
X169775047Y-92591000D01*
X169822666Y-92638619D01*
X169870285Y-92733857D01*
X169870285Y-92876714D01*
X169822666Y-92971952D01*
X169775047Y-93019571D01*
X169679809Y-93067190D01*
X169298857Y-93067190D01*
X170727428Y-93543380D02*
X170727428Y-93019571D01*
X170679809Y-92924333D01*
X170584571Y-92876714D01*
X170394095Y-92876714D01*
X170298857Y-92924333D01*
X170727428Y-93495761D02*
X170632190Y-93543380D01*
X170394095Y-93543380D01*
X170298857Y-93495761D01*
X170251238Y-93400523D01*
X170251238Y-93305285D01*
X170298857Y-93210047D01*
X170394095Y-93162428D01*
X170632190Y-93162428D01*
X170727428Y-93114809D01*
X171203619Y-93543380D02*
X171203619Y-92876714D01*
X171203619Y-92543380D02*
X171156000Y-92591000D01*
X171203619Y-92638619D01*
X171251238Y-92591000D01*
X171203619Y-92543380D01*
X171203619Y-92638619D01*
X171679809Y-92876714D02*
X171679809Y-93543380D01*
X171679809Y-92971952D02*
X171727428Y-92924333D01*
X171822666Y-92876714D01*
X171965523Y-92876714D01*
X172060761Y-92924333D01*
X172108380Y-93019571D01*
X172108380Y-93543380D01*
X172441714Y-92876714D02*
X172822666Y-92876714D01*
X172584571Y-92543380D02*
X172584571Y-93400523D01*
X172632190Y-93495761D01*
X172727428Y-93543380D01*
X172822666Y-93543380D01*
X173156000Y-93543380D02*
X173156000Y-92876714D01*
X173156000Y-92543380D02*
X173108380Y-92591000D01*
X173156000Y-92638619D01*
X173203619Y-92591000D01*
X173156000Y-92543380D01*
X173156000Y-92638619D01*
X173632190Y-92876714D02*
X173632190Y-93543380D01*
X173632190Y-92971952D02*
X173679809Y-92924333D01*
X173775047Y-92876714D01*
X173917904Y-92876714D01*
X174013142Y-92924333D01*
X174060761Y-93019571D01*
X174060761Y-93543380D01*
X174965523Y-92876714D02*
X174965523Y-93686238D01*
X174917904Y-93781476D01*
X174870285Y-93829095D01*
X174775047Y-93876714D01*
X174632190Y-93876714D01*
X174536952Y-93829095D01*
X174965523Y-93495761D02*
X174870285Y-93543380D01*
X174679809Y-93543380D01*
X174584571Y-93495761D01*
X174536952Y-93448142D01*
X174489333Y-93352904D01*
X174489333Y-93067190D01*
X174536952Y-92971952D01*
X174584571Y-92924333D01*
X174679809Y-92876714D01*
X174870285Y-92876714D01*
X174965523Y-92924333D01*
X175441714Y-93448142D02*
X175489333Y-93495761D01*
X175441714Y-93543380D01*
X175394095Y-93495761D01*
X175441714Y-93448142D01*
X175441714Y-93543380D01*
X175441714Y-92924333D02*
X175489333Y-92971952D01*
X175441714Y-93019571D01*
X175394095Y-92971952D01*
X175441714Y-92924333D01*
X175441714Y-93019571D01*
D11*
X155575000Y-94742000D02*
X155575000Y-94234000D01*
X154813000Y-94996000D02*
X154178000Y-94361000D01*
X154559000Y-95885000D02*
X153670000Y-95885000D01*
X154813000Y-96647000D02*
X154178000Y-97282000D01*
X156464000Y-95123000D02*
X157099000Y-94488000D01*
X155575000Y-97028000D02*
X155575000Y-97790000D01*
X156464000Y-96774000D02*
X156972000Y-97282000D01*
X156718000Y-95885000D02*
X157607000Y-95885000D01*
X156293420Y-95885000D02*
G75*
G03X156293420Y-95885000I-718420J0D01*
G01*
X176530000Y-97536000D02*
X178435000Y-99441000D01*
X174625000Y-99441000D02*
X176530000Y-97536000D01*
X177546000Y-100076000D02*
X176657000Y-100076000D01*
X177546000Y-100711000D02*
X177546000Y-100076000D01*
X176657000Y-100711000D02*
X177546000Y-100711000D01*
X176657000Y-100076000D02*
X176657000Y-100711000D01*
X176149000Y-100457000D02*
X176149000Y-101219000D01*
X175641000Y-100457000D02*
X176149000Y-100457000D01*
X175641000Y-100457000D02*
X175641000Y-101219000D01*
X177927000Y-99060000D02*
X177927000Y-101219000D01*
X175133000Y-99060000D02*
X177927000Y-99060000D01*
X175133000Y-101219000D02*
X175133000Y-99060000D01*
X161898450Y-109830675D02*
G75*
G02X163830001Y-102489001I22251550J-1929325D01*
G01*
X160492927Y-109796958D02*
G75*
G02X162687001Y-102489001I21498073J-2471042D01*
G01*
X168073890Y-103071841D02*
G75*
G02X182879999Y-102235001I8456110J-18213159D01*
G01*
X153037708Y-106160245D02*
G75*
G02X168909999Y-103505001I10157292J-11949755D01*
G01*
X153035000Y-93980000D02*
X153035000Y-109855000D01*
X182880000Y-93980000D02*
X153035000Y-93980000D01*
X182880000Y-109855000D02*
X182880000Y-93980000D01*
X153035000Y-109855000D02*
X182880000Y-109855000D01*
D10*
X123103857Y-100611380D02*
X123675285Y-100611380D01*
X123389571Y-101611380D02*
X123389571Y-100611380D01*
X124437190Y-101611380D02*
X124437190Y-101087571D01*
X124389571Y-100992333D01*
X124294333Y-100944714D01*
X124103857Y-100944714D01*
X124008619Y-100992333D01*
X124437190Y-101563761D02*
X124341952Y-101611380D01*
X124103857Y-101611380D01*
X124008619Y-101563761D01*
X123961000Y-101468523D01*
X123961000Y-101373285D01*
X124008619Y-101278047D01*
X124103857Y-101230428D01*
X124341952Y-101230428D01*
X124437190Y-101182809D01*
X125056238Y-101611380D02*
X124961000Y-101563761D01*
X124913380Y-101468523D01*
X124913380Y-100611380D01*
X125437190Y-101611380D02*
X125437190Y-100611380D01*
X125532428Y-101230428D02*
X125818142Y-101611380D01*
X125818142Y-100944714D02*
X125437190Y-101325666D01*
X126865761Y-100944714D02*
X127246714Y-100944714D01*
X127008619Y-100611380D02*
X127008619Y-101468523D01*
X127056238Y-101563761D01*
X127151476Y-101611380D01*
X127246714Y-101611380D01*
X127722904Y-101611380D02*
X127627666Y-101563761D01*
X127580047Y-101516142D01*
X127532428Y-101420904D01*
X127532428Y-101135190D01*
X127580047Y-101039952D01*
X127627666Y-100992333D01*
X127722904Y-100944714D01*
X127865761Y-100944714D01*
X127961000Y-100992333D01*
X128008619Y-101039952D01*
X128056238Y-101135190D01*
X128056238Y-101420904D01*
X128008619Y-101516142D01*
X127961000Y-101563761D01*
X127865761Y-101611380D01*
X127722904Y-101611380D01*
X129246714Y-101611380D02*
X129246714Y-100944714D01*
X129246714Y-101039952D02*
X129294333Y-100992333D01*
X129389571Y-100944714D01*
X129532428Y-100944714D01*
X129627666Y-100992333D01*
X129675285Y-101087571D01*
X129675285Y-101611380D01*
X129675285Y-101087571D02*
X129722904Y-100992333D01*
X129818142Y-100944714D01*
X129961000Y-100944714D01*
X130056238Y-100992333D01*
X130103857Y-101087571D01*
X130103857Y-101611380D01*
X130961000Y-101563761D02*
X130865761Y-101611380D01*
X130675285Y-101611380D01*
X130580047Y-101563761D01*
X130532428Y-101468523D01*
X130532428Y-101087571D01*
X130580047Y-100992333D01*
X130675285Y-100944714D01*
X130865761Y-100944714D01*
X130961000Y-100992333D01*
X131008619Y-101087571D01*
X131008619Y-101182809D01*
X130532428Y-101278047D01*
X131484809Y-101563761D02*
X131484809Y-101611380D01*
X131437190Y-101706619D01*
X131389571Y-101754238D01*
X132627666Y-101563761D02*
X132722904Y-101611380D01*
X132913380Y-101611380D01*
X133008619Y-101563761D01*
X133056238Y-101468523D01*
X133056238Y-101420904D01*
X133008619Y-101325666D01*
X132913380Y-101278047D01*
X132770523Y-101278047D01*
X132675285Y-101230428D01*
X132627666Y-101135190D01*
X132627666Y-101087571D01*
X132675285Y-100992333D01*
X132770523Y-100944714D01*
X132913380Y-100944714D01*
X133008619Y-100992333D01*
X133484809Y-100944714D02*
X133484809Y-101944714D01*
X133484809Y-100992333D02*
X133580047Y-100944714D01*
X133770523Y-100944714D01*
X133865761Y-100992333D01*
X133913380Y-101039952D01*
X133961000Y-101135190D01*
X133961000Y-101420904D01*
X133913380Y-101516142D01*
X133865761Y-101563761D01*
X133770523Y-101611380D01*
X133580047Y-101611380D01*
X133484809Y-101563761D01*
X134770523Y-101563761D02*
X134675285Y-101611380D01*
X134484809Y-101611380D01*
X134389571Y-101563761D01*
X134341952Y-101468523D01*
X134341952Y-101087571D01*
X134389571Y-100992333D01*
X134484809Y-100944714D01*
X134675285Y-100944714D01*
X134770523Y-100992333D01*
X134818142Y-101087571D01*
X134818142Y-101182809D01*
X134341952Y-101278047D01*
X135675285Y-101611380D02*
X135675285Y-101087571D01*
X135627666Y-100992333D01*
X135532428Y-100944714D01*
X135341952Y-100944714D01*
X135246714Y-100992333D01*
X135675285Y-101563761D02*
X135580047Y-101611380D01*
X135341952Y-101611380D01*
X135246714Y-101563761D01*
X135199095Y-101468523D01*
X135199095Y-101373285D01*
X135246714Y-101278047D01*
X135341952Y-101230428D01*
X135580047Y-101230428D01*
X135675285Y-101182809D01*
X136151476Y-101611380D02*
X136151476Y-100611380D01*
X136246714Y-101230428D02*
X136532428Y-101611380D01*
X136532428Y-100944714D02*
X136151476Y-101325666D01*
X137580047Y-100944714D02*
X137961000Y-100944714D01*
X137722904Y-100611380D02*
X137722904Y-101468523D01*
X137770523Y-101563761D01*
X137865761Y-101611380D01*
X137961000Y-101611380D01*
X138437190Y-101611380D02*
X138341952Y-101563761D01*
X138294333Y-101516142D01*
X138246714Y-101420904D01*
X138246714Y-101135190D01*
X138294333Y-101039952D01*
X138341952Y-100992333D01*
X138437190Y-100944714D01*
X138580047Y-100944714D01*
X138675285Y-100992333D01*
X138722904Y-101039952D01*
X138770523Y-101135190D01*
X138770523Y-101420904D01*
X138722904Y-101516142D01*
X138675285Y-101563761D01*
X138580047Y-101611380D01*
X138437190Y-101611380D01*
X139961000Y-101611380D02*
X139961000Y-100944714D01*
X139961000Y-101039952D02*
X140008619Y-100992333D01*
X140103857Y-100944714D01*
X140246714Y-100944714D01*
X140341952Y-100992333D01*
X140389571Y-101087571D01*
X140389571Y-101611380D01*
X140389571Y-101087571D02*
X140437190Y-100992333D01*
X140532428Y-100944714D01*
X140675285Y-100944714D01*
X140770523Y-100992333D01*
X140818142Y-101087571D01*
X140818142Y-101611380D01*
X141675285Y-101563761D02*
X141580047Y-101611380D01*
X141389571Y-101611380D01*
X141294333Y-101563761D01*
X141246714Y-101468523D01*
X141246714Y-101087571D01*
X141294333Y-100992333D01*
X141389571Y-100944714D01*
X141580047Y-100944714D01*
X141675285Y-100992333D01*
X141722904Y-101087571D01*
X141722904Y-101182809D01*
X141246714Y-101278047D01*
X125556238Y-102261380D02*
X126127666Y-102261380D01*
X125841952Y-103261380D02*
X125841952Y-102261380D01*
X126841952Y-103213761D02*
X126746714Y-103261380D01*
X126556238Y-103261380D01*
X126461000Y-103213761D01*
X126413380Y-103118523D01*
X126413380Y-102737571D01*
X126461000Y-102642333D01*
X126556238Y-102594714D01*
X126746714Y-102594714D01*
X126841952Y-102642333D01*
X126889571Y-102737571D01*
X126889571Y-102832809D01*
X126413380Y-102928047D01*
X127461000Y-103261380D02*
X127365761Y-103213761D01*
X127318142Y-103118523D01*
X127318142Y-102261380D01*
X127984809Y-103261380D02*
X127889571Y-103213761D01*
X127841952Y-103118523D01*
X127841952Y-102261380D01*
X129127666Y-103261380D02*
X129127666Y-102594714D01*
X129127666Y-102689952D02*
X129175285Y-102642333D01*
X129270523Y-102594714D01*
X129413380Y-102594714D01*
X129508619Y-102642333D01*
X129556238Y-102737571D01*
X129556238Y-103261380D01*
X129556238Y-102737571D02*
X129603857Y-102642333D01*
X129699095Y-102594714D01*
X129841952Y-102594714D01*
X129937190Y-102642333D01*
X129984809Y-102737571D01*
X129984809Y-103261380D01*
X130841952Y-103213761D02*
X130746714Y-103261380D01*
X130556238Y-103261380D01*
X130461000Y-103213761D01*
X130413380Y-103118523D01*
X130413380Y-102737571D01*
X130461000Y-102642333D01*
X130556238Y-102594714D01*
X130746714Y-102594714D01*
X130841952Y-102642333D01*
X130889571Y-102737571D01*
X130889571Y-102832809D01*
X130413380Y-102928047D01*
X131984809Y-102594714D02*
X132222904Y-103261380D01*
X132461000Y-102594714D02*
X132222904Y-103261380D01*
X132127666Y-103499476D01*
X132080047Y-103547095D01*
X131984809Y-103594714D01*
X132984809Y-103261380D02*
X132889571Y-103213761D01*
X132841952Y-103166142D01*
X132794333Y-103070904D01*
X132794333Y-102785190D01*
X132841952Y-102689952D01*
X132889571Y-102642333D01*
X132984809Y-102594714D01*
X133127666Y-102594714D01*
X133222904Y-102642333D01*
X133270523Y-102689952D01*
X133318142Y-102785190D01*
X133318142Y-103070904D01*
X133270523Y-103166142D01*
X133222904Y-103213761D01*
X133127666Y-103261380D01*
X132984809Y-103261380D01*
X134175285Y-102594714D02*
X134175285Y-103261380D01*
X133746714Y-102594714D02*
X133746714Y-103118523D01*
X133794333Y-103213761D01*
X133889571Y-103261380D01*
X134032428Y-103261380D01*
X134127666Y-103213761D01*
X134175285Y-103166142D01*
X134651476Y-103261380D02*
X134651476Y-102594714D01*
X134651476Y-102785190D02*
X134699095Y-102689952D01*
X134746714Y-102642333D01*
X134841952Y-102594714D01*
X134937190Y-102594714D01*
X135984809Y-103213761D02*
X136080047Y-103261380D01*
X136270523Y-103261380D01*
X136365761Y-103213761D01*
X136413380Y-103118523D01*
X136413380Y-103070904D01*
X136365761Y-102975666D01*
X136270523Y-102928047D01*
X136127666Y-102928047D01*
X136032428Y-102880428D01*
X135984809Y-102785190D01*
X135984809Y-102737571D01*
X136032428Y-102642333D01*
X136127666Y-102594714D01*
X136270523Y-102594714D01*
X136365761Y-102642333D01*
X136699095Y-102594714D02*
X137080047Y-102594714D01*
X136841952Y-102261380D02*
X136841952Y-103118523D01*
X136889571Y-103213761D01*
X136984809Y-103261380D01*
X137080047Y-103261380D01*
X137556238Y-103261380D02*
X137461000Y-103213761D01*
X137413380Y-103166142D01*
X137365761Y-103070904D01*
X137365761Y-102785190D01*
X137413380Y-102689952D01*
X137461000Y-102642333D01*
X137556238Y-102594714D01*
X137699095Y-102594714D01*
X137794333Y-102642333D01*
X137841952Y-102689952D01*
X137889571Y-102785190D01*
X137889571Y-103070904D01*
X137841952Y-103166142D01*
X137794333Y-103213761D01*
X137699095Y-103261380D01*
X137556238Y-103261380D01*
X138318142Y-103261380D02*
X138318142Y-102594714D01*
X138318142Y-102785190D02*
X138365761Y-102689952D01*
X138413380Y-102642333D01*
X138508619Y-102594714D01*
X138603857Y-102594714D01*
X138841952Y-102594714D02*
X139080047Y-103261380D01*
X139318142Y-102594714D02*
X139080047Y-103261380D01*
X138984809Y-103499476D01*
X138937190Y-103547095D01*
X138841952Y-103594714D01*
X124627666Y-104911380D02*
X124151476Y-104911380D01*
X124151476Y-103911380D01*
X125103857Y-104911380D02*
X125008619Y-104863761D01*
X124961000Y-104816142D01*
X124913380Y-104720904D01*
X124913380Y-104435190D01*
X124961000Y-104339952D01*
X125008619Y-104292333D01*
X125103857Y-104244714D01*
X125246714Y-104244714D01*
X125341952Y-104292333D01*
X125389571Y-104339952D01*
X125437190Y-104435190D01*
X125437190Y-104720904D01*
X125389571Y-104816142D01*
X125341952Y-104863761D01*
X125246714Y-104911380D01*
X125103857Y-104911380D01*
X126008619Y-104911380D02*
X125913380Y-104863761D01*
X125865761Y-104816142D01*
X125818142Y-104720904D01*
X125818142Y-104435190D01*
X125865761Y-104339952D01*
X125913380Y-104292333D01*
X126008619Y-104244714D01*
X126151476Y-104244714D01*
X126246714Y-104292333D01*
X126294333Y-104339952D01*
X126341952Y-104435190D01*
X126341952Y-104720904D01*
X126294333Y-104816142D01*
X126246714Y-104863761D01*
X126151476Y-104911380D01*
X126008619Y-104911380D01*
X126770523Y-104911380D02*
X126770523Y-103911380D01*
X126865761Y-104530428D02*
X127151476Y-104911380D01*
X127151476Y-104244714D02*
X126770523Y-104625666D01*
X128770523Y-104911380D02*
X128770523Y-104387571D01*
X128722904Y-104292333D01*
X128627666Y-104244714D01*
X128437190Y-104244714D01*
X128341952Y-104292333D01*
X128770523Y-104863761D02*
X128675285Y-104911380D01*
X128437190Y-104911380D01*
X128341952Y-104863761D01*
X128294333Y-104768523D01*
X128294333Y-104673285D01*
X128341952Y-104578047D01*
X128437190Y-104530428D01*
X128675285Y-104530428D01*
X128770523Y-104482809D01*
X129103857Y-104244714D02*
X129484809Y-104244714D01*
X129246714Y-103911380D02*
X129246714Y-104768523D01*
X129294333Y-104863761D01*
X129389571Y-104911380D01*
X129484809Y-104911380D01*
X130580047Y-104911380D02*
X130580047Y-104244714D01*
X130580047Y-104339952D02*
X130627666Y-104292333D01*
X130722904Y-104244714D01*
X130865761Y-104244714D01*
X130961000Y-104292333D01*
X131008619Y-104387571D01*
X131008619Y-104911380D01*
X131008619Y-104387571D02*
X131056238Y-104292333D01*
X131151476Y-104244714D01*
X131294333Y-104244714D01*
X131389571Y-104292333D01*
X131437190Y-104387571D01*
X131437190Y-104911380D01*
X132294333Y-104863761D02*
X132199095Y-104911380D01*
X132008619Y-104911380D01*
X131913380Y-104863761D01*
X131865761Y-104768523D01*
X131865761Y-104387571D01*
X131913380Y-104292333D01*
X132008619Y-104244714D01*
X132199095Y-104244714D01*
X132294333Y-104292333D01*
X132341952Y-104387571D01*
X132341952Y-104482809D01*
X131865761Y-104578047D01*
X132818142Y-104863761D02*
X132818142Y-104911380D01*
X132770523Y-105006619D01*
X132722904Y-105054238D01*
X133913380Y-104244714D02*
X134103857Y-104911380D01*
X134294333Y-104435190D01*
X134484809Y-104911380D01*
X134675285Y-104244714D01*
X135484809Y-104911380D02*
X135484809Y-104387571D01*
X135437190Y-104292333D01*
X135341952Y-104244714D01*
X135151476Y-104244714D01*
X135056238Y-104292333D01*
X135484809Y-104863761D02*
X135389571Y-104911380D01*
X135151476Y-104911380D01*
X135056238Y-104863761D01*
X135008619Y-104768523D01*
X135008619Y-104673285D01*
X135056238Y-104578047D01*
X135151476Y-104530428D01*
X135389571Y-104530428D01*
X135484809Y-104482809D01*
X135818142Y-104244714D02*
X136199095Y-104244714D01*
X135961000Y-103911380D02*
X135961000Y-104768523D01*
X136008619Y-104863761D01*
X136103857Y-104911380D01*
X136199095Y-104911380D01*
X136961000Y-104863761D02*
X136865761Y-104911380D01*
X136675285Y-104911380D01*
X136580047Y-104863761D01*
X136532428Y-104816142D01*
X136484809Y-104720904D01*
X136484809Y-104435190D01*
X136532428Y-104339952D01*
X136580047Y-104292333D01*
X136675285Y-104244714D01*
X136865761Y-104244714D01*
X136961000Y-104292333D01*
X137389571Y-104911380D02*
X137389571Y-103911380D01*
X137818142Y-104911380D02*
X137818142Y-104387571D01*
X137770523Y-104292333D01*
X137675285Y-104244714D01*
X137532428Y-104244714D01*
X137437190Y-104292333D01*
X137389571Y-104339952D01*
X139056238Y-104911380D02*
X139056238Y-104244714D01*
X139056238Y-104339952D02*
X139103857Y-104292333D01*
X139199095Y-104244714D01*
X139341952Y-104244714D01*
X139437190Y-104292333D01*
X139484809Y-104387571D01*
X139484809Y-104911380D01*
X139484809Y-104387571D02*
X139532428Y-104292333D01*
X139627666Y-104244714D01*
X139770523Y-104244714D01*
X139865761Y-104292333D01*
X139913380Y-104387571D01*
X139913380Y-104911380D01*
X140770523Y-104863761D02*
X140675285Y-104911380D01*
X140484809Y-104911380D01*
X140389571Y-104863761D01*
X140341952Y-104768523D01*
X140341952Y-104387571D01*
X140389571Y-104292333D01*
X140484809Y-104244714D01*
X140675285Y-104244714D01*
X140770523Y-104292333D01*
X140818142Y-104387571D01*
X140818142Y-104482809D01*
X140341952Y-104578047D01*
X126699095Y-106513761D02*
X126841952Y-106561380D01*
X127080047Y-106561380D01*
X127175285Y-106513761D01*
X127222904Y-106466142D01*
X127270523Y-106370904D01*
X127270523Y-106275666D01*
X127222904Y-106180428D01*
X127175285Y-106132809D01*
X127080047Y-106085190D01*
X126889571Y-106037571D01*
X126794333Y-105989952D01*
X126746714Y-105942333D01*
X126699095Y-105847095D01*
X126699095Y-105751857D01*
X126746714Y-105656619D01*
X126794333Y-105609000D01*
X126889571Y-105561380D01*
X127127666Y-105561380D01*
X127270523Y-105609000D01*
X128080047Y-106513761D02*
X127984809Y-106561380D01*
X127794333Y-106561380D01*
X127699095Y-106513761D01*
X127651476Y-106418523D01*
X127651476Y-106037571D01*
X127699095Y-105942333D01*
X127794333Y-105894714D01*
X127984809Y-105894714D01*
X128080047Y-105942333D01*
X128127666Y-106037571D01*
X128127666Y-106132809D01*
X127651476Y-106228047D01*
X128937190Y-106513761D02*
X128841952Y-106561380D01*
X128651476Y-106561380D01*
X128556238Y-106513761D01*
X128508619Y-106418523D01*
X128508619Y-106037571D01*
X128556238Y-105942333D01*
X128651476Y-105894714D01*
X128841952Y-105894714D01*
X128937190Y-105942333D01*
X128984809Y-106037571D01*
X128984809Y-106132809D01*
X128508619Y-106228047D01*
X130603857Y-106561380D02*
X130603857Y-106037571D01*
X130556238Y-105942333D01*
X130461000Y-105894714D01*
X130270523Y-105894714D01*
X130175285Y-105942333D01*
X130603857Y-106513761D02*
X130508619Y-106561380D01*
X130270523Y-106561380D01*
X130175285Y-106513761D01*
X130127666Y-106418523D01*
X130127666Y-106323285D01*
X130175285Y-106228047D01*
X130270523Y-106180428D01*
X130508619Y-106180428D01*
X130603857Y-106132809D01*
X131080047Y-105894714D02*
X131080047Y-106561380D01*
X131080047Y-105989952D02*
X131127666Y-105942333D01*
X131222904Y-105894714D01*
X131365761Y-105894714D01*
X131461000Y-105942333D01*
X131508619Y-106037571D01*
X131508619Y-106561380D01*
X132413380Y-106561380D02*
X132413380Y-105561380D01*
X132413380Y-106513761D02*
X132318142Y-106561380D01*
X132127666Y-106561380D01*
X132032428Y-106513761D01*
X131984809Y-106466142D01*
X131937190Y-106370904D01*
X131937190Y-106085190D01*
X131984809Y-105989952D01*
X132032428Y-105942333D01*
X132127666Y-105894714D01*
X132318142Y-105894714D01*
X132413380Y-105942333D01*
X133651476Y-106561380D02*
X133651476Y-105561380D01*
X133651476Y-105942333D02*
X133746714Y-105894714D01*
X133937190Y-105894714D01*
X134032428Y-105942333D01*
X134080047Y-105989952D01*
X134127666Y-106085190D01*
X134127666Y-106370904D01*
X134080047Y-106466142D01*
X134032428Y-106513761D01*
X133937190Y-106561380D01*
X133746714Y-106561380D01*
X133651476Y-106513761D01*
X134937190Y-106513761D02*
X134841952Y-106561380D01*
X134651476Y-106561380D01*
X134556238Y-106513761D01*
X134508619Y-106418523D01*
X134508619Y-106037571D01*
X134556238Y-105942333D01*
X134651476Y-105894714D01*
X134841952Y-105894714D01*
X134937190Y-105942333D01*
X134984809Y-106037571D01*
X134984809Y-106132809D01*
X134508619Y-106228047D01*
X135413380Y-106561380D02*
X135413380Y-105561380D01*
X135841952Y-106561380D02*
X135841952Y-106037571D01*
X135794333Y-105942333D01*
X135699095Y-105894714D01*
X135556238Y-105894714D01*
X135461000Y-105942333D01*
X135413380Y-105989952D01*
X136461000Y-106561380D02*
X136365761Y-106513761D01*
X136318142Y-106466142D01*
X136270523Y-106370904D01*
X136270523Y-106085190D01*
X136318142Y-105989952D01*
X136365761Y-105942333D01*
X136461000Y-105894714D01*
X136603857Y-105894714D01*
X136699095Y-105942333D01*
X136746714Y-105989952D01*
X136794333Y-106085190D01*
X136794333Y-106370904D01*
X136746714Y-106466142D01*
X136699095Y-106513761D01*
X136603857Y-106561380D01*
X136461000Y-106561380D01*
X137365761Y-106561380D02*
X137270523Y-106513761D01*
X137222904Y-106418523D01*
X137222904Y-105561380D01*
X138175285Y-106561380D02*
X138175285Y-105561380D01*
X138175285Y-106513761D02*
X138080047Y-106561380D01*
X137889571Y-106561380D01*
X137794333Y-106513761D01*
X137746714Y-106466142D01*
X137699095Y-106370904D01*
X137699095Y-106085190D01*
X137746714Y-105989952D01*
X137794333Y-105942333D01*
X137889571Y-105894714D01*
X138080047Y-105894714D01*
X138175285Y-105942333D01*
X122865761Y-109861380D02*
X122532428Y-109385190D01*
X122294333Y-109861380D02*
X122294333Y-108861380D01*
X122675285Y-108861380D01*
X122770523Y-108909000D01*
X122818142Y-108956619D01*
X122865761Y-109051857D01*
X122865761Y-109194714D01*
X122818142Y-109289952D01*
X122770523Y-109337571D01*
X122675285Y-109385190D01*
X122294333Y-109385190D01*
X123675285Y-109813761D02*
X123580047Y-109861380D01*
X123389571Y-109861380D01*
X123294333Y-109813761D01*
X123246714Y-109718523D01*
X123246714Y-109337571D01*
X123294333Y-109242333D01*
X123389571Y-109194714D01*
X123580047Y-109194714D01*
X123675285Y-109242333D01*
X123722904Y-109337571D01*
X123722904Y-109432809D01*
X123246714Y-109528047D01*
X124151476Y-109861380D02*
X124151476Y-109194714D01*
X124151476Y-109289952D02*
X124199095Y-109242333D01*
X124294333Y-109194714D01*
X124437190Y-109194714D01*
X124532428Y-109242333D01*
X124580047Y-109337571D01*
X124580047Y-109861380D01*
X124580047Y-109337571D02*
X124627666Y-109242333D01*
X124722904Y-109194714D01*
X124865761Y-109194714D01*
X124961000Y-109242333D01*
X125008619Y-109337571D01*
X125008619Y-109861380D01*
X125865761Y-109813761D02*
X125770523Y-109861380D01*
X125580047Y-109861380D01*
X125484809Y-109813761D01*
X125437190Y-109718523D01*
X125437190Y-109337571D01*
X125484809Y-109242333D01*
X125580047Y-109194714D01*
X125770523Y-109194714D01*
X125865761Y-109242333D01*
X125913380Y-109337571D01*
X125913380Y-109432809D01*
X125437190Y-109528047D01*
X126341952Y-109861380D02*
X126341952Y-109194714D01*
X126341952Y-109289952D02*
X126389571Y-109242333D01*
X126484809Y-109194714D01*
X126627666Y-109194714D01*
X126722904Y-109242333D01*
X126770523Y-109337571D01*
X126770523Y-109861380D01*
X126770523Y-109337571D02*
X126818142Y-109242333D01*
X126913380Y-109194714D01*
X127056238Y-109194714D01*
X127151476Y-109242333D01*
X127199095Y-109337571D01*
X127199095Y-109861380D01*
X127675285Y-109861380D02*
X127675285Y-108861380D01*
X127675285Y-109242333D02*
X127770523Y-109194714D01*
X127961000Y-109194714D01*
X128056238Y-109242333D01*
X128103857Y-109289952D01*
X128151476Y-109385190D01*
X128151476Y-109670904D01*
X128103857Y-109766142D01*
X128056238Y-109813761D01*
X127961000Y-109861380D01*
X127770523Y-109861380D01*
X127675285Y-109813761D01*
X128961000Y-109813761D02*
X128865761Y-109861380D01*
X128675285Y-109861380D01*
X128580047Y-109813761D01*
X128532428Y-109718523D01*
X128532428Y-109337571D01*
X128580047Y-109242333D01*
X128675285Y-109194714D01*
X128865761Y-109194714D01*
X128961000Y-109242333D01*
X129008619Y-109337571D01*
X129008619Y-109432809D01*
X128532428Y-109528047D01*
X129437190Y-109861380D02*
X129437190Y-109194714D01*
X129437190Y-109385190D02*
X129484809Y-109289952D01*
X129532428Y-109242333D01*
X129627666Y-109194714D01*
X129722904Y-109194714D01*
X130818142Y-109861380D02*
X130818142Y-109194714D01*
X130818142Y-109289952D02*
X130865761Y-109242333D01*
X130961000Y-109194714D01*
X131103857Y-109194714D01*
X131199095Y-109242333D01*
X131246714Y-109337571D01*
X131246714Y-109861380D01*
X131246714Y-109337571D02*
X131294333Y-109242333D01*
X131389571Y-109194714D01*
X131532428Y-109194714D01*
X131627666Y-109242333D01*
X131675285Y-109337571D01*
X131675285Y-109861380D01*
X132532428Y-109813761D02*
X132437190Y-109861380D01*
X132246714Y-109861380D01*
X132151476Y-109813761D01*
X132103857Y-109718523D01*
X132103857Y-109337571D01*
X132151476Y-109242333D01*
X132246714Y-109194714D01*
X132437190Y-109194714D01*
X132532428Y-109242333D01*
X132580047Y-109337571D01*
X132580047Y-109432809D01*
X132103857Y-109528047D01*
X133056238Y-109813761D02*
X133056238Y-109861380D01*
X133008619Y-109956619D01*
X132961000Y-110004238D01*
X134103857Y-109194714D02*
X134484809Y-109194714D01*
X134246714Y-108861380D02*
X134246714Y-109718523D01*
X134294333Y-109813761D01*
X134389571Y-109861380D01*
X134484809Y-109861380D01*
X134818142Y-109861380D02*
X134818142Y-108861380D01*
X135246714Y-109861380D02*
X135246714Y-109337571D01*
X135199095Y-109242333D01*
X135103857Y-109194714D01*
X134961000Y-109194714D01*
X134865761Y-109242333D01*
X134818142Y-109289952D01*
X135722904Y-109861380D02*
X135722904Y-109194714D01*
X135722904Y-108861380D02*
X135675285Y-108909000D01*
X135722904Y-108956619D01*
X135770523Y-108909000D01*
X135722904Y-108861380D01*
X135722904Y-108956619D01*
X136199095Y-109194714D02*
X136199095Y-109861380D01*
X136199095Y-109289952D02*
X136246714Y-109242333D01*
X136341952Y-109194714D01*
X136484809Y-109194714D01*
X136580047Y-109242333D01*
X136627666Y-109337571D01*
X136627666Y-109861380D01*
X137103857Y-109861380D02*
X137103857Y-108861380D01*
X137199095Y-109480428D02*
X137484809Y-109861380D01*
X137484809Y-109194714D02*
X137103857Y-109575666D01*
X138818142Y-109861380D02*
X138722904Y-109813761D01*
X138675285Y-109766142D01*
X138627666Y-109670904D01*
X138627666Y-109385190D01*
X138675285Y-109289952D01*
X138722904Y-109242333D01*
X138818142Y-109194714D01*
X138961000Y-109194714D01*
X139056238Y-109242333D01*
X139103857Y-109289952D01*
X139151476Y-109385190D01*
X139151476Y-109670904D01*
X139103857Y-109766142D01*
X139056238Y-109813761D01*
X138961000Y-109861380D01*
X138818142Y-109861380D01*
X139437190Y-109194714D02*
X139818142Y-109194714D01*
X139580047Y-109861380D02*
X139580047Y-109004238D01*
X139627666Y-108909000D01*
X139722904Y-108861380D01*
X139818142Y-108861380D01*
X140913380Y-109861380D02*
X140913380Y-109194714D01*
X140913380Y-109289952D02*
X140961000Y-109242333D01*
X141056238Y-109194714D01*
X141199095Y-109194714D01*
X141294333Y-109242333D01*
X141341952Y-109337571D01*
X141341952Y-109861380D01*
X141341952Y-109337571D02*
X141389571Y-109242333D01*
X141484809Y-109194714D01*
X141627666Y-109194714D01*
X141722904Y-109242333D01*
X141770523Y-109337571D01*
X141770523Y-109861380D01*
X142627666Y-109813761D02*
X142532428Y-109861380D01*
X142341952Y-109861380D01*
X142246714Y-109813761D01*
X142199095Y-109718523D01*
X142199095Y-109337571D01*
X142246714Y-109242333D01*
X142341952Y-109194714D01*
X142532428Y-109194714D01*
X142627666Y-109242333D01*
X142675285Y-109337571D01*
X142675285Y-109432809D01*
X142199095Y-109528047D01*
X121889571Y-111511380D02*
X121889571Y-110511380D01*
X122270523Y-110511380D01*
X122365761Y-110559000D01*
X122413380Y-110606619D01*
X122461000Y-110701857D01*
X122461000Y-110844714D01*
X122413380Y-110939952D01*
X122365761Y-110987571D01*
X122270523Y-111035190D01*
X121889571Y-111035190D01*
X122889571Y-111511380D02*
X122889571Y-110844714D01*
X122889571Y-110511380D02*
X122841952Y-110559000D01*
X122889571Y-110606619D01*
X122937190Y-110559000D01*
X122889571Y-110511380D01*
X122889571Y-110606619D01*
X123794333Y-111463761D02*
X123699095Y-111511380D01*
X123508619Y-111511380D01*
X123413380Y-111463761D01*
X123365761Y-111416142D01*
X123318142Y-111320904D01*
X123318142Y-111035190D01*
X123365761Y-110939952D01*
X123413380Y-110892333D01*
X123508619Y-110844714D01*
X123699095Y-110844714D01*
X123794333Y-110892333D01*
X124080047Y-110844714D02*
X124461000Y-110844714D01*
X124222904Y-110511380D02*
X124222904Y-111368523D01*
X124270523Y-111463761D01*
X124365761Y-111511380D01*
X124461000Y-111511380D01*
X125222904Y-110844714D02*
X125222904Y-111511380D01*
X124794333Y-110844714D02*
X124794333Y-111368523D01*
X124841952Y-111463761D01*
X124937190Y-111511380D01*
X125080047Y-111511380D01*
X125175285Y-111463761D01*
X125222904Y-111416142D01*
X125699095Y-111511380D02*
X125699095Y-110844714D01*
X125699095Y-111035190D02*
X125746714Y-110939952D01*
X125794333Y-110892333D01*
X125889571Y-110844714D01*
X125984809Y-110844714D01*
X126699095Y-111463761D02*
X126603857Y-111511380D01*
X126413380Y-111511380D01*
X126318142Y-111463761D01*
X126270523Y-111368523D01*
X126270523Y-110987571D01*
X126318142Y-110892333D01*
X126413380Y-110844714D01*
X126603857Y-110844714D01*
X126699095Y-110892333D01*
X126746714Y-110987571D01*
X126746714Y-111082809D01*
X126270523Y-111178047D01*
X127937190Y-111511380D02*
X127937190Y-110844714D01*
X127937190Y-110939952D02*
X127984809Y-110892333D01*
X128080047Y-110844714D01*
X128222904Y-110844714D01*
X128318142Y-110892333D01*
X128365761Y-110987571D01*
X128365761Y-111511380D01*
X128365761Y-110987571D02*
X128413380Y-110892333D01*
X128508619Y-110844714D01*
X128651476Y-110844714D01*
X128746714Y-110892333D01*
X128794333Y-110987571D01*
X128794333Y-111511380D01*
X129651476Y-111463761D02*
X129556238Y-111511380D01*
X129365761Y-111511380D01*
X129270523Y-111463761D01*
X129222904Y-111368523D01*
X129222904Y-110987571D01*
X129270523Y-110892333D01*
X129365761Y-110844714D01*
X129556238Y-110844714D01*
X129651476Y-110892333D01*
X129699095Y-110987571D01*
X129699095Y-111082809D01*
X129222904Y-111178047D01*
X130175285Y-111463761D02*
X130175285Y-111511380D01*
X130127666Y-111606619D01*
X130080047Y-111654238D01*
X131365761Y-110844714D02*
X131365761Y-111511380D01*
X131365761Y-110939952D02*
X131413380Y-110892333D01*
X131508619Y-110844714D01*
X131651476Y-110844714D01*
X131746714Y-110892333D01*
X131794333Y-110987571D01*
X131794333Y-111511380D01*
X132651476Y-111463761D02*
X132556238Y-111511380D01*
X132365761Y-111511380D01*
X132270523Y-111463761D01*
X132222904Y-111368523D01*
X132222904Y-110987571D01*
X132270523Y-110892333D01*
X132365761Y-110844714D01*
X132556238Y-110844714D01*
X132651476Y-110892333D01*
X132699095Y-110987571D01*
X132699095Y-111082809D01*
X132222904Y-111178047D01*
X133032428Y-110844714D02*
X133270523Y-111511380D01*
X133508619Y-110844714D01*
X134270523Y-111463761D02*
X134175285Y-111511380D01*
X133984809Y-111511380D01*
X133889571Y-111463761D01*
X133841952Y-111368523D01*
X133841952Y-110987571D01*
X133889571Y-110892333D01*
X133984809Y-110844714D01*
X134175285Y-110844714D01*
X134270523Y-110892333D01*
X134318142Y-110987571D01*
X134318142Y-111082809D01*
X133841952Y-111178047D01*
X134746714Y-111511380D02*
X134746714Y-110844714D01*
X134746714Y-111035190D02*
X134794333Y-110939952D01*
X134841952Y-110892333D01*
X134937190Y-110844714D01*
X135032428Y-110844714D01*
X135984809Y-110844714D02*
X136365761Y-110844714D01*
X136127666Y-111511380D02*
X136127666Y-110654238D01*
X136175285Y-110559000D01*
X136270523Y-110511380D01*
X136365761Y-110511380D01*
X136841952Y-111511380D02*
X136746714Y-111463761D01*
X136699095Y-111416142D01*
X136651476Y-111320904D01*
X136651476Y-111035190D01*
X136699095Y-110939952D01*
X136746714Y-110892333D01*
X136841952Y-110844714D01*
X136984809Y-110844714D01*
X137080047Y-110892333D01*
X137127666Y-110939952D01*
X137175285Y-111035190D01*
X137175285Y-111320904D01*
X137127666Y-111416142D01*
X137080047Y-111463761D01*
X136984809Y-111511380D01*
X136841952Y-111511380D01*
X137603857Y-111511380D02*
X137603857Y-110844714D01*
X137603857Y-111035190D02*
X137651476Y-110939952D01*
X137699095Y-110892333D01*
X137794333Y-110844714D01*
X137889571Y-110844714D01*
X138651476Y-110844714D02*
X138651476Y-111654238D01*
X138603857Y-111749476D01*
X138556238Y-111797095D01*
X138461000Y-111844714D01*
X138318142Y-111844714D01*
X138222904Y-111797095D01*
X138651476Y-111463761D02*
X138556238Y-111511380D01*
X138365761Y-111511380D01*
X138270523Y-111463761D01*
X138222904Y-111416142D01*
X138175285Y-111320904D01*
X138175285Y-111035190D01*
X138222904Y-110939952D01*
X138270523Y-110892333D01*
X138365761Y-110844714D01*
X138556238Y-110844714D01*
X138651476Y-110892333D01*
X139508619Y-111463761D02*
X139413380Y-111511380D01*
X139222904Y-111511380D01*
X139127666Y-111463761D01*
X139080047Y-111368523D01*
X139080047Y-110987571D01*
X139127666Y-110892333D01*
X139222904Y-110844714D01*
X139413380Y-110844714D01*
X139508619Y-110892333D01*
X139556238Y-110987571D01*
X139556238Y-111082809D01*
X139080047Y-111178047D01*
X139841952Y-110844714D02*
X140222904Y-110844714D01*
X139984809Y-110511380D02*
X139984809Y-111368523D01*
X140032428Y-111463761D01*
X140127666Y-111511380D01*
X140222904Y-111511380D01*
X141318142Y-111511380D02*
X141318142Y-110844714D01*
X141318142Y-110939952D02*
X141365761Y-110892333D01*
X141461000Y-110844714D01*
X141603857Y-110844714D01*
X141699095Y-110892333D01*
X141746714Y-110987571D01*
X141746714Y-111511380D01*
X141746714Y-110987571D02*
X141794333Y-110892333D01*
X141889571Y-110844714D01*
X142032428Y-110844714D01*
X142127666Y-110892333D01*
X142175285Y-110987571D01*
X142175285Y-111511380D01*
X143032428Y-111463761D02*
X142937190Y-111511380D01*
X142746714Y-111511380D01*
X142651476Y-111463761D01*
X142603857Y-111368523D01*
X142603857Y-110987571D01*
X142651476Y-110892333D01*
X142746714Y-110844714D01*
X142937190Y-110844714D01*
X143032428Y-110892333D01*
X143080047Y-110987571D01*
X143080047Y-111082809D01*
X142603857Y-111178047D01*
X125770523Y-113066142D02*
X125722904Y-113113761D01*
X125580047Y-113161380D01*
X125484809Y-113161380D01*
X125341952Y-113113761D01*
X125246714Y-113018523D01*
X125199095Y-112923285D01*
X125151476Y-112732809D01*
X125151476Y-112589952D01*
X125199095Y-112399476D01*
X125246714Y-112304238D01*
X125341952Y-112209000D01*
X125484809Y-112161380D01*
X125580047Y-112161380D01*
X125722904Y-112209000D01*
X125770523Y-112256619D01*
X126199095Y-113161380D02*
X126199095Y-112161380D01*
X126627666Y-113161380D02*
X126627666Y-112637571D01*
X126580047Y-112542333D01*
X126484809Y-112494714D01*
X126341952Y-112494714D01*
X126246714Y-112542333D01*
X126199095Y-112589952D01*
X127484809Y-113113761D02*
X127389571Y-113161380D01*
X127199095Y-113161380D01*
X127103857Y-113113761D01*
X127056238Y-113018523D01*
X127056238Y-112637571D01*
X127103857Y-112542333D01*
X127199095Y-112494714D01*
X127389571Y-112494714D01*
X127484809Y-112542333D01*
X127532428Y-112637571D01*
X127532428Y-112732809D01*
X127056238Y-112828047D01*
X127961000Y-113161380D02*
X127961000Y-112494714D01*
X127961000Y-112685190D02*
X128008619Y-112589952D01*
X128056238Y-112542333D01*
X128151476Y-112494714D01*
X128246714Y-112494714D01*
X128580047Y-113161380D02*
X128580047Y-112494714D01*
X128580047Y-112161380D02*
X128532428Y-112209000D01*
X128580047Y-112256619D01*
X128627666Y-112209000D01*
X128580047Y-112161380D01*
X128580047Y-112256619D01*
X129008619Y-113113761D02*
X129103857Y-113161380D01*
X129294333Y-113161380D01*
X129389571Y-113113761D01*
X129437190Y-113018523D01*
X129437190Y-112970904D01*
X129389571Y-112875666D01*
X129294333Y-112828047D01*
X129151476Y-112828047D01*
X129056238Y-112780428D01*
X129008619Y-112685190D01*
X129008619Y-112637571D01*
X129056238Y-112542333D01*
X129151476Y-112494714D01*
X129294333Y-112494714D01*
X129389571Y-112542333D01*
X129865761Y-113161380D02*
X129865761Y-112161380D01*
X130294333Y-113161380D02*
X130294333Y-112637571D01*
X130246714Y-112542333D01*
X130151476Y-112494714D01*
X130008619Y-112494714D01*
X129913380Y-112542333D01*
X129865761Y-112589952D01*
X131532428Y-113161380D02*
X131532428Y-112494714D01*
X131532428Y-112589952D02*
X131580047Y-112542333D01*
X131675285Y-112494714D01*
X131818142Y-112494714D01*
X131913380Y-112542333D01*
X131961000Y-112637571D01*
X131961000Y-113161380D01*
X131961000Y-112637571D02*
X132008619Y-112542333D01*
X132103857Y-112494714D01*
X132246714Y-112494714D01*
X132341952Y-112542333D01*
X132389571Y-112637571D01*
X132389571Y-113161380D01*
X132770523Y-112494714D02*
X133008619Y-113161380D01*
X133246714Y-112494714D02*
X133008619Y-113161380D01*
X132913380Y-113399476D01*
X132865761Y-113447095D01*
X132770523Y-113494714D01*
X134389571Y-113161380D02*
X134389571Y-112494714D01*
X134389571Y-112589952D02*
X134437190Y-112542333D01*
X134532428Y-112494714D01*
X134675285Y-112494714D01*
X134770523Y-112542333D01*
X134818142Y-112637571D01*
X134818142Y-113161380D01*
X134818142Y-112637571D02*
X134865761Y-112542333D01*
X134961000Y-112494714D01*
X135103857Y-112494714D01*
X135199095Y-112542333D01*
X135246714Y-112637571D01*
X135246714Y-113161380D01*
X136103857Y-113113761D02*
X136008619Y-113161380D01*
X135818142Y-113161380D01*
X135722904Y-113113761D01*
X135675285Y-113018523D01*
X135675285Y-112637571D01*
X135722904Y-112542333D01*
X135818142Y-112494714D01*
X136008619Y-112494714D01*
X136103857Y-112542333D01*
X136151476Y-112637571D01*
X136151476Y-112732809D01*
X135675285Y-112828047D01*
X136580047Y-113161380D02*
X136580047Y-112494714D01*
X136580047Y-112589952D02*
X136627666Y-112542333D01*
X136722904Y-112494714D01*
X136865761Y-112494714D01*
X136961000Y-112542333D01*
X137008619Y-112637571D01*
X137008619Y-113161380D01*
X137008619Y-112637571D02*
X137056238Y-112542333D01*
X137151476Y-112494714D01*
X137294333Y-112494714D01*
X137389571Y-112542333D01*
X137437190Y-112637571D01*
X137437190Y-113161380D01*
X138056238Y-113161380D02*
X137961000Y-113113761D01*
X137913380Y-113066142D01*
X137865761Y-112970904D01*
X137865761Y-112685190D01*
X137913380Y-112589952D01*
X137961000Y-112542333D01*
X138056238Y-112494714D01*
X138199095Y-112494714D01*
X138294333Y-112542333D01*
X138341952Y-112589952D01*
X138389571Y-112685190D01*
X138389571Y-112970904D01*
X138341952Y-113066142D01*
X138294333Y-113113761D01*
X138199095Y-113161380D01*
X138056238Y-113161380D01*
X138818142Y-113161380D02*
X138818142Y-112494714D01*
X138818142Y-112685190D02*
X138865761Y-112589952D01*
X138913380Y-112542333D01*
X139008619Y-112494714D01*
X139103857Y-112494714D01*
X139341952Y-112494714D02*
X139580047Y-113161380D01*
X139818142Y-112494714D02*
X139580047Y-113161380D01*
X139484809Y-113399476D01*
X139437190Y-113447095D01*
X139341952Y-113494714D01*
D11*
X206500000Y-45260000D02*
X206500000Y-46760000D01*
X207750000Y-49260000D02*
X212250000Y-49260000D01*
X213500000Y-46760000D02*
X213500000Y-45260000D01*
X212250000Y-42760000D02*
X207750000Y-42760000D01*
X124060000Y-45260000D02*
X124060000Y-46760000D01*
X125310000Y-49260000D02*
X129810000Y-49260000D01*
X131060000Y-46760000D02*
X131060000Y-45260000D01*
X129810000Y-42760000D02*
X125310000Y-42760000D01*
X168256000Y-84270000D02*
X169056000Y-84270000D01*
X168256000Y-80830000D02*
X169056000Y-80830000D01*
X168256000Y-90620000D02*
X169056000Y-90620000D01*
X168256000Y-87180000D02*
X169056000Y-87180000D01*
X206775000Y-73845000D02*
X205975000Y-73845000D01*
X206775000Y-77285000D02*
X205975000Y-77285000D01*
X197954000Y-108770000D02*
X197954000Y-107970000D01*
X194514000Y-108770000D02*
X194514000Y-107970000D01*
X187510000Y-71736000D02*
X187510000Y-72536000D01*
X190950000Y-71736000D02*
X190950000Y-72536000D01*
X163595000Y-72956000D02*
X162795000Y-72956000D01*
X163595000Y-76396000D02*
X162795000Y-76396000D01*
X147135000Y-100730000D02*
X147135000Y-99930000D01*
X143695000Y-100730000D02*
X143695000Y-99930000D01*
X140520000Y-63735000D02*
X140520000Y-64535000D01*
X143960000Y-63735000D02*
X143960000Y-64535000D01*
X208451267Y-117600000D02*
X208108733Y-117600000D01*
X208451267Y-118620000D02*
X208108733Y-118620000D01*
X155700000Y-113493733D02*
X155700000Y-113836267D01*
X156720000Y-113493733D02*
X156720000Y-113836267D01*
X205540000Y-54780000D02*
X205540000Y-56110000D01*
X204210000Y-54780000D02*
X205540000Y-54780000D01*
X202940000Y-54780000D02*
X202940000Y-57440000D01*
X202940000Y-57440000D02*
X182560000Y-57440000D01*
X202940000Y-54780000D02*
X182560000Y-54780000D01*
X182560000Y-54780000D02*
X182560000Y-57440000D01*
X157540000Y-54780000D02*
X157540000Y-56110000D01*
X156210000Y-54780000D02*
X157540000Y-54780000D01*
X154940000Y-54780000D02*
X154940000Y-57440000D01*
X154940000Y-57440000D02*
X134560000Y-57440000D01*
X154940000Y-54780000D02*
X134560000Y-54780000D01*
X134560000Y-54780000D02*
X134560000Y-57440000D01*
X180020000Y-119440000D02*
X180020000Y-118110000D01*
X181350000Y-119440000D02*
X180020000Y-119440000D01*
X182620000Y-119440000D02*
X182620000Y-116780000D01*
X182620000Y-116780000D02*
X205540000Y-116780000D01*
X182620000Y-119440000D02*
X205540000Y-119440000D01*
X205540000Y-119440000D02*
X205540000Y-116780000D01*
X132020000Y-119440000D02*
X132020000Y-118110000D01*
X133350000Y-119440000D02*
X132020000Y-119440000D01*
X134620000Y-119440000D02*
X134620000Y-116780000D01*
X134620000Y-116780000D02*
X157540000Y-116780000D01*
X134620000Y-119440000D02*
X157540000Y-119440000D01*
X157540000Y-119440000D02*
X157540000Y-116780000D01*
D10*
X208666666Y-50664761D02*
X208809523Y-50712380D01*
X209047619Y-50712380D01*
X209142857Y-50664761D01*
X209190476Y-50617142D01*
X209238095Y-50521904D01*
X209238095Y-50426666D01*
X209190476Y-50331428D01*
X209142857Y-50283809D01*
X209047619Y-50236190D01*
X208857142Y-50188571D01*
X208761904Y-50140952D01*
X208714285Y-50093333D01*
X208666666Y-49998095D01*
X208666666Y-49902857D01*
X208714285Y-49807619D01*
X208761904Y-49760000D01*
X208857142Y-49712380D01*
X209095238Y-49712380D01*
X209238095Y-49760000D01*
X209571428Y-49712380D02*
X209809523Y-50712380D01*
X210000000Y-49998095D01*
X210190476Y-50712380D01*
X210428571Y-49712380D01*
X210761904Y-49807619D02*
X210809523Y-49760000D01*
X210904761Y-49712380D01*
X211142857Y-49712380D01*
X211238095Y-49760000D01*
X211285714Y-49807619D01*
X211333333Y-49902857D01*
X211333333Y-49998095D01*
X211285714Y-50140952D01*
X210714285Y-50712380D01*
X211333333Y-50712380D01*
X126226666Y-50664761D02*
X126369523Y-50712380D01*
X126607619Y-50712380D01*
X126702857Y-50664761D01*
X126750476Y-50617142D01*
X126798095Y-50521904D01*
X126798095Y-50426666D01*
X126750476Y-50331428D01*
X126702857Y-50283809D01*
X126607619Y-50236190D01*
X126417142Y-50188571D01*
X126321904Y-50140952D01*
X126274285Y-50093333D01*
X126226666Y-49998095D01*
X126226666Y-49902857D01*
X126274285Y-49807619D01*
X126321904Y-49760000D01*
X126417142Y-49712380D01*
X126655238Y-49712380D01*
X126798095Y-49760000D01*
X127131428Y-49712380D02*
X127369523Y-50712380D01*
X127560000Y-49998095D01*
X127750476Y-50712380D01*
X127988571Y-49712380D01*
X128893333Y-50712380D02*
X128321904Y-50712380D01*
X128607619Y-50712380D02*
X128607619Y-49712380D01*
X128512380Y-49855238D01*
X128417142Y-49950476D01*
X128321904Y-49998095D01*
X167965523Y-85602380D02*
X167632190Y-85126190D01*
X167394095Y-85602380D02*
X167394095Y-84602380D01*
X167775047Y-84602380D01*
X167870285Y-84650000D01*
X167917904Y-84697619D01*
X167965523Y-84792857D01*
X167965523Y-84935714D01*
X167917904Y-85030952D01*
X167870285Y-85078571D01*
X167775047Y-85126190D01*
X167394095Y-85126190D01*
X168394095Y-85602380D02*
X168394095Y-84602380D01*
X168965523Y-85602380D01*
X168965523Y-84602380D01*
X169584571Y-85030952D02*
X169489333Y-84983333D01*
X169441714Y-84935714D01*
X169394095Y-84840476D01*
X169394095Y-84792857D01*
X169441714Y-84697619D01*
X169489333Y-84650000D01*
X169584571Y-84602380D01*
X169775047Y-84602380D01*
X169870285Y-84650000D01*
X169917904Y-84697619D01*
X169965523Y-84792857D01*
X169965523Y-84840476D01*
X169917904Y-84935714D01*
X169870285Y-84983333D01*
X169775047Y-85030952D01*
X169584571Y-85030952D01*
X169489333Y-85078571D01*
X169441714Y-85126190D01*
X169394095Y-85221428D01*
X169394095Y-85411904D01*
X169441714Y-85507142D01*
X169489333Y-85554761D01*
X169584571Y-85602380D01*
X169775047Y-85602380D01*
X169870285Y-85554761D01*
X169917904Y-85507142D01*
X169965523Y-85411904D01*
X169965523Y-85221428D01*
X169917904Y-85126190D01*
X169870285Y-85078571D01*
X169775047Y-85030952D01*
X167965523Y-91952380D02*
X167632190Y-91476190D01*
X167394095Y-91952380D02*
X167394095Y-90952380D01*
X167775047Y-90952380D01*
X167870285Y-91000000D01*
X167917904Y-91047619D01*
X167965523Y-91142857D01*
X167965523Y-91285714D01*
X167917904Y-91380952D01*
X167870285Y-91428571D01*
X167775047Y-91476190D01*
X167394095Y-91476190D01*
X168394095Y-91952380D02*
X168394095Y-90952380D01*
X168965523Y-91952380D01*
X168965523Y-90952380D01*
X169346476Y-90952380D02*
X170013142Y-90952380D01*
X169584571Y-91952380D01*
X205684523Y-73417380D02*
X205351190Y-72941190D01*
X205113095Y-73417380D02*
X205113095Y-72417380D01*
X205494047Y-72417380D01*
X205589285Y-72465000D01*
X205636904Y-72512619D01*
X205684523Y-72607857D01*
X205684523Y-72750714D01*
X205636904Y-72845952D01*
X205589285Y-72893571D01*
X205494047Y-72941190D01*
X205113095Y-72941190D01*
X206113095Y-73417380D02*
X206113095Y-72417380D01*
X206684523Y-73417380D01*
X206684523Y-72417380D01*
X207589285Y-72417380D02*
X207398809Y-72417380D01*
X207303571Y-72465000D01*
X207255952Y-72512619D01*
X207160714Y-72655476D01*
X207113095Y-72845952D01*
X207113095Y-73226904D01*
X207160714Y-73322142D01*
X207208333Y-73369761D01*
X207303571Y-73417380D01*
X207494047Y-73417380D01*
X207589285Y-73369761D01*
X207636904Y-73322142D01*
X207684523Y-73226904D01*
X207684523Y-72988809D01*
X207636904Y-72893571D01*
X207589285Y-72845952D01*
X207494047Y-72798333D01*
X207303571Y-72798333D01*
X207208333Y-72845952D01*
X207160714Y-72893571D01*
X207113095Y-72988809D01*
X199286380Y-109060476D02*
X198810190Y-109393809D01*
X199286380Y-109631904D02*
X198286380Y-109631904D01*
X198286380Y-109250952D01*
X198334000Y-109155714D01*
X198381619Y-109108095D01*
X198476857Y-109060476D01*
X198619714Y-109060476D01*
X198714952Y-109108095D01*
X198762571Y-109155714D01*
X198810190Y-109250952D01*
X198810190Y-109631904D01*
X199286380Y-108631904D02*
X198286380Y-108631904D01*
X199286380Y-108060476D01*
X198286380Y-108060476D01*
X198286380Y-107108095D02*
X198286380Y-107584285D01*
X198762571Y-107631904D01*
X198714952Y-107584285D01*
X198667333Y-107489047D01*
X198667333Y-107250952D01*
X198714952Y-107155714D01*
X198762571Y-107108095D01*
X198857809Y-107060476D01*
X199095904Y-107060476D01*
X199191142Y-107108095D01*
X199238761Y-107155714D01*
X199286380Y-107250952D01*
X199286380Y-107489047D01*
X199238761Y-107584285D01*
X199191142Y-107631904D01*
X187082380Y-72826476D02*
X186606190Y-73159809D01*
X187082380Y-73397904D02*
X186082380Y-73397904D01*
X186082380Y-73016952D01*
X186130000Y-72921714D01*
X186177619Y-72874095D01*
X186272857Y-72826476D01*
X186415714Y-72826476D01*
X186510952Y-72874095D01*
X186558571Y-72921714D01*
X186606190Y-73016952D01*
X186606190Y-73397904D01*
X187082380Y-72397904D02*
X186082380Y-72397904D01*
X187082380Y-71826476D01*
X186082380Y-71826476D01*
X186415714Y-70921714D02*
X187082380Y-70921714D01*
X186034761Y-71159809D02*
X186749047Y-71397904D01*
X186749047Y-70778857D01*
X162504523Y-72528380D02*
X162171190Y-72052190D01*
X161933095Y-72528380D02*
X161933095Y-71528380D01*
X162314047Y-71528380D01*
X162409285Y-71576000D01*
X162456904Y-71623619D01*
X162504523Y-71718857D01*
X162504523Y-71861714D01*
X162456904Y-71956952D01*
X162409285Y-72004571D01*
X162314047Y-72052190D01*
X161933095Y-72052190D01*
X162933095Y-72528380D02*
X162933095Y-71528380D01*
X163504523Y-72528380D01*
X163504523Y-71528380D01*
X163885476Y-71528380D02*
X164504523Y-71528380D01*
X164171190Y-71909333D01*
X164314047Y-71909333D01*
X164409285Y-71956952D01*
X164456904Y-72004571D01*
X164504523Y-72099809D01*
X164504523Y-72337904D01*
X164456904Y-72433142D01*
X164409285Y-72480761D01*
X164314047Y-72528380D01*
X164028333Y-72528380D01*
X163933095Y-72480761D01*
X163885476Y-72433142D01*
X148467380Y-101020476D02*
X147991190Y-101353809D01*
X148467380Y-101591904D02*
X147467380Y-101591904D01*
X147467380Y-101210952D01*
X147515000Y-101115714D01*
X147562619Y-101068095D01*
X147657857Y-101020476D01*
X147800714Y-101020476D01*
X147895952Y-101068095D01*
X147943571Y-101115714D01*
X147991190Y-101210952D01*
X147991190Y-101591904D01*
X148467380Y-100591904D02*
X147467380Y-100591904D01*
X148467380Y-100020476D01*
X147467380Y-100020476D01*
X147562619Y-99591904D02*
X147515000Y-99544285D01*
X147467380Y-99449047D01*
X147467380Y-99210952D01*
X147515000Y-99115714D01*
X147562619Y-99068095D01*
X147657857Y-99020476D01*
X147753095Y-99020476D01*
X147895952Y-99068095D01*
X148467380Y-99639523D01*
X148467380Y-99020476D01*
X140092380Y-64825476D02*
X139616190Y-65158809D01*
X140092380Y-65396904D02*
X139092380Y-65396904D01*
X139092380Y-65015952D01*
X139140000Y-64920714D01*
X139187619Y-64873095D01*
X139282857Y-64825476D01*
X139425714Y-64825476D01*
X139520952Y-64873095D01*
X139568571Y-64920714D01*
X139616190Y-65015952D01*
X139616190Y-65396904D01*
X140092380Y-64396904D02*
X139092380Y-64396904D01*
X140092380Y-63825476D01*
X139092380Y-63825476D01*
X140092380Y-62825476D02*
X140092380Y-63396904D01*
X140092380Y-63111190D02*
X139092380Y-63111190D01*
X139235238Y-63206428D01*
X139330476Y-63301666D01*
X139378095Y-63396904D01*
X208113333Y-119992380D02*
X207780000Y-119516190D01*
X207541904Y-119992380D02*
X207541904Y-118992380D01*
X207922857Y-118992380D01*
X208018095Y-119040000D01*
X208065714Y-119087619D01*
X208113333Y-119182857D01*
X208113333Y-119325714D01*
X208065714Y-119420952D01*
X208018095Y-119468571D01*
X207922857Y-119516190D01*
X207541904Y-119516190D01*
X208446666Y-118992380D02*
X209065714Y-118992380D01*
X208732380Y-119373333D01*
X208875238Y-119373333D01*
X208970476Y-119420952D01*
X209018095Y-119468571D01*
X209065714Y-119563809D01*
X209065714Y-119801904D01*
X209018095Y-119897142D01*
X208970476Y-119944761D01*
X208875238Y-119992380D01*
X208589523Y-119992380D01*
X208494285Y-119944761D01*
X208446666Y-119897142D01*
X158092380Y-113831666D02*
X157616190Y-114165000D01*
X158092380Y-114403095D02*
X157092380Y-114403095D01*
X157092380Y-114022142D01*
X157140000Y-113926904D01*
X157187619Y-113879285D01*
X157282857Y-113831666D01*
X157425714Y-113831666D01*
X157520952Y-113879285D01*
X157568571Y-113926904D01*
X157616190Y-114022142D01*
X157616190Y-114403095D01*
X157187619Y-113450714D02*
X157140000Y-113403095D01*
X157092380Y-113307857D01*
X157092380Y-113069761D01*
X157140000Y-112974523D01*
X157187619Y-112926904D01*
X157282857Y-112879285D01*
X157378095Y-112879285D01*
X157520952Y-112926904D01*
X158092380Y-113498333D01*
X158092380Y-112879285D01*
X205992380Y-56443333D02*
X206706666Y-56443333D01*
X206849523Y-56490952D01*
X206944761Y-56586190D01*
X206992380Y-56729047D01*
X206992380Y-56824285D01*
X206325714Y-55538571D02*
X206992380Y-55538571D01*
X205944761Y-55776666D02*
X206659047Y-56014761D01*
X206659047Y-55395714D01*
X157992380Y-56443333D02*
X158706666Y-56443333D01*
X158849523Y-56490952D01*
X158944761Y-56586190D01*
X158992380Y-56729047D01*
X158992380Y-56824285D01*
X157992380Y-56062380D02*
X157992380Y-55443333D01*
X158373333Y-55776666D01*
X158373333Y-55633809D01*
X158420952Y-55538571D01*
X158468571Y-55490952D01*
X158563809Y-55443333D01*
X158801904Y-55443333D01*
X158897142Y-55490952D01*
X158944761Y-55538571D01*
X158992380Y-55633809D01*
X158992380Y-55919523D01*
X158944761Y-56014761D01*
X158897142Y-56062380D01*
X178472380Y-118443333D02*
X179186666Y-118443333D01*
X179329523Y-118490952D01*
X179424761Y-118586190D01*
X179472380Y-118729047D01*
X179472380Y-118824285D01*
X178567619Y-118014761D02*
X178520000Y-117967142D01*
X178472380Y-117871904D01*
X178472380Y-117633809D01*
X178520000Y-117538571D01*
X178567619Y-117490952D01*
X178662857Y-117443333D01*
X178758095Y-117443333D01*
X178900952Y-117490952D01*
X179472380Y-118062380D01*
X179472380Y-117443333D01*
X130472380Y-118443333D02*
X131186666Y-118443333D01*
X131329523Y-118490952D01*
X131424761Y-118586190D01*
X131472380Y-118729047D01*
X131472380Y-118824285D01*
X131472380Y-117443333D02*
X131472380Y-118014761D01*
X131472380Y-117729047D02*
X130472380Y-117729047D01*
X130615238Y-117824285D01*
X130710476Y-117919523D01*
X130758095Y-118014761D01*
M02*
