G04 #@! TF.GenerationSoftware,KiCad,Pcbnew,5.1.5*
G04 #@! TF.CreationDate,2019-12-27T12:01:36+00:00*
G04 #@! TF.ProjectId,wkday,776b6461-792e-46b6-9963-61645f706362,rev?*
G04 #@! TF.SameCoordinates,Original*
G04 #@! TF.FileFunction,Soldermask,Top*
G04 #@! TF.FilePolarity,Negative*
%FSLAX46Y46*%
G04 Gerber Fmt 4.6, Leading zero omitted, Abs format (unit mm)*
G04 Created by KiCad (PCBNEW 5.1.5) date 2019-12-27 12:01:36*
%MOMM*%
%LPD*%
G04 APERTURE LIST*
%ADD10C,0.100000*%
%ADD11C,0.150000*%
%ADD12C,0.700000*%
G04 APERTURE END LIST*
D10*
G36*
X128270000Y-57150000D02*
G01*
X121920000Y-57150000D01*
X121920000Y-52070000D01*
X128270000Y-52070000D01*
X128270000Y-57150000D01*
G37*
X128270000Y-57150000D02*
X121920000Y-57150000D01*
X121920000Y-52070000D01*
X128270000Y-52070000D01*
X128270000Y-57150000D01*
G36*
X215900000Y-57150000D02*
G01*
X209550000Y-57150000D01*
X209550000Y-52070000D01*
X215900000Y-52070000D01*
X215900000Y-57150000D01*
G37*
X215900000Y-57150000D02*
X209550000Y-57150000D01*
X209550000Y-52070000D01*
X215900000Y-52070000D01*
X215900000Y-57150000D01*
D11*
X196278500Y-71501000D02*
X196278500Y-71818500D01*
X196278500Y-71501000D02*
X195961000Y-71501000D01*
X195707000Y-72072500D02*
X196278500Y-71501000D01*
X194183000Y-72009000D02*
X194437000Y-71755000D01*
X193929000Y-71501000D02*
X193929000Y-71818500D01*
X193929000Y-71501000D02*
X194246500Y-71501000D01*
X194500500Y-72072500D02*
X193929000Y-71501000D01*
X194818000Y-73787000D02*
X195326000Y-73787000D01*
X195072000Y-73408641D02*
X195072000Y-74041000D01*
X195836641Y-72644000D02*
G75*
G03X195836641Y-72644000I-764641J0D01*
G01*
D12*
X133964964Y-43509714D02*
X134902464Y-48009714D01*
X136964964Y-43509714D01*
X137902464Y-48009714D02*
X138277464Y-45009714D01*
X138464964Y-43509714D02*
X138223892Y-43724000D01*
X138411392Y-43938285D01*
X138652464Y-43724000D01*
X138464964Y-43509714D01*
X138411392Y-43938285D01*
X140045321Y-48009714D02*
X140420321Y-45009714D01*
X140607821Y-43509714D02*
X140366750Y-43724000D01*
X140554250Y-43938285D01*
X140795321Y-43724000D01*
X140607821Y-43509714D01*
X140554250Y-43938285D01*
X142188178Y-48009714D02*
X142750678Y-43509714D01*
X142831035Y-46295428D02*
X143902464Y-48009714D01*
X144277464Y-45009714D02*
X142348892Y-46724000D01*
X146473892Y-48009714D02*
X146072107Y-47795428D01*
X145884607Y-47581142D01*
X145723892Y-47152571D01*
X145884607Y-45866857D01*
X146152464Y-45438285D01*
X146393535Y-45224000D01*
X146848892Y-45009714D01*
X147491750Y-45009714D01*
X147893535Y-45224000D01*
X148081035Y-45438285D01*
X148241750Y-45866857D01*
X148081035Y-47152571D01*
X147813178Y-47581142D01*
X147572107Y-47795428D01*
X147116750Y-48009714D01*
X146473892Y-48009714D01*
X150277464Y-45009714D02*
X149902464Y-48009714D01*
X150223892Y-45438285D02*
X150464964Y-45224000D01*
X150920321Y-45009714D01*
X151563178Y-45009714D01*
X151964964Y-45224000D01*
X152125678Y-45652571D01*
X151831035Y-48009714D01*
X154348892Y-45009714D02*
X153786392Y-49509714D01*
X154322107Y-45224000D02*
X154777464Y-45009714D01*
X155634607Y-45009714D01*
X156036392Y-45224000D01*
X156223892Y-45438285D01*
X156384607Y-45866857D01*
X156223892Y-47152571D01*
X155956035Y-47581142D01*
X155714964Y-47795428D01*
X155259607Y-48009714D01*
X154402464Y-48009714D01*
X154000678Y-47795428D01*
X159973892Y-48009714D02*
X160268535Y-45652571D01*
X160107821Y-45224000D01*
X159706035Y-45009714D01*
X158848892Y-45009714D01*
X158393535Y-45224000D01*
X160000678Y-47795428D02*
X159545321Y-48009714D01*
X158473892Y-48009714D01*
X158072107Y-47795428D01*
X157911392Y-47366857D01*
X157964964Y-46938285D01*
X158232821Y-46509714D01*
X158688178Y-46295428D01*
X159759607Y-46295428D01*
X160214964Y-46081142D01*
X158607821Y-43509714D02*
X158795321Y-43724000D01*
X158554250Y-43938285D01*
X158366750Y-43724000D01*
X158607821Y-43509714D01*
X158554250Y-43938285D01*
X160322107Y-43509714D02*
X160509607Y-43724000D01*
X160268535Y-43938285D01*
X160081035Y-43724000D01*
X160322107Y-43509714D01*
X160268535Y-43938285D01*
X162116750Y-48009714D02*
X162491750Y-45009714D01*
X162679250Y-43509714D02*
X162438178Y-43724000D01*
X162625678Y-43938285D01*
X162866750Y-43724000D01*
X162679250Y-43509714D01*
X162625678Y-43938285D01*
X164206035Y-45009714D02*
X164902464Y-48009714D01*
X166348892Y-45009714D01*
X169616750Y-48009714D02*
X169911392Y-45652571D01*
X169750678Y-45224000D01*
X169348892Y-45009714D01*
X168491750Y-45009714D01*
X168036392Y-45224000D01*
X169643535Y-47795428D02*
X169188178Y-48009714D01*
X168116750Y-48009714D01*
X167714964Y-47795428D01*
X167554250Y-47366857D01*
X167607821Y-46938285D01*
X167875678Y-46509714D01*
X168331035Y-46295428D01*
X169402464Y-46295428D01*
X169857821Y-46081142D01*
X168250678Y-43509714D02*
X168438178Y-43724000D01*
X168197107Y-43938285D01*
X168009607Y-43724000D01*
X168250678Y-43509714D01*
X168197107Y-43938285D01*
X169964964Y-43509714D02*
X170152464Y-43724000D01*
X169911392Y-43938285D01*
X169723892Y-43724000D01*
X169964964Y-43509714D01*
X169911392Y-43938285D01*
X171973892Y-46295428D02*
X175402464Y-46295428D01*
X177973892Y-48009714D02*
X177572107Y-47795428D01*
X177384607Y-47581142D01*
X177223892Y-47152571D01*
X177384607Y-45866857D01*
X177652464Y-45438285D01*
X177893535Y-45224000D01*
X178348892Y-45009714D01*
X178991750Y-45009714D01*
X179393535Y-45224000D01*
X179581035Y-45438285D01*
X179741750Y-45866857D01*
X179581035Y-47152571D01*
X179313178Y-47581142D01*
X179072107Y-47795428D01*
X178616750Y-48009714D01*
X177973892Y-48009714D01*
X181616750Y-46295428D02*
X185045321Y-46295428D01*
X186973892Y-48009714D02*
X187536392Y-43509714D01*
X188634607Y-46724000D01*
X190536392Y-43509714D01*
X189973892Y-48009714D01*
X194045321Y-48009714D02*
X194339964Y-45652571D01*
X194179250Y-45224000D01*
X193777464Y-45009714D01*
X192920321Y-45009714D01*
X192464964Y-45224000D01*
X194072107Y-47795428D02*
X193616750Y-48009714D01*
X192545321Y-48009714D01*
X192143535Y-47795428D01*
X191982821Y-47366857D01*
X192036392Y-46938285D01*
X192304250Y-46509714D01*
X192759607Y-46295428D01*
X193831035Y-46295428D01*
X194286392Y-46081142D01*
X195920321Y-45009714D02*
X197634607Y-45009714D01*
X196750678Y-43509714D02*
X196268535Y-47366857D01*
X196429250Y-47795428D01*
X196831035Y-48009714D01*
X197259607Y-48009714D01*
X198759607Y-48009714D02*
X199134607Y-45009714D01*
X199322107Y-43509714D02*
X199081035Y-43724000D01*
X199268535Y-43938285D01*
X199509607Y-43724000D01*
X199322107Y-43509714D01*
X199268535Y-43938285D01*
X202857821Y-47795428D02*
X202402464Y-48009714D01*
X201545321Y-48009714D01*
X201143535Y-47795428D01*
X200956035Y-47581142D01*
X200795321Y-47152571D01*
X200956035Y-45866857D01*
X201223892Y-45438285D01*
X201464964Y-45224000D01*
X201920321Y-45009714D01*
X202777464Y-45009714D01*
X203179250Y-45224000D01*
D10*
G36*
X204323512Y-117213927D02*
G01*
X204472812Y-117243624D01*
X204636784Y-117311544D01*
X204784354Y-117410147D01*
X204909853Y-117535646D01*
X205008456Y-117683216D01*
X205076376Y-117847188D01*
X205111000Y-118021259D01*
X205111000Y-118198741D01*
X205076376Y-118372812D01*
X205008456Y-118536784D01*
X204909853Y-118684354D01*
X204784354Y-118809853D01*
X204636784Y-118908456D01*
X204472812Y-118976376D01*
X204323512Y-119006073D01*
X204298742Y-119011000D01*
X204121258Y-119011000D01*
X204096488Y-119006073D01*
X203947188Y-118976376D01*
X203783216Y-118908456D01*
X203635646Y-118809853D01*
X203510147Y-118684354D01*
X203411544Y-118536784D01*
X203343624Y-118372812D01*
X203309000Y-118198741D01*
X203309000Y-118021259D01*
X203343624Y-117847188D01*
X203411544Y-117683216D01*
X203510147Y-117535646D01*
X203635646Y-117410147D01*
X203783216Y-117311544D01*
X203947188Y-117243624D01*
X204096488Y-117213927D01*
X204121258Y-117209000D01*
X204298742Y-117209000D01*
X204323512Y-117213927D01*
G37*
G36*
X156323512Y-117213927D02*
G01*
X156472812Y-117243624D01*
X156636784Y-117311544D01*
X156784354Y-117410147D01*
X156909853Y-117535646D01*
X157008456Y-117683216D01*
X157076376Y-117847188D01*
X157111000Y-118021259D01*
X157111000Y-118198741D01*
X157076376Y-118372812D01*
X157008456Y-118536784D01*
X156909853Y-118684354D01*
X156784354Y-118809853D01*
X156636784Y-118908456D01*
X156472812Y-118976376D01*
X156323512Y-119006073D01*
X156298742Y-119011000D01*
X156121258Y-119011000D01*
X156096488Y-119006073D01*
X155947188Y-118976376D01*
X155783216Y-118908456D01*
X155635646Y-118809853D01*
X155510147Y-118684354D01*
X155411544Y-118536784D01*
X155343624Y-118372812D01*
X155309000Y-118198741D01*
X155309000Y-118021259D01*
X155343624Y-117847188D01*
X155411544Y-117683216D01*
X155510147Y-117535646D01*
X155635646Y-117410147D01*
X155783216Y-117311544D01*
X155947188Y-117243624D01*
X156096488Y-117213927D01*
X156121258Y-117209000D01*
X156298742Y-117209000D01*
X156323512Y-117213927D01*
G37*
G36*
X134251000Y-119011000D02*
G01*
X132449000Y-119011000D01*
X132449000Y-117209000D01*
X134251000Y-117209000D01*
X134251000Y-119011000D01*
G37*
G36*
X136003512Y-117213927D02*
G01*
X136152812Y-117243624D01*
X136316784Y-117311544D01*
X136464354Y-117410147D01*
X136589853Y-117535646D01*
X136688456Y-117683216D01*
X136756376Y-117847188D01*
X136791000Y-118021259D01*
X136791000Y-118198741D01*
X136756376Y-118372812D01*
X136688456Y-118536784D01*
X136589853Y-118684354D01*
X136464354Y-118809853D01*
X136316784Y-118908456D01*
X136152812Y-118976376D01*
X136003512Y-119006073D01*
X135978742Y-119011000D01*
X135801258Y-119011000D01*
X135776488Y-119006073D01*
X135627188Y-118976376D01*
X135463216Y-118908456D01*
X135315646Y-118809853D01*
X135190147Y-118684354D01*
X135091544Y-118536784D01*
X135023624Y-118372812D01*
X134989000Y-118198741D01*
X134989000Y-118021259D01*
X135023624Y-117847188D01*
X135091544Y-117683216D01*
X135190147Y-117535646D01*
X135315646Y-117410147D01*
X135463216Y-117311544D01*
X135627188Y-117243624D01*
X135776488Y-117213927D01*
X135801258Y-117209000D01*
X135978742Y-117209000D01*
X136003512Y-117213927D01*
G37*
G36*
X138543512Y-117213927D02*
G01*
X138692812Y-117243624D01*
X138856784Y-117311544D01*
X139004354Y-117410147D01*
X139129853Y-117535646D01*
X139228456Y-117683216D01*
X139296376Y-117847188D01*
X139331000Y-118021259D01*
X139331000Y-118198741D01*
X139296376Y-118372812D01*
X139228456Y-118536784D01*
X139129853Y-118684354D01*
X139004354Y-118809853D01*
X138856784Y-118908456D01*
X138692812Y-118976376D01*
X138543512Y-119006073D01*
X138518742Y-119011000D01*
X138341258Y-119011000D01*
X138316488Y-119006073D01*
X138167188Y-118976376D01*
X138003216Y-118908456D01*
X137855646Y-118809853D01*
X137730147Y-118684354D01*
X137631544Y-118536784D01*
X137563624Y-118372812D01*
X137529000Y-118198741D01*
X137529000Y-118021259D01*
X137563624Y-117847188D01*
X137631544Y-117683216D01*
X137730147Y-117535646D01*
X137855646Y-117410147D01*
X138003216Y-117311544D01*
X138167188Y-117243624D01*
X138316488Y-117213927D01*
X138341258Y-117209000D01*
X138518742Y-117209000D01*
X138543512Y-117213927D01*
G37*
G36*
X141083512Y-117213927D02*
G01*
X141232812Y-117243624D01*
X141396784Y-117311544D01*
X141544354Y-117410147D01*
X141669853Y-117535646D01*
X141768456Y-117683216D01*
X141836376Y-117847188D01*
X141871000Y-118021259D01*
X141871000Y-118198741D01*
X141836376Y-118372812D01*
X141768456Y-118536784D01*
X141669853Y-118684354D01*
X141544354Y-118809853D01*
X141396784Y-118908456D01*
X141232812Y-118976376D01*
X141083512Y-119006073D01*
X141058742Y-119011000D01*
X140881258Y-119011000D01*
X140856488Y-119006073D01*
X140707188Y-118976376D01*
X140543216Y-118908456D01*
X140395646Y-118809853D01*
X140270147Y-118684354D01*
X140171544Y-118536784D01*
X140103624Y-118372812D01*
X140069000Y-118198741D01*
X140069000Y-118021259D01*
X140103624Y-117847188D01*
X140171544Y-117683216D01*
X140270147Y-117535646D01*
X140395646Y-117410147D01*
X140543216Y-117311544D01*
X140707188Y-117243624D01*
X140856488Y-117213927D01*
X140881258Y-117209000D01*
X141058742Y-117209000D01*
X141083512Y-117213927D01*
G37*
G36*
X143623512Y-117213927D02*
G01*
X143772812Y-117243624D01*
X143936784Y-117311544D01*
X144084354Y-117410147D01*
X144209853Y-117535646D01*
X144308456Y-117683216D01*
X144376376Y-117847188D01*
X144411000Y-118021259D01*
X144411000Y-118198741D01*
X144376376Y-118372812D01*
X144308456Y-118536784D01*
X144209853Y-118684354D01*
X144084354Y-118809853D01*
X143936784Y-118908456D01*
X143772812Y-118976376D01*
X143623512Y-119006073D01*
X143598742Y-119011000D01*
X143421258Y-119011000D01*
X143396488Y-119006073D01*
X143247188Y-118976376D01*
X143083216Y-118908456D01*
X142935646Y-118809853D01*
X142810147Y-118684354D01*
X142711544Y-118536784D01*
X142643624Y-118372812D01*
X142609000Y-118198741D01*
X142609000Y-118021259D01*
X142643624Y-117847188D01*
X142711544Y-117683216D01*
X142810147Y-117535646D01*
X142935646Y-117410147D01*
X143083216Y-117311544D01*
X143247188Y-117243624D01*
X143396488Y-117213927D01*
X143421258Y-117209000D01*
X143598742Y-117209000D01*
X143623512Y-117213927D01*
G37*
G36*
X146163512Y-117213927D02*
G01*
X146312812Y-117243624D01*
X146476784Y-117311544D01*
X146624354Y-117410147D01*
X146749853Y-117535646D01*
X146848456Y-117683216D01*
X146916376Y-117847188D01*
X146951000Y-118021259D01*
X146951000Y-118198741D01*
X146916376Y-118372812D01*
X146848456Y-118536784D01*
X146749853Y-118684354D01*
X146624354Y-118809853D01*
X146476784Y-118908456D01*
X146312812Y-118976376D01*
X146163512Y-119006073D01*
X146138742Y-119011000D01*
X145961258Y-119011000D01*
X145936488Y-119006073D01*
X145787188Y-118976376D01*
X145623216Y-118908456D01*
X145475646Y-118809853D01*
X145350147Y-118684354D01*
X145251544Y-118536784D01*
X145183624Y-118372812D01*
X145149000Y-118198741D01*
X145149000Y-118021259D01*
X145183624Y-117847188D01*
X145251544Y-117683216D01*
X145350147Y-117535646D01*
X145475646Y-117410147D01*
X145623216Y-117311544D01*
X145787188Y-117243624D01*
X145936488Y-117213927D01*
X145961258Y-117209000D01*
X146138742Y-117209000D01*
X146163512Y-117213927D01*
G37*
G36*
X148703512Y-117213927D02*
G01*
X148852812Y-117243624D01*
X149016784Y-117311544D01*
X149164354Y-117410147D01*
X149289853Y-117535646D01*
X149388456Y-117683216D01*
X149456376Y-117847188D01*
X149491000Y-118021259D01*
X149491000Y-118198741D01*
X149456376Y-118372812D01*
X149388456Y-118536784D01*
X149289853Y-118684354D01*
X149164354Y-118809853D01*
X149016784Y-118908456D01*
X148852812Y-118976376D01*
X148703512Y-119006073D01*
X148678742Y-119011000D01*
X148501258Y-119011000D01*
X148476488Y-119006073D01*
X148327188Y-118976376D01*
X148163216Y-118908456D01*
X148015646Y-118809853D01*
X147890147Y-118684354D01*
X147791544Y-118536784D01*
X147723624Y-118372812D01*
X147689000Y-118198741D01*
X147689000Y-118021259D01*
X147723624Y-117847188D01*
X147791544Y-117683216D01*
X147890147Y-117535646D01*
X148015646Y-117410147D01*
X148163216Y-117311544D01*
X148327188Y-117243624D01*
X148476488Y-117213927D01*
X148501258Y-117209000D01*
X148678742Y-117209000D01*
X148703512Y-117213927D01*
G37*
G36*
X151243512Y-117213927D02*
G01*
X151392812Y-117243624D01*
X151556784Y-117311544D01*
X151704354Y-117410147D01*
X151829853Y-117535646D01*
X151928456Y-117683216D01*
X151996376Y-117847188D01*
X152031000Y-118021259D01*
X152031000Y-118198741D01*
X151996376Y-118372812D01*
X151928456Y-118536784D01*
X151829853Y-118684354D01*
X151704354Y-118809853D01*
X151556784Y-118908456D01*
X151392812Y-118976376D01*
X151243512Y-119006073D01*
X151218742Y-119011000D01*
X151041258Y-119011000D01*
X151016488Y-119006073D01*
X150867188Y-118976376D01*
X150703216Y-118908456D01*
X150555646Y-118809853D01*
X150430147Y-118684354D01*
X150331544Y-118536784D01*
X150263624Y-118372812D01*
X150229000Y-118198741D01*
X150229000Y-118021259D01*
X150263624Y-117847188D01*
X150331544Y-117683216D01*
X150430147Y-117535646D01*
X150555646Y-117410147D01*
X150703216Y-117311544D01*
X150867188Y-117243624D01*
X151016488Y-117213927D01*
X151041258Y-117209000D01*
X151218742Y-117209000D01*
X151243512Y-117213927D01*
G37*
G36*
X153783512Y-117213927D02*
G01*
X153932812Y-117243624D01*
X154096784Y-117311544D01*
X154244354Y-117410147D01*
X154369853Y-117535646D01*
X154468456Y-117683216D01*
X154536376Y-117847188D01*
X154571000Y-118021259D01*
X154571000Y-118198741D01*
X154536376Y-118372812D01*
X154468456Y-118536784D01*
X154369853Y-118684354D01*
X154244354Y-118809853D01*
X154096784Y-118908456D01*
X153932812Y-118976376D01*
X153783512Y-119006073D01*
X153758742Y-119011000D01*
X153581258Y-119011000D01*
X153556488Y-119006073D01*
X153407188Y-118976376D01*
X153243216Y-118908456D01*
X153095646Y-118809853D01*
X152970147Y-118684354D01*
X152871544Y-118536784D01*
X152803624Y-118372812D01*
X152769000Y-118198741D01*
X152769000Y-118021259D01*
X152803624Y-117847188D01*
X152871544Y-117683216D01*
X152970147Y-117535646D01*
X153095646Y-117410147D01*
X153243216Y-117311544D01*
X153407188Y-117243624D01*
X153556488Y-117213927D01*
X153581258Y-117209000D01*
X153758742Y-117209000D01*
X153783512Y-117213927D01*
G37*
G36*
X184003512Y-117213927D02*
G01*
X184152812Y-117243624D01*
X184316784Y-117311544D01*
X184464354Y-117410147D01*
X184589853Y-117535646D01*
X184688456Y-117683216D01*
X184756376Y-117847188D01*
X184791000Y-118021259D01*
X184791000Y-118198741D01*
X184756376Y-118372812D01*
X184688456Y-118536784D01*
X184589853Y-118684354D01*
X184464354Y-118809853D01*
X184316784Y-118908456D01*
X184152812Y-118976376D01*
X184003512Y-119006073D01*
X183978742Y-119011000D01*
X183801258Y-119011000D01*
X183776488Y-119006073D01*
X183627188Y-118976376D01*
X183463216Y-118908456D01*
X183315646Y-118809853D01*
X183190147Y-118684354D01*
X183091544Y-118536784D01*
X183023624Y-118372812D01*
X182989000Y-118198741D01*
X182989000Y-118021259D01*
X183023624Y-117847188D01*
X183091544Y-117683216D01*
X183190147Y-117535646D01*
X183315646Y-117410147D01*
X183463216Y-117311544D01*
X183627188Y-117243624D01*
X183776488Y-117213927D01*
X183801258Y-117209000D01*
X183978742Y-117209000D01*
X184003512Y-117213927D01*
G37*
G36*
X182251000Y-119011000D02*
G01*
X180449000Y-119011000D01*
X180449000Y-117209000D01*
X182251000Y-117209000D01*
X182251000Y-119011000D01*
G37*
G36*
X201783512Y-117213927D02*
G01*
X201932812Y-117243624D01*
X202096784Y-117311544D01*
X202244354Y-117410147D01*
X202369853Y-117535646D01*
X202468456Y-117683216D01*
X202536376Y-117847188D01*
X202571000Y-118021259D01*
X202571000Y-118198741D01*
X202536376Y-118372812D01*
X202468456Y-118536784D01*
X202369853Y-118684354D01*
X202244354Y-118809853D01*
X202096784Y-118908456D01*
X201932812Y-118976376D01*
X201783512Y-119006073D01*
X201758742Y-119011000D01*
X201581258Y-119011000D01*
X201556488Y-119006073D01*
X201407188Y-118976376D01*
X201243216Y-118908456D01*
X201095646Y-118809853D01*
X200970147Y-118684354D01*
X200871544Y-118536784D01*
X200803624Y-118372812D01*
X200769000Y-118198741D01*
X200769000Y-118021259D01*
X200803624Y-117847188D01*
X200871544Y-117683216D01*
X200970147Y-117535646D01*
X201095646Y-117410147D01*
X201243216Y-117311544D01*
X201407188Y-117243624D01*
X201556488Y-117213927D01*
X201581258Y-117209000D01*
X201758742Y-117209000D01*
X201783512Y-117213927D01*
G37*
G36*
X199243512Y-117213927D02*
G01*
X199392812Y-117243624D01*
X199556784Y-117311544D01*
X199704354Y-117410147D01*
X199829853Y-117535646D01*
X199928456Y-117683216D01*
X199996376Y-117847188D01*
X200031000Y-118021259D01*
X200031000Y-118198741D01*
X199996376Y-118372812D01*
X199928456Y-118536784D01*
X199829853Y-118684354D01*
X199704354Y-118809853D01*
X199556784Y-118908456D01*
X199392812Y-118976376D01*
X199243512Y-119006073D01*
X199218742Y-119011000D01*
X199041258Y-119011000D01*
X199016488Y-119006073D01*
X198867188Y-118976376D01*
X198703216Y-118908456D01*
X198555646Y-118809853D01*
X198430147Y-118684354D01*
X198331544Y-118536784D01*
X198263624Y-118372812D01*
X198229000Y-118198741D01*
X198229000Y-118021259D01*
X198263624Y-117847188D01*
X198331544Y-117683216D01*
X198430147Y-117535646D01*
X198555646Y-117410147D01*
X198703216Y-117311544D01*
X198867188Y-117243624D01*
X199016488Y-117213927D01*
X199041258Y-117209000D01*
X199218742Y-117209000D01*
X199243512Y-117213927D01*
G37*
G36*
X196703512Y-117213927D02*
G01*
X196852812Y-117243624D01*
X197016784Y-117311544D01*
X197164354Y-117410147D01*
X197289853Y-117535646D01*
X197388456Y-117683216D01*
X197456376Y-117847188D01*
X197491000Y-118021259D01*
X197491000Y-118198741D01*
X197456376Y-118372812D01*
X197388456Y-118536784D01*
X197289853Y-118684354D01*
X197164354Y-118809853D01*
X197016784Y-118908456D01*
X196852812Y-118976376D01*
X196703512Y-119006073D01*
X196678742Y-119011000D01*
X196501258Y-119011000D01*
X196476488Y-119006073D01*
X196327188Y-118976376D01*
X196163216Y-118908456D01*
X196015646Y-118809853D01*
X195890147Y-118684354D01*
X195791544Y-118536784D01*
X195723624Y-118372812D01*
X195689000Y-118198741D01*
X195689000Y-118021259D01*
X195723624Y-117847188D01*
X195791544Y-117683216D01*
X195890147Y-117535646D01*
X196015646Y-117410147D01*
X196163216Y-117311544D01*
X196327188Y-117243624D01*
X196476488Y-117213927D01*
X196501258Y-117209000D01*
X196678742Y-117209000D01*
X196703512Y-117213927D01*
G37*
G36*
X191623512Y-117213927D02*
G01*
X191772812Y-117243624D01*
X191936784Y-117311544D01*
X192084354Y-117410147D01*
X192209853Y-117535646D01*
X192308456Y-117683216D01*
X192376376Y-117847188D01*
X192411000Y-118021259D01*
X192411000Y-118198741D01*
X192376376Y-118372812D01*
X192308456Y-118536784D01*
X192209853Y-118684354D01*
X192084354Y-118809853D01*
X191936784Y-118908456D01*
X191772812Y-118976376D01*
X191623512Y-119006073D01*
X191598742Y-119011000D01*
X191421258Y-119011000D01*
X191396488Y-119006073D01*
X191247188Y-118976376D01*
X191083216Y-118908456D01*
X190935646Y-118809853D01*
X190810147Y-118684354D01*
X190711544Y-118536784D01*
X190643624Y-118372812D01*
X190609000Y-118198741D01*
X190609000Y-118021259D01*
X190643624Y-117847188D01*
X190711544Y-117683216D01*
X190810147Y-117535646D01*
X190935646Y-117410147D01*
X191083216Y-117311544D01*
X191247188Y-117243624D01*
X191396488Y-117213927D01*
X191421258Y-117209000D01*
X191598742Y-117209000D01*
X191623512Y-117213927D01*
G37*
G36*
X189083512Y-117213927D02*
G01*
X189232812Y-117243624D01*
X189396784Y-117311544D01*
X189544354Y-117410147D01*
X189669853Y-117535646D01*
X189768456Y-117683216D01*
X189836376Y-117847188D01*
X189871000Y-118021259D01*
X189871000Y-118198741D01*
X189836376Y-118372812D01*
X189768456Y-118536784D01*
X189669853Y-118684354D01*
X189544354Y-118809853D01*
X189396784Y-118908456D01*
X189232812Y-118976376D01*
X189083512Y-119006073D01*
X189058742Y-119011000D01*
X188881258Y-119011000D01*
X188856488Y-119006073D01*
X188707188Y-118976376D01*
X188543216Y-118908456D01*
X188395646Y-118809853D01*
X188270147Y-118684354D01*
X188171544Y-118536784D01*
X188103624Y-118372812D01*
X188069000Y-118198741D01*
X188069000Y-118021259D01*
X188103624Y-117847188D01*
X188171544Y-117683216D01*
X188270147Y-117535646D01*
X188395646Y-117410147D01*
X188543216Y-117311544D01*
X188707188Y-117243624D01*
X188856488Y-117213927D01*
X188881258Y-117209000D01*
X189058742Y-117209000D01*
X189083512Y-117213927D01*
G37*
G36*
X186543512Y-117213927D02*
G01*
X186692812Y-117243624D01*
X186856784Y-117311544D01*
X187004354Y-117410147D01*
X187129853Y-117535646D01*
X187228456Y-117683216D01*
X187296376Y-117847188D01*
X187331000Y-118021259D01*
X187331000Y-118198741D01*
X187296376Y-118372812D01*
X187228456Y-118536784D01*
X187129853Y-118684354D01*
X187004354Y-118809853D01*
X186856784Y-118908456D01*
X186692812Y-118976376D01*
X186543512Y-119006073D01*
X186518742Y-119011000D01*
X186341258Y-119011000D01*
X186316488Y-119006073D01*
X186167188Y-118976376D01*
X186003216Y-118908456D01*
X185855646Y-118809853D01*
X185730147Y-118684354D01*
X185631544Y-118536784D01*
X185563624Y-118372812D01*
X185529000Y-118198741D01*
X185529000Y-118021259D01*
X185563624Y-117847188D01*
X185631544Y-117683216D01*
X185730147Y-117535646D01*
X185855646Y-117410147D01*
X186003216Y-117311544D01*
X186167188Y-117243624D01*
X186316488Y-117213927D01*
X186341258Y-117209000D01*
X186518742Y-117209000D01*
X186543512Y-117213927D01*
G37*
G36*
X194163512Y-117213927D02*
G01*
X194312812Y-117243624D01*
X194476784Y-117311544D01*
X194624354Y-117410147D01*
X194749853Y-117535646D01*
X194848456Y-117683216D01*
X194916376Y-117847188D01*
X194951000Y-118021259D01*
X194951000Y-118198741D01*
X194916376Y-118372812D01*
X194848456Y-118536784D01*
X194749853Y-118684354D01*
X194624354Y-118809853D01*
X194476784Y-118908456D01*
X194312812Y-118976376D01*
X194163512Y-119006073D01*
X194138742Y-119011000D01*
X193961258Y-119011000D01*
X193936488Y-119006073D01*
X193787188Y-118976376D01*
X193623216Y-118908456D01*
X193475646Y-118809853D01*
X193350147Y-118684354D01*
X193251544Y-118536784D01*
X193183624Y-118372812D01*
X193149000Y-118198741D01*
X193149000Y-118021259D01*
X193183624Y-117847188D01*
X193251544Y-117683216D01*
X193350147Y-117535646D01*
X193475646Y-117410147D01*
X193623216Y-117311544D01*
X193787188Y-117243624D01*
X193936488Y-117213927D01*
X193961258Y-117209000D01*
X194138742Y-117209000D01*
X194163512Y-117213927D01*
G37*
G36*
X207819499Y-117588445D02*
G01*
X207856995Y-117599820D01*
X207891554Y-117618292D01*
X207921847Y-117643153D01*
X207946708Y-117673446D01*
X207965180Y-117708005D01*
X207976555Y-117745501D01*
X207981000Y-117790638D01*
X207981000Y-118429362D01*
X207976555Y-118474499D01*
X207965180Y-118511995D01*
X207946708Y-118546554D01*
X207921847Y-118576847D01*
X207891554Y-118601708D01*
X207856995Y-118620180D01*
X207819499Y-118631555D01*
X207774362Y-118636000D01*
X207035638Y-118636000D01*
X206990501Y-118631555D01*
X206953005Y-118620180D01*
X206918446Y-118601708D01*
X206888153Y-118576847D01*
X206863292Y-118546554D01*
X206844820Y-118511995D01*
X206833445Y-118474499D01*
X206829000Y-118429362D01*
X206829000Y-117790638D01*
X206833445Y-117745501D01*
X206844820Y-117708005D01*
X206863292Y-117673446D01*
X206888153Y-117643153D01*
X206918446Y-117618292D01*
X206953005Y-117599820D01*
X206990501Y-117588445D01*
X207035638Y-117584000D01*
X207774362Y-117584000D01*
X207819499Y-117588445D01*
G37*
G36*
X209569499Y-117588445D02*
G01*
X209606995Y-117599820D01*
X209641554Y-117618292D01*
X209671847Y-117643153D01*
X209696708Y-117673446D01*
X209715180Y-117708005D01*
X209726555Y-117745501D01*
X209731000Y-117790638D01*
X209731000Y-118429362D01*
X209726555Y-118474499D01*
X209715180Y-118511995D01*
X209696708Y-118546554D01*
X209671847Y-118576847D01*
X209641554Y-118601708D01*
X209606995Y-118620180D01*
X209569499Y-118631555D01*
X209524362Y-118636000D01*
X208785638Y-118636000D01*
X208740501Y-118631555D01*
X208703005Y-118620180D01*
X208668446Y-118601708D01*
X208638153Y-118576847D01*
X208613292Y-118546554D01*
X208594820Y-118511995D01*
X208583445Y-118474499D01*
X208579000Y-118429362D01*
X208579000Y-117790638D01*
X208583445Y-117745501D01*
X208594820Y-117708005D01*
X208613292Y-117673446D01*
X208638153Y-117643153D01*
X208668446Y-117618292D01*
X208703005Y-117599820D01*
X208740501Y-117588445D01*
X208785638Y-117584000D01*
X209524362Y-117584000D01*
X209569499Y-117588445D01*
G37*
G36*
X156574499Y-113968445D02*
G01*
X156611995Y-113979820D01*
X156646554Y-113998292D01*
X156676847Y-114023153D01*
X156701708Y-114053446D01*
X156720180Y-114088005D01*
X156731555Y-114125501D01*
X156736000Y-114170638D01*
X156736000Y-114909362D01*
X156731555Y-114954499D01*
X156720180Y-114991995D01*
X156701708Y-115026554D01*
X156676847Y-115056847D01*
X156646554Y-115081708D01*
X156611995Y-115100180D01*
X156574499Y-115111555D01*
X156529362Y-115116000D01*
X155890638Y-115116000D01*
X155845501Y-115111555D01*
X155808005Y-115100180D01*
X155773446Y-115081708D01*
X155743153Y-115056847D01*
X155718292Y-115026554D01*
X155699820Y-114991995D01*
X155688445Y-114954499D01*
X155684000Y-114909362D01*
X155684000Y-114170638D01*
X155688445Y-114125501D01*
X155699820Y-114088005D01*
X155718292Y-114053446D01*
X155743153Y-114023153D01*
X155773446Y-113998292D01*
X155808005Y-113979820D01*
X155845501Y-113968445D01*
X155890638Y-113964000D01*
X156529362Y-113964000D01*
X156574499Y-113968445D01*
G37*
G36*
X180453512Y-113149927D02*
G01*
X180602812Y-113179624D01*
X180766784Y-113247544D01*
X180914354Y-113346147D01*
X181039853Y-113471646D01*
X181138456Y-113619216D01*
X181206376Y-113783188D01*
X181241000Y-113957259D01*
X181241000Y-114134741D01*
X181206376Y-114308812D01*
X181138456Y-114472784D01*
X181039853Y-114620354D01*
X180914354Y-114745853D01*
X180766784Y-114844456D01*
X180602812Y-114912376D01*
X180453512Y-114942073D01*
X180428742Y-114947000D01*
X180251258Y-114947000D01*
X180226488Y-114942073D01*
X180077188Y-114912376D01*
X179913216Y-114844456D01*
X179765646Y-114745853D01*
X179640147Y-114620354D01*
X179541544Y-114472784D01*
X179473624Y-114308812D01*
X179439000Y-114134741D01*
X179439000Y-113957259D01*
X179473624Y-113783188D01*
X179541544Y-113619216D01*
X179640147Y-113471646D01*
X179765646Y-113346147D01*
X179913216Y-113247544D01*
X180077188Y-113179624D01*
X180226488Y-113149927D01*
X180251258Y-113145000D01*
X180428742Y-113145000D01*
X180453512Y-113149927D01*
G37*
G36*
X193941000Y-114947000D02*
G01*
X192139000Y-114947000D01*
X192139000Y-113145000D01*
X193941000Y-113145000D01*
X193941000Y-114947000D01*
G37*
G36*
X190613512Y-113149927D02*
G01*
X190762812Y-113179624D01*
X190926784Y-113247544D01*
X191074354Y-113346147D01*
X191199853Y-113471646D01*
X191298456Y-113619216D01*
X191366376Y-113783188D01*
X191401000Y-113957259D01*
X191401000Y-114134741D01*
X191366376Y-114308812D01*
X191298456Y-114472784D01*
X191199853Y-114620354D01*
X191074354Y-114745853D01*
X190926784Y-114844456D01*
X190762812Y-114912376D01*
X190613512Y-114942073D01*
X190588742Y-114947000D01*
X190411258Y-114947000D01*
X190386488Y-114942073D01*
X190237188Y-114912376D01*
X190073216Y-114844456D01*
X189925646Y-114745853D01*
X189800147Y-114620354D01*
X189701544Y-114472784D01*
X189633624Y-114308812D01*
X189599000Y-114134741D01*
X189599000Y-113957259D01*
X189633624Y-113783188D01*
X189701544Y-113619216D01*
X189800147Y-113471646D01*
X189925646Y-113346147D01*
X190073216Y-113247544D01*
X190237188Y-113179624D01*
X190386488Y-113149927D01*
X190411258Y-113145000D01*
X190588742Y-113145000D01*
X190613512Y-113149927D01*
G37*
G36*
X188073512Y-113149927D02*
G01*
X188222812Y-113179624D01*
X188386784Y-113247544D01*
X188534354Y-113346147D01*
X188659853Y-113471646D01*
X188758456Y-113619216D01*
X188826376Y-113783188D01*
X188861000Y-113957259D01*
X188861000Y-114134741D01*
X188826376Y-114308812D01*
X188758456Y-114472784D01*
X188659853Y-114620354D01*
X188534354Y-114745853D01*
X188386784Y-114844456D01*
X188222812Y-114912376D01*
X188073512Y-114942073D01*
X188048742Y-114947000D01*
X187871258Y-114947000D01*
X187846488Y-114942073D01*
X187697188Y-114912376D01*
X187533216Y-114844456D01*
X187385646Y-114745853D01*
X187260147Y-114620354D01*
X187161544Y-114472784D01*
X187093624Y-114308812D01*
X187059000Y-114134741D01*
X187059000Y-113957259D01*
X187093624Y-113783188D01*
X187161544Y-113619216D01*
X187260147Y-113471646D01*
X187385646Y-113346147D01*
X187533216Y-113247544D01*
X187697188Y-113179624D01*
X187846488Y-113149927D01*
X187871258Y-113145000D01*
X188048742Y-113145000D01*
X188073512Y-113149927D01*
G37*
G36*
X185533512Y-113149927D02*
G01*
X185682812Y-113179624D01*
X185846784Y-113247544D01*
X185994354Y-113346147D01*
X186119853Y-113471646D01*
X186218456Y-113619216D01*
X186286376Y-113783188D01*
X186321000Y-113957259D01*
X186321000Y-114134741D01*
X186286376Y-114308812D01*
X186218456Y-114472784D01*
X186119853Y-114620354D01*
X185994354Y-114745853D01*
X185846784Y-114844456D01*
X185682812Y-114912376D01*
X185533512Y-114942073D01*
X185508742Y-114947000D01*
X185331258Y-114947000D01*
X185306488Y-114942073D01*
X185157188Y-114912376D01*
X184993216Y-114844456D01*
X184845646Y-114745853D01*
X184720147Y-114620354D01*
X184621544Y-114472784D01*
X184553624Y-114308812D01*
X184519000Y-114134741D01*
X184519000Y-113957259D01*
X184553624Y-113783188D01*
X184621544Y-113619216D01*
X184720147Y-113471646D01*
X184845646Y-113346147D01*
X184993216Y-113247544D01*
X185157188Y-113179624D01*
X185306488Y-113149927D01*
X185331258Y-113145000D01*
X185508742Y-113145000D01*
X185533512Y-113149927D01*
G37*
G36*
X182993512Y-113149927D02*
G01*
X183142812Y-113179624D01*
X183306784Y-113247544D01*
X183454354Y-113346147D01*
X183579853Y-113471646D01*
X183678456Y-113619216D01*
X183746376Y-113783188D01*
X183781000Y-113957259D01*
X183781000Y-114134741D01*
X183746376Y-114308812D01*
X183678456Y-114472784D01*
X183579853Y-114620354D01*
X183454354Y-114745853D01*
X183306784Y-114844456D01*
X183142812Y-114912376D01*
X182993512Y-114942073D01*
X182968742Y-114947000D01*
X182791258Y-114947000D01*
X182766488Y-114942073D01*
X182617188Y-114912376D01*
X182453216Y-114844456D01*
X182305646Y-114745853D01*
X182180147Y-114620354D01*
X182081544Y-114472784D01*
X182013624Y-114308812D01*
X181979000Y-114134741D01*
X181979000Y-113957259D01*
X182013624Y-113783188D01*
X182081544Y-113619216D01*
X182180147Y-113471646D01*
X182305646Y-113346147D01*
X182453216Y-113247544D01*
X182617188Y-113179624D01*
X182766488Y-113149927D01*
X182791258Y-113145000D01*
X182968742Y-113145000D01*
X182993512Y-113149927D01*
G37*
G36*
X208393512Y-113149927D02*
G01*
X208542812Y-113179624D01*
X208706784Y-113247544D01*
X208854354Y-113346147D01*
X208979853Y-113471646D01*
X209078456Y-113619216D01*
X209146376Y-113783188D01*
X209181000Y-113957259D01*
X209181000Y-114134741D01*
X209146376Y-114308812D01*
X209078456Y-114472784D01*
X208979853Y-114620354D01*
X208854354Y-114745853D01*
X208706784Y-114844456D01*
X208542812Y-114912376D01*
X208393512Y-114942073D01*
X208368742Y-114947000D01*
X208191258Y-114947000D01*
X208166488Y-114942073D01*
X208017188Y-114912376D01*
X207853216Y-114844456D01*
X207705646Y-114745853D01*
X207580147Y-114620354D01*
X207481544Y-114472784D01*
X207413624Y-114308812D01*
X207379000Y-114134741D01*
X207379000Y-113957259D01*
X207413624Y-113783188D01*
X207481544Y-113619216D01*
X207580147Y-113471646D01*
X207705646Y-113346147D01*
X207853216Y-113247544D01*
X208017188Y-113179624D01*
X208166488Y-113149927D01*
X208191258Y-113145000D01*
X208368742Y-113145000D01*
X208393512Y-113149927D01*
G37*
G36*
X205853512Y-113149927D02*
G01*
X206002812Y-113179624D01*
X206166784Y-113247544D01*
X206314354Y-113346147D01*
X206439853Y-113471646D01*
X206538456Y-113619216D01*
X206606376Y-113783188D01*
X206641000Y-113957259D01*
X206641000Y-114134741D01*
X206606376Y-114308812D01*
X206538456Y-114472784D01*
X206439853Y-114620354D01*
X206314354Y-114745853D01*
X206166784Y-114844456D01*
X206002812Y-114912376D01*
X205853512Y-114942073D01*
X205828742Y-114947000D01*
X205651258Y-114947000D01*
X205626488Y-114942073D01*
X205477188Y-114912376D01*
X205313216Y-114844456D01*
X205165646Y-114745853D01*
X205040147Y-114620354D01*
X204941544Y-114472784D01*
X204873624Y-114308812D01*
X204839000Y-114134741D01*
X204839000Y-113957259D01*
X204873624Y-113783188D01*
X204941544Y-113619216D01*
X205040147Y-113471646D01*
X205165646Y-113346147D01*
X205313216Y-113247544D01*
X205477188Y-113179624D01*
X205626488Y-113149927D01*
X205651258Y-113145000D01*
X205828742Y-113145000D01*
X205853512Y-113149927D01*
G37*
G36*
X203313512Y-113149927D02*
G01*
X203462812Y-113179624D01*
X203626784Y-113247544D01*
X203774354Y-113346147D01*
X203899853Y-113471646D01*
X203998456Y-113619216D01*
X204066376Y-113783188D01*
X204101000Y-113957259D01*
X204101000Y-114134741D01*
X204066376Y-114308812D01*
X203998456Y-114472784D01*
X203899853Y-114620354D01*
X203774354Y-114745853D01*
X203626784Y-114844456D01*
X203462812Y-114912376D01*
X203313512Y-114942073D01*
X203288742Y-114947000D01*
X203111258Y-114947000D01*
X203086488Y-114942073D01*
X202937188Y-114912376D01*
X202773216Y-114844456D01*
X202625646Y-114745853D01*
X202500147Y-114620354D01*
X202401544Y-114472784D01*
X202333624Y-114308812D01*
X202299000Y-114134741D01*
X202299000Y-113957259D01*
X202333624Y-113783188D01*
X202401544Y-113619216D01*
X202500147Y-113471646D01*
X202625646Y-113346147D01*
X202773216Y-113247544D01*
X202937188Y-113179624D01*
X203086488Y-113149927D01*
X203111258Y-113145000D01*
X203288742Y-113145000D01*
X203313512Y-113149927D01*
G37*
G36*
X200773512Y-113149927D02*
G01*
X200922812Y-113179624D01*
X201086784Y-113247544D01*
X201234354Y-113346147D01*
X201359853Y-113471646D01*
X201458456Y-113619216D01*
X201526376Y-113783188D01*
X201561000Y-113957259D01*
X201561000Y-114134741D01*
X201526376Y-114308812D01*
X201458456Y-114472784D01*
X201359853Y-114620354D01*
X201234354Y-114745853D01*
X201086784Y-114844456D01*
X200922812Y-114912376D01*
X200773512Y-114942073D01*
X200748742Y-114947000D01*
X200571258Y-114947000D01*
X200546488Y-114942073D01*
X200397188Y-114912376D01*
X200233216Y-114844456D01*
X200085646Y-114745853D01*
X199960147Y-114620354D01*
X199861544Y-114472784D01*
X199793624Y-114308812D01*
X199759000Y-114134741D01*
X199759000Y-113957259D01*
X199793624Y-113783188D01*
X199861544Y-113619216D01*
X199960147Y-113471646D01*
X200085646Y-113346147D01*
X200233216Y-113247544D01*
X200397188Y-113179624D01*
X200546488Y-113149927D01*
X200571258Y-113145000D01*
X200748742Y-113145000D01*
X200773512Y-113149927D01*
G37*
G36*
X198233512Y-113149927D02*
G01*
X198382812Y-113179624D01*
X198546784Y-113247544D01*
X198694354Y-113346147D01*
X198819853Y-113471646D01*
X198918456Y-113619216D01*
X198986376Y-113783188D01*
X199021000Y-113957259D01*
X199021000Y-114134741D01*
X198986376Y-114308812D01*
X198918456Y-114472784D01*
X198819853Y-114620354D01*
X198694354Y-114745853D01*
X198546784Y-114844456D01*
X198382812Y-114912376D01*
X198233512Y-114942073D01*
X198208742Y-114947000D01*
X198031258Y-114947000D01*
X198006488Y-114942073D01*
X197857188Y-114912376D01*
X197693216Y-114844456D01*
X197545646Y-114745853D01*
X197420147Y-114620354D01*
X197321544Y-114472784D01*
X197253624Y-114308812D01*
X197219000Y-114134741D01*
X197219000Y-113957259D01*
X197253624Y-113783188D01*
X197321544Y-113619216D01*
X197420147Y-113471646D01*
X197545646Y-113346147D01*
X197693216Y-113247544D01*
X197857188Y-113179624D01*
X198006488Y-113149927D01*
X198031258Y-113145000D01*
X198208742Y-113145000D01*
X198233512Y-113149927D01*
G37*
G36*
X211721000Y-114947000D02*
G01*
X209919000Y-114947000D01*
X209919000Y-113145000D01*
X211721000Y-113145000D01*
X211721000Y-114947000D01*
G37*
G36*
X156574499Y-112218445D02*
G01*
X156611995Y-112229820D01*
X156646554Y-112248292D01*
X156676847Y-112273153D01*
X156701708Y-112303446D01*
X156720180Y-112338005D01*
X156731555Y-112375501D01*
X156736000Y-112420638D01*
X156736000Y-113159362D01*
X156731555Y-113204499D01*
X156720180Y-113241995D01*
X156701708Y-113276554D01*
X156676847Y-113306847D01*
X156646554Y-113331708D01*
X156611995Y-113350180D01*
X156574499Y-113361555D01*
X156529362Y-113366000D01*
X155890638Y-113366000D01*
X155845501Y-113361555D01*
X155808005Y-113350180D01*
X155773446Y-113331708D01*
X155743153Y-113306847D01*
X155718292Y-113276554D01*
X155699820Y-113241995D01*
X155688445Y-113204499D01*
X155684000Y-113159362D01*
X155684000Y-112420638D01*
X155688445Y-112375501D01*
X155699820Y-112338005D01*
X155718292Y-112303446D01*
X155743153Y-112273153D01*
X155773446Y-112248292D01*
X155808005Y-112229820D01*
X155845501Y-112218445D01*
X155890638Y-112214000D01*
X156529362Y-112214000D01*
X156574499Y-112218445D01*
G37*
G36*
X195285000Y-109721000D02*
G01*
X194783000Y-109721000D01*
X194783000Y-108719000D01*
X195285000Y-108719000D01*
X195285000Y-109721000D01*
G37*
G36*
X197685000Y-109721000D02*
G01*
X197183000Y-109721000D01*
X197183000Y-108719000D01*
X197685000Y-108719000D01*
X197685000Y-109721000D01*
G37*
G36*
X196885000Y-109721000D02*
G01*
X196383000Y-109721000D01*
X196383000Y-108719000D01*
X196885000Y-108719000D01*
X196885000Y-109721000D01*
G37*
G36*
X196085000Y-109721000D02*
G01*
X195583000Y-109721000D01*
X195583000Y-108719000D01*
X196085000Y-108719000D01*
X196085000Y-109721000D01*
G37*
G36*
X196085000Y-108021000D02*
G01*
X195583000Y-108021000D01*
X195583000Y-107019000D01*
X196085000Y-107019000D01*
X196085000Y-108021000D01*
G37*
G36*
X195285000Y-108021000D02*
G01*
X194783000Y-108021000D01*
X194783000Y-107019000D01*
X195285000Y-107019000D01*
X195285000Y-108021000D01*
G37*
G36*
X196885000Y-108021000D02*
G01*
X196383000Y-108021000D01*
X196383000Y-107019000D01*
X196885000Y-107019000D01*
X196885000Y-108021000D01*
G37*
G36*
X197685000Y-108021000D02*
G01*
X197183000Y-108021000D01*
X197183000Y-107019000D01*
X197685000Y-107019000D01*
X197685000Y-108021000D01*
G37*
G36*
X145266000Y-101681000D02*
G01*
X144764000Y-101681000D01*
X144764000Y-100679000D01*
X145266000Y-100679000D01*
X145266000Y-101681000D01*
G37*
G36*
X144466000Y-101681000D02*
G01*
X143964000Y-101681000D01*
X143964000Y-100679000D01*
X144466000Y-100679000D01*
X144466000Y-101681000D01*
G37*
G36*
X146066000Y-101681000D02*
G01*
X145564000Y-101681000D01*
X145564000Y-100679000D01*
X146066000Y-100679000D01*
X146066000Y-101681000D01*
G37*
G36*
X146866000Y-101681000D02*
G01*
X146364000Y-101681000D01*
X146364000Y-100679000D01*
X146866000Y-100679000D01*
X146866000Y-101681000D01*
G37*
G36*
X144466000Y-99981000D02*
G01*
X143964000Y-99981000D01*
X143964000Y-98979000D01*
X144466000Y-98979000D01*
X144466000Y-99981000D01*
G37*
G36*
X146866000Y-99981000D02*
G01*
X146364000Y-99981000D01*
X146364000Y-98979000D01*
X146866000Y-98979000D01*
X146866000Y-99981000D01*
G37*
G36*
X145266000Y-99981000D02*
G01*
X144764000Y-99981000D01*
X144764000Y-98979000D01*
X145266000Y-98979000D01*
X145266000Y-99981000D01*
G37*
G36*
X146066000Y-99981000D02*
G01*
X145564000Y-99981000D01*
X145564000Y-98979000D01*
X146066000Y-98979000D01*
X146066000Y-99981000D01*
G37*
G36*
X170007000Y-90351000D02*
G01*
X169005000Y-90351000D01*
X169005000Y-89849000D01*
X170007000Y-89849000D01*
X170007000Y-90351000D01*
G37*
G36*
X168307000Y-90351000D02*
G01*
X167305000Y-90351000D01*
X167305000Y-89849000D01*
X168307000Y-89849000D01*
X168307000Y-90351000D01*
G37*
G36*
X170007000Y-89551000D02*
G01*
X169005000Y-89551000D01*
X169005000Y-89049000D01*
X170007000Y-89049000D01*
X170007000Y-89551000D01*
G37*
G36*
X168307000Y-89551000D02*
G01*
X167305000Y-89551000D01*
X167305000Y-89049000D01*
X168307000Y-89049000D01*
X168307000Y-89551000D01*
G37*
G36*
X170007000Y-88751000D02*
G01*
X169005000Y-88751000D01*
X169005000Y-88249000D01*
X170007000Y-88249000D01*
X170007000Y-88751000D01*
G37*
G36*
X168307000Y-88751000D02*
G01*
X167305000Y-88751000D01*
X167305000Y-88249000D01*
X168307000Y-88249000D01*
X168307000Y-88751000D01*
G37*
G36*
X168307000Y-87951000D02*
G01*
X167305000Y-87951000D01*
X167305000Y-87449000D01*
X168307000Y-87449000D01*
X168307000Y-87951000D01*
G37*
G36*
X170007000Y-87951000D02*
G01*
X169005000Y-87951000D01*
X169005000Y-87449000D01*
X170007000Y-87449000D01*
X170007000Y-87951000D01*
G37*
G36*
X170007000Y-84001000D02*
G01*
X169005000Y-84001000D01*
X169005000Y-83499000D01*
X170007000Y-83499000D01*
X170007000Y-84001000D01*
G37*
G36*
X168307000Y-84001000D02*
G01*
X167305000Y-84001000D01*
X167305000Y-83499000D01*
X168307000Y-83499000D01*
X168307000Y-84001000D01*
G37*
G36*
X170007000Y-83201000D02*
G01*
X169005000Y-83201000D01*
X169005000Y-82699000D01*
X170007000Y-82699000D01*
X170007000Y-83201000D01*
G37*
G36*
X168307000Y-83201000D02*
G01*
X167305000Y-83201000D01*
X167305000Y-82699000D01*
X168307000Y-82699000D01*
X168307000Y-83201000D01*
G37*
G36*
X170007000Y-82401000D02*
G01*
X169005000Y-82401000D01*
X169005000Y-81899000D01*
X170007000Y-81899000D01*
X170007000Y-82401000D01*
G37*
G36*
X168307000Y-82401000D02*
G01*
X167305000Y-82401000D01*
X167305000Y-81899000D01*
X168307000Y-81899000D01*
X168307000Y-82401000D01*
G37*
G36*
X168307000Y-81601000D02*
G01*
X167305000Y-81601000D01*
X167305000Y-81099000D01*
X168307000Y-81099000D01*
X168307000Y-81601000D01*
G37*
G36*
X170007000Y-81601000D02*
G01*
X169005000Y-81601000D01*
X169005000Y-81099000D01*
X170007000Y-81099000D01*
X170007000Y-81601000D01*
G37*
G36*
X206026000Y-77016000D02*
G01*
X205024000Y-77016000D01*
X205024000Y-76514000D01*
X206026000Y-76514000D01*
X206026000Y-77016000D01*
G37*
G36*
X207726000Y-77016000D02*
G01*
X206724000Y-77016000D01*
X206724000Y-76514000D01*
X207726000Y-76514000D01*
X207726000Y-77016000D01*
G37*
G36*
X207726000Y-76216000D02*
G01*
X206724000Y-76216000D01*
X206724000Y-75714000D01*
X207726000Y-75714000D01*
X207726000Y-76216000D01*
G37*
G36*
X206026000Y-76216000D02*
G01*
X205024000Y-76216000D01*
X205024000Y-75714000D01*
X206026000Y-75714000D01*
X206026000Y-76216000D01*
G37*
G36*
X162846000Y-76127000D02*
G01*
X161844000Y-76127000D01*
X161844000Y-75625000D01*
X162846000Y-75625000D01*
X162846000Y-76127000D01*
G37*
G36*
X164546000Y-76127000D02*
G01*
X163544000Y-76127000D01*
X163544000Y-75625000D01*
X164546000Y-75625000D01*
X164546000Y-76127000D01*
G37*
G36*
X206026000Y-75416000D02*
G01*
X205024000Y-75416000D01*
X205024000Y-74914000D01*
X206026000Y-74914000D01*
X206026000Y-75416000D01*
G37*
G36*
X207726000Y-75416000D02*
G01*
X206724000Y-75416000D01*
X206724000Y-74914000D01*
X207726000Y-74914000D01*
X207726000Y-75416000D01*
G37*
G36*
X164546000Y-75327000D02*
G01*
X163544000Y-75327000D01*
X163544000Y-74825000D01*
X164546000Y-74825000D01*
X164546000Y-75327000D01*
G37*
G36*
X162846000Y-75327000D02*
G01*
X161844000Y-75327000D01*
X161844000Y-74825000D01*
X162846000Y-74825000D01*
X162846000Y-75327000D01*
G37*
G36*
X207726000Y-74616000D02*
G01*
X206724000Y-74616000D01*
X206724000Y-74114000D01*
X207726000Y-74114000D01*
X207726000Y-74616000D01*
G37*
G36*
X206026000Y-74616000D02*
G01*
X205024000Y-74616000D01*
X205024000Y-74114000D01*
X206026000Y-74114000D01*
X206026000Y-74616000D01*
G37*
G36*
X162846000Y-74527000D02*
G01*
X161844000Y-74527000D01*
X161844000Y-74025000D01*
X162846000Y-74025000D01*
X162846000Y-74527000D01*
G37*
G36*
X164546000Y-74527000D02*
G01*
X163544000Y-74527000D01*
X163544000Y-74025000D01*
X164546000Y-74025000D01*
X164546000Y-74527000D01*
G37*
G36*
X164546000Y-73727000D02*
G01*
X163544000Y-73727000D01*
X163544000Y-73225000D01*
X164546000Y-73225000D01*
X164546000Y-73727000D01*
G37*
G36*
X162846000Y-73727000D02*
G01*
X161844000Y-73727000D01*
X161844000Y-73225000D01*
X162846000Y-73225000D01*
X162846000Y-73727000D01*
G37*
G36*
X190681000Y-73487000D02*
G01*
X190179000Y-73487000D01*
X190179000Y-72485000D01*
X190681000Y-72485000D01*
X190681000Y-73487000D01*
G37*
G36*
X189081000Y-73487000D02*
G01*
X188579000Y-73487000D01*
X188579000Y-72485000D01*
X189081000Y-72485000D01*
X189081000Y-73487000D01*
G37*
G36*
X189881000Y-73487000D02*
G01*
X189379000Y-73487000D01*
X189379000Y-72485000D01*
X189881000Y-72485000D01*
X189881000Y-73487000D01*
G37*
G36*
X188281000Y-73487000D02*
G01*
X187779000Y-73487000D01*
X187779000Y-72485000D01*
X188281000Y-72485000D01*
X188281000Y-73487000D01*
G37*
G36*
X188281000Y-71787000D02*
G01*
X187779000Y-71787000D01*
X187779000Y-70785000D01*
X188281000Y-70785000D01*
X188281000Y-71787000D01*
G37*
G36*
X189081000Y-71787000D02*
G01*
X188579000Y-71787000D01*
X188579000Y-70785000D01*
X189081000Y-70785000D01*
X189081000Y-71787000D01*
G37*
G36*
X189881000Y-71787000D02*
G01*
X189379000Y-71787000D01*
X189379000Y-70785000D01*
X189881000Y-70785000D01*
X189881000Y-71787000D01*
G37*
G36*
X190681000Y-71787000D02*
G01*
X190179000Y-71787000D01*
X190179000Y-70785000D01*
X190681000Y-70785000D01*
X190681000Y-71787000D01*
G37*
G36*
X208393512Y-64889927D02*
G01*
X208542812Y-64919624D01*
X208706784Y-64987544D01*
X208854354Y-65086147D01*
X208979853Y-65211646D01*
X209078456Y-65359216D01*
X209146376Y-65523188D01*
X209181000Y-65697259D01*
X209181000Y-65874741D01*
X209146376Y-66048812D01*
X209078456Y-66212784D01*
X208979853Y-66360354D01*
X208854354Y-66485853D01*
X208706784Y-66584456D01*
X208542812Y-66652376D01*
X208393512Y-66682073D01*
X208368742Y-66687000D01*
X208191258Y-66687000D01*
X208166488Y-66682073D01*
X208017188Y-66652376D01*
X207853216Y-66584456D01*
X207705646Y-66485853D01*
X207580147Y-66360354D01*
X207481544Y-66212784D01*
X207413624Y-66048812D01*
X207379000Y-65874741D01*
X207379000Y-65697259D01*
X207413624Y-65523188D01*
X207481544Y-65359216D01*
X207580147Y-65211646D01*
X207705646Y-65086147D01*
X207853216Y-64987544D01*
X208017188Y-64919624D01*
X208166488Y-64889927D01*
X208191258Y-64885000D01*
X208368742Y-64885000D01*
X208393512Y-64889927D01*
G37*
G36*
X211721000Y-66687000D02*
G01*
X209919000Y-66687000D01*
X209919000Y-64885000D01*
X211721000Y-64885000D01*
X211721000Y-66687000D01*
G37*
G36*
X173849512Y-64889927D02*
G01*
X173998812Y-64919624D01*
X174162784Y-64987544D01*
X174310354Y-65086147D01*
X174435853Y-65211646D01*
X174534456Y-65359216D01*
X174602376Y-65523188D01*
X174637000Y-65697259D01*
X174637000Y-65874741D01*
X174602376Y-66048812D01*
X174534456Y-66212784D01*
X174435853Y-66360354D01*
X174310354Y-66485853D01*
X174162784Y-66584456D01*
X173998812Y-66652376D01*
X173849512Y-66682073D01*
X173824742Y-66687000D01*
X173647258Y-66687000D01*
X173622488Y-66682073D01*
X173473188Y-66652376D01*
X173309216Y-66584456D01*
X173161646Y-66485853D01*
X173036147Y-66360354D01*
X172937544Y-66212784D01*
X172869624Y-66048812D01*
X172835000Y-65874741D01*
X172835000Y-65697259D01*
X172869624Y-65523188D01*
X172937544Y-65359216D01*
X173036147Y-65211646D01*
X173161646Y-65086147D01*
X173309216Y-64987544D01*
X173473188Y-64919624D01*
X173622488Y-64889927D01*
X173647258Y-64885000D01*
X173824742Y-64885000D01*
X173849512Y-64889927D01*
G37*
G36*
X176389512Y-64889927D02*
G01*
X176538812Y-64919624D01*
X176702784Y-64987544D01*
X176850354Y-65086147D01*
X176975853Y-65211646D01*
X177074456Y-65359216D01*
X177142376Y-65523188D01*
X177177000Y-65697259D01*
X177177000Y-65874741D01*
X177142376Y-66048812D01*
X177074456Y-66212784D01*
X176975853Y-66360354D01*
X176850354Y-66485853D01*
X176702784Y-66584456D01*
X176538812Y-66652376D01*
X176389512Y-66682073D01*
X176364742Y-66687000D01*
X176187258Y-66687000D01*
X176162488Y-66682073D01*
X176013188Y-66652376D01*
X175849216Y-66584456D01*
X175701646Y-66485853D01*
X175576147Y-66360354D01*
X175477544Y-66212784D01*
X175409624Y-66048812D01*
X175375000Y-65874741D01*
X175375000Y-65697259D01*
X175409624Y-65523188D01*
X175477544Y-65359216D01*
X175576147Y-65211646D01*
X175701646Y-65086147D01*
X175849216Y-64987544D01*
X176013188Y-64919624D01*
X176162488Y-64889927D01*
X176187258Y-64885000D01*
X176364742Y-64885000D01*
X176389512Y-64889927D01*
G37*
G36*
X178929512Y-64889927D02*
G01*
X179078812Y-64919624D01*
X179242784Y-64987544D01*
X179390354Y-65086147D01*
X179515853Y-65211646D01*
X179614456Y-65359216D01*
X179682376Y-65523188D01*
X179717000Y-65697259D01*
X179717000Y-65874741D01*
X179682376Y-66048812D01*
X179614456Y-66212784D01*
X179515853Y-66360354D01*
X179390354Y-66485853D01*
X179242784Y-66584456D01*
X179078812Y-66652376D01*
X178929512Y-66682073D01*
X178904742Y-66687000D01*
X178727258Y-66687000D01*
X178702488Y-66682073D01*
X178553188Y-66652376D01*
X178389216Y-66584456D01*
X178241646Y-66485853D01*
X178116147Y-66360354D01*
X178017544Y-66212784D01*
X177949624Y-66048812D01*
X177915000Y-65874741D01*
X177915000Y-65697259D01*
X177949624Y-65523188D01*
X178017544Y-65359216D01*
X178116147Y-65211646D01*
X178241646Y-65086147D01*
X178389216Y-64987544D01*
X178553188Y-64919624D01*
X178702488Y-64889927D01*
X178727258Y-64885000D01*
X178904742Y-64885000D01*
X178929512Y-64889927D01*
G37*
G36*
X181469512Y-64889927D02*
G01*
X181618812Y-64919624D01*
X181782784Y-64987544D01*
X181930354Y-65086147D01*
X182055853Y-65211646D01*
X182154456Y-65359216D01*
X182222376Y-65523188D01*
X182257000Y-65697259D01*
X182257000Y-65874741D01*
X182222376Y-66048812D01*
X182154456Y-66212784D01*
X182055853Y-66360354D01*
X181930354Y-66485853D01*
X181782784Y-66584456D01*
X181618812Y-66652376D01*
X181469512Y-66682073D01*
X181444742Y-66687000D01*
X181267258Y-66687000D01*
X181242488Y-66682073D01*
X181093188Y-66652376D01*
X180929216Y-66584456D01*
X180781646Y-66485853D01*
X180656147Y-66360354D01*
X180557544Y-66212784D01*
X180489624Y-66048812D01*
X180455000Y-65874741D01*
X180455000Y-65697259D01*
X180489624Y-65523188D01*
X180557544Y-65359216D01*
X180656147Y-65211646D01*
X180781646Y-65086147D01*
X180929216Y-64987544D01*
X181093188Y-64919624D01*
X181242488Y-64889927D01*
X181267258Y-64885000D01*
X181444742Y-64885000D01*
X181469512Y-64889927D01*
G37*
G36*
X184009512Y-64889927D02*
G01*
X184158812Y-64919624D01*
X184322784Y-64987544D01*
X184470354Y-65086147D01*
X184595853Y-65211646D01*
X184694456Y-65359216D01*
X184762376Y-65523188D01*
X184797000Y-65697259D01*
X184797000Y-65874741D01*
X184762376Y-66048812D01*
X184694456Y-66212784D01*
X184595853Y-66360354D01*
X184470354Y-66485853D01*
X184322784Y-66584456D01*
X184158812Y-66652376D01*
X184009512Y-66682073D01*
X183984742Y-66687000D01*
X183807258Y-66687000D01*
X183782488Y-66682073D01*
X183633188Y-66652376D01*
X183469216Y-66584456D01*
X183321646Y-66485853D01*
X183196147Y-66360354D01*
X183097544Y-66212784D01*
X183029624Y-66048812D01*
X182995000Y-65874741D01*
X182995000Y-65697259D01*
X183029624Y-65523188D01*
X183097544Y-65359216D01*
X183196147Y-65211646D01*
X183321646Y-65086147D01*
X183469216Y-64987544D01*
X183633188Y-64919624D01*
X183782488Y-64889927D01*
X183807258Y-64885000D01*
X183984742Y-64885000D01*
X184009512Y-64889927D01*
G37*
G36*
X186549512Y-64889927D02*
G01*
X186698812Y-64919624D01*
X186862784Y-64987544D01*
X187010354Y-65086147D01*
X187135853Y-65211646D01*
X187234456Y-65359216D01*
X187302376Y-65523188D01*
X187337000Y-65697259D01*
X187337000Y-65874741D01*
X187302376Y-66048812D01*
X187234456Y-66212784D01*
X187135853Y-66360354D01*
X187010354Y-66485853D01*
X186862784Y-66584456D01*
X186698812Y-66652376D01*
X186549512Y-66682073D01*
X186524742Y-66687000D01*
X186347258Y-66687000D01*
X186322488Y-66682073D01*
X186173188Y-66652376D01*
X186009216Y-66584456D01*
X185861646Y-66485853D01*
X185736147Y-66360354D01*
X185637544Y-66212784D01*
X185569624Y-66048812D01*
X185535000Y-65874741D01*
X185535000Y-65697259D01*
X185569624Y-65523188D01*
X185637544Y-65359216D01*
X185736147Y-65211646D01*
X185861646Y-65086147D01*
X186009216Y-64987544D01*
X186173188Y-64919624D01*
X186322488Y-64889927D01*
X186347258Y-64885000D01*
X186524742Y-64885000D01*
X186549512Y-64889927D01*
G37*
G36*
X193153512Y-64889927D02*
G01*
X193302812Y-64919624D01*
X193466784Y-64987544D01*
X193614354Y-65086147D01*
X193739853Y-65211646D01*
X193838456Y-65359216D01*
X193906376Y-65523188D01*
X193941000Y-65697259D01*
X193941000Y-65874741D01*
X193906376Y-66048812D01*
X193838456Y-66212784D01*
X193739853Y-66360354D01*
X193614354Y-66485853D01*
X193466784Y-66584456D01*
X193302812Y-66652376D01*
X193153512Y-66682073D01*
X193128742Y-66687000D01*
X192951258Y-66687000D01*
X192926488Y-66682073D01*
X192777188Y-66652376D01*
X192613216Y-66584456D01*
X192465646Y-66485853D01*
X192340147Y-66360354D01*
X192241544Y-66212784D01*
X192173624Y-66048812D01*
X192139000Y-65874741D01*
X192139000Y-65697259D01*
X192173624Y-65523188D01*
X192241544Y-65359216D01*
X192340147Y-65211646D01*
X192465646Y-65086147D01*
X192613216Y-64987544D01*
X192777188Y-64919624D01*
X192926488Y-64889927D01*
X192951258Y-64885000D01*
X193128742Y-64885000D01*
X193153512Y-64889927D01*
G37*
G36*
X195693512Y-64889927D02*
G01*
X195842812Y-64919624D01*
X196006784Y-64987544D01*
X196154354Y-65086147D01*
X196279853Y-65211646D01*
X196378456Y-65359216D01*
X196446376Y-65523188D01*
X196481000Y-65697259D01*
X196481000Y-65874741D01*
X196446376Y-66048812D01*
X196378456Y-66212784D01*
X196279853Y-66360354D01*
X196154354Y-66485853D01*
X196006784Y-66584456D01*
X195842812Y-66652376D01*
X195693512Y-66682073D01*
X195668742Y-66687000D01*
X195491258Y-66687000D01*
X195466488Y-66682073D01*
X195317188Y-66652376D01*
X195153216Y-66584456D01*
X195005646Y-66485853D01*
X194880147Y-66360354D01*
X194781544Y-66212784D01*
X194713624Y-66048812D01*
X194679000Y-65874741D01*
X194679000Y-65697259D01*
X194713624Y-65523188D01*
X194781544Y-65359216D01*
X194880147Y-65211646D01*
X195005646Y-65086147D01*
X195153216Y-64987544D01*
X195317188Y-64919624D01*
X195466488Y-64889927D01*
X195491258Y-64885000D01*
X195668742Y-64885000D01*
X195693512Y-64889927D01*
G37*
G36*
X198233512Y-64889927D02*
G01*
X198382812Y-64919624D01*
X198546784Y-64987544D01*
X198694354Y-65086147D01*
X198819853Y-65211646D01*
X198918456Y-65359216D01*
X198986376Y-65523188D01*
X199021000Y-65697259D01*
X199021000Y-65874741D01*
X198986376Y-66048812D01*
X198918456Y-66212784D01*
X198819853Y-66360354D01*
X198694354Y-66485853D01*
X198546784Y-66584456D01*
X198382812Y-66652376D01*
X198233512Y-66682073D01*
X198208742Y-66687000D01*
X198031258Y-66687000D01*
X198006488Y-66682073D01*
X197857188Y-66652376D01*
X197693216Y-66584456D01*
X197545646Y-66485853D01*
X197420147Y-66360354D01*
X197321544Y-66212784D01*
X197253624Y-66048812D01*
X197219000Y-65874741D01*
X197219000Y-65697259D01*
X197253624Y-65523188D01*
X197321544Y-65359216D01*
X197420147Y-65211646D01*
X197545646Y-65086147D01*
X197693216Y-64987544D01*
X197857188Y-64919624D01*
X198006488Y-64889927D01*
X198031258Y-64885000D01*
X198208742Y-64885000D01*
X198233512Y-64889927D01*
G37*
G36*
X200773512Y-64889927D02*
G01*
X200922812Y-64919624D01*
X201086784Y-64987544D01*
X201234354Y-65086147D01*
X201359853Y-65211646D01*
X201458456Y-65359216D01*
X201526376Y-65523188D01*
X201561000Y-65697259D01*
X201561000Y-65874741D01*
X201526376Y-66048812D01*
X201458456Y-66212784D01*
X201359853Y-66360354D01*
X201234354Y-66485853D01*
X201086784Y-66584456D01*
X200922812Y-66652376D01*
X200773512Y-66682073D01*
X200748742Y-66687000D01*
X200571258Y-66687000D01*
X200546488Y-66682073D01*
X200397188Y-66652376D01*
X200233216Y-66584456D01*
X200085646Y-66485853D01*
X199960147Y-66360354D01*
X199861544Y-66212784D01*
X199793624Y-66048812D01*
X199759000Y-65874741D01*
X199759000Y-65697259D01*
X199793624Y-65523188D01*
X199861544Y-65359216D01*
X199960147Y-65211646D01*
X200085646Y-65086147D01*
X200233216Y-64987544D01*
X200397188Y-64919624D01*
X200546488Y-64889927D01*
X200571258Y-64885000D01*
X200748742Y-64885000D01*
X200773512Y-64889927D01*
G37*
G36*
X203313512Y-64889927D02*
G01*
X203462812Y-64919624D01*
X203626784Y-64987544D01*
X203774354Y-65086147D01*
X203899853Y-65211646D01*
X203998456Y-65359216D01*
X204066376Y-65523188D01*
X204101000Y-65697259D01*
X204101000Y-65874741D01*
X204066376Y-66048812D01*
X203998456Y-66212784D01*
X203899853Y-66360354D01*
X203774354Y-66485853D01*
X203626784Y-66584456D01*
X203462812Y-66652376D01*
X203313512Y-66682073D01*
X203288742Y-66687000D01*
X203111258Y-66687000D01*
X203086488Y-66682073D01*
X202937188Y-66652376D01*
X202773216Y-66584456D01*
X202625646Y-66485853D01*
X202500147Y-66360354D01*
X202401544Y-66212784D01*
X202333624Y-66048812D01*
X202299000Y-65874741D01*
X202299000Y-65697259D01*
X202333624Y-65523188D01*
X202401544Y-65359216D01*
X202500147Y-65211646D01*
X202625646Y-65086147D01*
X202773216Y-64987544D01*
X202937188Y-64919624D01*
X203086488Y-64889927D01*
X203111258Y-64885000D01*
X203288742Y-64885000D01*
X203313512Y-64889927D01*
G37*
G36*
X171309512Y-64889927D02*
G01*
X171458812Y-64919624D01*
X171622784Y-64987544D01*
X171770354Y-65086147D01*
X171895853Y-65211646D01*
X171994456Y-65359216D01*
X172062376Y-65523188D01*
X172097000Y-65697259D01*
X172097000Y-65874741D01*
X172062376Y-66048812D01*
X171994456Y-66212784D01*
X171895853Y-66360354D01*
X171770354Y-66485853D01*
X171622784Y-66584456D01*
X171458812Y-66652376D01*
X171309512Y-66682073D01*
X171284742Y-66687000D01*
X171107258Y-66687000D01*
X171082488Y-66682073D01*
X170933188Y-66652376D01*
X170769216Y-66584456D01*
X170621646Y-66485853D01*
X170496147Y-66360354D01*
X170397544Y-66212784D01*
X170329624Y-66048812D01*
X170295000Y-65874741D01*
X170295000Y-65697259D01*
X170329624Y-65523188D01*
X170397544Y-65359216D01*
X170496147Y-65211646D01*
X170621646Y-65086147D01*
X170769216Y-64987544D01*
X170933188Y-64919624D01*
X171082488Y-64889927D01*
X171107258Y-64885000D01*
X171284742Y-64885000D01*
X171309512Y-64889927D01*
G37*
G36*
X205853512Y-64889927D02*
G01*
X206002812Y-64919624D01*
X206166784Y-64987544D01*
X206314354Y-65086147D01*
X206439853Y-65211646D01*
X206538456Y-65359216D01*
X206606376Y-65523188D01*
X206641000Y-65697259D01*
X206641000Y-65874741D01*
X206606376Y-66048812D01*
X206538456Y-66212784D01*
X206439853Y-66360354D01*
X206314354Y-66485853D01*
X206166784Y-66584456D01*
X206002812Y-66652376D01*
X205853512Y-66682073D01*
X205828742Y-66687000D01*
X205651258Y-66687000D01*
X205626488Y-66682073D01*
X205477188Y-66652376D01*
X205313216Y-66584456D01*
X205165646Y-66485853D01*
X205040147Y-66360354D01*
X204941544Y-66212784D01*
X204873624Y-66048812D01*
X204839000Y-65874741D01*
X204839000Y-65697259D01*
X204873624Y-65523188D01*
X204941544Y-65359216D01*
X205040147Y-65211646D01*
X205165646Y-65086147D01*
X205313216Y-64987544D01*
X205477188Y-64919624D01*
X205626488Y-64889927D01*
X205651258Y-64885000D01*
X205828742Y-64885000D01*
X205853512Y-64889927D01*
G37*
G36*
X189877000Y-66687000D02*
G01*
X188075000Y-66687000D01*
X188075000Y-64885000D01*
X189877000Y-64885000D01*
X189877000Y-66687000D01*
G37*
G36*
X142091000Y-65486000D02*
G01*
X141589000Y-65486000D01*
X141589000Y-64484000D01*
X142091000Y-64484000D01*
X142091000Y-65486000D01*
G37*
G36*
X141291000Y-65486000D02*
G01*
X140789000Y-65486000D01*
X140789000Y-64484000D01*
X141291000Y-64484000D01*
X141291000Y-65486000D01*
G37*
G36*
X142891000Y-65486000D02*
G01*
X142389000Y-65486000D01*
X142389000Y-64484000D01*
X142891000Y-64484000D01*
X142891000Y-65486000D01*
G37*
G36*
X143691000Y-65486000D02*
G01*
X143189000Y-65486000D01*
X143189000Y-64484000D01*
X143691000Y-64484000D01*
X143691000Y-65486000D01*
G37*
G36*
X141291000Y-63786000D02*
G01*
X140789000Y-63786000D01*
X140789000Y-62784000D01*
X141291000Y-62784000D01*
X141291000Y-63786000D01*
G37*
G36*
X143691000Y-63786000D02*
G01*
X143189000Y-63786000D01*
X143189000Y-62784000D01*
X143691000Y-62784000D01*
X143691000Y-63786000D01*
G37*
G36*
X142891000Y-63786000D02*
G01*
X142389000Y-63786000D01*
X142389000Y-62784000D01*
X142891000Y-62784000D01*
X142891000Y-63786000D01*
G37*
G36*
X142091000Y-63786000D02*
G01*
X141589000Y-63786000D01*
X141589000Y-62784000D01*
X142091000Y-62784000D01*
X142091000Y-63786000D01*
G37*
G36*
X186543512Y-55213927D02*
G01*
X186692812Y-55243624D01*
X186856784Y-55311544D01*
X187004354Y-55410147D01*
X187129853Y-55535646D01*
X187228456Y-55683216D01*
X187296376Y-55847188D01*
X187331000Y-56021259D01*
X187331000Y-56198741D01*
X187296376Y-56372812D01*
X187228456Y-56536784D01*
X187129853Y-56684354D01*
X187004354Y-56809853D01*
X186856784Y-56908456D01*
X186692812Y-56976376D01*
X186543512Y-57006073D01*
X186518742Y-57011000D01*
X186341258Y-57011000D01*
X186316488Y-57006073D01*
X186167188Y-56976376D01*
X186003216Y-56908456D01*
X185855646Y-56809853D01*
X185730147Y-56684354D01*
X185631544Y-56536784D01*
X185563624Y-56372812D01*
X185529000Y-56198741D01*
X185529000Y-56021259D01*
X185563624Y-55847188D01*
X185631544Y-55683216D01*
X185730147Y-55535646D01*
X185855646Y-55410147D01*
X186003216Y-55311544D01*
X186167188Y-55243624D01*
X186316488Y-55213927D01*
X186341258Y-55209000D01*
X186518742Y-55209000D01*
X186543512Y-55213927D01*
G37*
G36*
X184003512Y-55213927D02*
G01*
X184152812Y-55243624D01*
X184316784Y-55311544D01*
X184464354Y-55410147D01*
X184589853Y-55535646D01*
X184688456Y-55683216D01*
X184756376Y-55847188D01*
X184791000Y-56021259D01*
X184791000Y-56198741D01*
X184756376Y-56372812D01*
X184688456Y-56536784D01*
X184589853Y-56684354D01*
X184464354Y-56809853D01*
X184316784Y-56908456D01*
X184152812Y-56976376D01*
X184003512Y-57006073D01*
X183978742Y-57011000D01*
X183801258Y-57011000D01*
X183776488Y-57006073D01*
X183627188Y-56976376D01*
X183463216Y-56908456D01*
X183315646Y-56809853D01*
X183190147Y-56684354D01*
X183091544Y-56536784D01*
X183023624Y-56372812D01*
X182989000Y-56198741D01*
X182989000Y-56021259D01*
X183023624Y-55847188D01*
X183091544Y-55683216D01*
X183190147Y-55535646D01*
X183315646Y-55410147D01*
X183463216Y-55311544D01*
X183627188Y-55243624D01*
X183776488Y-55213927D01*
X183801258Y-55209000D01*
X183978742Y-55209000D01*
X184003512Y-55213927D01*
G37*
G36*
X157111000Y-57011000D02*
G01*
X155309000Y-57011000D01*
X155309000Y-55209000D01*
X157111000Y-55209000D01*
X157111000Y-57011000D01*
G37*
G36*
X153783512Y-55213927D02*
G01*
X153932812Y-55243624D01*
X154096784Y-55311544D01*
X154244354Y-55410147D01*
X154369853Y-55535646D01*
X154468456Y-55683216D01*
X154536376Y-55847188D01*
X154571000Y-56021259D01*
X154571000Y-56198741D01*
X154536376Y-56372812D01*
X154468456Y-56536784D01*
X154369853Y-56684354D01*
X154244354Y-56809853D01*
X154096784Y-56908456D01*
X153932812Y-56976376D01*
X153783512Y-57006073D01*
X153758742Y-57011000D01*
X153581258Y-57011000D01*
X153556488Y-57006073D01*
X153407188Y-56976376D01*
X153243216Y-56908456D01*
X153095646Y-56809853D01*
X152970147Y-56684354D01*
X152871544Y-56536784D01*
X152803624Y-56372812D01*
X152769000Y-56198741D01*
X152769000Y-56021259D01*
X152803624Y-55847188D01*
X152871544Y-55683216D01*
X152970147Y-55535646D01*
X153095646Y-55410147D01*
X153243216Y-55311544D01*
X153407188Y-55243624D01*
X153556488Y-55213927D01*
X153581258Y-55209000D01*
X153758742Y-55209000D01*
X153783512Y-55213927D01*
G37*
G36*
X151243512Y-55213927D02*
G01*
X151392812Y-55243624D01*
X151556784Y-55311544D01*
X151704354Y-55410147D01*
X151829853Y-55535646D01*
X151928456Y-55683216D01*
X151996376Y-55847188D01*
X152031000Y-56021259D01*
X152031000Y-56198741D01*
X151996376Y-56372812D01*
X151928456Y-56536784D01*
X151829853Y-56684354D01*
X151704354Y-56809853D01*
X151556784Y-56908456D01*
X151392812Y-56976376D01*
X151243512Y-57006073D01*
X151218742Y-57011000D01*
X151041258Y-57011000D01*
X151016488Y-57006073D01*
X150867188Y-56976376D01*
X150703216Y-56908456D01*
X150555646Y-56809853D01*
X150430147Y-56684354D01*
X150331544Y-56536784D01*
X150263624Y-56372812D01*
X150229000Y-56198741D01*
X150229000Y-56021259D01*
X150263624Y-55847188D01*
X150331544Y-55683216D01*
X150430147Y-55535646D01*
X150555646Y-55410147D01*
X150703216Y-55311544D01*
X150867188Y-55243624D01*
X151016488Y-55213927D01*
X151041258Y-55209000D01*
X151218742Y-55209000D01*
X151243512Y-55213927D01*
G37*
G36*
X201783512Y-55213927D02*
G01*
X201932812Y-55243624D01*
X202096784Y-55311544D01*
X202244354Y-55410147D01*
X202369853Y-55535646D01*
X202468456Y-55683216D01*
X202536376Y-55847188D01*
X202571000Y-56021259D01*
X202571000Y-56198741D01*
X202536376Y-56372812D01*
X202468456Y-56536784D01*
X202369853Y-56684354D01*
X202244354Y-56809853D01*
X202096784Y-56908456D01*
X201932812Y-56976376D01*
X201783512Y-57006073D01*
X201758742Y-57011000D01*
X201581258Y-57011000D01*
X201556488Y-57006073D01*
X201407188Y-56976376D01*
X201243216Y-56908456D01*
X201095646Y-56809853D01*
X200970147Y-56684354D01*
X200871544Y-56536784D01*
X200803624Y-56372812D01*
X200769000Y-56198741D01*
X200769000Y-56021259D01*
X200803624Y-55847188D01*
X200871544Y-55683216D01*
X200970147Y-55535646D01*
X201095646Y-55410147D01*
X201243216Y-55311544D01*
X201407188Y-55243624D01*
X201556488Y-55213927D01*
X201581258Y-55209000D01*
X201758742Y-55209000D01*
X201783512Y-55213927D01*
G37*
G36*
X148703512Y-55213927D02*
G01*
X148852812Y-55243624D01*
X149016784Y-55311544D01*
X149164354Y-55410147D01*
X149289853Y-55535646D01*
X149388456Y-55683216D01*
X149456376Y-55847188D01*
X149491000Y-56021259D01*
X149491000Y-56198741D01*
X149456376Y-56372812D01*
X149388456Y-56536784D01*
X149289853Y-56684354D01*
X149164354Y-56809853D01*
X149016784Y-56908456D01*
X148852812Y-56976376D01*
X148703512Y-57006073D01*
X148678742Y-57011000D01*
X148501258Y-57011000D01*
X148476488Y-57006073D01*
X148327188Y-56976376D01*
X148163216Y-56908456D01*
X148015646Y-56809853D01*
X147890147Y-56684354D01*
X147791544Y-56536784D01*
X147723624Y-56372812D01*
X147689000Y-56198741D01*
X147689000Y-56021259D01*
X147723624Y-55847188D01*
X147791544Y-55683216D01*
X147890147Y-55535646D01*
X148015646Y-55410147D01*
X148163216Y-55311544D01*
X148327188Y-55243624D01*
X148476488Y-55213927D01*
X148501258Y-55209000D01*
X148678742Y-55209000D01*
X148703512Y-55213927D01*
G37*
G36*
X146163512Y-55213927D02*
G01*
X146312812Y-55243624D01*
X146476784Y-55311544D01*
X146624354Y-55410147D01*
X146749853Y-55535646D01*
X146848456Y-55683216D01*
X146916376Y-55847188D01*
X146951000Y-56021259D01*
X146951000Y-56198741D01*
X146916376Y-56372812D01*
X146848456Y-56536784D01*
X146749853Y-56684354D01*
X146624354Y-56809853D01*
X146476784Y-56908456D01*
X146312812Y-56976376D01*
X146163512Y-57006073D01*
X146138742Y-57011000D01*
X145961258Y-57011000D01*
X145936488Y-57006073D01*
X145787188Y-56976376D01*
X145623216Y-56908456D01*
X145475646Y-56809853D01*
X145350147Y-56684354D01*
X145251544Y-56536784D01*
X145183624Y-56372812D01*
X145149000Y-56198741D01*
X145149000Y-56021259D01*
X145183624Y-55847188D01*
X145251544Y-55683216D01*
X145350147Y-55535646D01*
X145475646Y-55410147D01*
X145623216Y-55311544D01*
X145787188Y-55243624D01*
X145936488Y-55213927D01*
X145961258Y-55209000D01*
X146138742Y-55209000D01*
X146163512Y-55213927D01*
G37*
G36*
X143623512Y-55213927D02*
G01*
X143772812Y-55243624D01*
X143936784Y-55311544D01*
X144084354Y-55410147D01*
X144209853Y-55535646D01*
X144308456Y-55683216D01*
X144376376Y-55847188D01*
X144411000Y-56021259D01*
X144411000Y-56198741D01*
X144376376Y-56372812D01*
X144308456Y-56536784D01*
X144209853Y-56684354D01*
X144084354Y-56809853D01*
X143936784Y-56908456D01*
X143772812Y-56976376D01*
X143623512Y-57006073D01*
X143598742Y-57011000D01*
X143421258Y-57011000D01*
X143396488Y-57006073D01*
X143247188Y-56976376D01*
X143083216Y-56908456D01*
X142935646Y-56809853D01*
X142810147Y-56684354D01*
X142711544Y-56536784D01*
X142643624Y-56372812D01*
X142609000Y-56198741D01*
X142609000Y-56021259D01*
X142643624Y-55847188D01*
X142711544Y-55683216D01*
X142810147Y-55535646D01*
X142935646Y-55410147D01*
X143083216Y-55311544D01*
X143247188Y-55243624D01*
X143396488Y-55213927D01*
X143421258Y-55209000D01*
X143598742Y-55209000D01*
X143623512Y-55213927D01*
G37*
G36*
X138543512Y-55213927D02*
G01*
X138692812Y-55243624D01*
X138856784Y-55311544D01*
X139004354Y-55410147D01*
X139129853Y-55535646D01*
X139228456Y-55683216D01*
X139296376Y-55847188D01*
X139331000Y-56021259D01*
X139331000Y-56198741D01*
X139296376Y-56372812D01*
X139228456Y-56536784D01*
X139129853Y-56684354D01*
X139004354Y-56809853D01*
X138856784Y-56908456D01*
X138692812Y-56976376D01*
X138543512Y-57006073D01*
X138518742Y-57011000D01*
X138341258Y-57011000D01*
X138316488Y-57006073D01*
X138167188Y-56976376D01*
X138003216Y-56908456D01*
X137855646Y-56809853D01*
X137730147Y-56684354D01*
X137631544Y-56536784D01*
X137563624Y-56372812D01*
X137529000Y-56198741D01*
X137529000Y-56021259D01*
X137563624Y-55847188D01*
X137631544Y-55683216D01*
X137730147Y-55535646D01*
X137855646Y-55410147D01*
X138003216Y-55311544D01*
X138167188Y-55243624D01*
X138316488Y-55213927D01*
X138341258Y-55209000D01*
X138518742Y-55209000D01*
X138543512Y-55213927D01*
G37*
G36*
X189083512Y-55213927D02*
G01*
X189232812Y-55243624D01*
X189396784Y-55311544D01*
X189544354Y-55410147D01*
X189669853Y-55535646D01*
X189768456Y-55683216D01*
X189836376Y-55847188D01*
X189871000Y-56021259D01*
X189871000Y-56198741D01*
X189836376Y-56372812D01*
X189768456Y-56536784D01*
X189669853Y-56684354D01*
X189544354Y-56809853D01*
X189396784Y-56908456D01*
X189232812Y-56976376D01*
X189083512Y-57006073D01*
X189058742Y-57011000D01*
X188881258Y-57011000D01*
X188856488Y-57006073D01*
X188707188Y-56976376D01*
X188543216Y-56908456D01*
X188395646Y-56809853D01*
X188270147Y-56684354D01*
X188171544Y-56536784D01*
X188103624Y-56372812D01*
X188069000Y-56198741D01*
X188069000Y-56021259D01*
X188103624Y-55847188D01*
X188171544Y-55683216D01*
X188270147Y-55535646D01*
X188395646Y-55410147D01*
X188543216Y-55311544D01*
X188707188Y-55243624D01*
X188856488Y-55213927D01*
X188881258Y-55209000D01*
X189058742Y-55209000D01*
X189083512Y-55213927D01*
G37*
G36*
X191623512Y-55213927D02*
G01*
X191772812Y-55243624D01*
X191936784Y-55311544D01*
X192084354Y-55410147D01*
X192209853Y-55535646D01*
X192308456Y-55683216D01*
X192376376Y-55847188D01*
X192411000Y-56021259D01*
X192411000Y-56198741D01*
X192376376Y-56372812D01*
X192308456Y-56536784D01*
X192209853Y-56684354D01*
X192084354Y-56809853D01*
X191936784Y-56908456D01*
X191772812Y-56976376D01*
X191623512Y-57006073D01*
X191598742Y-57011000D01*
X191421258Y-57011000D01*
X191396488Y-57006073D01*
X191247188Y-56976376D01*
X191083216Y-56908456D01*
X190935646Y-56809853D01*
X190810147Y-56684354D01*
X190711544Y-56536784D01*
X190643624Y-56372812D01*
X190609000Y-56198741D01*
X190609000Y-56021259D01*
X190643624Y-55847188D01*
X190711544Y-55683216D01*
X190810147Y-55535646D01*
X190935646Y-55410147D01*
X191083216Y-55311544D01*
X191247188Y-55243624D01*
X191396488Y-55213927D01*
X191421258Y-55209000D01*
X191598742Y-55209000D01*
X191623512Y-55213927D01*
G37*
G36*
X194163512Y-55213927D02*
G01*
X194312812Y-55243624D01*
X194476784Y-55311544D01*
X194624354Y-55410147D01*
X194749853Y-55535646D01*
X194848456Y-55683216D01*
X194916376Y-55847188D01*
X194951000Y-56021259D01*
X194951000Y-56198741D01*
X194916376Y-56372812D01*
X194848456Y-56536784D01*
X194749853Y-56684354D01*
X194624354Y-56809853D01*
X194476784Y-56908456D01*
X194312812Y-56976376D01*
X194163512Y-57006073D01*
X194138742Y-57011000D01*
X193961258Y-57011000D01*
X193936488Y-57006073D01*
X193787188Y-56976376D01*
X193623216Y-56908456D01*
X193475646Y-56809853D01*
X193350147Y-56684354D01*
X193251544Y-56536784D01*
X193183624Y-56372812D01*
X193149000Y-56198741D01*
X193149000Y-56021259D01*
X193183624Y-55847188D01*
X193251544Y-55683216D01*
X193350147Y-55535646D01*
X193475646Y-55410147D01*
X193623216Y-55311544D01*
X193787188Y-55243624D01*
X193936488Y-55213927D01*
X193961258Y-55209000D01*
X194138742Y-55209000D01*
X194163512Y-55213927D01*
G37*
G36*
X196703512Y-55213927D02*
G01*
X196852812Y-55243624D01*
X197016784Y-55311544D01*
X197164354Y-55410147D01*
X197289853Y-55535646D01*
X197388456Y-55683216D01*
X197456376Y-55847188D01*
X197491000Y-56021259D01*
X197491000Y-56198741D01*
X197456376Y-56372812D01*
X197388456Y-56536784D01*
X197289853Y-56684354D01*
X197164354Y-56809853D01*
X197016784Y-56908456D01*
X196852812Y-56976376D01*
X196703512Y-57006073D01*
X196678742Y-57011000D01*
X196501258Y-57011000D01*
X196476488Y-57006073D01*
X196327188Y-56976376D01*
X196163216Y-56908456D01*
X196015646Y-56809853D01*
X195890147Y-56684354D01*
X195791544Y-56536784D01*
X195723624Y-56372812D01*
X195689000Y-56198741D01*
X195689000Y-56021259D01*
X195723624Y-55847188D01*
X195791544Y-55683216D01*
X195890147Y-55535646D01*
X196015646Y-55410147D01*
X196163216Y-55311544D01*
X196327188Y-55243624D01*
X196476488Y-55213927D01*
X196501258Y-55209000D01*
X196678742Y-55209000D01*
X196703512Y-55213927D01*
G37*
G36*
X199243512Y-55213927D02*
G01*
X199392812Y-55243624D01*
X199556784Y-55311544D01*
X199704354Y-55410147D01*
X199829853Y-55535646D01*
X199928456Y-55683216D01*
X199996376Y-55847188D01*
X200031000Y-56021259D01*
X200031000Y-56198741D01*
X199996376Y-56372812D01*
X199928456Y-56536784D01*
X199829853Y-56684354D01*
X199704354Y-56809853D01*
X199556784Y-56908456D01*
X199392812Y-56976376D01*
X199243512Y-57006073D01*
X199218742Y-57011000D01*
X199041258Y-57011000D01*
X199016488Y-57006073D01*
X198867188Y-56976376D01*
X198703216Y-56908456D01*
X198555646Y-56809853D01*
X198430147Y-56684354D01*
X198331544Y-56536784D01*
X198263624Y-56372812D01*
X198229000Y-56198741D01*
X198229000Y-56021259D01*
X198263624Y-55847188D01*
X198331544Y-55683216D01*
X198430147Y-55535646D01*
X198555646Y-55410147D01*
X198703216Y-55311544D01*
X198867188Y-55243624D01*
X199016488Y-55213927D01*
X199041258Y-55209000D01*
X199218742Y-55209000D01*
X199243512Y-55213927D01*
G37*
G36*
X205111000Y-57011000D02*
G01*
X203309000Y-57011000D01*
X203309000Y-55209000D01*
X205111000Y-55209000D01*
X205111000Y-57011000D01*
G37*
G36*
X136003512Y-55213927D02*
G01*
X136152812Y-55243624D01*
X136316784Y-55311544D01*
X136464354Y-55410147D01*
X136589853Y-55535646D01*
X136688456Y-55683216D01*
X136756376Y-55847188D01*
X136791000Y-56021259D01*
X136791000Y-56198741D01*
X136756376Y-56372812D01*
X136688456Y-56536784D01*
X136589853Y-56684354D01*
X136464354Y-56809853D01*
X136316784Y-56908456D01*
X136152812Y-56976376D01*
X136003512Y-57006073D01*
X135978742Y-57011000D01*
X135801258Y-57011000D01*
X135776488Y-57006073D01*
X135627188Y-56976376D01*
X135463216Y-56908456D01*
X135315646Y-56809853D01*
X135190147Y-56684354D01*
X135091544Y-56536784D01*
X135023624Y-56372812D01*
X134989000Y-56198741D01*
X134989000Y-56021259D01*
X135023624Y-55847188D01*
X135091544Y-55683216D01*
X135190147Y-55535646D01*
X135315646Y-55410147D01*
X135463216Y-55311544D01*
X135627188Y-55243624D01*
X135776488Y-55213927D01*
X135801258Y-55209000D01*
X135978742Y-55209000D01*
X136003512Y-55213927D01*
G37*
G36*
X141083512Y-55213927D02*
G01*
X141232812Y-55243624D01*
X141396784Y-55311544D01*
X141544354Y-55410147D01*
X141669853Y-55535646D01*
X141768456Y-55683216D01*
X141836376Y-55847188D01*
X141871000Y-56021259D01*
X141871000Y-56198741D01*
X141836376Y-56372812D01*
X141768456Y-56536784D01*
X141669853Y-56684354D01*
X141544354Y-56809853D01*
X141396784Y-56908456D01*
X141232812Y-56976376D01*
X141083512Y-57006073D01*
X141058742Y-57011000D01*
X140881258Y-57011000D01*
X140856488Y-57006073D01*
X140707188Y-56976376D01*
X140543216Y-56908456D01*
X140395646Y-56809853D01*
X140270147Y-56684354D01*
X140171544Y-56536784D01*
X140103624Y-56372812D01*
X140069000Y-56198741D01*
X140069000Y-56021259D01*
X140103624Y-55847188D01*
X140171544Y-55683216D01*
X140270147Y-55535646D01*
X140395646Y-55410147D01*
X140543216Y-55311544D01*
X140707188Y-55243624D01*
X140856488Y-55213927D01*
X140881258Y-55209000D01*
X141058742Y-55209000D01*
X141083512Y-55213927D01*
G37*
G36*
X131116564Y-47249389D02*
G01*
X131307833Y-47328615D01*
X131307835Y-47328616D01*
X131479973Y-47443635D01*
X131626365Y-47590027D01*
X131741385Y-47762167D01*
X131820611Y-47953436D01*
X131861000Y-48156484D01*
X131861000Y-48363516D01*
X131820611Y-48566564D01*
X131741385Y-48757833D01*
X131741384Y-48757835D01*
X131626365Y-48929973D01*
X131479973Y-49076365D01*
X131307835Y-49191384D01*
X131307834Y-49191385D01*
X131307833Y-49191385D01*
X131116564Y-49270611D01*
X130913516Y-49311000D01*
X130706484Y-49311000D01*
X130503436Y-49270611D01*
X130312167Y-49191385D01*
X130312166Y-49191385D01*
X130312165Y-49191384D01*
X130140027Y-49076365D01*
X129993635Y-48929973D01*
X129878616Y-48757835D01*
X129878615Y-48757833D01*
X129799389Y-48566564D01*
X129759000Y-48363516D01*
X129759000Y-48156484D01*
X129799389Y-47953436D01*
X129878615Y-47762167D01*
X129993635Y-47590027D01*
X130140027Y-47443635D01*
X130312165Y-47328616D01*
X130312167Y-47328615D01*
X130503436Y-47249389D01*
X130706484Y-47209000D01*
X130913516Y-47209000D01*
X131116564Y-47249389D01*
G37*
G36*
X124616564Y-47249389D02*
G01*
X124807833Y-47328615D01*
X124807835Y-47328616D01*
X124979973Y-47443635D01*
X125126365Y-47590027D01*
X125241385Y-47762167D01*
X125320611Y-47953436D01*
X125361000Y-48156484D01*
X125361000Y-48363516D01*
X125320611Y-48566564D01*
X125241385Y-48757833D01*
X125241384Y-48757835D01*
X125126365Y-48929973D01*
X124979973Y-49076365D01*
X124807835Y-49191384D01*
X124807834Y-49191385D01*
X124807833Y-49191385D01*
X124616564Y-49270611D01*
X124413516Y-49311000D01*
X124206484Y-49311000D01*
X124003436Y-49270611D01*
X123812167Y-49191385D01*
X123812166Y-49191385D01*
X123812165Y-49191384D01*
X123640027Y-49076365D01*
X123493635Y-48929973D01*
X123378616Y-48757835D01*
X123378615Y-48757833D01*
X123299389Y-48566564D01*
X123259000Y-48363516D01*
X123259000Y-48156484D01*
X123299389Y-47953436D01*
X123378615Y-47762167D01*
X123493635Y-47590027D01*
X123640027Y-47443635D01*
X123812165Y-47328616D01*
X123812167Y-47328615D01*
X124003436Y-47249389D01*
X124206484Y-47209000D01*
X124413516Y-47209000D01*
X124616564Y-47249389D01*
G37*
G36*
X213556564Y-47249389D02*
G01*
X213747833Y-47328615D01*
X213747835Y-47328616D01*
X213919973Y-47443635D01*
X214066365Y-47590027D01*
X214181385Y-47762167D01*
X214260611Y-47953436D01*
X214301000Y-48156484D01*
X214301000Y-48363516D01*
X214260611Y-48566564D01*
X214181385Y-48757833D01*
X214181384Y-48757835D01*
X214066365Y-48929973D01*
X213919973Y-49076365D01*
X213747835Y-49191384D01*
X213747834Y-49191385D01*
X213747833Y-49191385D01*
X213556564Y-49270611D01*
X213353516Y-49311000D01*
X213146484Y-49311000D01*
X212943436Y-49270611D01*
X212752167Y-49191385D01*
X212752166Y-49191385D01*
X212752165Y-49191384D01*
X212580027Y-49076365D01*
X212433635Y-48929973D01*
X212318616Y-48757835D01*
X212318615Y-48757833D01*
X212239389Y-48566564D01*
X212199000Y-48363516D01*
X212199000Y-48156484D01*
X212239389Y-47953436D01*
X212318615Y-47762167D01*
X212433635Y-47590027D01*
X212580027Y-47443635D01*
X212752165Y-47328616D01*
X212752167Y-47328615D01*
X212943436Y-47249389D01*
X213146484Y-47209000D01*
X213353516Y-47209000D01*
X213556564Y-47249389D01*
G37*
G36*
X207056564Y-47249389D02*
G01*
X207247833Y-47328615D01*
X207247835Y-47328616D01*
X207419973Y-47443635D01*
X207566365Y-47590027D01*
X207681385Y-47762167D01*
X207760611Y-47953436D01*
X207801000Y-48156484D01*
X207801000Y-48363516D01*
X207760611Y-48566564D01*
X207681385Y-48757833D01*
X207681384Y-48757835D01*
X207566365Y-48929973D01*
X207419973Y-49076365D01*
X207247835Y-49191384D01*
X207247834Y-49191385D01*
X207247833Y-49191385D01*
X207056564Y-49270611D01*
X206853516Y-49311000D01*
X206646484Y-49311000D01*
X206443436Y-49270611D01*
X206252167Y-49191385D01*
X206252166Y-49191385D01*
X206252165Y-49191384D01*
X206080027Y-49076365D01*
X205933635Y-48929973D01*
X205818616Y-48757835D01*
X205818615Y-48757833D01*
X205739389Y-48566564D01*
X205699000Y-48363516D01*
X205699000Y-48156484D01*
X205739389Y-47953436D01*
X205818615Y-47762167D01*
X205933635Y-47590027D01*
X206080027Y-47443635D01*
X206252165Y-47328616D01*
X206252167Y-47328615D01*
X206443436Y-47249389D01*
X206646484Y-47209000D01*
X206853516Y-47209000D01*
X207056564Y-47249389D01*
G37*
G36*
X124616564Y-42749389D02*
G01*
X124807833Y-42828615D01*
X124807835Y-42828616D01*
X124979973Y-42943635D01*
X125126365Y-43090027D01*
X125241385Y-43262167D01*
X125320611Y-43453436D01*
X125361000Y-43656484D01*
X125361000Y-43863516D01*
X125320611Y-44066564D01*
X125241385Y-44257833D01*
X125241384Y-44257835D01*
X125126365Y-44429973D01*
X124979973Y-44576365D01*
X124807835Y-44691384D01*
X124807834Y-44691385D01*
X124807833Y-44691385D01*
X124616564Y-44770611D01*
X124413516Y-44811000D01*
X124206484Y-44811000D01*
X124003436Y-44770611D01*
X123812167Y-44691385D01*
X123812166Y-44691385D01*
X123812165Y-44691384D01*
X123640027Y-44576365D01*
X123493635Y-44429973D01*
X123378616Y-44257835D01*
X123378615Y-44257833D01*
X123299389Y-44066564D01*
X123259000Y-43863516D01*
X123259000Y-43656484D01*
X123299389Y-43453436D01*
X123378615Y-43262167D01*
X123493635Y-43090027D01*
X123640027Y-42943635D01*
X123812165Y-42828616D01*
X123812167Y-42828615D01*
X124003436Y-42749389D01*
X124206484Y-42709000D01*
X124413516Y-42709000D01*
X124616564Y-42749389D01*
G37*
G36*
X207056564Y-42749389D02*
G01*
X207247833Y-42828615D01*
X207247835Y-42828616D01*
X207419973Y-42943635D01*
X207566365Y-43090027D01*
X207681385Y-43262167D01*
X207760611Y-43453436D01*
X207801000Y-43656484D01*
X207801000Y-43863516D01*
X207760611Y-44066564D01*
X207681385Y-44257833D01*
X207681384Y-44257835D01*
X207566365Y-44429973D01*
X207419973Y-44576365D01*
X207247835Y-44691384D01*
X207247834Y-44691385D01*
X207247833Y-44691385D01*
X207056564Y-44770611D01*
X206853516Y-44811000D01*
X206646484Y-44811000D01*
X206443436Y-44770611D01*
X206252167Y-44691385D01*
X206252166Y-44691385D01*
X206252165Y-44691384D01*
X206080027Y-44576365D01*
X205933635Y-44429973D01*
X205818616Y-44257835D01*
X205818615Y-44257833D01*
X205739389Y-44066564D01*
X205699000Y-43863516D01*
X205699000Y-43656484D01*
X205739389Y-43453436D01*
X205818615Y-43262167D01*
X205933635Y-43090027D01*
X206080027Y-42943635D01*
X206252165Y-42828616D01*
X206252167Y-42828615D01*
X206443436Y-42749389D01*
X206646484Y-42709000D01*
X206853516Y-42709000D01*
X207056564Y-42749389D01*
G37*
G36*
X131116564Y-42749389D02*
G01*
X131307833Y-42828615D01*
X131307835Y-42828616D01*
X131479973Y-42943635D01*
X131626365Y-43090027D01*
X131741385Y-43262167D01*
X131820611Y-43453436D01*
X131861000Y-43656484D01*
X131861000Y-43863516D01*
X131820611Y-44066564D01*
X131741385Y-44257833D01*
X131741384Y-44257835D01*
X131626365Y-44429973D01*
X131479973Y-44576365D01*
X131307835Y-44691384D01*
X131307834Y-44691385D01*
X131307833Y-44691385D01*
X131116564Y-44770611D01*
X130913516Y-44811000D01*
X130706484Y-44811000D01*
X130503436Y-44770611D01*
X130312167Y-44691385D01*
X130312166Y-44691385D01*
X130312165Y-44691384D01*
X130140027Y-44576365D01*
X129993635Y-44429973D01*
X129878616Y-44257835D01*
X129878615Y-44257833D01*
X129799389Y-44066564D01*
X129759000Y-43863516D01*
X129759000Y-43656484D01*
X129799389Y-43453436D01*
X129878615Y-43262167D01*
X129993635Y-43090027D01*
X130140027Y-42943635D01*
X130312165Y-42828616D01*
X130312167Y-42828615D01*
X130503436Y-42749389D01*
X130706484Y-42709000D01*
X130913516Y-42709000D01*
X131116564Y-42749389D01*
G37*
G36*
X213556564Y-42749389D02*
G01*
X213747833Y-42828615D01*
X213747835Y-42828616D01*
X213919973Y-42943635D01*
X214066365Y-43090027D01*
X214181385Y-43262167D01*
X214260611Y-43453436D01*
X214301000Y-43656484D01*
X214301000Y-43863516D01*
X214260611Y-44066564D01*
X214181385Y-44257833D01*
X214181384Y-44257835D01*
X214066365Y-44429973D01*
X213919973Y-44576365D01*
X213747835Y-44691384D01*
X213747834Y-44691385D01*
X213747833Y-44691385D01*
X213556564Y-44770611D01*
X213353516Y-44811000D01*
X213146484Y-44811000D01*
X212943436Y-44770611D01*
X212752167Y-44691385D01*
X212752166Y-44691385D01*
X212752165Y-44691384D01*
X212580027Y-44576365D01*
X212433635Y-44429973D01*
X212318616Y-44257835D01*
X212318615Y-44257833D01*
X212239389Y-44066564D01*
X212199000Y-43863516D01*
X212199000Y-43656484D01*
X212239389Y-43453436D01*
X212318615Y-43262167D01*
X212433635Y-43090027D01*
X212580027Y-42943635D01*
X212752165Y-42828616D01*
X212752167Y-42828615D01*
X212943436Y-42749389D01*
X213146484Y-42709000D01*
X213353516Y-42709000D01*
X213556564Y-42749389D01*
G37*
M02*
