G04 #@! TF.GenerationSoftware,KiCad,Pcbnew,5.1.5*
G04 #@! TF.CreationDate,2019-12-27T12:01:36+00:00*
G04 #@! TF.ProjectId,wkday,776b6461-792e-46b6-9963-61645f706362,rev?*
G04 #@! TF.SameCoordinates,Original*
G04 #@! TF.FileFunction,Soldermask,Bot*
G04 #@! TF.FilePolarity,Negative*
%FSLAX46Y46*%
G04 Gerber Fmt 4.6, Leading zero omitted, Abs format (unit mm)*
G04 Created by KiCad (PCBNEW 5.1.5) date 2019-12-27 12:01:36*
%MOMM*%
%LPD*%
G04 APERTURE LIST*
%ADD10C,0.100000*%
%ADD11C,0.300000*%
G04 APERTURE END LIST*
D10*
G36*
X128270000Y-111760000D02*
G01*
X120650000Y-111760000D01*
X120650000Y-105410000D01*
X128270000Y-105410000D01*
X128270000Y-111760000D01*
G37*
X128270000Y-111760000D02*
X120650000Y-111760000D01*
X120650000Y-105410000D01*
X128270000Y-105410000D01*
X128270000Y-111760000D01*
G36*
X217170000Y-111760000D02*
G01*
X209550000Y-111760000D01*
X209550000Y-105410000D01*
X217170000Y-105410000D01*
X217170000Y-111760000D01*
G37*
X217170000Y-111760000D02*
X209550000Y-111760000D01*
X209550000Y-105410000D01*
X217170000Y-105410000D01*
X217170000Y-111760000D01*
D11*
X180021285Y-55014761D02*
X178878428Y-55014761D01*
X179449857Y-57014761D02*
X179449857Y-55014761D01*
X178211761Y-57014761D02*
X178211761Y-55681428D01*
X178211761Y-56062380D02*
X178116523Y-55871904D01*
X178021285Y-55776666D01*
X177830809Y-55681428D01*
X177640333Y-55681428D01*
X176116523Y-57014761D02*
X176116523Y-55967142D01*
X176211761Y-55776666D01*
X176402238Y-55681428D01*
X176783190Y-55681428D01*
X176973666Y-55776666D01*
X176116523Y-56919523D02*
X176307000Y-57014761D01*
X176783190Y-57014761D01*
X176973666Y-56919523D01*
X177068904Y-56729047D01*
X177068904Y-56538571D01*
X176973666Y-56348095D01*
X176783190Y-56252857D01*
X176307000Y-56252857D01*
X176116523Y-56157619D01*
X175164142Y-55681428D02*
X175164142Y-57014761D01*
X175164142Y-55871904D02*
X175068904Y-55776666D01*
X174878428Y-55681428D01*
X174592714Y-55681428D01*
X174402238Y-55776666D01*
X174307000Y-55967142D01*
X174307000Y-57014761D01*
X173449857Y-56919523D02*
X173259380Y-57014761D01*
X172878428Y-57014761D01*
X172687952Y-56919523D01*
X172592714Y-56729047D01*
X172592714Y-56633809D01*
X172687952Y-56443333D01*
X172878428Y-56348095D01*
X173164142Y-56348095D01*
X173354619Y-56252857D01*
X173449857Y-56062380D01*
X173449857Y-55967142D01*
X173354619Y-55776666D01*
X173164142Y-55681428D01*
X172878428Y-55681428D01*
X172687952Y-55776666D01*
X169068904Y-57014761D02*
X169735571Y-56062380D01*
X170211761Y-57014761D02*
X170211761Y-55014761D01*
X169449857Y-55014761D01*
X169259380Y-55110000D01*
X169164142Y-55205238D01*
X169068904Y-55395714D01*
X169068904Y-55681428D01*
X169164142Y-55871904D01*
X169259380Y-55967142D01*
X169449857Y-56062380D01*
X170211761Y-56062380D01*
X168211761Y-57014761D02*
X168211761Y-55681428D01*
X168211761Y-55014761D02*
X168307000Y-55110000D01*
X168211761Y-55205238D01*
X168116523Y-55110000D01*
X168211761Y-55014761D01*
X168211761Y-55205238D01*
X166402238Y-55681428D02*
X166402238Y-57300476D01*
X166497476Y-57490952D01*
X166592714Y-57586190D01*
X166783190Y-57681428D01*
X167068904Y-57681428D01*
X167259380Y-57586190D01*
X166402238Y-56919523D02*
X166592714Y-57014761D01*
X166973666Y-57014761D01*
X167164142Y-56919523D01*
X167259380Y-56824285D01*
X167354619Y-56633809D01*
X167354619Y-56062380D01*
X167259380Y-55871904D01*
X167164142Y-55776666D01*
X166973666Y-55681428D01*
X166592714Y-55681428D01*
X166402238Y-55776666D01*
X165449857Y-57014761D02*
X165449857Y-55014761D01*
X164592714Y-57014761D02*
X164592714Y-55967142D01*
X164687952Y-55776666D01*
X164878428Y-55681428D01*
X165164142Y-55681428D01*
X165354619Y-55776666D01*
X165449857Y-55871904D01*
X163926047Y-55681428D02*
X163164142Y-55681428D01*
X163640333Y-55014761D02*
X163640333Y-56729047D01*
X163545095Y-56919523D01*
X163354619Y-57014761D01*
X163164142Y-57014761D01*
X162592714Y-56919523D02*
X162402238Y-57014761D01*
X162021285Y-57014761D01*
X161830809Y-56919523D01*
X161735571Y-56729047D01*
X161735571Y-56633809D01*
X161830809Y-56443333D01*
X162021285Y-56348095D01*
X162307000Y-56348095D01*
X162497476Y-56252857D01*
X162592714Y-56062380D01*
X162592714Y-55967142D01*
X162497476Y-55776666D01*
X162307000Y-55681428D01*
X162021285Y-55681428D01*
X161830809Y-55776666D01*
X160878428Y-56824285D02*
X160783190Y-56919523D01*
X160878428Y-57014761D01*
X160973666Y-56919523D01*
X160878428Y-56824285D01*
X160878428Y-57014761D01*
X160878428Y-56252857D02*
X160973666Y-55110000D01*
X160878428Y-55014761D01*
X160783190Y-55110000D01*
X160878428Y-56252857D01*
X160878428Y-55014761D01*
D10*
G36*
X204323512Y-117213927D02*
G01*
X204472812Y-117243624D01*
X204636784Y-117311544D01*
X204784354Y-117410147D01*
X204909853Y-117535646D01*
X205008456Y-117683216D01*
X205076376Y-117847188D01*
X205111000Y-118021259D01*
X205111000Y-118198741D01*
X205076376Y-118372812D01*
X205008456Y-118536784D01*
X204909853Y-118684354D01*
X204784354Y-118809853D01*
X204636784Y-118908456D01*
X204472812Y-118976376D01*
X204323512Y-119006073D01*
X204298742Y-119011000D01*
X204121258Y-119011000D01*
X204096488Y-119006073D01*
X203947188Y-118976376D01*
X203783216Y-118908456D01*
X203635646Y-118809853D01*
X203510147Y-118684354D01*
X203411544Y-118536784D01*
X203343624Y-118372812D01*
X203309000Y-118198741D01*
X203309000Y-118021259D01*
X203343624Y-117847188D01*
X203411544Y-117683216D01*
X203510147Y-117535646D01*
X203635646Y-117410147D01*
X203783216Y-117311544D01*
X203947188Y-117243624D01*
X204096488Y-117213927D01*
X204121258Y-117209000D01*
X204298742Y-117209000D01*
X204323512Y-117213927D01*
G37*
G36*
X136003512Y-117213927D02*
G01*
X136152812Y-117243624D01*
X136316784Y-117311544D01*
X136464354Y-117410147D01*
X136589853Y-117535646D01*
X136688456Y-117683216D01*
X136756376Y-117847188D01*
X136791000Y-118021259D01*
X136791000Y-118198741D01*
X136756376Y-118372812D01*
X136688456Y-118536784D01*
X136589853Y-118684354D01*
X136464354Y-118809853D01*
X136316784Y-118908456D01*
X136152812Y-118976376D01*
X136003512Y-119006073D01*
X135978742Y-119011000D01*
X135801258Y-119011000D01*
X135776488Y-119006073D01*
X135627188Y-118976376D01*
X135463216Y-118908456D01*
X135315646Y-118809853D01*
X135190147Y-118684354D01*
X135091544Y-118536784D01*
X135023624Y-118372812D01*
X134989000Y-118198741D01*
X134989000Y-118021259D01*
X135023624Y-117847188D01*
X135091544Y-117683216D01*
X135190147Y-117535646D01*
X135315646Y-117410147D01*
X135463216Y-117311544D01*
X135627188Y-117243624D01*
X135776488Y-117213927D01*
X135801258Y-117209000D01*
X135978742Y-117209000D01*
X136003512Y-117213927D01*
G37*
G36*
X184003512Y-117213927D02*
G01*
X184152812Y-117243624D01*
X184316784Y-117311544D01*
X184464354Y-117410147D01*
X184589853Y-117535646D01*
X184688456Y-117683216D01*
X184756376Y-117847188D01*
X184791000Y-118021259D01*
X184791000Y-118198741D01*
X184756376Y-118372812D01*
X184688456Y-118536784D01*
X184589853Y-118684354D01*
X184464354Y-118809853D01*
X184316784Y-118908456D01*
X184152812Y-118976376D01*
X184003512Y-119006073D01*
X183978742Y-119011000D01*
X183801258Y-119011000D01*
X183776488Y-119006073D01*
X183627188Y-118976376D01*
X183463216Y-118908456D01*
X183315646Y-118809853D01*
X183190147Y-118684354D01*
X183091544Y-118536784D01*
X183023624Y-118372812D01*
X182989000Y-118198741D01*
X182989000Y-118021259D01*
X183023624Y-117847188D01*
X183091544Y-117683216D01*
X183190147Y-117535646D01*
X183315646Y-117410147D01*
X183463216Y-117311544D01*
X183627188Y-117243624D01*
X183776488Y-117213927D01*
X183801258Y-117209000D01*
X183978742Y-117209000D01*
X184003512Y-117213927D01*
G37*
G36*
X182251000Y-119011000D02*
G01*
X180449000Y-119011000D01*
X180449000Y-117209000D01*
X182251000Y-117209000D01*
X182251000Y-119011000D01*
G37*
G36*
X156323512Y-117213927D02*
G01*
X156472812Y-117243624D01*
X156636784Y-117311544D01*
X156784354Y-117410147D01*
X156909853Y-117535646D01*
X157008456Y-117683216D01*
X157076376Y-117847188D01*
X157111000Y-118021259D01*
X157111000Y-118198741D01*
X157076376Y-118372812D01*
X157008456Y-118536784D01*
X156909853Y-118684354D01*
X156784354Y-118809853D01*
X156636784Y-118908456D01*
X156472812Y-118976376D01*
X156323512Y-119006073D01*
X156298742Y-119011000D01*
X156121258Y-119011000D01*
X156096488Y-119006073D01*
X155947188Y-118976376D01*
X155783216Y-118908456D01*
X155635646Y-118809853D01*
X155510147Y-118684354D01*
X155411544Y-118536784D01*
X155343624Y-118372812D01*
X155309000Y-118198741D01*
X155309000Y-118021259D01*
X155343624Y-117847188D01*
X155411544Y-117683216D01*
X155510147Y-117535646D01*
X155635646Y-117410147D01*
X155783216Y-117311544D01*
X155947188Y-117243624D01*
X156096488Y-117213927D01*
X156121258Y-117209000D01*
X156298742Y-117209000D01*
X156323512Y-117213927D01*
G37*
G36*
X153783512Y-117213927D02*
G01*
X153932812Y-117243624D01*
X154096784Y-117311544D01*
X154244354Y-117410147D01*
X154369853Y-117535646D01*
X154468456Y-117683216D01*
X154536376Y-117847188D01*
X154571000Y-118021259D01*
X154571000Y-118198741D01*
X154536376Y-118372812D01*
X154468456Y-118536784D01*
X154369853Y-118684354D01*
X154244354Y-118809853D01*
X154096784Y-118908456D01*
X153932812Y-118976376D01*
X153783512Y-119006073D01*
X153758742Y-119011000D01*
X153581258Y-119011000D01*
X153556488Y-119006073D01*
X153407188Y-118976376D01*
X153243216Y-118908456D01*
X153095646Y-118809853D01*
X152970147Y-118684354D01*
X152871544Y-118536784D01*
X152803624Y-118372812D01*
X152769000Y-118198741D01*
X152769000Y-118021259D01*
X152803624Y-117847188D01*
X152871544Y-117683216D01*
X152970147Y-117535646D01*
X153095646Y-117410147D01*
X153243216Y-117311544D01*
X153407188Y-117243624D01*
X153556488Y-117213927D01*
X153581258Y-117209000D01*
X153758742Y-117209000D01*
X153783512Y-117213927D01*
G37*
G36*
X151243512Y-117213927D02*
G01*
X151392812Y-117243624D01*
X151556784Y-117311544D01*
X151704354Y-117410147D01*
X151829853Y-117535646D01*
X151928456Y-117683216D01*
X151996376Y-117847188D01*
X152031000Y-118021259D01*
X152031000Y-118198741D01*
X151996376Y-118372812D01*
X151928456Y-118536784D01*
X151829853Y-118684354D01*
X151704354Y-118809853D01*
X151556784Y-118908456D01*
X151392812Y-118976376D01*
X151243512Y-119006073D01*
X151218742Y-119011000D01*
X151041258Y-119011000D01*
X151016488Y-119006073D01*
X150867188Y-118976376D01*
X150703216Y-118908456D01*
X150555646Y-118809853D01*
X150430147Y-118684354D01*
X150331544Y-118536784D01*
X150263624Y-118372812D01*
X150229000Y-118198741D01*
X150229000Y-118021259D01*
X150263624Y-117847188D01*
X150331544Y-117683216D01*
X150430147Y-117535646D01*
X150555646Y-117410147D01*
X150703216Y-117311544D01*
X150867188Y-117243624D01*
X151016488Y-117213927D01*
X151041258Y-117209000D01*
X151218742Y-117209000D01*
X151243512Y-117213927D01*
G37*
G36*
X148703512Y-117213927D02*
G01*
X148852812Y-117243624D01*
X149016784Y-117311544D01*
X149164354Y-117410147D01*
X149289853Y-117535646D01*
X149388456Y-117683216D01*
X149456376Y-117847188D01*
X149491000Y-118021259D01*
X149491000Y-118198741D01*
X149456376Y-118372812D01*
X149388456Y-118536784D01*
X149289853Y-118684354D01*
X149164354Y-118809853D01*
X149016784Y-118908456D01*
X148852812Y-118976376D01*
X148703512Y-119006073D01*
X148678742Y-119011000D01*
X148501258Y-119011000D01*
X148476488Y-119006073D01*
X148327188Y-118976376D01*
X148163216Y-118908456D01*
X148015646Y-118809853D01*
X147890147Y-118684354D01*
X147791544Y-118536784D01*
X147723624Y-118372812D01*
X147689000Y-118198741D01*
X147689000Y-118021259D01*
X147723624Y-117847188D01*
X147791544Y-117683216D01*
X147890147Y-117535646D01*
X148015646Y-117410147D01*
X148163216Y-117311544D01*
X148327188Y-117243624D01*
X148476488Y-117213927D01*
X148501258Y-117209000D01*
X148678742Y-117209000D01*
X148703512Y-117213927D01*
G37*
G36*
X146163512Y-117213927D02*
G01*
X146312812Y-117243624D01*
X146476784Y-117311544D01*
X146624354Y-117410147D01*
X146749853Y-117535646D01*
X146848456Y-117683216D01*
X146916376Y-117847188D01*
X146951000Y-118021259D01*
X146951000Y-118198741D01*
X146916376Y-118372812D01*
X146848456Y-118536784D01*
X146749853Y-118684354D01*
X146624354Y-118809853D01*
X146476784Y-118908456D01*
X146312812Y-118976376D01*
X146163512Y-119006073D01*
X146138742Y-119011000D01*
X145961258Y-119011000D01*
X145936488Y-119006073D01*
X145787188Y-118976376D01*
X145623216Y-118908456D01*
X145475646Y-118809853D01*
X145350147Y-118684354D01*
X145251544Y-118536784D01*
X145183624Y-118372812D01*
X145149000Y-118198741D01*
X145149000Y-118021259D01*
X145183624Y-117847188D01*
X145251544Y-117683216D01*
X145350147Y-117535646D01*
X145475646Y-117410147D01*
X145623216Y-117311544D01*
X145787188Y-117243624D01*
X145936488Y-117213927D01*
X145961258Y-117209000D01*
X146138742Y-117209000D01*
X146163512Y-117213927D01*
G37*
G36*
X143623512Y-117213927D02*
G01*
X143772812Y-117243624D01*
X143936784Y-117311544D01*
X144084354Y-117410147D01*
X144209853Y-117535646D01*
X144308456Y-117683216D01*
X144376376Y-117847188D01*
X144411000Y-118021259D01*
X144411000Y-118198741D01*
X144376376Y-118372812D01*
X144308456Y-118536784D01*
X144209853Y-118684354D01*
X144084354Y-118809853D01*
X143936784Y-118908456D01*
X143772812Y-118976376D01*
X143623512Y-119006073D01*
X143598742Y-119011000D01*
X143421258Y-119011000D01*
X143396488Y-119006073D01*
X143247188Y-118976376D01*
X143083216Y-118908456D01*
X142935646Y-118809853D01*
X142810147Y-118684354D01*
X142711544Y-118536784D01*
X142643624Y-118372812D01*
X142609000Y-118198741D01*
X142609000Y-118021259D01*
X142643624Y-117847188D01*
X142711544Y-117683216D01*
X142810147Y-117535646D01*
X142935646Y-117410147D01*
X143083216Y-117311544D01*
X143247188Y-117243624D01*
X143396488Y-117213927D01*
X143421258Y-117209000D01*
X143598742Y-117209000D01*
X143623512Y-117213927D01*
G37*
G36*
X141083512Y-117213927D02*
G01*
X141232812Y-117243624D01*
X141396784Y-117311544D01*
X141544354Y-117410147D01*
X141669853Y-117535646D01*
X141768456Y-117683216D01*
X141836376Y-117847188D01*
X141871000Y-118021259D01*
X141871000Y-118198741D01*
X141836376Y-118372812D01*
X141768456Y-118536784D01*
X141669853Y-118684354D01*
X141544354Y-118809853D01*
X141396784Y-118908456D01*
X141232812Y-118976376D01*
X141083512Y-119006073D01*
X141058742Y-119011000D01*
X140881258Y-119011000D01*
X140856488Y-119006073D01*
X140707188Y-118976376D01*
X140543216Y-118908456D01*
X140395646Y-118809853D01*
X140270147Y-118684354D01*
X140171544Y-118536784D01*
X140103624Y-118372812D01*
X140069000Y-118198741D01*
X140069000Y-118021259D01*
X140103624Y-117847188D01*
X140171544Y-117683216D01*
X140270147Y-117535646D01*
X140395646Y-117410147D01*
X140543216Y-117311544D01*
X140707188Y-117243624D01*
X140856488Y-117213927D01*
X140881258Y-117209000D01*
X141058742Y-117209000D01*
X141083512Y-117213927D01*
G37*
G36*
X134251000Y-119011000D02*
G01*
X132449000Y-119011000D01*
X132449000Y-117209000D01*
X134251000Y-117209000D01*
X134251000Y-119011000D01*
G37*
G36*
X186543512Y-117213927D02*
G01*
X186692812Y-117243624D01*
X186856784Y-117311544D01*
X187004354Y-117410147D01*
X187129853Y-117535646D01*
X187228456Y-117683216D01*
X187296376Y-117847188D01*
X187331000Y-118021259D01*
X187331000Y-118198741D01*
X187296376Y-118372812D01*
X187228456Y-118536784D01*
X187129853Y-118684354D01*
X187004354Y-118809853D01*
X186856784Y-118908456D01*
X186692812Y-118976376D01*
X186543512Y-119006073D01*
X186518742Y-119011000D01*
X186341258Y-119011000D01*
X186316488Y-119006073D01*
X186167188Y-118976376D01*
X186003216Y-118908456D01*
X185855646Y-118809853D01*
X185730147Y-118684354D01*
X185631544Y-118536784D01*
X185563624Y-118372812D01*
X185529000Y-118198741D01*
X185529000Y-118021259D01*
X185563624Y-117847188D01*
X185631544Y-117683216D01*
X185730147Y-117535646D01*
X185855646Y-117410147D01*
X186003216Y-117311544D01*
X186167188Y-117243624D01*
X186316488Y-117213927D01*
X186341258Y-117209000D01*
X186518742Y-117209000D01*
X186543512Y-117213927D01*
G37*
G36*
X189083512Y-117213927D02*
G01*
X189232812Y-117243624D01*
X189396784Y-117311544D01*
X189544354Y-117410147D01*
X189669853Y-117535646D01*
X189768456Y-117683216D01*
X189836376Y-117847188D01*
X189871000Y-118021259D01*
X189871000Y-118198741D01*
X189836376Y-118372812D01*
X189768456Y-118536784D01*
X189669853Y-118684354D01*
X189544354Y-118809853D01*
X189396784Y-118908456D01*
X189232812Y-118976376D01*
X189083512Y-119006073D01*
X189058742Y-119011000D01*
X188881258Y-119011000D01*
X188856488Y-119006073D01*
X188707188Y-118976376D01*
X188543216Y-118908456D01*
X188395646Y-118809853D01*
X188270147Y-118684354D01*
X188171544Y-118536784D01*
X188103624Y-118372812D01*
X188069000Y-118198741D01*
X188069000Y-118021259D01*
X188103624Y-117847188D01*
X188171544Y-117683216D01*
X188270147Y-117535646D01*
X188395646Y-117410147D01*
X188543216Y-117311544D01*
X188707188Y-117243624D01*
X188856488Y-117213927D01*
X188881258Y-117209000D01*
X189058742Y-117209000D01*
X189083512Y-117213927D01*
G37*
G36*
X191623512Y-117213927D02*
G01*
X191772812Y-117243624D01*
X191936784Y-117311544D01*
X192084354Y-117410147D01*
X192209853Y-117535646D01*
X192308456Y-117683216D01*
X192376376Y-117847188D01*
X192411000Y-118021259D01*
X192411000Y-118198741D01*
X192376376Y-118372812D01*
X192308456Y-118536784D01*
X192209853Y-118684354D01*
X192084354Y-118809853D01*
X191936784Y-118908456D01*
X191772812Y-118976376D01*
X191623512Y-119006073D01*
X191598742Y-119011000D01*
X191421258Y-119011000D01*
X191396488Y-119006073D01*
X191247188Y-118976376D01*
X191083216Y-118908456D01*
X190935646Y-118809853D01*
X190810147Y-118684354D01*
X190711544Y-118536784D01*
X190643624Y-118372812D01*
X190609000Y-118198741D01*
X190609000Y-118021259D01*
X190643624Y-117847188D01*
X190711544Y-117683216D01*
X190810147Y-117535646D01*
X190935646Y-117410147D01*
X191083216Y-117311544D01*
X191247188Y-117243624D01*
X191396488Y-117213927D01*
X191421258Y-117209000D01*
X191598742Y-117209000D01*
X191623512Y-117213927D01*
G37*
G36*
X194163512Y-117213927D02*
G01*
X194312812Y-117243624D01*
X194476784Y-117311544D01*
X194624354Y-117410147D01*
X194749853Y-117535646D01*
X194848456Y-117683216D01*
X194916376Y-117847188D01*
X194951000Y-118021259D01*
X194951000Y-118198741D01*
X194916376Y-118372812D01*
X194848456Y-118536784D01*
X194749853Y-118684354D01*
X194624354Y-118809853D01*
X194476784Y-118908456D01*
X194312812Y-118976376D01*
X194163512Y-119006073D01*
X194138742Y-119011000D01*
X193961258Y-119011000D01*
X193936488Y-119006073D01*
X193787188Y-118976376D01*
X193623216Y-118908456D01*
X193475646Y-118809853D01*
X193350147Y-118684354D01*
X193251544Y-118536784D01*
X193183624Y-118372812D01*
X193149000Y-118198741D01*
X193149000Y-118021259D01*
X193183624Y-117847188D01*
X193251544Y-117683216D01*
X193350147Y-117535646D01*
X193475646Y-117410147D01*
X193623216Y-117311544D01*
X193787188Y-117243624D01*
X193936488Y-117213927D01*
X193961258Y-117209000D01*
X194138742Y-117209000D01*
X194163512Y-117213927D01*
G37*
G36*
X196703512Y-117213927D02*
G01*
X196852812Y-117243624D01*
X197016784Y-117311544D01*
X197164354Y-117410147D01*
X197289853Y-117535646D01*
X197388456Y-117683216D01*
X197456376Y-117847188D01*
X197491000Y-118021259D01*
X197491000Y-118198741D01*
X197456376Y-118372812D01*
X197388456Y-118536784D01*
X197289853Y-118684354D01*
X197164354Y-118809853D01*
X197016784Y-118908456D01*
X196852812Y-118976376D01*
X196703512Y-119006073D01*
X196678742Y-119011000D01*
X196501258Y-119011000D01*
X196476488Y-119006073D01*
X196327188Y-118976376D01*
X196163216Y-118908456D01*
X196015646Y-118809853D01*
X195890147Y-118684354D01*
X195791544Y-118536784D01*
X195723624Y-118372812D01*
X195689000Y-118198741D01*
X195689000Y-118021259D01*
X195723624Y-117847188D01*
X195791544Y-117683216D01*
X195890147Y-117535646D01*
X196015646Y-117410147D01*
X196163216Y-117311544D01*
X196327188Y-117243624D01*
X196476488Y-117213927D01*
X196501258Y-117209000D01*
X196678742Y-117209000D01*
X196703512Y-117213927D01*
G37*
G36*
X199243512Y-117213927D02*
G01*
X199392812Y-117243624D01*
X199556784Y-117311544D01*
X199704354Y-117410147D01*
X199829853Y-117535646D01*
X199928456Y-117683216D01*
X199996376Y-117847188D01*
X200031000Y-118021259D01*
X200031000Y-118198741D01*
X199996376Y-118372812D01*
X199928456Y-118536784D01*
X199829853Y-118684354D01*
X199704354Y-118809853D01*
X199556784Y-118908456D01*
X199392812Y-118976376D01*
X199243512Y-119006073D01*
X199218742Y-119011000D01*
X199041258Y-119011000D01*
X199016488Y-119006073D01*
X198867188Y-118976376D01*
X198703216Y-118908456D01*
X198555646Y-118809853D01*
X198430147Y-118684354D01*
X198331544Y-118536784D01*
X198263624Y-118372812D01*
X198229000Y-118198741D01*
X198229000Y-118021259D01*
X198263624Y-117847188D01*
X198331544Y-117683216D01*
X198430147Y-117535646D01*
X198555646Y-117410147D01*
X198703216Y-117311544D01*
X198867188Y-117243624D01*
X199016488Y-117213927D01*
X199041258Y-117209000D01*
X199218742Y-117209000D01*
X199243512Y-117213927D01*
G37*
G36*
X201783512Y-117213927D02*
G01*
X201932812Y-117243624D01*
X202096784Y-117311544D01*
X202244354Y-117410147D01*
X202369853Y-117535646D01*
X202468456Y-117683216D01*
X202536376Y-117847188D01*
X202571000Y-118021259D01*
X202571000Y-118198741D01*
X202536376Y-118372812D01*
X202468456Y-118536784D01*
X202369853Y-118684354D01*
X202244354Y-118809853D01*
X202096784Y-118908456D01*
X201932812Y-118976376D01*
X201783512Y-119006073D01*
X201758742Y-119011000D01*
X201581258Y-119011000D01*
X201556488Y-119006073D01*
X201407188Y-118976376D01*
X201243216Y-118908456D01*
X201095646Y-118809853D01*
X200970147Y-118684354D01*
X200871544Y-118536784D01*
X200803624Y-118372812D01*
X200769000Y-118198741D01*
X200769000Y-118021259D01*
X200803624Y-117847188D01*
X200871544Y-117683216D01*
X200970147Y-117535646D01*
X201095646Y-117410147D01*
X201243216Y-117311544D01*
X201407188Y-117243624D01*
X201556488Y-117213927D01*
X201581258Y-117209000D01*
X201758742Y-117209000D01*
X201783512Y-117213927D01*
G37*
G36*
X138543512Y-117213927D02*
G01*
X138692812Y-117243624D01*
X138856784Y-117311544D01*
X139004354Y-117410147D01*
X139129853Y-117535646D01*
X139228456Y-117683216D01*
X139296376Y-117847188D01*
X139331000Y-118021259D01*
X139331000Y-118198741D01*
X139296376Y-118372812D01*
X139228456Y-118536784D01*
X139129853Y-118684354D01*
X139004354Y-118809853D01*
X138856784Y-118908456D01*
X138692812Y-118976376D01*
X138543512Y-119006073D01*
X138518742Y-119011000D01*
X138341258Y-119011000D01*
X138316488Y-119006073D01*
X138167188Y-118976376D01*
X138003216Y-118908456D01*
X137855646Y-118809853D01*
X137730147Y-118684354D01*
X137631544Y-118536784D01*
X137563624Y-118372812D01*
X137529000Y-118198741D01*
X137529000Y-118021259D01*
X137563624Y-117847188D01*
X137631544Y-117683216D01*
X137730147Y-117535646D01*
X137855646Y-117410147D01*
X138003216Y-117311544D01*
X138167188Y-117243624D01*
X138316488Y-117213927D01*
X138341258Y-117209000D01*
X138518742Y-117209000D01*
X138543512Y-117213927D01*
G37*
G36*
X203313512Y-113149927D02*
G01*
X203462812Y-113179624D01*
X203626784Y-113247544D01*
X203774354Y-113346147D01*
X203899853Y-113471646D01*
X203998456Y-113619216D01*
X204066376Y-113783188D01*
X204101000Y-113957259D01*
X204101000Y-114134741D01*
X204066376Y-114308812D01*
X203998456Y-114472784D01*
X203899853Y-114620354D01*
X203774354Y-114745853D01*
X203626784Y-114844456D01*
X203462812Y-114912376D01*
X203313512Y-114942073D01*
X203288742Y-114947000D01*
X203111258Y-114947000D01*
X203086488Y-114942073D01*
X202937188Y-114912376D01*
X202773216Y-114844456D01*
X202625646Y-114745853D01*
X202500147Y-114620354D01*
X202401544Y-114472784D01*
X202333624Y-114308812D01*
X202299000Y-114134741D01*
X202299000Y-113957259D01*
X202333624Y-113783188D01*
X202401544Y-113619216D01*
X202500147Y-113471646D01*
X202625646Y-113346147D01*
X202773216Y-113247544D01*
X202937188Y-113179624D01*
X203086488Y-113149927D01*
X203111258Y-113145000D01*
X203288742Y-113145000D01*
X203313512Y-113149927D01*
G37*
G36*
X208393512Y-113149927D02*
G01*
X208542812Y-113179624D01*
X208706784Y-113247544D01*
X208854354Y-113346147D01*
X208979853Y-113471646D01*
X209078456Y-113619216D01*
X209146376Y-113783188D01*
X209181000Y-113957259D01*
X209181000Y-114134741D01*
X209146376Y-114308812D01*
X209078456Y-114472784D01*
X208979853Y-114620354D01*
X208854354Y-114745853D01*
X208706784Y-114844456D01*
X208542812Y-114912376D01*
X208393512Y-114942073D01*
X208368742Y-114947000D01*
X208191258Y-114947000D01*
X208166488Y-114942073D01*
X208017188Y-114912376D01*
X207853216Y-114844456D01*
X207705646Y-114745853D01*
X207580147Y-114620354D01*
X207481544Y-114472784D01*
X207413624Y-114308812D01*
X207379000Y-114134741D01*
X207379000Y-113957259D01*
X207413624Y-113783188D01*
X207481544Y-113619216D01*
X207580147Y-113471646D01*
X207705646Y-113346147D01*
X207853216Y-113247544D01*
X208017188Y-113179624D01*
X208166488Y-113149927D01*
X208191258Y-113145000D01*
X208368742Y-113145000D01*
X208393512Y-113149927D01*
G37*
G36*
X211721000Y-114947000D02*
G01*
X209919000Y-114947000D01*
X209919000Y-113145000D01*
X211721000Y-113145000D01*
X211721000Y-114947000D01*
G37*
G36*
X180453512Y-113149927D02*
G01*
X180602812Y-113179624D01*
X180766784Y-113247544D01*
X180914354Y-113346147D01*
X181039853Y-113471646D01*
X181138456Y-113619216D01*
X181206376Y-113783188D01*
X181241000Y-113957259D01*
X181241000Y-114134741D01*
X181206376Y-114308812D01*
X181138456Y-114472784D01*
X181039853Y-114620354D01*
X180914354Y-114745853D01*
X180766784Y-114844456D01*
X180602812Y-114912376D01*
X180453512Y-114942073D01*
X180428742Y-114947000D01*
X180251258Y-114947000D01*
X180226488Y-114942073D01*
X180077188Y-114912376D01*
X179913216Y-114844456D01*
X179765646Y-114745853D01*
X179640147Y-114620354D01*
X179541544Y-114472784D01*
X179473624Y-114308812D01*
X179439000Y-114134741D01*
X179439000Y-113957259D01*
X179473624Y-113783188D01*
X179541544Y-113619216D01*
X179640147Y-113471646D01*
X179765646Y-113346147D01*
X179913216Y-113247544D01*
X180077188Y-113179624D01*
X180226488Y-113149927D01*
X180251258Y-113145000D01*
X180428742Y-113145000D01*
X180453512Y-113149927D01*
G37*
G36*
X182993512Y-113149927D02*
G01*
X183142812Y-113179624D01*
X183306784Y-113247544D01*
X183454354Y-113346147D01*
X183579853Y-113471646D01*
X183678456Y-113619216D01*
X183746376Y-113783188D01*
X183781000Y-113957259D01*
X183781000Y-114134741D01*
X183746376Y-114308812D01*
X183678456Y-114472784D01*
X183579853Y-114620354D01*
X183454354Y-114745853D01*
X183306784Y-114844456D01*
X183142812Y-114912376D01*
X182993512Y-114942073D01*
X182968742Y-114947000D01*
X182791258Y-114947000D01*
X182766488Y-114942073D01*
X182617188Y-114912376D01*
X182453216Y-114844456D01*
X182305646Y-114745853D01*
X182180147Y-114620354D01*
X182081544Y-114472784D01*
X182013624Y-114308812D01*
X181979000Y-114134741D01*
X181979000Y-113957259D01*
X182013624Y-113783188D01*
X182081544Y-113619216D01*
X182180147Y-113471646D01*
X182305646Y-113346147D01*
X182453216Y-113247544D01*
X182617188Y-113179624D01*
X182766488Y-113149927D01*
X182791258Y-113145000D01*
X182968742Y-113145000D01*
X182993512Y-113149927D01*
G37*
G36*
X185533512Y-113149927D02*
G01*
X185682812Y-113179624D01*
X185846784Y-113247544D01*
X185994354Y-113346147D01*
X186119853Y-113471646D01*
X186218456Y-113619216D01*
X186286376Y-113783188D01*
X186321000Y-113957259D01*
X186321000Y-114134741D01*
X186286376Y-114308812D01*
X186218456Y-114472784D01*
X186119853Y-114620354D01*
X185994354Y-114745853D01*
X185846784Y-114844456D01*
X185682812Y-114912376D01*
X185533512Y-114942073D01*
X185508742Y-114947000D01*
X185331258Y-114947000D01*
X185306488Y-114942073D01*
X185157188Y-114912376D01*
X184993216Y-114844456D01*
X184845646Y-114745853D01*
X184720147Y-114620354D01*
X184621544Y-114472784D01*
X184553624Y-114308812D01*
X184519000Y-114134741D01*
X184519000Y-113957259D01*
X184553624Y-113783188D01*
X184621544Y-113619216D01*
X184720147Y-113471646D01*
X184845646Y-113346147D01*
X184993216Y-113247544D01*
X185157188Y-113179624D01*
X185306488Y-113149927D01*
X185331258Y-113145000D01*
X185508742Y-113145000D01*
X185533512Y-113149927D01*
G37*
G36*
X188073512Y-113149927D02*
G01*
X188222812Y-113179624D01*
X188386784Y-113247544D01*
X188534354Y-113346147D01*
X188659853Y-113471646D01*
X188758456Y-113619216D01*
X188826376Y-113783188D01*
X188861000Y-113957259D01*
X188861000Y-114134741D01*
X188826376Y-114308812D01*
X188758456Y-114472784D01*
X188659853Y-114620354D01*
X188534354Y-114745853D01*
X188386784Y-114844456D01*
X188222812Y-114912376D01*
X188073512Y-114942073D01*
X188048742Y-114947000D01*
X187871258Y-114947000D01*
X187846488Y-114942073D01*
X187697188Y-114912376D01*
X187533216Y-114844456D01*
X187385646Y-114745853D01*
X187260147Y-114620354D01*
X187161544Y-114472784D01*
X187093624Y-114308812D01*
X187059000Y-114134741D01*
X187059000Y-113957259D01*
X187093624Y-113783188D01*
X187161544Y-113619216D01*
X187260147Y-113471646D01*
X187385646Y-113346147D01*
X187533216Y-113247544D01*
X187697188Y-113179624D01*
X187846488Y-113149927D01*
X187871258Y-113145000D01*
X188048742Y-113145000D01*
X188073512Y-113149927D01*
G37*
G36*
X190613512Y-113149927D02*
G01*
X190762812Y-113179624D01*
X190926784Y-113247544D01*
X191074354Y-113346147D01*
X191199853Y-113471646D01*
X191298456Y-113619216D01*
X191366376Y-113783188D01*
X191401000Y-113957259D01*
X191401000Y-114134741D01*
X191366376Y-114308812D01*
X191298456Y-114472784D01*
X191199853Y-114620354D01*
X191074354Y-114745853D01*
X190926784Y-114844456D01*
X190762812Y-114912376D01*
X190613512Y-114942073D01*
X190588742Y-114947000D01*
X190411258Y-114947000D01*
X190386488Y-114942073D01*
X190237188Y-114912376D01*
X190073216Y-114844456D01*
X189925646Y-114745853D01*
X189800147Y-114620354D01*
X189701544Y-114472784D01*
X189633624Y-114308812D01*
X189599000Y-114134741D01*
X189599000Y-113957259D01*
X189633624Y-113783188D01*
X189701544Y-113619216D01*
X189800147Y-113471646D01*
X189925646Y-113346147D01*
X190073216Y-113247544D01*
X190237188Y-113179624D01*
X190386488Y-113149927D01*
X190411258Y-113145000D01*
X190588742Y-113145000D01*
X190613512Y-113149927D01*
G37*
G36*
X193941000Y-114947000D02*
G01*
X192139000Y-114947000D01*
X192139000Y-113145000D01*
X193941000Y-113145000D01*
X193941000Y-114947000D01*
G37*
G36*
X200773512Y-113149927D02*
G01*
X200922812Y-113179624D01*
X201086784Y-113247544D01*
X201234354Y-113346147D01*
X201359853Y-113471646D01*
X201458456Y-113619216D01*
X201526376Y-113783188D01*
X201561000Y-113957259D01*
X201561000Y-114134741D01*
X201526376Y-114308812D01*
X201458456Y-114472784D01*
X201359853Y-114620354D01*
X201234354Y-114745853D01*
X201086784Y-114844456D01*
X200922812Y-114912376D01*
X200773512Y-114942073D01*
X200748742Y-114947000D01*
X200571258Y-114947000D01*
X200546488Y-114942073D01*
X200397188Y-114912376D01*
X200233216Y-114844456D01*
X200085646Y-114745853D01*
X199960147Y-114620354D01*
X199861544Y-114472784D01*
X199793624Y-114308812D01*
X199759000Y-114134741D01*
X199759000Y-113957259D01*
X199793624Y-113783188D01*
X199861544Y-113619216D01*
X199960147Y-113471646D01*
X200085646Y-113346147D01*
X200233216Y-113247544D01*
X200397188Y-113179624D01*
X200546488Y-113149927D01*
X200571258Y-113145000D01*
X200748742Y-113145000D01*
X200773512Y-113149927D01*
G37*
G36*
X205853512Y-113149927D02*
G01*
X206002812Y-113179624D01*
X206166784Y-113247544D01*
X206314354Y-113346147D01*
X206439853Y-113471646D01*
X206538456Y-113619216D01*
X206606376Y-113783188D01*
X206641000Y-113957259D01*
X206641000Y-114134741D01*
X206606376Y-114308812D01*
X206538456Y-114472784D01*
X206439853Y-114620354D01*
X206314354Y-114745853D01*
X206166784Y-114844456D01*
X206002812Y-114912376D01*
X205853512Y-114942073D01*
X205828742Y-114947000D01*
X205651258Y-114947000D01*
X205626488Y-114942073D01*
X205477188Y-114912376D01*
X205313216Y-114844456D01*
X205165646Y-114745853D01*
X205040147Y-114620354D01*
X204941544Y-114472784D01*
X204873624Y-114308812D01*
X204839000Y-114134741D01*
X204839000Y-113957259D01*
X204873624Y-113783188D01*
X204941544Y-113619216D01*
X205040147Y-113471646D01*
X205165646Y-113346147D01*
X205313216Y-113247544D01*
X205477188Y-113179624D01*
X205626488Y-113149927D01*
X205651258Y-113145000D01*
X205828742Y-113145000D01*
X205853512Y-113149927D01*
G37*
G36*
X198233512Y-113149927D02*
G01*
X198382812Y-113179624D01*
X198546784Y-113247544D01*
X198694354Y-113346147D01*
X198819853Y-113471646D01*
X198918456Y-113619216D01*
X198986376Y-113783188D01*
X199021000Y-113957259D01*
X199021000Y-114134741D01*
X198986376Y-114308812D01*
X198918456Y-114472784D01*
X198819853Y-114620354D01*
X198694354Y-114745853D01*
X198546784Y-114844456D01*
X198382812Y-114912376D01*
X198233512Y-114942073D01*
X198208742Y-114947000D01*
X198031258Y-114947000D01*
X198006488Y-114942073D01*
X197857188Y-114912376D01*
X197693216Y-114844456D01*
X197545646Y-114745853D01*
X197420147Y-114620354D01*
X197321544Y-114472784D01*
X197253624Y-114308812D01*
X197219000Y-114134741D01*
X197219000Y-113957259D01*
X197253624Y-113783188D01*
X197321544Y-113619216D01*
X197420147Y-113471646D01*
X197545646Y-113346147D01*
X197693216Y-113247544D01*
X197857188Y-113179624D01*
X198006488Y-113149927D01*
X198031258Y-113145000D01*
X198208742Y-113145000D01*
X198233512Y-113149927D01*
G37*
G36*
X181629499Y-90918445D02*
G01*
X181666995Y-90929820D01*
X181701554Y-90948292D01*
X181731847Y-90973153D01*
X181756708Y-91003446D01*
X181775180Y-91038005D01*
X181786555Y-91075501D01*
X181791000Y-91120638D01*
X181791000Y-91759362D01*
X181786555Y-91804499D01*
X181775180Y-91841995D01*
X181756708Y-91876554D01*
X181731847Y-91906847D01*
X181701554Y-91931708D01*
X181666995Y-91950180D01*
X181629499Y-91961555D01*
X181584362Y-91966000D01*
X180845638Y-91966000D01*
X180800501Y-91961555D01*
X180763005Y-91950180D01*
X180728446Y-91931708D01*
X180698153Y-91906847D01*
X180673292Y-91876554D01*
X180654820Y-91841995D01*
X180643445Y-91804499D01*
X180639000Y-91759362D01*
X180639000Y-91120638D01*
X180643445Y-91075501D01*
X180654820Y-91038005D01*
X180673292Y-91003446D01*
X180698153Y-90973153D01*
X180728446Y-90948292D01*
X180763005Y-90929820D01*
X180800501Y-90918445D01*
X180845638Y-90914000D01*
X181584362Y-90914000D01*
X181629499Y-90918445D01*
G37*
G36*
X198294499Y-90918445D02*
G01*
X198331995Y-90929820D01*
X198366554Y-90948292D01*
X198396847Y-90973153D01*
X198421708Y-91003446D01*
X198440180Y-91038005D01*
X198451555Y-91075501D01*
X198456000Y-91120638D01*
X198456000Y-91759362D01*
X198451555Y-91804499D01*
X198440180Y-91841995D01*
X198421708Y-91876554D01*
X198396847Y-91906847D01*
X198366554Y-91931708D01*
X198331995Y-91950180D01*
X198294499Y-91961555D01*
X198249362Y-91966000D01*
X197510638Y-91966000D01*
X197465501Y-91961555D01*
X197428005Y-91950180D01*
X197393446Y-91931708D01*
X197363153Y-91906847D01*
X197338292Y-91876554D01*
X197319820Y-91841995D01*
X197308445Y-91804499D01*
X197304000Y-91759362D01*
X197304000Y-91120638D01*
X197308445Y-91075501D01*
X197319820Y-91038005D01*
X197338292Y-91003446D01*
X197363153Y-90973153D01*
X197393446Y-90948292D01*
X197428005Y-90929820D01*
X197465501Y-90918445D01*
X197510638Y-90914000D01*
X198249362Y-90914000D01*
X198294499Y-90918445D01*
G37*
G36*
X179879499Y-90918445D02*
G01*
X179916995Y-90929820D01*
X179951554Y-90948292D01*
X179981847Y-90973153D01*
X180006708Y-91003446D01*
X180025180Y-91038005D01*
X180036555Y-91075501D01*
X180041000Y-91120638D01*
X180041000Y-91759362D01*
X180036555Y-91804499D01*
X180025180Y-91841995D01*
X180006708Y-91876554D01*
X179981847Y-91906847D01*
X179951554Y-91931708D01*
X179916995Y-91950180D01*
X179879499Y-91961555D01*
X179834362Y-91966000D01*
X179095638Y-91966000D01*
X179050501Y-91961555D01*
X179013005Y-91950180D01*
X178978446Y-91931708D01*
X178948153Y-91906847D01*
X178923292Y-91876554D01*
X178904820Y-91841995D01*
X178893445Y-91804499D01*
X178889000Y-91759362D01*
X178889000Y-91120638D01*
X178893445Y-91075501D01*
X178904820Y-91038005D01*
X178923292Y-91003446D01*
X178948153Y-90973153D01*
X178978446Y-90948292D01*
X179013005Y-90929820D01*
X179050501Y-90918445D01*
X179095638Y-90914000D01*
X179834362Y-90914000D01*
X179879499Y-90918445D01*
G37*
G36*
X155594499Y-90918445D02*
G01*
X155631995Y-90929820D01*
X155666554Y-90948292D01*
X155696847Y-90973153D01*
X155721708Y-91003446D01*
X155740180Y-91038005D01*
X155751555Y-91075501D01*
X155756000Y-91120638D01*
X155756000Y-91759362D01*
X155751555Y-91804499D01*
X155740180Y-91841995D01*
X155721708Y-91876554D01*
X155696847Y-91906847D01*
X155666554Y-91931708D01*
X155631995Y-91950180D01*
X155594499Y-91961555D01*
X155549362Y-91966000D01*
X154810638Y-91966000D01*
X154765501Y-91961555D01*
X154728005Y-91950180D01*
X154693446Y-91931708D01*
X154663153Y-91906847D01*
X154638292Y-91876554D01*
X154619820Y-91841995D01*
X154608445Y-91804499D01*
X154604000Y-91759362D01*
X154604000Y-91120638D01*
X154608445Y-91075501D01*
X154619820Y-91038005D01*
X154638292Y-91003446D01*
X154663153Y-90973153D01*
X154693446Y-90948292D01*
X154728005Y-90929820D01*
X154765501Y-90918445D01*
X154810638Y-90914000D01*
X155549362Y-90914000D01*
X155594499Y-90918445D01*
G37*
G36*
X134639499Y-90918445D02*
G01*
X134676995Y-90929820D01*
X134711554Y-90948292D01*
X134741847Y-90973153D01*
X134766708Y-91003446D01*
X134785180Y-91038005D01*
X134796555Y-91075501D01*
X134801000Y-91120638D01*
X134801000Y-91759362D01*
X134796555Y-91804499D01*
X134785180Y-91841995D01*
X134766708Y-91876554D01*
X134741847Y-91906847D01*
X134711554Y-91931708D01*
X134676995Y-91950180D01*
X134639499Y-91961555D01*
X134594362Y-91966000D01*
X133855638Y-91966000D01*
X133810501Y-91961555D01*
X133773005Y-91950180D01*
X133738446Y-91931708D01*
X133708153Y-91906847D01*
X133683292Y-91876554D01*
X133664820Y-91841995D01*
X133653445Y-91804499D01*
X133649000Y-91759362D01*
X133649000Y-91120638D01*
X133653445Y-91075501D01*
X133664820Y-91038005D01*
X133683292Y-91003446D01*
X133708153Y-90973153D01*
X133738446Y-90948292D01*
X133773005Y-90929820D01*
X133810501Y-90918445D01*
X133855638Y-90914000D01*
X134594362Y-90914000D01*
X134639499Y-90918445D01*
G37*
G36*
X153844499Y-90918445D02*
G01*
X153881995Y-90929820D01*
X153916554Y-90948292D01*
X153946847Y-90973153D01*
X153971708Y-91003446D01*
X153990180Y-91038005D01*
X154001555Y-91075501D01*
X154006000Y-91120638D01*
X154006000Y-91759362D01*
X154001555Y-91804499D01*
X153990180Y-91841995D01*
X153971708Y-91876554D01*
X153946847Y-91906847D01*
X153916554Y-91931708D01*
X153881995Y-91950180D01*
X153844499Y-91961555D01*
X153799362Y-91966000D01*
X153060638Y-91966000D01*
X153015501Y-91961555D01*
X152978005Y-91950180D01*
X152943446Y-91931708D01*
X152913153Y-91906847D01*
X152888292Y-91876554D01*
X152869820Y-91841995D01*
X152858445Y-91804499D01*
X152854000Y-91759362D01*
X152854000Y-91120638D01*
X152858445Y-91075501D01*
X152869820Y-91038005D01*
X152888292Y-91003446D01*
X152913153Y-90973153D01*
X152943446Y-90948292D01*
X152978005Y-90929820D01*
X153015501Y-90918445D01*
X153060638Y-90914000D01*
X153799362Y-90914000D01*
X153844499Y-90918445D01*
G37*
G36*
X200044499Y-90918445D02*
G01*
X200081995Y-90929820D01*
X200116554Y-90948292D01*
X200146847Y-90973153D01*
X200171708Y-91003446D01*
X200190180Y-91038005D01*
X200201555Y-91075501D01*
X200206000Y-91120638D01*
X200206000Y-91759362D01*
X200201555Y-91804499D01*
X200190180Y-91841995D01*
X200171708Y-91876554D01*
X200146847Y-91906847D01*
X200116554Y-91931708D01*
X200081995Y-91950180D01*
X200044499Y-91961555D01*
X199999362Y-91966000D01*
X199260638Y-91966000D01*
X199215501Y-91961555D01*
X199178005Y-91950180D01*
X199143446Y-91931708D01*
X199113153Y-91906847D01*
X199088292Y-91876554D01*
X199069820Y-91841995D01*
X199058445Y-91804499D01*
X199054000Y-91759362D01*
X199054000Y-91120638D01*
X199058445Y-91075501D01*
X199069820Y-91038005D01*
X199088292Y-91003446D01*
X199113153Y-90973153D01*
X199143446Y-90948292D01*
X199178005Y-90929820D01*
X199215501Y-90918445D01*
X199260638Y-90914000D01*
X199999362Y-90914000D01*
X200044499Y-90918445D01*
G37*
G36*
X132889499Y-90918445D02*
G01*
X132926995Y-90929820D01*
X132961554Y-90948292D01*
X132991847Y-90973153D01*
X133016708Y-91003446D01*
X133035180Y-91038005D01*
X133046555Y-91075501D01*
X133051000Y-91120638D01*
X133051000Y-91759362D01*
X133046555Y-91804499D01*
X133035180Y-91841995D01*
X133016708Y-91876554D01*
X132991847Y-91906847D01*
X132961554Y-91931708D01*
X132926995Y-91950180D01*
X132889499Y-91961555D01*
X132844362Y-91966000D01*
X132105638Y-91966000D01*
X132060501Y-91961555D01*
X132023005Y-91950180D01*
X131988446Y-91931708D01*
X131958153Y-91906847D01*
X131933292Y-91876554D01*
X131914820Y-91841995D01*
X131903445Y-91804499D01*
X131899000Y-91759362D01*
X131899000Y-91120638D01*
X131903445Y-91075501D01*
X131914820Y-91038005D01*
X131933292Y-91003446D01*
X131958153Y-90973153D01*
X131988446Y-90948292D01*
X132023005Y-90929820D01*
X132060501Y-90918445D01*
X132105638Y-90914000D01*
X132844362Y-90914000D01*
X132889499Y-90918445D01*
G37*
G36*
X152764928Y-88678764D02*
G01*
X152786009Y-88685160D01*
X152805445Y-88695548D01*
X152822476Y-88709524D01*
X152836452Y-88726555D01*
X152846840Y-88745991D01*
X152853236Y-88767072D01*
X152856000Y-88795140D01*
X152856000Y-89258860D01*
X152853236Y-89286928D01*
X152846840Y-89308009D01*
X152836452Y-89327445D01*
X152822476Y-89344476D01*
X152805445Y-89358452D01*
X152786009Y-89368840D01*
X152764928Y-89375236D01*
X152736860Y-89378000D01*
X150923140Y-89378000D01*
X150895072Y-89375236D01*
X150873991Y-89368840D01*
X150854555Y-89358452D01*
X150837524Y-89344476D01*
X150823548Y-89327445D01*
X150813160Y-89308009D01*
X150806764Y-89286928D01*
X150804000Y-89258860D01*
X150804000Y-88795140D01*
X150806764Y-88767072D01*
X150813160Y-88745991D01*
X150823548Y-88726555D01*
X150837524Y-88709524D01*
X150854555Y-88695548D01*
X150873991Y-88685160D01*
X150895072Y-88678764D01*
X150923140Y-88676000D01*
X152736860Y-88676000D01*
X152764928Y-88678764D01*
G37*
G36*
X157714928Y-88678764D02*
G01*
X157736009Y-88685160D01*
X157755445Y-88695548D01*
X157772476Y-88709524D01*
X157786452Y-88726555D01*
X157796840Y-88745991D01*
X157803236Y-88767072D01*
X157806000Y-88795140D01*
X157806000Y-89258860D01*
X157803236Y-89286928D01*
X157796840Y-89308009D01*
X157786452Y-89327445D01*
X157772476Y-89344476D01*
X157755445Y-89358452D01*
X157736009Y-89368840D01*
X157714928Y-89375236D01*
X157686860Y-89378000D01*
X155873140Y-89378000D01*
X155845072Y-89375236D01*
X155823991Y-89368840D01*
X155804555Y-89358452D01*
X155787524Y-89344476D01*
X155773548Y-89327445D01*
X155763160Y-89308009D01*
X155756764Y-89286928D01*
X155754000Y-89258860D01*
X155754000Y-88795140D01*
X155756764Y-88767072D01*
X155763160Y-88745991D01*
X155773548Y-88726555D01*
X155787524Y-88709524D01*
X155804555Y-88695548D01*
X155823991Y-88685160D01*
X155845072Y-88678764D01*
X155873140Y-88676000D01*
X157686860Y-88676000D01*
X157714928Y-88678764D01*
G37*
G36*
X178799928Y-88551764D02*
G01*
X178821009Y-88558160D01*
X178840445Y-88568548D01*
X178857476Y-88582524D01*
X178871452Y-88599555D01*
X178881840Y-88618991D01*
X178888236Y-88640072D01*
X178891000Y-88668140D01*
X178891000Y-89131860D01*
X178888236Y-89159928D01*
X178881840Y-89181009D01*
X178871452Y-89200445D01*
X178857476Y-89217476D01*
X178840445Y-89231452D01*
X178821009Y-89241840D01*
X178799928Y-89248236D01*
X178771860Y-89251000D01*
X176958140Y-89251000D01*
X176930072Y-89248236D01*
X176908991Y-89241840D01*
X176889555Y-89231452D01*
X176872524Y-89217476D01*
X176858548Y-89200445D01*
X176848160Y-89181009D01*
X176841764Y-89159928D01*
X176839000Y-89131860D01*
X176839000Y-88668140D01*
X176841764Y-88640072D01*
X176848160Y-88618991D01*
X176858548Y-88599555D01*
X176872524Y-88582524D01*
X176889555Y-88568548D01*
X176908991Y-88558160D01*
X176930072Y-88551764D01*
X176958140Y-88549000D01*
X178771860Y-88549000D01*
X178799928Y-88551764D01*
G37*
G36*
X183749928Y-88551764D02*
G01*
X183771009Y-88558160D01*
X183790445Y-88568548D01*
X183807476Y-88582524D01*
X183821452Y-88599555D01*
X183831840Y-88618991D01*
X183838236Y-88640072D01*
X183841000Y-88668140D01*
X183841000Y-89131860D01*
X183838236Y-89159928D01*
X183831840Y-89181009D01*
X183821452Y-89200445D01*
X183807476Y-89217476D01*
X183790445Y-89231452D01*
X183771009Y-89241840D01*
X183749928Y-89248236D01*
X183721860Y-89251000D01*
X181908140Y-89251000D01*
X181880072Y-89248236D01*
X181858991Y-89241840D01*
X181839555Y-89231452D01*
X181822524Y-89217476D01*
X181808548Y-89200445D01*
X181798160Y-89181009D01*
X181791764Y-89159928D01*
X181789000Y-89131860D01*
X181789000Y-88668140D01*
X181791764Y-88640072D01*
X181798160Y-88618991D01*
X181808548Y-88599555D01*
X181822524Y-88582524D01*
X181839555Y-88568548D01*
X181858991Y-88558160D01*
X181880072Y-88551764D01*
X181908140Y-88549000D01*
X183721860Y-88549000D01*
X183749928Y-88551764D01*
G37*
G36*
X202164928Y-88551764D02*
G01*
X202186009Y-88558160D01*
X202205445Y-88568548D01*
X202222476Y-88582524D01*
X202236452Y-88599555D01*
X202246840Y-88618991D01*
X202253236Y-88640072D01*
X202256000Y-88668140D01*
X202256000Y-89131860D01*
X202253236Y-89159928D01*
X202246840Y-89181009D01*
X202236452Y-89200445D01*
X202222476Y-89217476D01*
X202205445Y-89231452D01*
X202186009Y-89241840D01*
X202164928Y-89248236D01*
X202136860Y-89251000D01*
X200323140Y-89251000D01*
X200295072Y-89248236D01*
X200273991Y-89241840D01*
X200254555Y-89231452D01*
X200237524Y-89217476D01*
X200223548Y-89200445D01*
X200213160Y-89181009D01*
X200206764Y-89159928D01*
X200204000Y-89131860D01*
X200204000Y-88668140D01*
X200206764Y-88640072D01*
X200213160Y-88618991D01*
X200223548Y-88599555D01*
X200237524Y-88582524D01*
X200254555Y-88568548D01*
X200273991Y-88558160D01*
X200295072Y-88551764D01*
X200323140Y-88549000D01*
X202136860Y-88549000D01*
X202164928Y-88551764D01*
G37*
G36*
X197214928Y-88551764D02*
G01*
X197236009Y-88558160D01*
X197255445Y-88568548D01*
X197272476Y-88582524D01*
X197286452Y-88599555D01*
X197296840Y-88618991D01*
X197303236Y-88640072D01*
X197306000Y-88668140D01*
X197306000Y-89131860D01*
X197303236Y-89159928D01*
X197296840Y-89181009D01*
X197286452Y-89200445D01*
X197272476Y-89217476D01*
X197255445Y-89231452D01*
X197236009Y-89241840D01*
X197214928Y-89248236D01*
X197186860Y-89251000D01*
X195373140Y-89251000D01*
X195345072Y-89248236D01*
X195323991Y-89241840D01*
X195304555Y-89231452D01*
X195287524Y-89217476D01*
X195273548Y-89200445D01*
X195263160Y-89181009D01*
X195256764Y-89159928D01*
X195254000Y-89131860D01*
X195254000Y-88668140D01*
X195256764Y-88640072D01*
X195263160Y-88618991D01*
X195273548Y-88599555D01*
X195287524Y-88582524D01*
X195304555Y-88568548D01*
X195323991Y-88558160D01*
X195345072Y-88551764D01*
X195373140Y-88549000D01*
X197186860Y-88549000D01*
X197214928Y-88551764D01*
G37*
G36*
X136759928Y-88551764D02*
G01*
X136781009Y-88558160D01*
X136800445Y-88568548D01*
X136817476Y-88582524D01*
X136831452Y-88599555D01*
X136841840Y-88618991D01*
X136848236Y-88640072D01*
X136851000Y-88668140D01*
X136851000Y-89131860D01*
X136848236Y-89159928D01*
X136841840Y-89181009D01*
X136831452Y-89200445D01*
X136817476Y-89217476D01*
X136800445Y-89231452D01*
X136781009Y-89241840D01*
X136759928Y-89248236D01*
X136731860Y-89251000D01*
X134918140Y-89251000D01*
X134890072Y-89248236D01*
X134868991Y-89241840D01*
X134849555Y-89231452D01*
X134832524Y-89217476D01*
X134818548Y-89200445D01*
X134808160Y-89181009D01*
X134801764Y-89159928D01*
X134799000Y-89131860D01*
X134799000Y-88668140D01*
X134801764Y-88640072D01*
X134808160Y-88618991D01*
X134818548Y-88599555D01*
X134832524Y-88582524D01*
X134849555Y-88568548D01*
X134868991Y-88558160D01*
X134890072Y-88551764D01*
X134918140Y-88549000D01*
X136731860Y-88549000D01*
X136759928Y-88551764D01*
G37*
G36*
X131809928Y-88551764D02*
G01*
X131831009Y-88558160D01*
X131850445Y-88568548D01*
X131867476Y-88582524D01*
X131881452Y-88599555D01*
X131891840Y-88618991D01*
X131898236Y-88640072D01*
X131901000Y-88668140D01*
X131901000Y-89131860D01*
X131898236Y-89159928D01*
X131891840Y-89181009D01*
X131881452Y-89200445D01*
X131867476Y-89217476D01*
X131850445Y-89231452D01*
X131831009Y-89241840D01*
X131809928Y-89248236D01*
X131781860Y-89251000D01*
X129968140Y-89251000D01*
X129940072Y-89248236D01*
X129918991Y-89241840D01*
X129899555Y-89231452D01*
X129882524Y-89217476D01*
X129868548Y-89200445D01*
X129858160Y-89181009D01*
X129851764Y-89159928D01*
X129849000Y-89131860D01*
X129849000Y-88668140D01*
X129851764Y-88640072D01*
X129858160Y-88618991D01*
X129868548Y-88599555D01*
X129882524Y-88582524D01*
X129899555Y-88568548D01*
X129918991Y-88558160D01*
X129940072Y-88551764D01*
X129968140Y-88549000D01*
X131781860Y-88549000D01*
X131809928Y-88551764D01*
G37*
G36*
X152764928Y-87408764D02*
G01*
X152786009Y-87415160D01*
X152805445Y-87425548D01*
X152822476Y-87439524D01*
X152836452Y-87456555D01*
X152846840Y-87475991D01*
X152853236Y-87497072D01*
X152856000Y-87525140D01*
X152856000Y-87988860D01*
X152853236Y-88016928D01*
X152846840Y-88038009D01*
X152836452Y-88057445D01*
X152822476Y-88074476D01*
X152805445Y-88088452D01*
X152786009Y-88098840D01*
X152764928Y-88105236D01*
X152736860Y-88108000D01*
X150923140Y-88108000D01*
X150895072Y-88105236D01*
X150873991Y-88098840D01*
X150854555Y-88088452D01*
X150837524Y-88074476D01*
X150823548Y-88057445D01*
X150813160Y-88038009D01*
X150806764Y-88016928D01*
X150804000Y-87988860D01*
X150804000Y-87525140D01*
X150806764Y-87497072D01*
X150813160Y-87475991D01*
X150823548Y-87456555D01*
X150837524Y-87439524D01*
X150854555Y-87425548D01*
X150873991Y-87415160D01*
X150895072Y-87408764D01*
X150923140Y-87406000D01*
X152736860Y-87406000D01*
X152764928Y-87408764D01*
G37*
G36*
X157714928Y-87408764D02*
G01*
X157736009Y-87415160D01*
X157755445Y-87425548D01*
X157772476Y-87439524D01*
X157786452Y-87456555D01*
X157796840Y-87475991D01*
X157803236Y-87497072D01*
X157806000Y-87525140D01*
X157806000Y-87988860D01*
X157803236Y-88016928D01*
X157796840Y-88038009D01*
X157786452Y-88057445D01*
X157772476Y-88074476D01*
X157755445Y-88088452D01*
X157736009Y-88098840D01*
X157714928Y-88105236D01*
X157686860Y-88108000D01*
X155873140Y-88108000D01*
X155845072Y-88105236D01*
X155823991Y-88098840D01*
X155804555Y-88088452D01*
X155787524Y-88074476D01*
X155773548Y-88057445D01*
X155763160Y-88038009D01*
X155756764Y-88016928D01*
X155754000Y-87988860D01*
X155754000Y-87525140D01*
X155756764Y-87497072D01*
X155763160Y-87475991D01*
X155773548Y-87456555D01*
X155787524Y-87439524D01*
X155804555Y-87425548D01*
X155823991Y-87415160D01*
X155845072Y-87408764D01*
X155873140Y-87406000D01*
X157686860Y-87406000D01*
X157714928Y-87408764D01*
G37*
G36*
X183749928Y-87281764D02*
G01*
X183771009Y-87288160D01*
X183790445Y-87298548D01*
X183807476Y-87312524D01*
X183821452Y-87329555D01*
X183831840Y-87348991D01*
X183838236Y-87370072D01*
X183841000Y-87398140D01*
X183841000Y-87861860D01*
X183838236Y-87889928D01*
X183831840Y-87911009D01*
X183821452Y-87930445D01*
X183807476Y-87947476D01*
X183790445Y-87961452D01*
X183771009Y-87971840D01*
X183749928Y-87978236D01*
X183721860Y-87981000D01*
X181908140Y-87981000D01*
X181880072Y-87978236D01*
X181858991Y-87971840D01*
X181839555Y-87961452D01*
X181822524Y-87947476D01*
X181808548Y-87930445D01*
X181798160Y-87911009D01*
X181791764Y-87889928D01*
X181789000Y-87861860D01*
X181789000Y-87398140D01*
X181791764Y-87370072D01*
X181798160Y-87348991D01*
X181808548Y-87329555D01*
X181822524Y-87312524D01*
X181839555Y-87298548D01*
X181858991Y-87288160D01*
X181880072Y-87281764D01*
X181908140Y-87279000D01*
X183721860Y-87279000D01*
X183749928Y-87281764D01*
G37*
G36*
X131809928Y-87281764D02*
G01*
X131831009Y-87288160D01*
X131850445Y-87298548D01*
X131867476Y-87312524D01*
X131881452Y-87329555D01*
X131891840Y-87348991D01*
X131898236Y-87370072D01*
X131901000Y-87398140D01*
X131901000Y-87861860D01*
X131898236Y-87889928D01*
X131891840Y-87911009D01*
X131881452Y-87930445D01*
X131867476Y-87947476D01*
X131850445Y-87961452D01*
X131831009Y-87971840D01*
X131809928Y-87978236D01*
X131781860Y-87981000D01*
X129968140Y-87981000D01*
X129940072Y-87978236D01*
X129918991Y-87971840D01*
X129899555Y-87961452D01*
X129882524Y-87947476D01*
X129868548Y-87930445D01*
X129858160Y-87911009D01*
X129851764Y-87889928D01*
X129849000Y-87861860D01*
X129849000Y-87398140D01*
X129851764Y-87370072D01*
X129858160Y-87348991D01*
X129868548Y-87329555D01*
X129882524Y-87312524D01*
X129899555Y-87298548D01*
X129918991Y-87288160D01*
X129940072Y-87281764D01*
X129968140Y-87279000D01*
X131781860Y-87279000D01*
X131809928Y-87281764D01*
G37*
G36*
X136759928Y-87281764D02*
G01*
X136781009Y-87288160D01*
X136800445Y-87298548D01*
X136817476Y-87312524D01*
X136831452Y-87329555D01*
X136841840Y-87348991D01*
X136848236Y-87370072D01*
X136851000Y-87398140D01*
X136851000Y-87861860D01*
X136848236Y-87889928D01*
X136841840Y-87911009D01*
X136831452Y-87930445D01*
X136817476Y-87947476D01*
X136800445Y-87961452D01*
X136781009Y-87971840D01*
X136759928Y-87978236D01*
X136731860Y-87981000D01*
X134918140Y-87981000D01*
X134890072Y-87978236D01*
X134868991Y-87971840D01*
X134849555Y-87961452D01*
X134832524Y-87947476D01*
X134818548Y-87930445D01*
X134808160Y-87911009D01*
X134801764Y-87889928D01*
X134799000Y-87861860D01*
X134799000Y-87398140D01*
X134801764Y-87370072D01*
X134808160Y-87348991D01*
X134818548Y-87329555D01*
X134832524Y-87312524D01*
X134849555Y-87298548D01*
X134868991Y-87288160D01*
X134890072Y-87281764D01*
X134918140Y-87279000D01*
X136731860Y-87279000D01*
X136759928Y-87281764D01*
G37*
G36*
X178799928Y-87281764D02*
G01*
X178821009Y-87288160D01*
X178840445Y-87298548D01*
X178857476Y-87312524D01*
X178871452Y-87329555D01*
X178881840Y-87348991D01*
X178888236Y-87370072D01*
X178891000Y-87398140D01*
X178891000Y-87861860D01*
X178888236Y-87889928D01*
X178881840Y-87911009D01*
X178871452Y-87930445D01*
X178857476Y-87947476D01*
X178840445Y-87961452D01*
X178821009Y-87971840D01*
X178799928Y-87978236D01*
X178771860Y-87981000D01*
X176958140Y-87981000D01*
X176930072Y-87978236D01*
X176908991Y-87971840D01*
X176889555Y-87961452D01*
X176872524Y-87947476D01*
X176858548Y-87930445D01*
X176848160Y-87911009D01*
X176841764Y-87889928D01*
X176839000Y-87861860D01*
X176839000Y-87398140D01*
X176841764Y-87370072D01*
X176848160Y-87348991D01*
X176858548Y-87329555D01*
X176872524Y-87312524D01*
X176889555Y-87298548D01*
X176908991Y-87288160D01*
X176930072Y-87281764D01*
X176958140Y-87279000D01*
X178771860Y-87279000D01*
X178799928Y-87281764D01*
G37*
G36*
X202164928Y-87281764D02*
G01*
X202186009Y-87288160D01*
X202205445Y-87298548D01*
X202222476Y-87312524D01*
X202236452Y-87329555D01*
X202246840Y-87348991D01*
X202253236Y-87370072D01*
X202256000Y-87398140D01*
X202256000Y-87861860D01*
X202253236Y-87889928D01*
X202246840Y-87911009D01*
X202236452Y-87930445D01*
X202222476Y-87947476D01*
X202205445Y-87961452D01*
X202186009Y-87971840D01*
X202164928Y-87978236D01*
X202136860Y-87981000D01*
X200323140Y-87981000D01*
X200295072Y-87978236D01*
X200273991Y-87971840D01*
X200254555Y-87961452D01*
X200237524Y-87947476D01*
X200223548Y-87930445D01*
X200213160Y-87911009D01*
X200206764Y-87889928D01*
X200204000Y-87861860D01*
X200204000Y-87398140D01*
X200206764Y-87370072D01*
X200213160Y-87348991D01*
X200223548Y-87329555D01*
X200237524Y-87312524D01*
X200254555Y-87298548D01*
X200273991Y-87288160D01*
X200295072Y-87281764D01*
X200323140Y-87279000D01*
X202136860Y-87279000D01*
X202164928Y-87281764D01*
G37*
G36*
X197214928Y-87281764D02*
G01*
X197236009Y-87288160D01*
X197255445Y-87298548D01*
X197272476Y-87312524D01*
X197286452Y-87329555D01*
X197296840Y-87348991D01*
X197303236Y-87370072D01*
X197306000Y-87398140D01*
X197306000Y-87861860D01*
X197303236Y-87889928D01*
X197296840Y-87911009D01*
X197286452Y-87930445D01*
X197272476Y-87947476D01*
X197255445Y-87961452D01*
X197236009Y-87971840D01*
X197214928Y-87978236D01*
X197186860Y-87981000D01*
X195373140Y-87981000D01*
X195345072Y-87978236D01*
X195323991Y-87971840D01*
X195304555Y-87961452D01*
X195287524Y-87947476D01*
X195273548Y-87930445D01*
X195263160Y-87911009D01*
X195256764Y-87889928D01*
X195254000Y-87861860D01*
X195254000Y-87398140D01*
X195256764Y-87370072D01*
X195263160Y-87348991D01*
X195273548Y-87329555D01*
X195287524Y-87312524D01*
X195304555Y-87298548D01*
X195323991Y-87288160D01*
X195345072Y-87281764D01*
X195373140Y-87279000D01*
X197186860Y-87279000D01*
X197214928Y-87281764D01*
G37*
G36*
X152764928Y-86138764D02*
G01*
X152786009Y-86145160D01*
X152805445Y-86155548D01*
X152822476Y-86169524D01*
X152836452Y-86186555D01*
X152846840Y-86205991D01*
X152853236Y-86227072D01*
X152856000Y-86255140D01*
X152856000Y-86718860D01*
X152853236Y-86746928D01*
X152846840Y-86768009D01*
X152836452Y-86787445D01*
X152822476Y-86804476D01*
X152805445Y-86818452D01*
X152786009Y-86828840D01*
X152764928Y-86835236D01*
X152736860Y-86838000D01*
X150923140Y-86838000D01*
X150895072Y-86835236D01*
X150873991Y-86828840D01*
X150854555Y-86818452D01*
X150837524Y-86804476D01*
X150823548Y-86787445D01*
X150813160Y-86768009D01*
X150806764Y-86746928D01*
X150804000Y-86718860D01*
X150804000Y-86255140D01*
X150806764Y-86227072D01*
X150813160Y-86205991D01*
X150823548Y-86186555D01*
X150837524Y-86169524D01*
X150854555Y-86155548D01*
X150873991Y-86145160D01*
X150895072Y-86138764D01*
X150923140Y-86136000D01*
X152736860Y-86136000D01*
X152764928Y-86138764D01*
G37*
G36*
X157714928Y-86138764D02*
G01*
X157736009Y-86145160D01*
X157755445Y-86155548D01*
X157772476Y-86169524D01*
X157786452Y-86186555D01*
X157796840Y-86205991D01*
X157803236Y-86227072D01*
X157806000Y-86255140D01*
X157806000Y-86718860D01*
X157803236Y-86746928D01*
X157796840Y-86768009D01*
X157786452Y-86787445D01*
X157772476Y-86804476D01*
X157755445Y-86818452D01*
X157736009Y-86828840D01*
X157714928Y-86835236D01*
X157686860Y-86838000D01*
X155873140Y-86838000D01*
X155845072Y-86835236D01*
X155823991Y-86828840D01*
X155804555Y-86818452D01*
X155787524Y-86804476D01*
X155773548Y-86787445D01*
X155763160Y-86768009D01*
X155756764Y-86746928D01*
X155754000Y-86718860D01*
X155754000Y-86255140D01*
X155756764Y-86227072D01*
X155763160Y-86205991D01*
X155773548Y-86186555D01*
X155787524Y-86169524D01*
X155804555Y-86155548D01*
X155823991Y-86145160D01*
X155845072Y-86138764D01*
X155873140Y-86136000D01*
X157686860Y-86136000D01*
X157714928Y-86138764D01*
G37*
G36*
X178799928Y-86011764D02*
G01*
X178821009Y-86018160D01*
X178840445Y-86028548D01*
X178857476Y-86042524D01*
X178871452Y-86059555D01*
X178881840Y-86078991D01*
X178888236Y-86100072D01*
X178891000Y-86128140D01*
X178891000Y-86591860D01*
X178888236Y-86619928D01*
X178881840Y-86641009D01*
X178871452Y-86660445D01*
X178857476Y-86677476D01*
X178840445Y-86691452D01*
X178821009Y-86701840D01*
X178799928Y-86708236D01*
X178771860Y-86711000D01*
X176958140Y-86711000D01*
X176930072Y-86708236D01*
X176908991Y-86701840D01*
X176889555Y-86691452D01*
X176872524Y-86677476D01*
X176858548Y-86660445D01*
X176848160Y-86641009D01*
X176841764Y-86619928D01*
X176839000Y-86591860D01*
X176839000Y-86128140D01*
X176841764Y-86100072D01*
X176848160Y-86078991D01*
X176858548Y-86059555D01*
X176872524Y-86042524D01*
X176889555Y-86028548D01*
X176908991Y-86018160D01*
X176930072Y-86011764D01*
X176958140Y-86009000D01*
X178771860Y-86009000D01*
X178799928Y-86011764D01*
G37*
G36*
X202164928Y-86011764D02*
G01*
X202186009Y-86018160D01*
X202205445Y-86028548D01*
X202222476Y-86042524D01*
X202236452Y-86059555D01*
X202246840Y-86078991D01*
X202253236Y-86100072D01*
X202256000Y-86128140D01*
X202256000Y-86591860D01*
X202253236Y-86619928D01*
X202246840Y-86641009D01*
X202236452Y-86660445D01*
X202222476Y-86677476D01*
X202205445Y-86691452D01*
X202186009Y-86701840D01*
X202164928Y-86708236D01*
X202136860Y-86711000D01*
X200323140Y-86711000D01*
X200295072Y-86708236D01*
X200273991Y-86701840D01*
X200254555Y-86691452D01*
X200237524Y-86677476D01*
X200223548Y-86660445D01*
X200213160Y-86641009D01*
X200206764Y-86619928D01*
X200204000Y-86591860D01*
X200204000Y-86128140D01*
X200206764Y-86100072D01*
X200213160Y-86078991D01*
X200223548Y-86059555D01*
X200237524Y-86042524D01*
X200254555Y-86028548D01*
X200273991Y-86018160D01*
X200295072Y-86011764D01*
X200323140Y-86009000D01*
X202136860Y-86009000D01*
X202164928Y-86011764D01*
G37*
G36*
X197214928Y-86011764D02*
G01*
X197236009Y-86018160D01*
X197255445Y-86028548D01*
X197272476Y-86042524D01*
X197286452Y-86059555D01*
X197296840Y-86078991D01*
X197303236Y-86100072D01*
X197306000Y-86128140D01*
X197306000Y-86591860D01*
X197303236Y-86619928D01*
X197296840Y-86641009D01*
X197286452Y-86660445D01*
X197272476Y-86677476D01*
X197255445Y-86691452D01*
X197236009Y-86701840D01*
X197214928Y-86708236D01*
X197186860Y-86711000D01*
X195373140Y-86711000D01*
X195345072Y-86708236D01*
X195323991Y-86701840D01*
X195304555Y-86691452D01*
X195287524Y-86677476D01*
X195273548Y-86660445D01*
X195263160Y-86641009D01*
X195256764Y-86619928D01*
X195254000Y-86591860D01*
X195254000Y-86128140D01*
X195256764Y-86100072D01*
X195263160Y-86078991D01*
X195273548Y-86059555D01*
X195287524Y-86042524D01*
X195304555Y-86028548D01*
X195323991Y-86018160D01*
X195345072Y-86011764D01*
X195373140Y-86009000D01*
X197186860Y-86009000D01*
X197214928Y-86011764D01*
G37*
G36*
X183749928Y-86011764D02*
G01*
X183771009Y-86018160D01*
X183790445Y-86028548D01*
X183807476Y-86042524D01*
X183821452Y-86059555D01*
X183831840Y-86078991D01*
X183838236Y-86100072D01*
X183841000Y-86128140D01*
X183841000Y-86591860D01*
X183838236Y-86619928D01*
X183831840Y-86641009D01*
X183821452Y-86660445D01*
X183807476Y-86677476D01*
X183790445Y-86691452D01*
X183771009Y-86701840D01*
X183749928Y-86708236D01*
X183721860Y-86711000D01*
X181908140Y-86711000D01*
X181880072Y-86708236D01*
X181858991Y-86701840D01*
X181839555Y-86691452D01*
X181822524Y-86677476D01*
X181808548Y-86660445D01*
X181798160Y-86641009D01*
X181791764Y-86619928D01*
X181789000Y-86591860D01*
X181789000Y-86128140D01*
X181791764Y-86100072D01*
X181798160Y-86078991D01*
X181808548Y-86059555D01*
X181822524Y-86042524D01*
X181839555Y-86028548D01*
X181858991Y-86018160D01*
X181880072Y-86011764D01*
X181908140Y-86009000D01*
X183721860Y-86009000D01*
X183749928Y-86011764D01*
G37*
G36*
X131809928Y-86011764D02*
G01*
X131831009Y-86018160D01*
X131850445Y-86028548D01*
X131867476Y-86042524D01*
X131881452Y-86059555D01*
X131891840Y-86078991D01*
X131898236Y-86100072D01*
X131901000Y-86128140D01*
X131901000Y-86591860D01*
X131898236Y-86619928D01*
X131891840Y-86641009D01*
X131881452Y-86660445D01*
X131867476Y-86677476D01*
X131850445Y-86691452D01*
X131831009Y-86701840D01*
X131809928Y-86708236D01*
X131781860Y-86711000D01*
X129968140Y-86711000D01*
X129940072Y-86708236D01*
X129918991Y-86701840D01*
X129899555Y-86691452D01*
X129882524Y-86677476D01*
X129868548Y-86660445D01*
X129858160Y-86641009D01*
X129851764Y-86619928D01*
X129849000Y-86591860D01*
X129849000Y-86128140D01*
X129851764Y-86100072D01*
X129858160Y-86078991D01*
X129868548Y-86059555D01*
X129882524Y-86042524D01*
X129899555Y-86028548D01*
X129918991Y-86018160D01*
X129940072Y-86011764D01*
X129968140Y-86009000D01*
X131781860Y-86009000D01*
X131809928Y-86011764D01*
G37*
G36*
X136759928Y-86011764D02*
G01*
X136781009Y-86018160D01*
X136800445Y-86028548D01*
X136817476Y-86042524D01*
X136831452Y-86059555D01*
X136841840Y-86078991D01*
X136848236Y-86100072D01*
X136851000Y-86128140D01*
X136851000Y-86591860D01*
X136848236Y-86619928D01*
X136841840Y-86641009D01*
X136831452Y-86660445D01*
X136817476Y-86677476D01*
X136800445Y-86691452D01*
X136781009Y-86701840D01*
X136759928Y-86708236D01*
X136731860Y-86711000D01*
X134918140Y-86711000D01*
X134890072Y-86708236D01*
X134868991Y-86701840D01*
X134849555Y-86691452D01*
X134832524Y-86677476D01*
X134818548Y-86660445D01*
X134808160Y-86641009D01*
X134801764Y-86619928D01*
X134799000Y-86591860D01*
X134799000Y-86128140D01*
X134801764Y-86100072D01*
X134808160Y-86078991D01*
X134818548Y-86059555D01*
X134832524Y-86042524D01*
X134849555Y-86028548D01*
X134868991Y-86018160D01*
X134890072Y-86011764D01*
X134918140Y-86009000D01*
X136731860Y-86009000D01*
X136759928Y-86011764D01*
G37*
G36*
X157714928Y-84868764D02*
G01*
X157736009Y-84875160D01*
X157755445Y-84885548D01*
X157772476Y-84899524D01*
X157786452Y-84916555D01*
X157796840Y-84935991D01*
X157803236Y-84957072D01*
X157806000Y-84985140D01*
X157806000Y-85448860D01*
X157803236Y-85476928D01*
X157796840Y-85498009D01*
X157786452Y-85517445D01*
X157772476Y-85534476D01*
X157755445Y-85548452D01*
X157736009Y-85558840D01*
X157714928Y-85565236D01*
X157686860Y-85568000D01*
X155873140Y-85568000D01*
X155845072Y-85565236D01*
X155823991Y-85558840D01*
X155804555Y-85548452D01*
X155787524Y-85534476D01*
X155773548Y-85517445D01*
X155763160Y-85498009D01*
X155756764Y-85476928D01*
X155754000Y-85448860D01*
X155754000Y-84985140D01*
X155756764Y-84957072D01*
X155763160Y-84935991D01*
X155773548Y-84916555D01*
X155787524Y-84899524D01*
X155804555Y-84885548D01*
X155823991Y-84875160D01*
X155845072Y-84868764D01*
X155873140Y-84866000D01*
X157686860Y-84866000D01*
X157714928Y-84868764D01*
G37*
G36*
X152764928Y-84868764D02*
G01*
X152786009Y-84875160D01*
X152805445Y-84885548D01*
X152822476Y-84899524D01*
X152836452Y-84916555D01*
X152846840Y-84935991D01*
X152853236Y-84957072D01*
X152856000Y-84985140D01*
X152856000Y-85448860D01*
X152853236Y-85476928D01*
X152846840Y-85498009D01*
X152836452Y-85517445D01*
X152822476Y-85534476D01*
X152805445Y-85548452D01*
X152786009Y-85558840D01*
X152764928Y-85565236D01*
X152736860Y-85568000D01*
X150923140Y-85568000D01*
X150895072Y-85565236D01*
X150873991Y-85558840D01*
X150854555Y-85548452D01*
X150837524Y-85534476D01*
X150823548Y-85517445D01*
X150813160Y-85498009D01*
X150806764Y-85476928D01*
X150804000Y-85448860D01*
X150804000Y-84985140D01*
X150806764Y-84957072D01*
X150813160Y-84935991D01*
X150823548Y-84916555D01*
X150837524Y-84899524D01*
X150854555Y-84885548D01*
X150873991Y-84875160D01*
X150895072Y-84868764D01*
X150923140Y-84866000D01*
X152736860Y-84866000D01*
X152764928Y-84868764D01*
G37*
G36*
X178799928Y-84741764D02*
G01*
X178821009Y-84748160D01*
X178840445Y-84758548D01*
X178857476Y-84772524D01*
X178871452Y-84789555D01*
X178881840Y-84808991D01*
X178888236Y-84830072D01*
X178891000Y-84858140D01*
X178891000Y-85321860D01*
X178888236Y-85349928D01*
X178881840Y-85371009D01*
X178871452Y-85390445D01*
X178857476Y-85407476D01*
X178840445Y-85421452D01*
X178821009Y-85431840D01*
X178799928Y-85438236D01*
X178771860Y-85441000D01*
X176958140Y-85441000D01*
X176930072Y-85438236D01*
X176908991Y-85431840D01*
X176889555Y-85421452D01*
X176872524Y-85407476D01*
X176858548Y-85390445D01*
X176848160Y-85371009D01*
X176841764Y-85349928D01*
X176839000Y-85321860D01*
X176839000Y-84858140D01*
X176841764Y-84830072D01*
X176848160Y-84808991D01*
X176858548Y-84789555D01*
X176872524Y-84772524D01*
X176889555Y-84758548D01*
X176908991Y-84748160D01*
X176930072Y-84741764D01*
X176958140Y-84739000D01*
X178771860Y-84739000D01*
X178799928Y-84741764D01*
G37*
G36*
X197214928Y-84741764D02*
G01*
X197236009Y-84748160D01*
X197255445Y-84758548D01*
X197272476Y-84772524D01*
X197286452Y-84789555D01*
X197296840Y-84808991D01*
X197303236Y-84830072D01*
X197306000Y-84858140D01*
X197306000Y-85321860D01*
X197303236Y-85349928D01*
X197296840Y-85371009D01*
X197286452Y-85390445D01*
X197272476Y-85407476D01*
X197255445Y-85421452D01*
X197236009Y-85431840D01*
X197214928Y-85438236D01*
X197186860Y-85441000D01*
X195373140Y-85441000D01*
X195345072Y-85438236D01*
X195323991Y-85431840D01*
X195304555Y-85421452D01*
X195287524Y-85407476D01*
X195273548Y-85390445D01*
X195263160Y-85371009D01*
X195256764Y-85349928D01*
X195254000Y-85321860D01*
X195254000Y-84858140D01*
X195256764Y-84830072D01*
X195263160Y-84808991D01*
X195273548Y-84789555D01*
X195287524Y-84772524D01*
X195304555Y-84758548D01*
X195323991Y-84748160D01*
X195345072Y-84741764D01*
X195373140Y-84739000D01*
X197186860Y-84739000D01*
X197214928Y-84741764D01*
G37*
G36*
X202164928Y-84741764D02*
G01*
X202186009Y-84748160D01*
X202205445Y-84758548D01*
X202222476Y-84772524D01*
X202236452Y-84789555D01*
X202246840Y-84808991D01*
X202253236Y-84830072D01*
X202256000Y-84858140D01*
X202256000Y-85321860D01*
X202253236Y-85349928D01*
X202246840Y-85371009D01*
X202236452Y-85390445D01*
X202222476Y-85407476D01*
X202205445Y-85421452D01*
X202186009Y-85431840D01*
X202164928Y-85438236D01*
X202136860Y-85441000D01*
X200323140Y-85441000D01*
X200295072Y-85438236D01*
X200273991Y-85431840D01*
X200254555Y-85421452D01*
X200237524Y-85407476D01*
X200223548Y-85390445D01*
X200213160Y-85371009D01*
X200206764Y-85349928D01*
X200204000Y-85321860D01*
X200204000Y-84858140D01*
X200206764Y-84830072D01*
X200213160Y-84808991D01*
X200223548Y-84789555D01*
X200237524Y-84772524D01*
X200254555Y-84758548D01*
X200273991Y-84748160D01*
X200295072Y-84741764D01*
X200323140Y-84739000D01*
X202136860Y-84739000D01*
X202164928Y-84741764D01*
G37*
G36*
X136759928Y-84741764D02*
G01*
X136781009Y-84748160D01*
X136800445Y-84758548D01*
X136817476Y-84772524D01*
X136831452Y-84789555D01*
X136841840Y-84808991D01*
X136848236Y-84830072D01*
X136851000Y-84858140D01*
X136851000Y-85321860D01*
X136848236Y-85349928D01*
X136841840Y-85371009D01*
X136831452Y-85390445D01*
X136817476Y-85407476D01*
X136800445Y-85421452D01*
X136781009Y-85431840D01*
X136759928Y-85438236D01*
X136731860Y-85441000D01*
X134918140Y-85441000D01*
X134890072Y-85438236D01*
X134868991Y-85431840D01*
X134849555Y-85421452D01*
X134832524Y-85407476D01*
X134818548Y-85390445D01*
X134808160Y-85371009D01*
X134801764Y-85349928D01*
X134799000Y-85321860D01*
X134799000Y-84858140D01*
X134801764Y-84830072D01*
X134808160Y-84808991D01*
X134818548Y-84789555D01*
X134832524Y-84772524D01*
X134849555Y-84758548D01*
X134868991Y-84748160D01*
X134890072Y-84741764D01*
X134918140Y-84739000D01*
X136731860Y-84739000D01*
X136759928Y-84741764D01*
G37*
G36*
X131809928Y-84741764D02*
G01*
X131831009Y-84748160D01*
X131850445Y-84758548D01*
X131867476Y-84772524D01*
X131881452Y-84789555D01*
X131891840Y-84808991D01*
X131898236Y-84830072D01*
X131901000Y-84858140D01*
X131901000Y-85321860D01*
X131898236Y-85349928D01*
X131891840Y-85371009D01*
X131881452Y-85390445D01*
X131867476Y-85407476D01*
X131850445Y-85421452D01*
X131831009Y-85431840D01*
X131809928Y-85438236D01*
X131781860Y-85441000D01*
X129968140Y-85441000D01*
X129940072Y-85438236D01*
X129918991Y-85431840D01*
X129899555Y-85421452D01*
X129882524Y-85407476D01*
X129868548Y-85390445D01*
X129858160Y-85371009D01*
X129851764Y-85349928D01*
X129849000Y-85321860D01*
X129849000Y-84858140D01*
X129851764Y-84830072D01*
X129858160Y-84808991D01*
X129868548Y-84789555D01*
X129882524Y-84772524D01*
X129899555Y-84758548D01*
X129918991Y-84748160D01*
X129940072Y-84741764D01*
X129968140Y-84739000D01*
X131781860Y-84739000D01*
X131809928Y-84741764D01*
G37*
G36*
X183749928Y-84741764D02*
G01*
X183771009Y-84748160D01*
X183790445Y-84758548D01*
X183807476Y-84772524D01*
X183821452Y-84789555D01*
X183831840Y-84808991D01*
X183838236Y-84830072D01*
X183841000Y-84858140D01*
X183841000Y-85321860D01*
X183838236Y-85349928D01*
X183831840Y-85371009D01*
X183821452Y-85390445D01*
X183807476Y-85407476D01*
X183790445Y-85421452D01*
X183771009Y-85431840D01*
X183749928Y-85438236D01*
X183721860Y-85441000D01*
X181908140Y-85441000D01*
X181880072Y-85438236D01*
X181858991Y-85431840D01*
X181839555Y-85421452D01*
X181822524Y-85407476D01*
X181808548Y-85390445D01*
X181798160Y-85371009D01*
X181791764Y-85349928D01*
X181789000Y-85321860D01*
X181789000Y-84858140D01*
X181791764Y-84830072D01*
X181798160Y-84808991D01*
X181808548Y-84789555D01*
X181822524Y-84772524D01*
X181839555Y-84758548D01*
X181858991Y-84748160D01*
X181880072Y-84741764D01*
X181908140Y-84739000D01*
X183721860Y-84739000D01*
X183749928Y-84741764D01*
G37*
G36*
X152764928Y-83598764D02*
G01*
X152786009Y-83605160D01*
X152805445Y-83615548D01*
X152822476Y-83629524D01*
X152836452Y-83646555D01*
X152846840Y-83665991D01*
X152853236Y-83687072D01*
X152856000Y-83715140D01*
X152856000Y-84178860D01*
X152853236Y-84206928D01*
X152846840Y-84228009D01*
X152836452Y-84247445D01*
X152822476Y-84264476D01*
X152805445Y-84278452D01*
X152786009Y-84288840D01*
X152764928Y-84295236D01*
X152736860Y-84298000D01*
X150923140Y-84298000D01*
X150895072Y-84295236D01*
X150873991Y-84288840D01*
X150854555Y-84278452D01*
X150837524Y-84264476D01*
X150823548Y-84247445D01*
X150813160Y-84228009D01*
X150806764Y-84206928D01*
X150804000Y-84178860D01*
X150804000Y-83715140D01*
X150806764Y-83687072D01*
X150813160Y-83665991D01*
X150823548Y-83646555D01*
X150837524Y-83629524D01*
X150854555Y-83615548D01*
X150873991Y-83605160D01*
X150895072Y-83598764D01*
X150923140Y-83596000D01*
X152736860Y-83596000D01*
X152764928Y-83598764D01*
G37*
G36*
X157714928Y-83598764D02*
G01*
X157736009Y-83605160D01*
X157755445Y-83615548D01*
X157772476Y-83629524D01*
X157786452Y-83646555D01*
X157796840Y-83665991D01*
X157803236Y-83687072D01*
X157806000Y-83715140D01*
X157806000Y-84178860D01*
X157803236Y-84206928D01*
X157796840Y-84228009D01*
X157786452Y-84247445D01*
X157772476Y-84264476D01*
X157755445Y-84278452D01*
X157736009Y-84288840D01*
X157714928Y-84295236D01*
X157686860Y-84298000D01*
X155873140Y-84298000D01*
X155845072Y-84295236D01*
X155823991Y-84288840D01*
X155804555Y-84278452D01*
X155787524Y-84264476D01*
X155773548Y-84247445D01*
X155763160Y-84228009D01*
X155756764Y-84206928D01*
X155754000Y-84178860D01*
X155754000Y-83715140D01*
X155756764Y-83687072D01*
X155763160Y-83665991D01*
X155773548Y-83646555D01*
X155787524Y-83629524D01*
X155804555Y-83615548D01*
X155823991Y-83605160D01*
X155845072Y-83598764D01*
X155873140Y-83596000D01*
X157686860Y-83596000D01*
X157714928Y-83598764D01*
G37*
G36*
X178799928Y-83471764D02*
G01*
X178821009Y-83478160D01*
X178840445Y-83488548D01*
X178857476Y-83502524D01*
X178871452Y-83519555D01*
X178881840Y-83538991D01*
X178888236Y-83560072D01*
X178891000Y-83588140D01*
X178891000Y-84051860D01*
X178888236Y-84079928D01*
X178881840Y-84101009D01*
X178871452Y-84120445D01*
X178857476Y-84137476D01*
X178840445Y-84151452D01*
X178821009Y-84161840D01*
X178799928Y-84168236D01*
X178771860Y-84171000D01*
X176958140Y-84171000D01*
X176930072Y-84168236D01*
X176908991Y-84161840D01*
X176889555Y-84151452D01*
X176872524Y-84137476D01*
X176858548Y-84120445D01*
X176848160Y-84101009D01*
X176841764Y-84079928D01*
X176839000Y-84051860D01*
X176839000Y-83588140D01*
X176841764Y-83560072D01*
X176848160Y-83538991D01*
X176858548Y-83519555D01*
X176872524Y-83502524D01*
X176889555Y-83488548D01*
X176908991Y-83478160D01*
X176930072Y-83471764D01*
X176958140Y-83469000D01*
X178771860Y-83469000D01*
X178799928Y-83471764D01*
G37*
G36*
X131809928Y-83471764D02*
G01*
X131831009Y-83478160D01*
X131850445Y-83488548D01*
X131867476Y-83502524D01*
X131881452Y-83519555D01*
X131891840Y-83538991D01*
X131898236Y-83560072D01*
X131901000Y-83588140D01*
X131901000Y-84051860D01*
X131898236Y-84079928D01*
X131891840Y-84101009D01*
X131881452Y-84120445D01*
X131867476Y-84137476D01*
X131850445Y-84151452D01*
X131831009Y-84161840D01*
X131809928Y-84168236D01*
X131781860Y-84171000D01*
X129968140Y-84171000D01*
X129940072Y-84168236D01*
X129918991Y-84161840D01*
X129899555Y-84151452D01*
X129882524Y-84137476D01*
X129868548Y-84120445D01*
X129858160Y-84101009D01*
X129851764Y-84079928D01*
X129849000Y-84051860D01*
X129849000Y-83588140D01*
X129851764Y-83560072D01*
X129858160Y-83538991D01*
X129868548Y-83519555D01*
X129882524Y-83502524D01*
X129899555Y-83488548D01*
X129918991Y-83478160D01*
X129940072Y-83471764D01*
X129968140Y-83469000D01*
X131781860Y-83469000D01*
X131809928Y-83471764D01*
G37*
G36*
X202164928Y-83471764D02*
G01*
X202186009Y-83478160D01*
X202205445Y-83488548D01*
X202222476Y-83502524D01*
X202236452Y-83519555D01*
X202246840Y-83538991D01*
X202253236Y-83560072D01*
X202256000Y-83588140D01*
X202256000Y-84051860D01*
X202253236Y-84079928D01*
X202246840Y-84101009D01*
X202236452Y-84120445D01*
X202222476Y-84137476D01*
X202205445Y-84151452D01*
X202186009Y-84161840D01*
X202164928Y-84168236D01*
X202136860Y-84171000D01*
X200323140Y-84171000D01*
X200295072Y-84168236D01*
X200273991Y-84161840D01*
X200254555Y-84151452D01*
X200237524Y-84137476D01*
X200223548Y-84120445D01*
X200213160Y-84101009D01*
X200206764Y-84079928D01*
X200204000Y-84051860D01*
X200204000Y-83588140D01*
X200206764Y-83560072D01*
X200213160Y-83538991D01*
X200223548Y-83519555D01*
X200237524Y-83502524D01*
X200254555Y-83488548D01*
X200273991Y-83478160D01*
X200295072Y-83471764D01*
X200323140Y-83469000D01*
X202136860Y-83469000D01*
X202164928Y-83471764D01*
G37*
G36*
X197214928Y-83471764D02*
G01*
X197236009Y-83478160D01*
X197255445Y-83488548D01*
X197272476Y-83502524D01*
X197286452Y-83519555D01*
X197296840Y-83538991D01*
X197303236Y-83560072D01*
X197306000Y-83588140D01*
X197306000Y-84051860D01*
X197303236Y-84079928D01*
X197296840Y-84101009D01*
X197286452Y-84120445D01*
X197272476Y-84137476D01*
X197255445Y-84151452D01*
X197236009Y-84161840D01*
X197214928Y-84168236D01*
X197186860Y-84171000D01*
X195373140Y-84171000D01*
X195345072Y-84168236D01*
X195323991Y-84161840D01*
X195304555Y-84151452D01*
X195287524Y-84137476D01*
X195273548Y-84120445D01*
X195263160Y-84101009D01*
X195256764Y-84079928D01*
X195254000Y-84051860D01*
X195254000Y-83588140D01*
X195256764Y-83560072D01*
X195263160Y-83538991D01*
X195273548Y-83519555D01*
X195287524Y-83502524D01*
X195304555Y-83488548D01*
X195323991Y-83478160D01*
X195345072Y-83471764D01*
X195373140Y-83469000D01*
X197186860Y-83469000D01*
X197214928Y-83471764D01*
G37*
G36*
X136759928Y-83471764D02*
G01*
X136781009Y-83478160D01*
X136800445Y-83488548D01*
X136817476Y-83502524D01*
X136831452Y-83519555D01*
X136841840Y-83538991D01*
X136848236Y-83560072D01*
X136851000Y-83588140D01*
X136851000Y-84051860D01*
X136848236Y-84079928D01*
X136841840Y-84101009D01*
X136831452Y-84120445D01*
X136817476Y-84137476D01*
X136800445Y-84151452D01*
X136781009Y-84161840D01*
X136759928Y-84168236D01*
X136731860Y-84171000D01*
X134918140Y-84171000D01*
X134890072Y-84168236D01*
X134868991Y-84161840D01*
X134849555Y-84151452D01*
X134832524Y-84137476D01*
X134818548Y-84120445D01*
X134808160Y-84101009D01*
X134801764Y-84079928D01*
X134799000Y-84051860D01*
X134799000Y-83588140D01*
X134801764Y-83560072D01*
X134808160Y-83538991D01*
X134818548Y-83519555D01*
X134832524Y-83502524D01*
X134849555Y-83488548D01*
X134868991Y-83478160D01*
X134890072Y-83471764D01*
X134918140Y-83469000D01*
X136731860Y-83469000D01*
X136759928Y-83471764D01*
G37*
G36*
X183749928Y-83471764D02*
G01*
X183771009Y-83478160D01*
X183790445Y-83488548D01*
X183807476Y-83502524D01*
X183821452Y-83519555D01*
X183831840Y-83538991D01*
X183838236Y-83560072D01*
X183841000Y-83588140D01*
X183841000Y-84051860D01*
X183838236Y-84079928D01*
X183831840Y-84101009D01*
X183821452Y-84120445D01*
X183807476Y-84137476D01*
X183790445Y-84151452D01*
X183771009Y-84161840D01*
X183749928Y-84168236D01*
X183721860Y-84171000D01*
X181908140Y-84171000D01*
X181880072Y-84168236D01*
X181858991Y-84161840D01*
X181839555Y-84151452D01*
X181822524Y-84137476D01*
X181808548Y-84120445D01*
X181798160Y-84101009D01*
X181791764Y-84079928D01*
X181789000Y-84051860D01*
X181789000Y-83588140D01*
X181791764Y-83560072D01*
X181798160Y-83538991D01*
X181808548Y-83519555D01*
X181822524Y-83502524D01*
X181839555Y-83488548D01*
X181858991Y-83478160D01*
X181880072Y-83471764D01*
X181908140Y-83469000D01*
X183721860Y-83469000D01*
X183749928Y-83471764D01*
G37*
G36*
X152764928Y-82328764D02*
G01*
X152786009Y-82335160D01*
X152805445Y-82345548D01*
X152822476Y-82359524D01*
X152836452Y-82376555D01*
X152846840Y-82395991D01*
X152853236Y-82417072D01*
X152856000Y-82445140D01*
X152856000Y-82908860D01*
X152853236Y-82936928D01*
X152846840Y-82958009D01*
X152836452Y-82977445D01*
X152822476Y-82994476D01*
X152805445Y-83008452D01*
X152786009Y-83018840D01*
X152764928Y-83025236D01*
X152736860Y-83028000D01*
X150923140Y-83028000D01*
X150895072Y-83025236D01*
X150873991Y-83018840D01*
X150854555Y-83008452D01*
X150837524Y-82994476D01*
X150823548Y-82977445D01*
X150813160Y-82958009D01*
X150806764Y-82936928D01*
X150804000Y-82908860D01*
X150804000Y-82445140D01*
X150806764Y-82417072D01*
X150813160Y-82395991D01*
X150823548Y-82376555D01*
X150837524Y-82359524D01*
X150854555Y-82345548D01*
X150873991Y-82335160D01*
X150895072Y-82328764D01*
X150923140Y-82326000D01*
X152736860Y-82326000D01*
X152764928Y-82328764D01*
G37*
G36*
X157714928Y-82328764D02*
G01*
X157736009Y-82335160D01*
X157755445Y-82345548D01*
X157772476Y-82359524D01*
X157786452Y-82376555D01*
X157796840Y-82395991D01*
X157803236Y-82417072D01*
X157806000Y-82445140D01*
X157806000Y-82908860D01*
X157803236Y-82936928D01*
X157796840Y-82958009D01*
X157786452Y-82977445D01*
X157772476Y-82994476D01*
X157755445Y-83008452D01*
X157736009Y-83018840D01*
X157714928Y-83025236D01*
X157686860Y-83028000D01*
X155873140Y-83028000D01*
X155845072Y-83025236D01*
X155823991Y-83018840D01*
X155804555Y-83008452D01*
X155787524Y-82994476D01*
X155773548Y-82977445D01*
X155763160Y-82958009D01*
X155756764Y-82936928D01*
X155754000Y-82908860D01*
X155754000Y-82445140D01*
X155756764Y-82417072D01*
X155763160Y-82395991D01*
X155773548Y-82376555D01*
X155787524Y-82359524D01*
X155804555Y-82345548D01*
X155823991Y-82335160D01*
X155845072Y-82328764D01*
X155873140Y-82326000D01*
X157686860Y-82326000D01*
X157714928Y-82328764D01*
G37*
G36*
X178799928Y-82201764D02*
G01*
X178821009Y-82208160D01*
X178840445Y-82218548D01*
X178857476Y-82232524D01*
X178871452Y-82249555D01*
X178881840Y-82268991D01*
X178888236Y-82290072D01*
X178891000Y-82318140D01*
X178891000Y-82781860D01*
X178888236Y-82809928D01*
X178881840Y-82831009D01*
X178871452Y-82850445D01*
X178857476Y-82867476D01*
X178840445Y-82881452D01*
X178821009Y-82891840D01*
X178799928Y-82898236D01*
X178771860Y-82901000D01*
X176958140Y-82901000D01*
X176930072Y-82898236D01*
X176908991Y-82891840D01*
X176889555Y-82881452D01*
X176872524Y-82867476D01*
X176858548Y-82850445D01*
X176848160Y-82831009D01*
X176841764Y-82809928D01*
X176839000Y-82781860D01*
X176839000Y-82318140D01*
X176841764Y-82290072D01*
X176848160Y-82268991D01*
X176858548Y-82249555D01*
X176872524Y-82232524D01*
X176889555Y-82218548D01*
X176908991Y-82208160D01*
X176930072Y-82201764D01*
X176958140Y-82199000D01*
X178771860Y-82199000D01*
X178799928Y-82201764D01*
G37*
G36*
X197214928Y-82201764D02*
G01*
X197236009Y-82208160D01*
X197255445Y-82218548D01*
X197272476Y-82232524D01*
X197286452Y-82249555D01*
X197296840Y-82268991D01*
X197303236Y-82290072D01*
X197306000Y-82318140D01*
X197306000Y-82781860D01*
X197303236Y-82809928D01*
X197296840Y-82831009D01*
X197286452Y-82850445D01*
X197272476Y-82867476D01*
X197255445Y-82881452D01*
X197236009Y-82891840D01*
X197214928Y-82898236D01*
X197186860Y-82901000D01*
X195373140Y-82901000D01*
X195345072Y-82898236D01*
X195323991Y-82891840D01*
X195304555Y-82881452D01*
X195287524Y-82867476D01*
X195273548Y-82850445D01*
X195263160Y-82831009D01*
X195256764Y-82809928D01*
X195254000Y-82781860D01*
X195254000Y-82318140D01*
X195256764Y-82290072D01*
X195263160Y-82268991D01*
X195273548Y-82249555D01*
X195287524Y-82232524D01*
X195304555Y-82218548D01*
X195323991Y-82208160D01*
X195345072Y-82201764D01*
X195373140Y-82199000D01*
X197186860Y-82199000D01*
X197214928Y-82201764D01*
G37*
G36*
X202164928Y-82201764D02*
G01*
X202186009Y-82208160D01*
X202205445Y-82218548D01*
X202222476Y-82232524D01*
X202236452Y-82249555D01*
X202246840Y-82268991D01*
X202253236Y-82290072D01*
X202256000Y-82318140D01*
X202256000Y-82781860D01*
X202253236Y-82809928D01*
X202246840Y-82831009D01*
X202236452Y-82850445D01*
X202222476Y-82867476D01*
X202205445Y-82881452D01*
X202186009Y-82891840D01*
X202164928Y-82898236D01*
X202136860Y-82901000D01*
X200323140Y-82901000D01*
X200295072Y-82898236D01*
X200273991Y-82891840D01*
X200254555Y-82881452D01*
X200237524Y-82867476D01*
X200223548Y-82850445D01*
X200213160Y-82831009D01*
X200206764Y-82809928D01*
X200204000Y-82781860D01*
X200204000Y-82318140D01*
X200206764Y-82290072D01*
X200213160Y-82268991D01*
X200223548Y-82249555D01*
X200237524Y-82232524D01*
X200254555Y-82218548D01*
X200273991Y-82208160D01*
X200295072Y-82201764D01*
X200323140Y-82199000D01*
X202136860Y-82199000D01*
X202164928Y-82201764D01*
G37*
G36*
X183749928Y-82201764D02*
G01*
X183771009Y-82208160D01*
X183790445Y-82218548D01*
X183807476Y-82232524D01*
X183821452Y-82249555D01*
X183831840Y-82268991D01*
X183838236Y-82290072D01*
X183841000Y-82318140D01*
X183841000Y-82781860D01*
X183838236Y-82809928D01*
X183831840Y-82831009D01*
X183821452Y-82850445D01*
X183807476Y-82867476D01*
X183790445Y-82881452D01*
X183771009Y-82891840D01*
X183749928Y-82898236D01*
X183721860Y-82901000D01*
X181908140Y-82901000D01*
X181880072Y-82898236D01*
X181858991Y-82891840D01*
X181839555Y-82881452D01*
X181822524Y-82867476D01*
X181808548Y-82850445D01*
X181798160Y-82831009D01*
X181791764Y-82809928D01*
X181789000Y-82781860D01*
X181789000Y-82318140D01*
X181791764Y-82290072D01*
X181798160Y-82268991D01*
X181808548Y-82249555D01*
X181822524Y-82232524D01*
X181839555Y-82218548D01*
X181858991Y-82208160D01*
X181880072Y-82201764D01*
X181908140Y-82199000D01*
X183721860Y-82199000D01*
X183749928Y-82201764D01*
G37*
G36*
X136759928Y-82201764D02*
G01*
X136781009Y-82208160D01*
X136800445Y-82218548D01*
X136817476Y-82232524D01*
X136831452Y-82249555D01*
X136841840Y-82268991D01*
X136848236Y-82290072D01*
X136851000Y-82318140D01*
X136851000Y-82781860D01*
X136848236Y-82809928D01*
X136841840Y-82831009D01*
X136831452Y-82850445D01*
X136817476Y-82867476D01*
X136800445Y-82881452D01*
X136781009Y-82891840D01*
X136759928Y-82898236D01*
X136731860Y-82901000D01*
X134918140Y-82901000D01*
X134890072Y-82898236D01*
X134868991Y-82891840D01*
X134849555Y-82881452D01*
X134832524Y-82867476D01*
X134818548Y-82850445D01*
X134808160Y-82831009D01*
X134801764Y-82809928D01*
X134799000Y-82781860D01*
X134799000Y-82318140D01*
X134801764Y-82290072D01*
X134808160Y-82268991D01*
X134818548Y-82249555D01*
X134832524Y-82232524D01*
X134849555Y-82218548D01*
X134868991Y-82208160D01*
X134890072Y-82201764D01*
X134918140Y-82199000D01*
X136731860Y-82199000D01*
X136759928Y-82201764D01*
G37*
G36*
X131809928Y-82201764D02*
G01*
X131831009Y-82208160D01*
X131850445Y-82218548D01*
X131867476Y-82232524D01*
X131881452Y-82249555D01*
X131891840Y-82268991D01*
X131898236Y-82290072D01*
X131901000Y-82318140D01*
X131901000Y-82781860D01*
X131898236Y-82809928D01*
X131891840Y-82831009D01*
X131881452Y-82850445D01*
X131867476Y-82867476D01*
X131850445Y-82881452D01*
X131831009Y-82891840D01*
X131809928Y-82898236D01*
X131781860Y-82901000D01*
X129968140Y-82901000D01*
X129940072Y-82898236D01*
X129918991Y-82891840D01*
X129899555Y-82881452D01*
X129882524Y-82867476D01*
X129868548Y-82850445D01*
X129858160Y-82831009D01*
X129851764Y-82809928D01*
X129849000Y-82781860D01*
X129849000Y-82318140D01*
X129851764Y-82290072D01*
X129858160Y-82268991D01*
X129868548Y-82249555D01*
X129882524Y-82232524D01*
X129899555Y-82218548D01*
X129918991Y-82208160D01*
X129940072Y-82201764D01*
X129968140Y-82199000D01*
X131781860Y-82199000D01*
X131809928Y-82201764D01*
G37*
G36*
X128507499Y-81202445D02*
G01*
X128544995Y-81213820D01*
X128579554Y-81232292D01*
X128609847Y-81257153D01*
X128634708Y-81287446D01*
X128653180Y-81322005D01*
X128664555Y-81359501D01*
X128669000Y-81404638D01*
X128669000Y-82143362D01*
X128664555Y-82188499D01*
X128653180Y-82225995D01*
X128634708Y-82260554D01*
X128609847Y-82290847D01*
X128579554Y-82315708D01*
X128544995Y-82334180D01*
X128507499Y-82345555D01*
X128462362Y-82350000D01*
X127823638Y-82350000D01*
X127778501Y-82345555D01*
X127741005Y-82334180D01*
X127706446Y-82315708D01*
X127676153Y-82290847D01*
X127651292Y-82260554D01*
X127632820Y-82225995D01*
X127621445Y-82188499D01*
X127617000Y-82143362D01*
X127617000Y-81404638D01*
X127621445Y-81359501D01*
X127632820Y-81322005D01*
X127651292Y-81287446D01*
X127676153Y-81257153D01*
X127706446Y-81232292D01*
X127741005Y-81213820D01*
X127778501Y-81202445D01*
X127823638Y-81198000D01*
X128462362Y-81198000D01*
X128507499Y-81202445D01*
G37*
G36*
X157714928Y-81058764D02*
G01*
X157736009Y-81065160D01*
X157755445Y-81075548D01*
X157772476Y-81089524D01*
X157786452Y-81106555D01*
X157796840Y-81125991D01*
X157803236Y-81147072D01*
X157806000Y-81175140D01*
X157806000Y-81638860D01*
X157803236Y-81666928D01*
X157796840Y-81688009D01*
X157786452Y-81707445D01*
X157772476Y-81724476D01*
X157755445Y-81738452D01*
X157736009Y-81748840D01*
X157714928Y-81755236D01*
X157686860Y-81758000D01*
X155873140Y-81758000D01*
X155845072Y-81755236D01*
X155823991Y-81748840D01*
X155804555Y-81738452D01*
X155787524Y-81724476D01*
X155773548Y-81707445D01*
X155763160Y-81688009D01*
X155756764Y-81666928D01*
X155754000Y-81638860D01*
X155754000Y-81175140D01*
X155756764Y-81147072D01*
X155763160Y-81125991D01*
X155773548Y-81106555D01*
X155787524Y-81089524D01*
X155804555Y-81075548D01*
X155823991Y-81065160D01*
X155845072Y-81058764D01*
X155873140Y-81056000D01*
X157686860Y-81056000D01*
X157714928Y-81058764D01*
G37*
G36*
X152764928Y-81058764D02*
G01*
X152786009Y-81065160D01*
X152805445Y-81075548D01*
X152822476Y-81089524D01*
X152836452Y-81106555D01*
X152846840Y-81125991D01*
X152853236Y-81147072D01*
X152856000Y-81175140D01*
X152856000Y-81638860D01*
X152853236Y-81666928D01*
X152846840Y-81688009D01*
X152836452Y-81707445D01*
X152822476Y-81724476D01*
X152805445Y-81738452D01*
X152786009Y-81748840D01*
X152764928Y-81755236D01*
X152736860Y-81758000D01*
X150923140Y-81758000D01*
X150895072Y-81755236D01*
X150873991Y-81748840D01*
X150854555Y-81738452D01*
X150837524Y-81724476D01*
X150823548Y-81707445D01*
X150813160Y-81688009D01*
X150806764Y-81666928D01*
X150804000Y-81638860D01*
X150804000Y-81175140D01*
X150806764Y-81147072D01*
X150813160Y-81125991D01*
X150823548Y-81106555D01*
X150837524Y-81089524D01*
X150854555Y-81075548D01*
X150873991Y-81065160D01*
X150895072Y-81058764D01*
X150923140Y-81056000D01*
X152736860Y-81056000D01*
X152764928Y-81058764D01*
G37*
G36*
X202164928Y-80931764D02*
G01*
X202186009Y-80938160D01*
X202205445Y-80948548D01*
X202222476Y-80962524D01*
X202236452Y-80979555D01*
X202246840Y-80998991D01*
X202253236Y-81020072D01*
X202256000Y-81048140D01*
X202256000Y-81511860D01*
X202253236Y-81539928D01*
X202246840Y-81561009D01*
X202236452Y-81580445D01*
X202222476Y-81597476D01*
X202205445Y-81611452D01*
X202186009Y-81621840D01*
X202164928Y-81628236D01*
X202136860Y-81631000D01*
X200323140Y-81631000D01*
X200295072Y-81628236D01*
X200273991Y-81621840D01*
X200254555Y-81611452D01*
X200237524Y-81597476D01*
X200223548Y-81580445D01*
X200213160Y-81561009D01*
X200206764Y-81539928D01*
X200204000Y-81511860D01*
X200204000Y-81048140D01*
X200206764Y-81020072D01*
X200213160Y-80998991D01*
X200223548Y-80979555D01*
X200237524Y-80962524D01*
X200254555Y-80948548D01*
X200273991Y-80938160D01*
X200295072Y-80931764D01*
X200323140Y-80929000D01*
X202136860Y-80929000D01*
X202164928Y-80931764D01*
G37*
G36*
X183749928Y-80931764D02*
G01*
X183771009Y-80938160D01*
X183790445Y-80948548D01*
X183807476Y-80962524D01*
X183821452Y-80979555D01*
X183831840Y-80998991D01*
X183838236Y-81020072D01*
X183841000Y-81048140D01*
X183841000Y-81511860D01*
X183838236Y-81539928D01*
X183831840Y-81561009D01*
X183821452Y-81580445D01*
X183807476Y-81597476D01*
X183790445Y-81611452D01*
X183771009Y-81621840D01*
X183749928Y-81628236D01*
X183721860Y-81631000D01*
X181908140Y-81631000D01*
X181880072Y-81628236D01*
X181858991Y-81621840D01*
X181839555Y-81611452D01*
X181822524Y-81597476D01*
X181808548Y-81580445D01*
X181798160Y-81561009D01*
X181791764Y-81539928D01*
X181789000Y-81511860D01*
X181789000Y-81048140D01*
X181791764Y-81020072D01*
X181798160Y-80998991D01*
X181808548Y-80979555D01*
X181822524Y-80962524D01*
X181839555Y-80948548D01*
X181858991Y-80938160D01*
X181880072Y-80931764D01*
X181908140Y-80929000D01*
X183721860Y-80929000D01*
X183749928Y-80931764D01*
G37*
G36*
X178799928Y-80931764D02*
G01*
X178821009Y-80938160D01*
X178840445Y-80948548D01*
X178857476Y-80962524D01*
X178871452Y-80979555D01*
X178881840Y-80998991D01*
X178888236Y-81020072D01*
X178891000Y-81048140D01*
X178891000Y-81511860D01*
X178888236Y-81539928D01*
X178881840Y-81561009D01*
X178871452Y-81580445D01*
X178857476Y-81597476D01*
X178840445Y-81611452D01*
X178821009Y-81621840D01*
X178799928Y-81628236D01*
X178771860Y-81631000D01*
X176958140Y-81631000D01*
X176930072Y-81628236D01*
X176908991Y-81621840D01*
X176889555Y-81611452D01*
X176872524Y-81597476D01*
X176858548Y-81580445D01*
X176848160Y-81561009D01*
X176841764Y-81539928D01*
X176839000Y-81511860D01*
X176839000Y-81048140D01*
X176841764Y-81020072D01*
X176848160Y-80998991D01*
X176858548Y-80979555D01*
X176872524Y-80962524D01*
X176889555Y-80948548D01*
X176908991Y-80938160D01*
X176930072Y-80931764D01*
X176958140Y-80929000D01*
X178771860Y-80929000D01*
X178799928Y-80931764D01*
G37*
G36*
X197214928Y-80931764D02*
G01*
X197236009Y-80938160D01*
X197255445Y-80948548D01*
X197272476Y-80962524D01*
X197286452Y-80979555D01*
X197296840Y-80998991D01*
X197303236Y-81020072D01*
X197306000Y-81048140D01*
X197306000Y-81511860D01*
X197303236Y-81539928D01*
X197296840Y-81561009D01*
X197286452Y-81580445D01*
X197272476Y-81597476D01*
X197255445Y-81611452D01*
X197236009Y-81621840D01*
X197214928Y-81628236D01*
X197186860Y-81631000D01*
X195373140Y-81631000D01*
X195345072Y-81628236D01*
X195323991Y-81621840D01*
X195304555Y-81611452D01*
X195287524Y-81597476D01*
X195273548Y-81580445D01*
X195263160Y-81561009D01*
X195256764Y-81539928D01*
X195254000Y-81511860D01*
X195254000Y-81048140D01*
X195256764Y-81020072D01*
X195263160Y-80998991D01*
X195273548Y-80979555D01*
X195287524Y-80962524D01*
X195304555Y-80948548D01*
X195323991Y-80938160D01*
X195345072Y-80931764D01*
X195373140Y-80929000D01*
X197186860Y-80929000D01*
X197214928Y-80931764D01*
G37*
G36*
X131809928Y-80931764D02*
G01*
X131831009Y-80938160D01*
X131850445Y-80948548D01*
X131867476Y-80962524D01*
X131881452Y-80979555D01*
X131891840Y-80998991D01*
X131898236Y-81020072D01*
X131901000Y-81048140D01*
X131901000Y-81511860D01*
X131898236Y-81539928D01*
X131891840Y-81561009D01*
X131881452Y-81580445D01*
X131867476Y-81597476D01*
X131850445Y-81611452D01*
X131831009Y-81621840D01*
X131809928Y-81628236D01*
X131781860Y-81631000D01*
X129968140Y-81631000D01*
X129940072Y-81628236D01*
X129918991Y-81621840D01*
X129899555Y-81611452D01*
X129882524Y-81597476D01*
X129868548Y-81580445D01*
X129858160Y-81561009D01*
X129851764Y-81539928D01*
X129849000Y-81511860D01*
X129849000Y-81048140D01*
X129851764Y-81020072D01*
X129858160Y-80998991D01*
X129868548Y-80979555D01*
X129882524Y-80962524D01*
X129899555Y-80948548D01*
X129918991Y-80938160D01*
X129940072Y-80931764D01*
X129968140Y-80929000D01*
X131781860Y-80929000D01*
X131809928Y-80931764D01*
G37*
G36*
X136759928Y-80931764D02*
G01*
X136781009Y-80938160D01*
X136800445Y-80948548D01*
X136817476Y-80962524D01*
X136831452Y-80979555D01*
X136841840Y-80998991D01*
X136848236Y-81020072D01*
X136851000Y-81048140D01*
X136851000Y-81511860D01*
X136848236Y-81539928D01*
X136841840Y-81561009D01*
X136831452Y-81580445D01*
X136817476Y-81597476D01*
X136800445Y-81611452D01*
X136781009Y-81621840D01*
X136759928Y-81628236D01*
X136731860Y-81631000D01*
X134918140Y-81631000D01*
X134890072Y-81628236D01*
X134868991Y-81621840D01*
X134849555Y-81611452D01*
X134832524Y-81597476D01*
X134818548Y-81580445D01*
X134808160Y-81561009D01*
X134801764Y-81539928D01*
X134799000Y-81511860D01*
X134799000Y-81048140D01*
X134801764Y-81020072D01*
X134808160Y-80998991D01*
X134818548Y-80979555D01*
X134832524Y-80962524D01*
X134849555Y-80948548D01*
X134868991Y-80938160D01*
X134890072Y-80931764D01*
X134918140Y-80929000D01*
X136731860Y-80929000D01*
X136759928Y-80931764D01*
G37*
G36*
X128507499Y-79452445D02*
G01*
X128544995Y-79463820D01*
X128579554Y-79482292D01*
X128609847Y-79507153D01*
X128634708Y-79537446D01*
X128653180Y-79572005D01*
X128664555Y-79609501D01*
X128669000Y-79654638D01*
X128669000Y-80393362D01*
X128664555Y-80438499D01*
X128653180Y-80475995D01*
X128634708Y-80510554D01*
X128609847Y-80540847D01*
X128579554Y-80565708D01*
X128544995Y-80584180D01*
X128507499Y-80595555D01*
X128462362Y-80600000D01*
X127823638Y-80600000D01*
X127778501Y-80595555D01*
X127741005Y-80584180D01*
X127706446Y-80565708D01*
X127676153Y-80540847D01*
X127651292Y-80510554D01*
X127632820Y-80475995D01*
X127621445Y-80438499D01*
X127617000Y-80393362D01*
X127617000Y-79654638D01*
X127621445Y-79609501D01*
X127632820Y-79572005D01*
X127651292Y-79537446D01*
X127676153Y-79507153D01*
X127706446Y-79482292D01*
X127741005Y-79463820D01*
X127778501Y-79452445D01*
X127823638Y-79448000D01*
X128462362Y-79448000D01*
X128507499Y-79452445D01*
G37*
G36*
X152764928Y-79788764D02*
G01*
X152786009Y-79795160D01*
X152805445Y-79805548D01*
X152822476Y-79819524D01*
X152836452Y-79836555D01*
X152846840Y-79855991D01*
X152853236Y-79877072D01*
X152856000Y-79905140D01*
X152856000Y-80368860D01*
X152853236Y-80396928D01*
X152846840Y-80418009D01*
X152836452Y-80437445D01*
X152822476Y-80454476D01*
X152805445Y-80468452D01*
X152786009Y-80478840D01*
X152764928Y-80485236D01*
X152736860Y-80488000D01*
X150923140Y-80488000D01*
X150895072Y-80485236D01*
X150873991Y-80478840D01*
X150854555Y-80468452D01*
X150837524Y-80454476D01*
X150823548Y-80437445D01*
X150813160Y-80418009D01*
X150806764Y-80396928D01*
X150804000Y-80368860D01*
X150804000Y-79905140D01*
X150806764Y-79877072D01*
X150813160Y-79855991D01*
X150823548Y-79836555D01*
X150837524Y-79819524D01*
X150854555Y-79805548D01*
X150873991Y-79795160D01*
X150895072Y-79788764D01*
X150923140Y-79786000D01*
X152736860Y-79786000D01*
X152764928Y-79788764D01*
G37*
G36*
X157714928Y-79788764D02*
G01*
X157736009Y-79795160D01*
X157755445Y-79805548D01*
X157772476Y-79819524D01*
X157786452Y-79836555D01*
X157796840Y-79855991D01*
X157803236Y-79877072D01*
X157806000Y-79905140D01*
X157806000Y-80368860D01*
X157803236Y-80396928D01*
X157796840Y-80418009D01*
X157786452Y-80437445D01*
X157772476Y-80454476D01*
X157755445Y-80468452D01*
X157736009Y-80478840D01*
X157714928Y-80485236D01*
X157686860Y-80488000D01*
X155873140Y-80488000D01*
X155845072Y-80485236D01*
X155823991Y-80478840D01*
X155804555Y-80468452D01*
X155787524Y-80454476D01*
X155773548Y-80437445D01*
X155763160Y-80418009D01*
X155756764Y-80396928D01*
X155754000Y-80368860D01*
X155754000Y-79905140D01*
X155756764Y-79877072D01*
X155763160Y-79855991D01*
X155773548Y-79836555D01*
X155787524Y-79819524D01*
X155804555Y-79805548D01*
X155823991Y-79795160D01*
X155845072Y-79788764D01*
X155873140Y-79786000D01*
X157686860Y-79786000D01*
X157714928Y-79788764D01*
G37*
G36*
X183749928Y-79661764D02*
G01*
X183771009Y-79668160D01*
X183790445Y-79678548D01*
X183807476Y-79692524D01*
X183821452Y-79709555D01*
X183831840Y-79728991D01*
X183838236Y-79750072D01*
X183841000Y-79778140D01*
X183841000Y-80241860D01*
X183838236Y-80269928D01*
X183831840Y-80291009D01*
X183821452Y-80310445D01*
X183807476Y-80327476D01*
X183790445Y-80341452D01*
X183771009Y-80351840D01*
X183749928Y-80358236D01*
X183721860Y-80361000D01*
X181908140Y-80361000D01*
X181880072Y-80358236D01*
X181858991Y-80351840D01*
X181839555Y-80341452D01*
X181822524Y-80327476D01*
X181808548Y-80310445D01*
X181798160Y-80291009D01*
X181791764Y-80269928D01*
X181789000Y-80241860D01*
X181789000Y-79778140D01*
X181791764Y-79750072D01*
X181798160Y-79728991D01*
X181808548Y-79709555D01*
X181822524Y-79692524D01*
X181839555Y-79678548D01*
X181858991Y-79668160D01*
X181880072Y-79661764D01*
X181908140Y-79659000D01*
X183721860Y-79659000D01*
X183749928Y-79661764D01*
G37*
G36*
X197214928Y-79661764D02*
G01*
X197236009Y-79668160D01*
X197255445Y-79678548D01*
X197272476Y-79692524D01*
X197286452Y-79709555D01*
X197296840Y-79728991D01*
X197303236Y-79750072D01*
X197306000Y-79778140D01*
X197306000Y-80241860D01*
X197303236Y-80269928D01*
X197296840Y-80291009D01*
X197286452Y-80310445D01*
X197272476Y-80327476D01*
X197255445Y-80341452D01*
X197236009Y-80351840D01*
X197214928Y-80358236D01*
X197186860Y-80361000D01*
X195373140Y-80361000D01*
X195345072Y-80358236D01*
X195323991Y-80351840D01*
X195304555Y-80341452D01*
X195287524Y-80327476D01*
X195273548Y-80310445D01*
X195263160Y-80291009D01*
X195256764Y-80269928D01*
X195254000Y-80241860D01*
X195254000Y-79778140D01*
X195256764Y-79750072D01*
X195263160Y-79728991D01*
X195273548Y-79709555D01*
X195287524Y-79692524D01*
X195304555Y-79678548D01*
X195323991Y-79668160D01*
X195345072Y-79661764D01*
X195373140Y-79659000D01*
X197186860Y-79659000D01*
X197214928Y-79661764D01*
G37*
G36*
X131809928Y-79661764D02*
G01*
X131831009Y-79668160D01*
X131850445Y-79678548D01*
X131867476Y-79692524D01*
X131881452Y-79709555D01*
X131891840Y-79728991D01*
X131898236Y-79750072D01*
X131901000Y-79778140D01*
X131901000Y-80241860D01*
X131898236Y-80269928D01*
X131891840Y-80291009D01*
X131881452Y-80310445D01*
X131867476Y-80327476D01*
X131850445Y-80341452D01*
X131831009Y-80351840D01*
X131809928Y-80358236D01*
X131781860Y-80361000D01*
X129968140Y-80361000D01*
X129940072Y-80358236D01*
X129918991Y-80351840D01*
X129899555Y-80341452D01*
X129882524Y-80327476D01*
X129868548Y-80310445D01*
X129858160Y-80291009D01*
X129851764Y-80269928D01*
X129849000Y-80241860D01*
X129849000Y-79778140D01*
X129851764Y-79750072D01*
X129858160Y-79728991D01*
X129868548Y-79709555D01*
X129882524Y-79692524D01*
X129899555Y-79678548D01*
X129918991Y-79668160D01*
X129940072Y-79661764D01*
X129968140Y-79659000D01*
X131781860Y-79659000D01*
X131809928Y-79661764D01*
G37*
G36*
X202164928Y-79661764D02*
G01*
X202186009Y-79668160D01*
X202205445Y-79678548D01*
X202222476Y-79692524D01*
X202236452Y-79709555D01*
X202246840Y-79728991D01*
X202253236Y-79750072D01*
X202256000Y-79778140D01*
X202256000Y-80241860D01*
X202253236Y-80269928D01*
X202246840Y-80291009D01*
X202236452Y-80310445D01*
X202222476Y-80327476D01*
X202205445Y-80341452D01*
X202186009Y-80351840D01*
X202164928Y-80358236D01*
X202136860Y-80361000D01*
X200323140Y-80361000D01*
X200295072Y-80358236D01*
X200273991Y-80351840D01*
X200254555Y-80341452D01*
X200237524Y-80327476D01*
X200223548Y-80310445D01*
X200213160Y-80291009D01*
X200206764Y-80269928D01*
X200204000Y-80241860D01*
X200204000Y-79778140D01*
X200206764Y-79750072D01*
X200213160Y-79728991D01*
X200223548Y-79709555D01*
X200237524Y-79692524D01*
X200254555Y-79678548D01*
X200273991Y-79668160D01*
X200295072Y-79661764D01*
X200323140Y-79659000D01*
X202136860Y-79659000D01*
X202164928Y-79661764D01*
G37*
G36*
X136759928Y-79661764D02*
G01*
X136781009Y-79668160D01*
X136800445Y-79678548D01*
X136817476Y-79692524D01*
X136831452Y-79709555D01*
X136841840Y-79728991D01*
X136848236Y-79750072D01*
X136851000Y-79778140D01*
X136851000Y-80241860D01*
X136848236Y-80269928D01*
X136841840Y-80291009D01*
X136831452Y-80310445D01*
X136817476Y-80327476D01*
X136800445Y-80341452D01*
X136781009Y-80351840D01*
X136759928Y-80358236D01*
X136731860Y-80361000D01*
X134918140Y-80361000D01*
X134890072Y-80358236D01*
X134868991Y-80351840D01*
X134849555Y-80341452D01*
X134832524Y-80327476D01*
X134818548Y-80310445D01*
X134808160Y-80291009D01*
X134801764Y-80269928D01*
X134799000Y-80241860D01*
X134799000Y-79778140D01*
X134801764Y-79750072D01*
X134808160Y-79728991D01*
X134818548Y-79709555D01*
X134832524Y-79692524D01*
X134849555Y-79678548D01*
X134868991Y-79668160D01*
X134890072Y-79661764D01*
X134918140Y-79659000D01*
X136731860Y-79659000D01*
X136759928Y-79661764D01*
G37*
G36*
X178799928Y-79661764D02*
G01*
X178821009Y-79668160D01*
X178840445Y-79678548D01*
X178857476Y-79692524D01*
X178871452Y-79709555D01*
X178881840Y-79728991D01*
X178888236Y-79750072D01*
X178891000Y-79778140D01*
X178891000Y-80241860D01*
X178888236Y-80269928D01*
X178881840Y-80291009D01*
X178871452Y-80310445D01*
X178857476Y-80327476D01*
X178840445Y-80341452D01*
X178821009Y-80351840D01*
X178799928Y-80358236D01*
X178771860Y-80361000D01*
X176958140Y-80361000D01*
X176930072Y-80358236D01*
X176908991Y-80351840D01*
X176889555Y-80341452D01*
X176872524Y-80327476D01*
X176858548Y-80310445D01*
X176848160Y-80291009D01*
X176841764Y-80269928D01*
X176839000Y-80241860D01*
X176839000Y-79778140D01*
X176841764Y-79750072D01*
X176848160Y-79728991D01*
X176858548Y-79709555D01*
X176872524Y-79692524D01*
X176889555Y-79678548D01*
X176908991Y-79668160D01*
X176930072Y-79661764D01*
X176958140Y-79659000D01*
X178771860Y-79659000D01*
X178799928Y-79661764D01*
G37*
G36*
X171309512Y-64889927D02*
G01*
X171458812Y-64919624D01*
X171622784Y-64987544D01*
X171770354Y-65086147D01*
X171895853Y-65211646D01*
X171994456Y-65359216D01*
X172062376Y-65523188D01*
X172097000Y-65697259D01*
X172097000Y-65874741D01*
X172062376Y-66048812D01*
X171994456Y-66212784D01*
X171895853Y-66360354D01*
X171770354Y-66485853D01*
X171622784Y-66584456D01*
X171458812Y-66652376D01*
X171309512Y-66682073D01*
X171284742Y-66687000D01*
X171107258Y-66687000D01*
X171082488Y-66682073D01*
X170933188Y-66652376D01*
X170769216Y-66584456D01*
X170621646Y-66485853D01*
X170496147Y-66360354D01*
X170397544Y-66212784D01*
X170329624Y-66048812D01*
X170295000Y-65874741D01*
X170295000Y-65697259D01*
X170329624Y-65523188D01*
X170397544Y-65359216D01*
X170496147Y-65211646D01*
X170621646Y-65086147D01*
X170769216Y-64987544D01*
X170933188Y-64919624D01*
X171082488Y-64889927D01*
X171107258Y-64885000D01*
X171284742Y-64885000D01*
X171309512Y-64889927D01*
G37*
G36*
X193153512Y-64889927D02*
G01*
X193302812Y-64919624D01*
X193466784Y-64987544D01*
X193614354Y-65086147D01*
X193739853Y-65211646D01*
X193838456Y-65359216D01*
X193906376Y-65523188D01*
X193941000Y-65697259D01*
X193941000Y-65874741D01*
X193906376Y-66048812D01*
X193838456Y-66212784D01*
X193739853Y-66360354D01*
X193614354Y-66485853D01*
X193466784Y-66584456D01*
X193302812Y-66652376D01*
X193153512Y-66682073D01*
X193128742Y-66687000D01*
X192951258Y-66687000D01*
X192926488Y-66682073D01*
X192777188Y-66652376D01*
X192613216Y-66584456D01*
X192465646Y-66485853D01*
X192340147Y-66360354D01*
X192241544Y-66212784D01*
X192173624Y-66048812D01*
X192139000Y-65874741D01*
X192139000Y-65697259D01*
X192173624Y-65523188D01*
X192241544Y-65359216D01*
X192340147Y-65211646D01*
X192465646Y-65086147D01*
X192613216Y-64987544D01*
X192777188Y-64919624D01*
X192926488Y-64889927D01*
X192951258Y-64885000D01*
X193128742Y-64885000D01*
X193153512Y-64889927D01*
G37*
G36*
X186549512Y-64889927D02*
G01*
X186698812Y-64919624D01*
X186862784Y-64987544D01*
X187010354Y-65086147D01*
X187135853Y-65211646D01*
X187234456Y-65359216D01*
X187302376Y-65523188D01*
X187337000Y-65697259D01*
X187337000Y-65874741D01*
X187302376Y-66048812D01*
X187234456Y-66212784D01*
X187135853Y-66360354D01*
X187010354Y-66485853D01*
X186862784Y-66584456D01*
X186698812Y-66652376D01*
X186549512Y-66682073D01*
X186524742Y-66687000D01*
X186347258Y-66687000D01*
X186322488Y-66682073D01*
X186173188Y-66652376D01*
X186009216Y-66584456D01*
X185861646Y-66485853D01*
X185736147Y-66360354D01*
X185637544Y-66212784D01*
X185569624Y-66048812D01*
X185535000Y-65874741D01*
X185535000Y-65697259D01*
X185569624Y-65523188D01*
X185637544Y-65359216D01*
X185736147Y-65211646D01*
X185861646Y-65086147D01*
X186009216Y-64987544D01*
X186173188Y-64919624D01*
X186322488Y-64889927D01*
X186347258Y-64885000D01*
X186524742Y-64885000D01*
X186549512Y-64889927D01*
G37*
G36*
X184009512Y-64889927D02*
G01*
X184158812Y-64919624D01*
X184322784Y-64987544D01*
X184470354Y-65086147D01*
X184595853Y-65211646D01*
X184694456Y-65359216D01*
X184762376Y-65523188D01*
X184797000Y-65697259D01*
X184797000Y-65874741D01*
X184762376Y-66048812D01*
X184694456Y-66212784D01*
X184595853Y-66360354D01*
X184470354Y-66485853D01*
X184322784Y-66584456D01*
X184158812Y-66652376D01*
X184009512Y-66682073D01*
X183984742Y-66687000D01*
X183807258Y-66687000D01*
X183782488Y-66682073D01*
X183633188Y-66652376D01*
X183469216Y-66584456D01*
X183321646Y-66485853D01*
X183196147Y-66360354D01*
X183097544Y-66212784D01*
X183029624Y-66048812D01*
X182995000Y-65874741D01*
X182995000Y-65697259D01*
X183029624Y-65523188D01*
X183097544Y-65359216D01*
X183196147Y-65211646D01*
X183321646Y-65086147D01*
X183469216Y-64987544D01*
X183633188Y-64919624D01*
X183782488Y-64889927D01*
X183807258Y-64885000D01*
X183984742Y-64885000D01*
X184009512Y-64889927D01*
G37*
G36*
X181469512Y-64889927D02*
G01*
X181618812Y-64919624D01*
X181782784Y-64987544D01*
X181930354Y-65086147D01*
X182055853Y-65211646D01*
X182154456Y-65359216D01*
X182222376Y-65523188D01*
X182257000Y-65697259D01*
X182257000Y-65874741D01*
X182222376Y-66048812D01*
X182154456Y-66212784D01*
X182055853Y-66360354D01*
X181930354Y-66485853D01*
X181782784Y-66584456D01*
X181618812Y-66652376D01*
X181469512Y-66682073D01*
X181444742Y-66687000D01*
X181267258Y-66687000D01*
X181242488Y-66682073D01*
X181093188Y-66652376D01*
X180929216Y-66584456D01*
X180781646Y-66485853D01*
X180656147Y-66360354D01*
X180557544Y-66212784D01*
X180489624Y-66048812D01*
X180455000Y-65874741D01*
X180455000Y-65697259D01*
X180489624Y-65523188D01*
X180557544Y-65359216D01*
X180656147Y-65211646D01*
X180781646Y-65086147D01*
X180929216Y-64987544D01*
X181093188Y-64919624D01*
X181242488Y-64889927D01*
X181267258Y-64885000D01*
X181444742Y-64885000D01*
X181469512Y-64889927D01*
G37*
G36*
X178929512Y-64889927D02*
G01*
X179078812Y-64919624D01*
X179242784Y-64987544D01*
X179390354Y-65086147D01*
X179515853Y-65211646D01*
X179614456Y-65359216D01*
X179682376Y-65523188D01*
X179717000Y-65697259D01*
X179717000Y-65874741D01*
X179682376Y-66048812D01*
X179614456Y-66212784D01*
X179515853Y-66360354D01*
X179390354Y-66485853D01*
X179242784Y-66584456D01*
X179078812Y-66652376D01*
X178929512Y-66682073D01*
X178904742Y-66687000D01*
X178727258Y-66687000D01*
X178702488Y-66682073D01*
X178553188Y-66652376D01*
X178389216Y-66584456D01*
X178241646Y-66485853D01*
X178116147Y-66360354D01*
X178017544Y-66212784D01*
X177949624Y-66048812D01*
X177915000Y-65874741D01*
X177915000Y-65697259D01*
X177949624Y-65523188D01*
X178017544Y-65359216D01*
X178116147Y-65211646D01*
X178241646Y-65086147D01*
X178389216Y-64987544D01*
X178553188Y-64919624D01*
X178702488Y-64889927D01*
X178727258Y-64885000D01*
X178904742Y-64885000D01*
X178929512Y-64889927D01*
G37*
G36*
X176389512Y-64889927D02*
G01*
X176538812Y-64919624D01*
X176702784Y-64987544D01*
X176850354Y-65086147D01*
X176975853Y-65211646D01*
X177074456Y-65359216D01*
X177142376Y-65523188D01*
X177177000Y-65697259D01*
X177177000Y-65874741D01*
X177142376Y-66048812D01*
X177074456Y-66212784D01*
X176975853Y-66360354D01*
X176850354Y-66485853D01*
X176702784Y-66584456D01*
X176538812Y-66652376D01*
X176389512Y-66682073D01*
X176364742Y-66687000D01*
X176187258Y-66687000D01*
X176162488Y-66682073D01*
X176013188Y-66652376D01*
X175849216Y-66584456D01*
X175701646Y-66485853D01*
X175576147Y-66360354D01*
X175477544Y-66212784D01*
X175409624Y-66048812D01*
X175375000Y-65874741D01*
X175375000Y-65697259D01*
X175409624Y-65523188D01*
X175477544Y-65359216D01*
X175576147Y-65211646D01*
X175701646Y-65086147D01*
X175849216Y-64987544D01*
X176013188Y-64919624D01*
X176162488Y-64889927D01*
X176187258Y-64885000D01*
X176364742Y-64885000D01*
X176389512Y-64889927D01*
G37*
G36*
X205853512Y-64889927D02*
G01*
X206002812Y-64919624D01*
X206166784Y-64987544D01*
X206314354Y-65086147D01*
X206439853Y-65211646D01*
X206538456Y-65359216D01*
X206606376Y-65523188D01*
X206641000Y-65697259D01*
X206641000Y-65874741D01*
X206606376Y-66048812D01*
X206538456Y-66212784D01*
X206439853Y-66360354D01*
X206314354Y-66485853D01*
X206166784Y-66584456D01*
X206002812Y-66652376D01*
X205853512Y-66682073D01*
X205828742Y-66687000D01*
X205651258Y-66687000D01*
X205626488Y-66682073D01*
X205477188Y-66652376D01*
X205313216Y-66584456D01*
X205165646Y-66485853D01*
X205040147Y-66360354D01*
X204941544Y-66212784D01*
X204873624Y-66048812D01*
X204839000Y-65874741D01*
X204839000Y-65697259D01*
X204873624Y-65523188D01*
X204941544Y-65359216D01*
X205040147Y-65211646D01*
X205165646Y-65086147D01*
X205313216Y-64987544D01*
X205477188Y-64919624D01*
X205626488Y-64889927D01*
X205651258Y-64885000D01*
X205828742Y-64885000D01*
X205853512Y-64889927D01*
G37*
G36*
X208393512Y-64889927D02*
G01*
X208542812Y-64919624D01*
X208706784Y-64987544D01*
X208854354Y-65086147D01*
X208979853Y-65211646D01*
X209078456Y-65359216D01*
X209146376Y-65523188D01*
X209181000Y-65697259D01*
X209181000Y-65874741D01*
X209146376Y-66048812D01*
X209078456Y-66212784D01*
X208979853Y-66360354D01*
X208854354Y-66485853D01*
X208706784Y-66584456D01*
X208542812Y-66652376D01*
X208393512Y-66682073D01*
X208368742Y-66687000D01*
X208191258Y-66687000D01*
X208166488Y-66682073D01*
X208017188Y-66652376D01*
X207853216Y-66584456D01*
X207705646Y-66485853D01*
X207580147Y-66360354D01*
X207481544Y-66212784D01*
X207413624Y-66048812D01*
X207379000Y-65874741D01*
X207379000Y-65697259D01*
X207413624Y-65523188D01*
X207481544Y-65359216D01*
X207580147Y-65211646D01*
X207705646Y-65086147D01*
X207853216Y-64987544D01*
X208017188Y-64919624D01*
X208166488Y-64889927D01*
X208191258Y-64885000D01*
X208368742Y-64885000D01*
X208393512Y-64889927D01*
G37*
G36*
X211721000Y-66687000D02*
G01*
X209919000Y-66687000D01*
X209919000Y-64885000D01*
X211721000Y-64885000D01*
X211721000Y-66687000D01*
G37*
G36*
X173849512Y-64889927D02*
G01*
X173998812Y-64919624D01*
X174162784Y-64987544D01*
X174310354Y-65086147D01*
X174435853Y-65211646D01*
X174534456Y-65359216D01*
X174602376Y-65523188D01*
X174637000Y-65697259D01*
X174637000Y-65874741D01*
X174602376Y-66048812D01*
X174534456Y-66212784D01*
X174435853Y-66360354D01*
X174310354Y-66485853D01*
X174162784Y-66584456D01*
X173998812Y-66652376D01*
X173849512Y-66682073D01*
X173824742Y-66687000D01*
X173647258Y-66687000D01*
X173622488Y-66682073D01*
X173473188Y-66652376D01*
X173309216Y-66584456D01*
X173161646Y-66485853D01*
X173036147Y-66360354D01*
X172937544Y-66212784D01*
X172869624Y-66048812D01*
X172835000Y-65874741D01*
X172835000Y-65697259D01*
X172869624Y-65523188D01*
X172937544Y-65359216D01*
X173036147Y-65211646D01*
X173161646Y-65086147D01*
X173309216Y-64987544D01*
X173473188Y-64919624D01*
X173622488Y-64889927D01*
X173647258Y-64885000D01*
X173824742Y-64885000D01*
X173849512Y-64889927D01*
G37*
G36*
X189877000Y-66687000D02*
G01*
X188075000Y-66687000D01*
X188075000Y-64885000D01*
X189877000Y-64885000D01*
X189877000Y-66687000D01*
G37*
G36*
X195693512Y-64889927D02*
G01*
X195842812Y-64919624D01*
X196006784Y-64987544D01*
X196154354Y-65086147D01*
X196279853Y-65211646D01*
X196378456Y-65359216D01*
X196446376Y-65523188D01*
X196481000Y-65697259D01*
X196481000Y-65874741D01*
X196446376Y-66048812D01*
X196378456Y-66212784D01*
X196279853Y-66360354D01*
X196154354Y-66485853D01*
X196006784Y-66584456D01*
X195842812Y-66652376D01*
X195693512Y-66682073D01*
X195668742Y-66687000D01*
X195491258Y-66687000D01*
X195466488Y-66682073D01*
X195317188Y-66652376D01*
X195153216Y-66584456D01*
X195005646Y-66485853D01*
X194880147Y-66360354D01*
X194781544Y-66212784D01*
X194713624Y-66048812D01*
X194679000Y-65874741D01*
X194679000Y-65697259D01*
X194713624Y-65523188D01*
X194781544Y-65359216D01*
X194880147Y-65211646D01*
X195005646Y-65086147D01*
X195153216Y-64987544D01*
X195317188Y-64919624D01*
X195466488Y-64889927D01*
X195491258Y-64885000D01*
X195668742Y-64885000D01*
X195693512Y-64889927D01*
G37*
G36*
X198233512Y-64889927D02*
G01*
X198382812Y-64919624D01*
X198546784Y-64987544D01*
X198694354Y-65086147D01*
X198819853Y-65211646D01*
X198918456Y-65359216D01*
X198986376Y-65523188D01*
X199021000Y-65697259D01*
X199021000Y-65874741D01*
X198986376Y-66048812D01*
X198918456Y-66212784D01*
X198819853Y-66360354D01*
X198694354Y-66485853D01*
X198546784Y-66584456D01*
X198382812Y-66652376D01*
X198233512Y-66682073D01*
X198208742Y-66687000D01*
X198031258Y-66687000D01*
X198006488Y-66682073D01*
X197857188Y-66652376D01*
X197693216Y-66584456D01*
X197545646Y-66485853D01*
X197420147Y-66360354D01*
X197321544Y-66212784D01*
X197253624Y-66048812D01*
X197219000Y-65874741D01*
X197219000Y-65697259D01*
X197253624Y-65523188D01*
X197321544Y-65359216D01*
X197420147Y-65211646D01*
X197545646Y-65086147D01*
X197693216Y-64987544D01*
X197857188Y-64919624D01*
X198006488Y-64889927D01*
X198031258Y-64885000D01*
X198208742Y-64885000D01*
X198233512Y-64889927D01*
G37*
G36*
X200773512Y-64889927D02*
G01*
X200922812Y-64919624D01*
X201086784Y-64987544D01*
X201234354Y-65086147D01*
X201359853Y-65211646D01*
X201458456Y-65359216D01*
X201526376Y-65523188D01*
X201561000Y-65697259D01*
X201561000Y-65874741D01*
X201526376Y-66048812D01*
X201458456Y-66212784D01*
X201359853Y-66360354D01*
X201234354Y-66485853D01*
X201086784Y-66584456D01*
X200922812Y-66652376D01*
X200773512Y-66682073D01*
X200748742Y-66687000D01*
X200571258Y-66687000D01*
X200546488Y-66682073D01*
X200397188Y-66652376D01*
X200233216Y-66584456D01*
X200085646Y-66485853D01*
X199960147Y-66360354D01*
X199861544Y-66212784D01*
X199793624Y-66048812D01*
X199759000Y-65874741D01*
X199759000Y-65697259D01*
X199793624Y-65523188D01*
X199861544Y-65359216D01*
X199960147Y-65211646D01*
X200085646Y-65086147D01*
X200233216Y-64987544D01*
X200397188Y-64919624D01*
X200546488Y-64889927D01*
X200571258Y-64885000D01*
X200748742Y-64885000D01*
X200773512Y-64889927D01*
G37*
G36*
X203313512Y-64889927D02*
G01*
X203462812Y-64919624D01*
X203626784Y-64987544D01*
X203774354Y-65086147D01*
X203899853Y-65211646D01*
X203998456Y-65359216D01*
X204066376Y-65523188D01*
X204101000Y-65697259D01*
X204101000Y-65874741D01*
X204066376Y-66048812D01*
X203998456Y-66212784D01*
X203899853Y-66360354D01*
X203774354Y-66485853D01*
X203626784Y-66584456D01*
X203462812Y-66652376D01*
X203313512Y-66682073D01*
X203288742Y-66687000D01*
X203111258Y-66687000D01*
X203086488Y-66682073D01*
X202937188Y-66652376D01*
X202773216Y-66584456D01*
X202625646Y-66485853D01*
X202500147Y-66360354D01*
X202401544Y-66212784D01*
X202333624Y-66048812D01*
X202299000Y-65874741D01*
X202299000Y-65697259D01*
X202333624Y-65523188D01*
X202401544Y-65359216D01*
X202500147Y-65211646D01*
X202625646Y-65086147D01*
X202773216Y-64987544D01*
X202937188Y-64919624D01*
X203086488Y-64889927D01*
X203111258Y-64885000D01*
X203288742Y-64885000D01*
X203313512Y-64889927D01*
G37*
G36*
X196703512Y-55213927D02*
G01*
X196852812Y-55243624D01*
X197016784Y-55311544D01*
X197164354Y-55410147D01*
X197289853Y-55535646D01*
X197388456Y-55683216D01*
X197456376Y-55847188D01*
X197491000Y-56021259D01*
X197491000Y-56198741D01*
X197456376Y-56372812D01*
X197388456Y-56536784D01*
X197289853Y-56684354D01*
X197164354Y-56809853D01*
X197016784Y-56908456D01*
X196852812Y-56976376D01*
X196703512Y-57006073D01*
X196678742Y-57011000D01*
X196501258Y-57011000D01*
X196476488Y-57006073D01*
X196327188Y-56976376D01*
X196163216Y-56908456D01*
X196015646Y-56809853D01*
X195890147Y-56684354D01*
X195791544Y-56536784D01*
X195723624Y-56372812D01*
X195689000Y-56198741D01*
X195689000Y-56021259D01*
X195723624Y-55847188D01*
X195791544Y-55683216D01*
X195890147Y-55535646D01*
X196015646Y-55410147D01*
X196163216Y-55311544D01*
X196327188Y-55243624D01*
X196476488Y-55213927D01*
X196501258Y-55209000D01*
X196678742Y-55209000D01*
X196703512Y-55213927D01*
G37*
G36*
X194163512Y-55213927D02*
G01*
X194312812Y-55243624D01*
X194476784Y-55311544D01*
X194624354Y-55410147D01*
X194749853Y-55535646D01*
X194848456Y-55683216D01*
X194916376Y-55847188D01*
X194951000Y-56021259D01*
X194951000Y-56198741D01*
X194916376Y-56372812D01*
X194848456Y-56536784D01*
X194749853Y-56684354D01*
X194624354Y-56809853D01*
X194476784Y-56908456D01*
X194312812Y-56976376D01*
X194163512Y-57006073D01*
X194138742Y-57011000D01*
X193961258Y-57011000D01*
X193936488Y-57006073D01*
X193787188Y-56976376D01*
X193623216Y-56908456D01*
X193475646Y-56809853D01*
X193350147Y-56684354D01*
X193251544Y-56536784D01*
X193183624Y-56372812D01*
X193149000Y-56198741D01*
X193149000Y-56021259D01*
X193183624Y-55847188D01*
X193251544Y-55683216D01*
X193350147Y-55535646D01*
X193475646Y-55410147D01*
X193623216Y-55311544D01*
X193787188Y-55243624D01*
X193936488Y-55213927D01*
X193961258Y-55209000D01*
X194138742Y-55209000D01*
X194163512Y-55213927D01*
G37*
G36*
X199243512Y-55213927D02*
G01*
X199392812Y-55243624D01*
X199556784Y-55311544D01*
X199704354Y-55410147D01*
X199829853Y-55535646D01*
X199928456Y-55683216D01*
X199996376Y-55847188D01*
X200031000Y-56021259D01*
X200031000Y-56198741D01*
X199996376Y-56372812D01*
X199928456Y-56536784D01*
X199829853Y-56684354D01*
X199704354Y-56809853D01*
X199556784Y-56908456D01*
X199392812Y-56976376D01*
X199243512Y-57006073D01*
X199218742Y-57011000D01*
X199041258Y-57011000D01*
X199016488Y-57006073D01*
X198867188Y-56976376D01*
X198703216Y-56908456D01*
X198555646Y-56809853D01*
X198430147Y-56684354D01*
X198331544Y-56536784D01*
X198263624Y-56372812D01*
X198229000Y-56198741D01*
X198229000Y-56021259D01*
X198263624Y-55847188D01*
X198331544Y-55683216D01*
X198430147Y-55535646D01*
X198555646Y-55410147D01*
X198703216Y-55311544D01*
X198867188Y-55243624D01*
X199016488Y-55213927D01*
X199041258Y-55209000D01*
X199218742Y-55209000D01*
X199243512Y-55213927D01*
G37*
G36*
X189083512Y-55213927D02*
G01*
X189232812Y-55243624D01*
X189396784Y-55311544D01*
X189544354Y-55410147D01*
X189669853Y-55535646D01*
X189768456Y-55683216D01*
X189836376Y-55847188D01*
X189871000Y-56021259D01*
X189871000Y-56198741D01*
X189836376Y-56372812D01*
X189768456Y-56536784D01*
X189669853Y-56684354D01*
X189544354Y-56809853D01*
X189396784Y-56908456D01*
X189232812Y-56976376D01*
X189083512Y-57006073D01*
X189058742Y-57011000D01*
X188881258Y-57011000D01*
X188856488Y-57006073D01*
X188707188Y-56976376D01*
X188543216Y-56908456D01*
X188395646Y-56809853D01*
X188270147Y-56684354D01*
X188171544Y-56536784D01*
X188103624Y-56372812D01*
X188069000Y-56198741D01*
X188069000Y-56021259D01*
X188103624Y-55847188D01*
X188171544Y-55683216D01*
X188270147Y-55535646D01*
X188395646Y-55410147D01*
X188543216Y-55311544D01*
X188707188Y-55243624D01*
X188856488Y-55213927D01*
X188881258Y-55209000D01*
X189058742Y-55209000D01*
X189083512Y-55213927D01*
G37*
G36*
X186543512Y-55213927D02*
G01*
X186692812Y-55243624D01*
X186856784Y-55311544D01*
X187004354Y-55410147D01*
X187129853Y-55535646D01*
X187228456Y-55683216D01*
X187296376Y-55847188D01*
X187331000Y-56021259D01*
X187331000Y-56198741D01*
X187296376Y-56372812D01*
X187228456Y-56536784D01*
X187129853Y-56684354D01*
X187004354Y-56809853D01*
X186856784Y-56908456D01*
X186692812Y-56976376D01*
X186543512Y-57006073D01*
X186518742Y-57011000D01*
X186341258Y-57011000D01*
X186316488Y-57006073D01*
X186167188Y-56976376D01*
X186003216Y-56908456D01*
X185855646Y-56809853D01*
X185730147Y-56684354D01*
X185631544Y-56536784D01*
X185563624Y-56372812D01*
X185529000Y-56198741D01*
X185529000Y-56021259D01*
X185563624Y-55847188D01*
X185631544Y-55683216D01*
X185730147Y-55535646D01*
X185855646Y-55410147D01*
X186003216Y-55311544D01*
X186167188Y-55243624D01*
X186316488Y-55213927D01*
X186341258Y-55209000D01*
X186518742Y-55209000D01*
X186543512Y-55213927D01*
G37*
G36*
X184003512Y-55213927D02*
G01*
X184152812Y-55243624D01*
X184316784Y-55311544D01*
X184464354Y-55410147D01*
X184589853Y-55535646D01*
X184688456Y-55683216D01*
X184756376Y-55847188D01*
X184791000Y-56021259D01*
X184791000Y-56198741D01*
X184756376Y-56372812D01*
X184688456Y-56536784D01*
X184589853Y-56684354D01*
X184464354Y-56809853D01*
X184316784Y-56908456D01*
X184152812Y-56976376D01*
X184003512Y-57006073D01*
X183978742Y-57011000D01*
X183801258Y-57011000D01*
X183776488Y-57006073D01*
X183627188Y-56976376D01*
X183463216Y-56908456D01*
X183315646Y-56809853D01*
X183190147Y-56684354D01*
X183091544Y-56536784D01*
X183023624Y-56372812D01*
X182989000Y-56198741D01*
X182989000Y-56021259D01*
X183023624Y-55847188D01*
X183091544Y-55683216D01*
X183190147Y-55535646D01*
X183315646Y-55410147D01*
X183463216Y-55311544D01*
X183627188Y-55243624D01*
X183776488Y-55213927D01*
X183801258Y-55209000D01*
X183978742Y-55209000D01*
X184003512Y-55213927D01*
G37*
G36*
X191623512Y-55213927D02*
G01*
X191772812Y-55243624D01*
X191936784Y-55311544D01*
X192084354Y-55410147D01*
X192209853Y-55535646D01*
X192308456Y-55683216D01*
X192376376Y-55847188D01*
X192411000Y-56021259D01*
X192411000Y-56198741D01*
X192376376Y-56372812D01*
X192308456Y-56536784D01*
X192209853Y-56684354D01*
X192084354Y-56809853D01*
X191936784Y-56908456D01*
X191772812Y-56976376D01*
X191623512Y-57006073D01*
X191598742Y-57011000D01*
X191421258Y-57011000D01*
X191396488Y-57006073D01*
X191247188Y-56976376D01*
X191083216Y-56908456D01*
X190935646Y-56809853D01*
X190810147Y-56684354D01*
X190711544Y-56536784D01*
X190643624Y-56372812D01*
X190609000Y-56198741D01*
X190609000Y-56021259D01*
X190643624Y-55847188D01*
X190711544Y-55683216D01*
X190810147Y-55535646D01*
X190935646Y-55410147D01*
X191083216Y-55311544D01*
X191247188Y-55243624D01*
X191396488Y-55213927D01*
X191421258Y-55209000D01*
X191598742Y-55209000D01*
X191623512Y-55213927D01*
G37*
G36*
X157111000Y-57011000D02*
G01*
X155309000Y-57011000D01*
X155309000Y-55209000D01*
X157111000Y-55209000D01*
X157111000Y-57011000D01*
G37*
G36*
X153783512Y-55213927D02*
G01*
X153932812Y-55243624D01*
X154096784Y-55311544D01*
X154244354Y-55410147D01*
X154369853Y-55535646D01*
X154468456Y-55683216D01*
X154536376Y-55847188D01*
X154571000Y-56021259D01*
X154571000Y-56198741D01*
X154536376Y-56372812D01*
X154468456Y-56536784D01*
X154369853Y-56684354D01*
X154244354Y-56809853D01*
X154096784Y-56908456D01*
X153932812Y-56976376D01*
X153783512Y-57006073D01*
X153758742Y-57011000D01*
X153581258Y-57011000D01*
X153556488Y-57006073D01*
X153407188Y-56976376D01*
X153243216Y-56908456D01*
X153095646Y-56809853D01*
X152970147Y-56684354D01*
X152871544Y-56536784D01*
X152803624Y-56372812D01*
X152769000Y-56198741D01*
X152769000Y-56021259D01*
X152803624Y-55847188D01*
X152871544Y-55683216D01*
X152970147Y-55535646D01*
X153095646Y-55410147D01*
X153243216Y-55311544D01*
X153407188Y-55243624D01*
X153556488Y-55213927D01*
X153581258Y-55209000D01*
X153758742Y-55209000D01*
X153783512Y-55213927D01*
G37*
G36*
X148703512Y-55213927D02*
G01*
X148852812Y-55243624D01*
X149016784Y-55311544D01*
X149164354Y-55410147D01*
X149289853Y-55535646D01*
X149388456Y-55683216D01*
X149456376Y-55847188D01*
X149491000Y-56021259D01*
X149491000Y-56198741D01*
X149456376Y-56372812D01*
X149388456Y-56536784D01*
X149289853Y-56684354D01*
X149164354Y-56809853D01*
X149016784Y-56908456D01*
X148852812Y-56976376D01*
X148703512Y-57006073D01*
X148678742Y-57011000D01*
X148501258Y-57011000D01*
X148476488Y-57006073D01*
X148327188Y-56976376D01*
X148163216Y-56908456D01*
X148015646Y-56809853D01*
X147890147Y-56684354D01*
X147791544Y-56536784D01*
X147723624Y-56372812D01*
X147689000Y-56198741D01*
X147689000Y-56021259D01*
X147723624Y-55847188D01*
X147791544Y-55683216D01*
X147890147Y-55535646D01*
X148015646Y-55410147D01*
X148163216Y-55311544D01*
X148327188Y-55243624D01*
X148476488Y-55213927D01*
X148501258Y-55209000D01*
X148678742Y-55209000D01*
X148703512Y-55213927D01*
G37*
G36*
X201783512Y-55213927D02*
G01*
X201932812Y-55243624D01*
X202096784Y-55311544D01*
X202244354Y-55410147D01*
X202369853Y-55535646D01*
X202468456Y-55683216D01*
X202536376Y-55847188D01*
X202571000Y-56021259D01*
X202571000Y-56198741D01*
X202536376Y-56372812D01*
X202468456Y-56536784D01*
X202369853Y-56684354D01*
X202244354Y-56809853D01*
X202096784Y-56908456D01*
X201932812Y-56976376D01*
X201783512Y-57006073D01*
X201758742Y-57011000D01*
X201581258Y-57011000D01*
X201556488Y-57006073D01*
X201407188Y-56976376D01*
X201243216Y-56908456D01*
X201095646Y-56809853D01*
X200970147Y-56684354D01*
X200871544Y-56536784D01*
X200803624Y-56372812D01*
X200769000Y-56198741D01*
X200769000Y-56021259D01*
X200803624Y-55847188D01*
X200871544Y-55683216D01*
X200970147Y-55535646D01*
X201095646Y-55410147D01*
X201243216Y-55311544D01*
X201407188Y-55243624D01*
X201556488Y-55213927D01*
X201581258Y-55209000D01*
X201758742Y-55209000D01*
X201783512Y-55213927D01*
G37*
G36*
X205111000Y-57011000D02*
G01*
X203309000Y-57011000D01*
X203309000Y-55209000D01*
X205111000Y-55209000D01*
X205111000Y-57011000D01*
G37*
G36*
X136003512Y-55213927D02*
G01*
X136152812Y-55243624D01*
X136316784Y-55311544D01*
X136464354Y-55410147D01*
X136589853Y-55535646D01*
X136688456Y-55683216D01*
X136756376Y-55847188D01*
X136791000Y-56021259D01*
X136791000Y-56198741D01*
X136756376Y-56372812D01*
X136688456Y-56536784D01*
X136589853Y-56684354D01*
X136464354Y-56809853D01*
X136316784Y-56908456D01*
X136152812Y-56976376D01*
X136003512Y-57006073D01*
X135978742Y-57011000D01*
X135801258Y-57011000D01*
X135776488Y-57006073D01*
X135627188Y-56976376D01*
X135463216Y-56908456D01*
X135315646Y-56809853D01*
X135190147Y-56684354D01*
X135091544Y-56536784D01*
X135023624Y-56372812D01*
X134989000Y-56198741D01*
X134989000Y-56021259D01*
X135023624Y-55847188D01*
X135091544Y-55683216D01*
X135190147Y-55535646D01*
X135315646Y-55410147D01*
X135463216Y-55311544D01*
X135627188Y-55243624D01*
X135776488Y-55213927D01*
X135801258Y-55209000D01*
X135978742Y-55209000D01*
X136003512Y-55213927D01*
G37*
G36*
X138543512Y-55213927D02*
G01*
X138692812Y-55243624D01*
X138856784Y-55311544D01*
X139004354Y-55410147D01*
X139129853Y-55535646D01*
X139228456Y-55683216D01*
X139296376Y-55847188D01*
X139331000Y-56021259D01*
X139331000Y-56198741D01*
X139296376Y-56372812D01*
X139228456Y-56536784D01*
X139129853Y-56684354D01*
X139004354Y-56809853D01*
X138856784Y-56908456D01*
X138692812Y-56976376D01*
X138543512Y-57006073D01*
X138518742Y-57011000D01*
X138341258Y-57011000D01*
X138316488Y-57006073D01*
X138167188Y-56976376D01*
X138003216Y-56908456D01*
X137855646Y-56809853D01*
X137730147Y-56684354D01*
X137631544Y-56536784D01*
X137563624Y-56372812D01*
X137529000Y-56198741D01*
X137529000Y-56021259D01*
X137563624Y-55847188D01*
X137631544Y-55683216D01*
X137730147Y-55535646D01*
X137855646Y-55410147D01*
X138003216Y-55311544D01*
X138167188Y-55243624D01*
X138316488Y-55213927D01*
X138341258Y-55209000D01*
X138518742Y-55209000D01*
X138543512Y-55213927D01*
G37*
G36*
X141083512Y-55213927D02*
G01*
X141232812Y-55243624D01*
X141396784Y-55311544D01*
X141544354Y-55410147D01*
X141669853Y-55535646D01*
X141768456Y-55683216D01*
X141836376Y-55847188D01*
X141871000Y-56021259D01*
X141871000Y-56198741D01*
X141836376Y-56372812D01*
X141768456Y-56536784D01*
X141669853Y-56684354D01*
X141544354Y-56809853D01*
X141396784Y-56908456D01*
X141232812Y-56976376D01*
X141083512Y-57006073D01*
X141058742Y-57011000D01*
X140881258Y-57011000D01*
X140856488Y-57006073D01*
X140707188Y-56976376D01*
X140543216Y-56908456D01*
X140395646Y-56809853D01*
X140270147Y-56684354D01*
X140171544Y-56536784D01*
X140103624Y-56372812D01*
X140069000Y-56198741D01*
X140069000Y-56021259D01*
X140103624Y-55847188D01*
X140171544Y-55683216D01*
X140270147Y-55535646D01*
X140395646Y-55410147D01*
X140543216Y-55311544D01*
X140707188Y-55243624D01*
X140856488Y-55213927D01*
X140881258Y-55209000D01*
X141058742Y-55209000D01*
X141083512Y-55213927D01*
G37*
G36*
X143623512Y-55213927D02*
G01*
X143772812Y-55243624D01*
X143936784Y-55311544D01*
X144084354Y-55410147D01*
X144209853Y-55535646D01*
X144308456Y-55683216D01*
X144376376Y-55847188D01*
X144411000Y-56021259D01*
X144411000Y-56198741D01*
X144376376Y-56372812D01*
X144308456Y-56536784D01*
X144209853Y-56684354D01*
X144084354Y-56809853D01*
X143936784Y-56908456D01*
X143772812Y-56976376D01*
X143623512Y-57006073D01*
X143598742Y-57011000D01*
X143421258Y-57011000D01*
X143396488Y-57006073D01*
X143247188Y-56976376D01*
X143083216Y-56908456D01*
X142935646Y-56809853D01*
X142810147Y-56684354D01*
X142711544Y-56536784D01*
X142643624Y-56372812D01*
X142609000Y-56198741D01*
X142609000Y-56021259D01*
X142643624Y-55847188D01*
X142711544Y-55683216D01*
X142810147Y-55535646D01*
X142935646Y-55410147D01*
X143083216Y-55311544D01*
X143247188Y-55243624D01*
X143396488Y-55213927D01*
X143421258Y-55209000D01*
X143598742Y-55209000D01*
X143623512Y-55213927D01*
G37*
G36*
X146163512Y-55213927D02*
G01*
X146312812Y-55243624D01*
X146476784Y-55311544D01*
X146624354Y-55410147D01*
X146749853Y-55535646D01*
X146848456Y-55683216D01*
X146916376Y-55847188D01*
X146951000Y-56021259D01*
X146951000Y-56198741D01*
X146916376Y-56372812D01*
X146848456Y-56536784D01*
X146749853Y-56684354D01*
X146624354Y-56809853D01*
X146476784Y-56908456D01*
X146312812Y-56976376D01*
X146163512Y-57006073D01*
X146138742Y-57011000D01*
X145961258Y-57011000D01*
X145936488Y-57006073D01*
X145787188Y-56976376D01*
X145623216Y-56908456D01*
X145475646Y-56809853D01*
X145350147Y-56684354D01*
X145251544Y-56536784D01*
X145183624Y-56372812D01*
X145149000Y-56198741D01*
X145149000Y-56021259D01*
X145183624Y-55847188D01*
X145251544Y-55683216D01*
X145350147Y-55535646D01*
X145475646Y-55410147D01*
X145623216Y-55311544D01*
X145787188Y-55243624D01*
X145936488Y-55213927D01*
X145961258Y-55209000D01*
X146138742Y-55209000D01*
X146163512Y-55213927D01*
G37*
G36*
X151243512Y-55213927D02*
G01*
X151392812Y-55243624D01*
X151556784Y-55311544D01*
X151704354Y-55410147D01*
X151829853Y-55535646D01*
X151928456Y-55683216D01*
X151996376Y-55847188D01*
X152031000Y-56021259D01*
X152031000Y-56198741D01*
X151996376Y-56372812D01*
X151928456Y-56536784D01*
X151829853Y-56684354D01*
X151704354Y-56809853D01*
X151556784Y-56908456D01*
X151392812Y-56976376D01*
X151243512Y-57006073D01*
X151218742Y-57011000D01*
X151041258Y-57011000D01*
X151016488Y-57006073D01*
X150867188Y-56976376D01*
X150703216Y-56908456D01*
X150555646Y-56809853D01*
X150430147Y-56684354D01*
X150331544Y-56536784D01*
X150263624Y-56372812D01*
X150229000Y-56198741D01*
X150229000Y-56021259D01*
X150263624Y-55847188D01*
X150331544Y-55683216D01*
X150430147Y-55535646D01*
X150555646Y-55410147D01*
X150703216Y-55311544D01*
X150867188Y-55243624D01*
X151016488Y-55213927D01*
X151041258Y-55209000D01*
X151218742Y-55209000D01*
X151243512Y-55213927D01*
G37*
G36*
X207056564Y-47249389D02*
G01*
X207247833Y-47328615D01*
X207247835Y-47328616D01*
X207419973Y-47443635D01*
X207566365Y-47590027D01*
X207681385Y-47762167D01*
X207760611Y-47953436D01*
X207801000Y-48156484D01*
X207801000Y-48363516D01*
X207760611Y-48566564D01*
X207681385Y-48757833D01*
X207681384Y-48757835D01*
X207566365Y-48929973D01*
X207419973Y-49076365D01*
X207247835Y-49191384D01*
X207247834Y-49191385D01*
X207247833Y-49191385D01*
X207056564Y-49270611D01*
X206853516Y-49311000D01*
X206646484Y-49311000D01*
X206443436Y-49270611D01*
X206252167Y-49191385D01*
X206252166Y-49191385D01*
X206252165Y-49191384D01*
X206080027Y-49076365D01*
X205933635Y-48929973D01*
X205818616Y-48757835D01*
X205818615Y-48757833D01*
X205739389Y-48566564D01*
X205699000Y-48363516D01*
X205699000Y-48156484D01*
X205739389Y-47953436D01*
X205818615Y-47762167D01*
X205933635Y-47590027D01*
X206080027Y-47443635D01*
X206252165Y-47328616D01*
X206252167Y-47328615D01*
X206443436Y-47249389D01*
X206646484Y-47209000D01*
X206853516Y-47209000D01*
X207056564Y-47249389D01*
G37*
G36*
X213556564Y-47249389D02*
G01*
X213747833Y-47328615D01*
X213747835Y-47328616D01*
X213919973Y-47443635D01*
X214066365Y-47590027D01*
X214181385Y-47762167D01*
X214260611Y-47953436D01*
X214301000Y-48156484D01*
X214301000Y-48363516D01*
X214260611Y-48566564D01*
X214181385Y-48757833D01*
X214181384Y-48757835D01*
X214066365Y-48929973D01*
X213919973Y-49076365D01*
X213747835Y-49191384D01*
X213747834Y-49191385D01*
X213747833Y-49191385D01*
X213556564Y-49270611D01*
X213353516Y-49311000D01*
X213146484Y-49311000D01*
X212943436Y-49270611D01*
X212752167Y-49191385D01*
X212752166Y-49191385D01*
X212752165Y-49191384D01*
X212580027Y-49076365D01*
X212433635Y-48929973D01*
X212318616Y-48757835D01*
X212318615Y-48757833D01*
X212239389Y-48566564D01*
X212199000Y-48363516D01*
X212199000Y-48156484D01*
X212239389Y-47953436D01*
X212318615Y-47762167D01*
X212433635Y-47590027D01*
X212580027Y-47443635D01*
X212752165Y-47328616D01*
X212752167Y-47328615D01*
X212943436Y-47249389D01*
X213146484Y-47209000D01*
X213353516Y-47209000D01*
X213556564Y-47249389D01*
G37*
G36*
X124616564Y-47249389D02*
G01*
X124807833Y-47328615D01*
X124807835Y-47328616D01*
X124979973Y-47443635D01*
X125126365Y-47590027D01*
X125241385Y-47762167D01*
X125320611Y-47953436D01*
X125361000Y-48156484D01*
X125361000Y-48363516D01*
X125320611Y-48566564D01*
X125241385Y-48757833D01*
X125241384Y-48757835D01*
X125126365Y-48929973D01*
X124979973Y-49076365D01*
X124807835Y-49191384D01*
X124807834Y-49191385D01*
X124807833Y-49191385D01*
X124616564Y-49270611D01*
X124413516Y-49311000D01*
X124206484Y-49311000D01*
X124003436Y-49270611D01*
X123812167Y-49191385D01*
X123812166Y-49191385D01*
X123812165Y-49191384D01*
X123640027Y-49076365D01*
X123493635Y-48929973D01*
X123378616Y-48757835D01*
X123378615Y-48757833D01*
X123299389Y-48566564D01*
X123259000Y-48363516D01*
X123259000Y-48156484D01*
X123299389Y-47953436D01*
X123378615Y-47762167D01*
X123493635Y-47590027D01*
X123640027Y-47443635D01*
X123812165Y-47328616D01*
X123812167Y-47328615D01*
X124003436Y-47249389D01*
X124206484Y-47209000D01*
X124413516Y-47209000D01*
X124616564Y-47249389D01*
G37*
G36*
X131116564Y-47249389D02*
G01*
X131307833Y-47328615D01*
X131307835Y-47328616D01*
X131479973Y-47443635D01*
X131626365Y-47590027D01*
X131741385Y-47762167D01*
X131820611Y-47953436D01*
X131861000Y-48156484D01*
X131861000Y-48363516D01*
X131820611Y-48566564D01*
X131741385Y-48757833D01*
X131741384Y-48757835D01*
X131626365Y-48929973D01*
X131479973Y-49076365D01*
X131307835Y-49191384D01*
X131307834Y-49191385D01*
X131307833Y-49191385D01*
X131116564Y-49270611D01*
X130913516Y-49311000D01*
X130706484Y-49311000D01*
X130503436Y-49270611D01*
X130312167Y-49191385D01*
X130312166Y-49191385D01*
X130312165Y-49191384D01*
X130140027Y-49076365D01*
X129993635Y-48929973D01*
X129878616Y-48757835D01*
X129878615Y-48757833D01*
X129799389Y-48566564D01*
X129759000Y-48363516D01*
X129759000Y-48156484D01*
X129799389Y-47953436D01*
X129878615Y-47762167D01*
X129993635Y-47590027D01*
X130140027Y-47443635D01*
X130312165Y-47328616D01*
X130312167Y-47328615D01*
X130503436Y-47249389D01*
X130706484Y-47209000D01*
X130913516Y-47209000D01*
X131116564Y-47249389D01*
G37*
G36*
X124616564Y-42749389D02*
G01*
X124807833Y-42828615D01*
X124807835Y-42828616D01*
X124979973Y-42943635D01*
X125126365Y-43090027D01*
X125241385Y-43262167D01*
X125320611Y-43453436D01*
X125361000Y-43656484D01*
X125361000Y-43863516D01*
X125320611Y-44066564D01*
X125241385Y-44257833D01*
X125241384Y-44257835D01*
X125126365Y-44429973D01*
X124979973Y-44576365D01*
X124807835Y-44691384D01*
X124807834Y-44691385D01*
X124807833Y-44691385D01*
X124616564Y-44770611D01*
X124413516Y-44811000D01*
X124206484Y-44811000D01*
X124003436Y-44770611D01*
X123812167Y-44691385D01*
X123812166Y-44691385D01*
X123812165Y-44691384D01*
X123640027Y-44576365D01*
X123493635Y-44429973D01*
X123378616Y-44257835D01*
X123378615Y-44257833D01*
X123299389Y-44066564D01*
X123259000Y-43863516D01*
X123259000Y-43656484D01*
X123299389Y-43453436D01*
X123378615Y-43262167D01*
X123493635Y-43090027D01*
X123640027Y-42943635D01*
X123812165Y-42828616D01*
X123812167Y-42828615D01*
X124003436Y-42749389D01*
X124206484Y-42709000D01*
X124413516Y-42709000D01*
X124616564Y-42749389D01*
G37*
G36*
X213556564Y-42749389D02*
G01*
X213747833Y-42828615D01*
X213747835Y-42828616D01*
X213919973Y-42943635D01*
X214066365Y-43090027D01*
X214181385Y-43262167D01*
X214260611Y-43453436D01*
X214301000Y-43656484D01*
X214301000Y-43863516D01*
X214260611Y-44066564D01*
X214181385Y-44257833D01*
X214181384Y-44257835D01*
X214066365Y-44429973D01*
X213919973Y-44576365D01*
X213747835Y-44691384D01*
X213747834Y-44691385D01*
X213747833Y-44691385D01*
X213556564Y-44770611D01*
X213353516Y-44811000D01*
X213146484Y-44811000D01*
X212943436Y-44770611D01*
X212752167Y-44691385D01*
X212752166Y-44691385D01*
X212752165Y-44691384D01*
X212580027Y-44576365D01*
X212433635Y-44429973D01*
X212318616Y-44257835D01*
X212318615Y-44257833D01*
X212239389Y-44066564D01*
X212199000Y-43863516D01*
X212199000Y-43656484D01*
X212239389Y-43453436D01*
X212318615Y-43262167D01*
X212433635Y-43090027D01*
X212580027Y-42943635D01*
X212752165Y-42828616D01*
X212752167Y-42828615D01*
X212943436Y-42749389D01*
X213146484Y-42709000D01*
X213353516Y-42709000D01*
X213556564Y-42749389D01*
G37*
G36*
X131116564Y-42749389D02*
G01*
X131307833Y-42828615D01*
X131307835Y-42828616D01*
X131479973Y-42943635D01*
X131626365Y-43090027D01*
X131741385Y-43262167D01*
X131820611Y-43453436D01*
X131861000Y-43656484D01*
X131861000Y-43863516D01*
X131820611Y-44066564D01*
X131741385Y-44257833D01*
X131741384Y-44257835D01*
X131626365Y-44429973D01*
X131479973Y-44576365D01*
X131307835Y-44691384D01*
X131307834Y-44691385D01*
X131307833Y-44691385D01*
X131116564Y-44770611D01*
X130913516Y-44811000D01*
X130706484Y-44811000D01*
X130503436Y-44770611D01*
X130312167Y-44691385D01*
X130312166Y-44691385D01*
X130312165Y-44691384D01*
X130140027Y-44576365D01*
X129993635Y-44429973D01*
X129878616Y-44257835D01*
X129878615Y-44257833D01*
X129799389Y-44066564D01*
X129759000Y-43863516D01*
X129759000Y-43656484D01*
X129799389Y-43453436D01*
X129878615Y-43262167D01*
X129993635Y-43090027D01*
X130140027Y-42943635D01*
X130312165Y-42828616D01*
X130312167Y-42828615D01*
X130503436Y-42749389D01*
X130706484Y-42709000D01*
X130913516Y-42709000D01*
X131116564Y-42749389D01*
G37*
G36*
X207056564Y-42749389D02*
G01*
X207247833Y-42828615D01*
X207247835Y-42828616D01*
X207419973Y-42943635D01*
X207566365Y-43090027D01*
X207681385Y-43262167D01*
X207760611Y-43453436D01*
X207801000Y-43656484D01*
X207801000Y-43863516D01*
X207760611Y-44066564D01*
X207681385Y-44257833D01*
X207681384Y-44257835D01*
X207566365Y-44429973D01*
X207419973Y-44576365D01*
X207247835Y-44691384D01*
X207247834Y-44691385D01*
X207247833Y-44691385D01*
X207056564Y-44770611D01*
X206853516Y-44811000D01*
X206646484Y-44811000D01*
X206443436Y-44770611D01*
X206252167Y-44691385D01*
X206252166Y-44691385D01*
X206252165Y-44691384D01*
X206080027Y-44576365D01*
X205933635Y-44429973D01*
X205818616Y-44257835D01*
X205818615Y-44257833D01*
X205739389Y-44066564D01*
X205699000Y-43863516D01*
X205699000Y-43656484D01*
X205739389Y-43453436D01*
X205818615Y-43262167D01*
X205933635Y-43090027D01*
X206080027Y-42943635D01*
X206252165Y-42828616D01*
X206252167Y-42828615D01*
X206443436Y-42749389D01*
X206646484Y-42709000D01*
X206853516Y-42709000D01*
X207056564Y-42749389D01*
G37*
M02*
