M48
; DRILL file {KiCad 5.1.5} date pe 27. joulukuuta 2019 12.01.22
; FORMAT={-:-/ absolute / inch / decimal}
; #@! TF.CreationDate,2019-12-27T12:01:22+00:00
; #@! TF.GenerationSoftware,Kicad,Pcbnew,5.1.5
; #@! TF.FileFunction,Plated,1,2,PTH
FMAT,2
INCH
T1C0.0157
T2C0.0394
T3C0.0433
%
G90
G05
T1
X5.08Y-3.49
X5.09Y-3.15
X5.195Y-3.3
X5.195Y-3.4
X5.215Y-3.35
X5.26Y-3.25
X5.345Y-3.565
X5.375Y-2.905
X5.5Y-2.89
X5.56Y-2.89
X5.63Y-2.885
X5.645Y-3.205
X5.66Y-3.81
X5.67Y-3.53
X5.7Y-3.785
X5.705Y-3.17
X5.745Y-3.785
X5.79Y-3.81
X5.885Y-3.25
X5.885Y-3.3
X5.885Y-3.35
X5.885Y-3.4
X5.9046Y-3.4896
X5.91Y-3.155
X6.035Y-3.305
X6.035Y-3.405
X6.045Y-3.36
X6.075Y-3.265
X6.09Y-3.665
X6.125Y-2.935
X6.15Y-4.39
X6.17Y-3.655
X6.21Y-2.935
X6.265Y-2.955
X6.2798Y-3.3602
X6.285Y-3.43
X6.29Y-3.005
X6.345Y-3.33
X6.35Y-3.38
X6.445Y-3.31
X6.48Y-3.485
X6.515Y-4.14
X6.525Y-3.215
X6.55Y-4.105
X6.56Y-3.295
X6.565Y-3.58
X6.605Y-3.315
X6.715Y-3.26
X6.715Y-3.2994
X6.7152Y-3.5652
X6.725Y-3.515
X6.76Y-3.39
X6.765Y-2.995
X6.795Y-3.34
X6.84Y-3.155
X6.845Y-3.29
X6.885Y-3.31
X6.935Y-3.435
X6.94Y-3.19
X6.955Y-3.725
X6.97Y-4.025
X7.045Y-3.3
X7.045Y-3.4
X7.055Y-3.35
X7.105Y-3.25
X7.135Y-3.72
X7.23Y-2.95
X7.275Y-2.965
X7.32Y-2.98
X7.35Y-3.015
X7.53Y-3.95
X7.56Y-3.4
X7.56Y-3.3
X7.56Y-3.35
X7.57Y-3.95
X7.585Y-3.25
X7.6094Y-3.95
X7.6487Y-3.95
X7.655Y-3.18
X7.655Y-3.45
X7.8Y-3.42
X7.82Y-2.915
X7.825Y-3.48
X7.84Y-3.31
X7.84Y-3.865
X7.845Y-3.23
X7.86Y-3.67
X7.925Y-2.96
X7.975Y-2.995
X8.03Y-3.06
X8.235Y-4.595
T2
X5.35Y-2.2091
X5.45Y-2.2091
X5.55Y-2.2091
X5.65Y-2.2091
X5.75Y-2.2091
X5.85Y-2.2091
X5.95Y-2.2091
X6.05Y-2.2091
X6.15Y-2.2091
X7.6Y-2.59
X7.7Y-2.59
X7.8Y-2.59
X7.9Y-2.59
X8.0Y-2.59
X8.1Y-2.59
X8.2Y-2.59
X8.3Y-2.59
X7.2398Y-2.2091
X7.3398Y-2.2091
X7.4398Y-2.2091
X7.5398Y-2.2091
X7.6398Y-2.2091
X7.7398Y-2.2091
X7.8398Y-2.2091
X7.9398Y-2.2091
X8.0398Y-2.2091
X7.1Y-4.49
X7.2Y-4.49
X7.3Y-4.49
X7.4Y-4.49
X7.5Y-4.49
X7.6Y-4.49
X7.8Y-4.49
X7.9Y-4.49
X8.0Y-4.49
X8.1Y-4.49
X8.2Y-4.49
X8.3Y-4.49
X6.74Y-2.59
X6.84Y-2.59
X6.94Y-2.59
X7.04Y-2.59
X7.14Y-2.59
X7.24Y-2.59
X7.34Y-2.59
X7.44Y-2.59
X7.1398Y-4.65
X7.2398Y-4.65
X7.3398Y-4.65
X7.4398Y-4.65
X7.5398Y-4.65
X7.6398Y-4.65
X7.7398Y-4.65
X7.8398Y-4.65
X7.9398Y-4.65
X8.0398Y-4.65
X5.25Y-4.65
X5.35Y-4.65
X5.45Y-4.65
X5.55Y-4.65
X5.65Y-4.65
X5.75Y-4.65
X5.85Y-4.65
X5.95Y-4.65
X6.05Y-4.65
X6.15Y-4.65
T3
X8.1398Y-1.7228
X8.1398Y-1.9
X8.3957Y-1.7228
X8.3957Y-1.9
X4.8941Y-1.7228
X4.8941Y-1.9
X5.15Y-1.7228
X5.15Y-1.9
T0
M30
