G04 #@! TF.GenerationSoftware,KiCad,Pcbnew,5.1.5*
G04 #@! TF.CreationDate,2019-12-27T12:01:36+00:00*
G04 #@! TF.ProjectId,wkday,776b6461-792e-46b6-9963-61645f706362,rev?*
G04 #@! TF.SameCoordinates,Original*
G04 #@! TF.FileFunction,Legend,Bot*
G04 #@! TF.FilePolarity,Positive*
%FSLAX46Y46*%
G04 Gerber Fmt 4.6, Leading zero omitted, Abs format (unit mm)*
G04 Created by KiCad (PCBNEW 5.1.5) date 2019-12-27 12:01:36*
%MOMM*%
%LPD*%
G04 APERTURE LIST*
%ADD10C,0.150000*%
%ADD11C,0.200000*%
%ADD12C,0.300000*%
%ADD13C,0.120000*%
G04 APERTURE END LIST*
D10*
X148652380Y-115498571D02*
X148319047Y-115498571D01*
X148176190Y-116022380D02*
X148652380Y-116022380D01*
X148652380Y-115022380D01*
X148176190Y-115022380D01*
X147747619Y-116022380D02*
X147747619Y-115355714D01*
X147747619Y-115450952D02*
X147700000Y-115403333D01*
X147604761Y-115355714D01*
X147461904Y-115355714D01*
X147366666Y-115403333D01*
X147319047Y-115498571D01*
X147319047Y-116022380D01*
X147319047Y-115498571D02*
X147271428Y-115403333D01*
X147176190Y-115355714D01*
X147033333Y-115355714D01*
X146938095Y-115403333D01*
X146890476Y-115498571D01*
X146890476Y-116022380D01*
X146033333Y-115974761D02*
X146128571Y-116022380D01*
X146319047Y-116022380D01*
X146414285Y-115974761D01*
X146461904Y-115879523D01*
X146461904Y-115498571D01*
X146414285Y-115403333D01*
X146319047Y-115355714D01*
X146128571Y-115355714D01*
X146033333Y-115403333D01*
X145985714Y-115498571D01*
X145985714Y-115593809D01*
X146461904Y-115689047D01*
X145557142Y-116022380D02*
X145557142Y-115355714D01*
X145557142Y-115546190D02*
X145509523Y-115450952D01*
X145461904Y-115403333D01*
X145366666Y-115355714D01*
X145271428Y-115355714D01*
X144509523Y-115355714D02*
X144509523Y-116165238D01*
X144557142Y-116260476D01*
X144604761Y-116308095D01*
X144700000Y-116355714D01*
X144842857Y-116355714D01*
X144938095Y-116308095D01*
X144509523Y-115974761D02*
X144604761Y-116022380D01*
X144795238Y-116022380D01*
X144890476Y-115974761D01*
X144938095Y-115927142D01*
X144985714Y-115831904D01*
X144985714Y-115546190D01*
X144938095Y-115450952D01*
X144890476Y-115403333D01*
X144795238Y-115355714D01*
X144604761Y-115355714D01*
X144509523Y-115403333D01*
X143652380Y-115974761D02*
X143747619Y-116022380D01*
X143938095Y-116022380D01*
X144033333Y-115974761D01*
X144080952Y-115879523D01*
X144080952Y-115498571D01*
X144033333Y-115403333D01*
X143938095Y-115355714D01*
X143747619Y-115355714D01*
X143652380Y-115403333D01*
X143604761Y-115498571D01*
X143604761Y-115593809D01*
X144080952Y-115689047D01*
X143176190Y-115355714D02*
X143176190Y-116022380D01*
X143176190Y-115450952D02*
X143128571Y-115403333D01*
X143033333Y-115355714D01*
X142890476Y-115355714D01*
X142795238Y-115403333D01*
X142747619Y-115498571D01*
X142747619Y-116022380D01*
X141842857Y-115974761D02*
X141938095Y-116022380D01*
X142128571Y-116022380D01*
X142223809Y-115974761D01*
X142271428Y-115927142D01*
X142319047Y-115831904D01*
X142319047Y-115546190D01*
X142271428Y-115450952D01*
X142223809Y-115403333D01*
X142128571Y-115355714D01*
X141938095Y-115355714D01*
X141842857Y-115403333D01*
X141509523Y-115355714D02*
X141271428Y-116022380D01*
X141033333Y-115355714D02*
X141271428Y-116022380D01*
X141366666Y-116260476D01*
X141414285Y-116308095D01*
X141509523Y-116355714D01*
X140033333Y-115022380D02*
X139461904Y-115022380D01*
X139747619Y-116022380D02*
X139747619Y-115022380D01*
X139128571Y-116022380D02*
X139128571Y-115355714D01*
X139128571Y-115022380D02*
X139176190Y-115070000D01*
X139128571Y-115117619D01*
X139080952Y-115070000D01*
X139128571Y-115022380D01*
X139128571Y-115117619D01*
X138223809Y-115974761D02*
X138319047Y-116022380D01*
X138509523Y-116022380D01*
X138604761Y-115974761D01*
X138652380Y-115927142D01*
X138700000Y-115831904D01*
X138700000Y-115546190D01*
X138652380Y-115450952D01*
X138604761Y-115403333D01*
X138509523Y-115355714D01*
X138319047Y-115355714D01*
X138223809Y-115403333D01*
X137795238Y-115641428D02*
X137033333Y-115641428D01*
X136700000Y-115022380D02*
X136128571Y-115022380D01*
X136414285Y-116022380D02*
X136414285Y-115022380D01*
X135366666Y-116022380D02*
X135366666Y-115498571D01*
X135414285Y-115403333D01*
X135509523Y-115355714D01*
X135700000Y-115355714D01*
X135795238Y-115403333D01*
X135366666Y-115974761D02*
X135461904Y-116022380D01*
X135700000Y-116022380D01*
X135795238Y-115974761D01*
X135842857Y-115879523D01*
X135842857Y-115784285D01*
X135795238Y-115689047D01*
X135700000Y-115641428D01*
X135461904Y-115641428D01*
X135366666Y-115593809D01*
X134461904Y-115974761D02*
X134557142Y-116022380D01*
X134747619Y-116022380D01*
X134842857Y-115974761D01*
X134890476Y-115927142D01*
X134938095Y-115831904D01*
X134938095Y-115546190D01*
X134890476Y-115450952D01*
X134842857Y-115403333D01*
X134747619Y-115355714D01*
X134557142Y-115355714D01*
X134461904Y-115403333D01*
X134033333Y-115641428D02*
X133271428Y-115641428D01*
X132938095Y-115022380D02*
X132366666Y-115022380D01*
X132652380Y-116022380D02*
X132652380Y-115022380D01*
X131890476Y-116022380D02*
X131985714Y-115974761D01*
X132033333Y-115927142D01*
X132080952Y-115831904D01*
X132080952Y-115546190D01*
X132033333Y-115450952D01*
X131985714Y-115403333D01*
X131890476Y-115355714D01*
X131747619Y-115355714D01*
X131652380Y-115403333D01*
X131604761Y-115450952D01*
X131557142Y-115546190D01*
X131557142Y-115831904D01*
X131604761Y-115927142D01*
X131652380Y-115974761D01*
X131747619Y-116022380D01*
X131890476Y-116022380D01*
X130747619Y-115974761D02*
X130842857Y-116022380D01*
X131033333Y-116022380D01*
X131128571Y-115974761D01*
X131176190Y-115879523D01*
X131176190Y-115498571D01*
X131128571Y-115403333D01*
X131033333Y-115355714D01*
X130842857Y-115355714D01*
X130747619Y-115403333D01*
X130700000Y-115498571D01*
X130700000Y-115593809D01*
X131176190Y-115689047D01*
D11*
X142240000Y-114300000D02*
X142240000Y-99060000D01*
X137160000Y-114300000D02*
X137160000Y-99060000D01*
X132080000Y-109220000D02*
X147320000Y-109220000D01*
X132080000Y-104140000D02*
X147320000Y-104140000D01*
D12*
X132080000Y-99060000D02*
X147320000Y-99060000D01*
X132080000Y-114300000D02*
X132080000Y-99060000D01*
X147320000Y-114300000D02*
X147320000Y-99060000D01*
X132080000Y-114300000D02*
X147320000Y-114300000D01*
D13*
X166370000Y-73025000D02*
X165735000Y-73025000D01*
X166370000Y-73660000D02*
X165735000Y-73660000D01*
X165989000Y-69469000D02*
X165735000Y-69215000D01*
X165989000Y-68961000D02*
X165989000Y-69469000D01*
X165735000Y-69215000D02*
X165989000Y-68961000D01*
X172720000Y-69215000D02*
X165735000Y-69215000D01*
X172720000Y-73660000D02*
X171450000Y-73660000D01*
X172720000Y-73025000D02*
X172720000Y-73660000D01*
X171450000Y-73025000D02*
X172720000Y-73025000D01*
X171450000Y-73660000D02*
X170180000Y-73660000D01*
X171450000Y-73025000D02*
X171450000Y-73660000D01*
X170180000Y-73025000D02*
X171450000Y-73025000D01*
X170180000Y-73660000D02*
X168910000Y-73660000D01*
X170180000Y-73025000D02*
X170180000Y-73660000D01*
X168910000Y-73025000D02*
X170180000Y-73025000D01*
X168910000Y-73660000D02*
X167640000Y-73660000D01*
X168910000Y-73025000D02*
X168910000Y-73660000D01*
X167640000Y-73025000D02*
X168910000Y-73025000D01*
X167640000Y-73660000D02*
X167005000Y-73660000D01*
X167640000Y-73025000D02*
X167640000Y-73660000D01*
X167005000Y-73025000D02*
X167640000Y-73025000D01*
X166370000Y-73025000D02*
X166370000Y-73660000D01*
X167005000Y-73025000D02*
X166370000Y-73025000D01*
X166370000Y-73660000D02*
X167005000Y-73660000D01*
X166370000Y-70485000D02*
X165735000Y-70485000D01*
X167640000Y-70485000D02*
X167640000Y-69850000D01*
X167005000Y-70485000D02*
X167640000Y-70485000D01*
X167005000Y-69850000D02*
X167005000Y-70485000D01*
X166370000Y-69850000D02*
X167005000Y-69850000D01*
X166370000Y-70485000D02*
X166370000Y-69850000D01*
X168275000Y-69850000D02*
X167640000Y-69850000D01*
X168275000Y-70485000D02*
X168275000Y-69850000D01*
X168910000Y-70485000D02*
X168275000Y-70485000D01*
X168910000Y-69850000D02*
X168910000Y-70485000D01*
X169545000Y-69850000D02*
X168910000Y-69850000D01*
X169545000Y-70485000D02*
X169545000Y-69850000D01*
X170180000Y-70485000D02*
X169545000Y-70485000D01*
X170180000Y-69850000D02*
X170180000Y-70485000D01*
X170815000Y-69850000D02*
X170180000Y-69850000D01*
X170815000Y-70485000D02*
X170815000Y-69850000D01*
X171450000Y-70485000D02*
X170815000Y-70485000D01*
X171450000Y-69850000D02*
X171450000Y-70485000D01*
X172085000Y-69850000D02*
X171450000Y-69850000D01*
X172085000Y-70485000D02*
X172085000Y-69850000D01*
X172720000Y-70485000D02*
X172085000Y-70485000D01*
X136144000Y-78867000D02*
G75*
G03X136144000Y-78867000I-254000J0D01*
G01*
X157099000Y-78994000D02*
G75*
G03X157099000Y-78994000I-254000J0D01*
G01*
X183134000Y-78867000D02*
G75*
G03X183134000Y-78867000I-254000J0D01*
G01*
X201549000Y-78867000D02*
G75*
G03X201549000Y-78867000I-254000J0D01*
G01*
D10*
X203564095Y-94004380D02*
X202992666Y-94004380D01*
X203278380Y-95004380D02*
X203278380Y-94004380D01*
X202659333Y-95004380D02*
X202659333Y-94004380D01*
X202230761Y-95004380D02*
X202230761Y-94480571D01*
X202278380Y-94385333D01*
X202373619Y-94337714D01*
X202516476Y-94337714D01*
X202611714Y-94385333D01*
X202659333Y-94432952D01*
X201754571Y-95004380D02*
X201754571Y-94337714D01*
X201754571Y-94004380D02*
X201802190Y-94052000D01*
X201754571Y-94099619D01*
X201706952Y-94052000D01*
X201754571Y-94004380D01*
X201754571Y-94099619D01*
X201326000Y-94956761D02*
X201230761Y-95004380D01*
X201040285Y-95004380D01*
X200945047Y-94956761D01*
X200897428Y-94861523D01*
X200897428Y-94813904D01*
X200945047Y-94718666D01*
X201040285Y-94671047D01*
X201183142Y-94671047D01*
X201278380Y-94623428D01*
X201326000Y-94528190D01*
X201326000Y-94480571D01*
X201278380Y-94385333D01*
X201183142Y-94337714D01*
X201040285Y-94337714D01*
X200945047Y-94385333D01*
X199706952Y-95004380D02*
X199706952Y-94337714D01*
X199706952Y-94004380D02*
X199754571Y-94052000D01*
X199706952Y-94099619D01*
X199659333Y-94052000D01*
X199706952Y-94004380D01*
X199706952Y-94099619D01*
X199278380Y-94956761D02*
X199183142Y-95004380D01*
X198992666Y-95004380D01*
X198897428Y-94956761D01*
X198849809Y-94861523D01*
X198849809Y-94813904D01*
X198897428Y-94718666D01*
X198992666Y-94671047D01*
X199135523Y-94671047D01*
X199230761Y-94623428D01*
X199278380Y-94528190D01*
X199278380Y-94480571D01*
X199230761Y-94385333D01*
X199135523Y-94337714D01*
X198992666Y-94337714D01*
X198897428Y-94385333D01*
X197754571Y-94337714D02*
X197564095Y-95004380D01*
X197373619Y-94528190D01*
X197183142Y-95004380D01*
X196992666Y-94337714D01*
X196611714Y-95004380D02*
X196611714Y-94004380D01*
X196183142Y-95004380D02*
X196183142Y-94480571D01*
X196230761Y-94385333D01*
X196326000Y-94337714D01*
X196468857Y-94337714D01*
X196564095Y-94385333D01*
X196611714Y-94432952D01*
X195326000Y-94956761D02*
X195421238Y-95004380D01*
X195611714Y-95004380D01*
X195706952Y-94956761D01*
X195754571Y-94861523D01*
X195754571Y-94480571D01*
X195706952Y-94385333D01*
X195611714Y-94337714D01*
X195421238Y-94337714D01*
X195326000Y-94385333D01*
X195278380Y-94480571D01*
X195278380Y-94575809D01*
X195754571Y-94671047D01*
X194849809Y-95004380D02*
X194849809Y-94337714D01*
X194849809Y-94528190D02*
X194802190Y-94432952D01*
X194754571Y-94385333D01*
X194659333Y-94337714D01*
X194564095Y-94337714D01*
X193849809Y-94956761D02*
X193945047Y-95004380D01*
X194135523Y-95004380D01*
X194230761Y-94956761D01*
X194278380Y-94861523D01*
X194278380Y-94480571D01*
X194230761Y-94385333D01*
X194135523Y-94337714D01*
X193945047Y-94337714D01*
X193849809Y-94385333D01*
X193802190Y-94480571D01*
X193802190Y-94575809D01*
X194278380Y-94671047D01*
X192754571Y-94337714D02*
X192373619Y-94337714D01*
X192611714Y-94004380D02*
X192611714Y-94861523D01*
X192564095Y-94956761D01*
X192468857Y-95004380D01*
X192373619Y-95004380D01*
X192040285Y-95004380D02*
X192040285Y-94004380D01*
X191611714Y-95004380D02*
X191611714Y-94480571D01*
X191659333Y-94385333D01*
X191754571Y-94337714D01*
X191897428Y-94337714D01*
X191992666Y-94385333D01*
X192040285Y-94432952D01*
X190754571Y-94956761D02*
X190849809Y-95004380D01*
X191040285Y-95004380D01*
X191135523Y-94956761D01*
X191183142Y-94861523D01*
X191183142Y-94480571D01*
X191135523Y-94385333D01*
X191040285Y-94337714D01*
X190849809Y-94337714D01*
X190754571Y-94385333D01*
X190706952Y-94480571D01*
X190706952Y-94575809D01*
X191183142Y-94671047D01*
X189516476Y-95004380D02*
X189516476Y-94004380D01*
X189516476Y-94385333D02*
X189421238Y-94337714D01*
X189230761Y-94337714D01*
X189135523Y-94385333D01*
X189087904Y-94432952D01*
X189040285Y-94528190D01*
X189040285Y-94813904D01*
X189087904Y-94909142D01*
X189135523Y-94956761D01*
X189230761Y-95004380D01*
X189421238Y-95004380D01*
X189516476Y-94956761D01*
X188611714Y-95004380D02*
X188611714Y-94337714D01*
X188611714Y-94004380D02*
X188659333Y-94052000D01*
X188611714Y-94099619D01*
X188564095Y-94052000D01*
X188611714Y-94004380D01*
X188611714Y-94099619D01*
X188278380Y-94337714D02*
X187897428Y-94337714D01*
X188135523Y-94004380D02*
X188135523Y-94861523D01*
X188087904Y-94956761D01*
X187992666Y-95004380D01*
X187897428Y-95004380D01*
X187611714Y-94956761D02*
X187516476Y-95004380D01*
X187326000Y-95004380D01*
X187230761Y-94956761D01*
X187183142Y-94861523D01*
X187183142Y-94813904D01*
X187230761Y-94718666D01*
X187326000Y-94671047D01*
X187468857Y-94671047D01*
X187564095Y-94623428D01*
X187611714Y-94528190D01*
X187611714Y-94480571D01*
X187564095Y-94385333D01*
X187468857Y-94337714D01*
X187326000Y-94337714D01*
X187230761Y-94385333D01*
X202278380Y-95987714D02*
X201897428Y-95987714D01*
X202135523Y-96654380D02*
X202135523Y-95797238D01*
X202087904Y-95702000D01*
X201992666Y-95654380D01*
X201897428Y-95654380D01*
X201135523Y-96654380D02*
X201135523Y-96130571D01*
X201183142Y-96035333D01*
X201278380Y-95987714D01*
X201468857Y-95987714D01*
X201564095Y-96035333D01*
X201135523Y-96606761D02*
X201230761Y-96654380D01*
X201468857Y-96654380D01*
X201564095Y-96606761D01*
X201611714Y-96511523D01*
X201611714Y-96416285D01*
X201564095Y-96321047D01*
X201468857Y-96273428D01*
X201230761Y-96273428D01*
X201135523Y-96225809D01*
X200516476Y-96654380D02*
X200611714Y-96606761D01*
X200659333Y-96511523D01*
X200659333Y-95654380D01*
X199992666Y-96654380D02*
X200087904Y-96606761D01*
X200135523Y-96511523D01*
X200135523Y-95654380D01*
X198706952Y-96654380D02*
X198802190Y-96606761D01*
X198849809Y-96559142D01*
X198897428Y-96463904D01*
X198897428Y-96178190D01*
X198849809Y-96082952D01*
X198802190Y-96035333D01*
X198706952Y-95987714D01*
X198564095Y-95987714D01*
X198468857Y-96035333D01*
X198421238Y-96082952D01*
X198373619Y-96178190D01*
X198373619Y-96463904D01*
X198421238Y-96559142D01*
X198468857Y-96606761D01*
X198564095Y-96654380D01*
X198706952Y-96654380D01*
X198087904Y-95987714D02*
X197706952Y-95987714D01*
X197945047Y-96654380D02*
X197945047Y-95797238D01*
X197897428Y-95702000D01*
X197802190Y-95654380D01*
X197706952Y-95654380D01*
X197516476Y-95987714D02*
X197135523Y-95987714D01*
X197373619Y-96654380D02*
X197373619Y-95797238D01*
X197326000Y-95702000D01*
X197230761Y-95654380D01*
X197135523Y-95654380D01*
X196183142Y-95987714D02*
X195802190Y-95987714D01*
X196040285Y-95654380D02*
X196040285Y-96511523D01*
X195992666Y-96606761D01*
X195897428Y-96654380D01*
X195802190Y-96654380D01*
X195468857Y-96654380D02*
X195468857Y-95654380D01*
X195040285Y-96654380D02*
X195040285Y-96130571D01*
X195087904Y-96035333D01*
X195183142Y-95987714D01*
X195326000Y-95987714D01*
X195421238Y-96035333D01*
X195468857Y-96082952D01*
X194183142Y-96606761D02*
X194278380Y-96654380D01*
X194468857Y-96654380D01*
X194564095Y-96606761D01*
X194611714Y-96511523D01*
X194611714Y-96130571D01*
X194564095Y-96035333D01*
X194468857Y-95987714D01*
X194278380Y-95987714D01*
X194183142Y-96035333D01*
X194135523Y-96130571D01*
X194135523Y-96225809D01*
X194611714Y-96321047D01*
X192564095Y-96606761D02*
X192659333Y-96654380D01*
X192849809Y-96654380D01*
X192945047Y-96606761D01*
X192992666Y-96511523D01*
X192992666Y-96130571D01*
X192945047Y-96035333D01*
X192849809Y-95987714D01*
X192659333Y-95987714D01*
X192564095Y-96035333D01*
X192516476Y-96130571D01*
X192516476Y-96225809D01*
X192992666Y-96321047D01*
X192087904Y-95987714D02*
X192087904Y-96654380D01*
X192087904Y-96082952D02*
X192040285Y-96035333D01*
X191945047Y-95987714D01*
X191802190Y-95987714D01*
X191706952Y-96035333D01*
X191659333Y-96130571D01*
X191659333Y-96654380D01*
X190754571Y-96654380D02*
X190754571Y-95654380D01*
X190754571Y-96606761D02*
X190849809Y-96654380D01*
X191040285Y-96654380D01*
X191135523Y-96606761D01*
X191183142Y-96559142D01*
X191230761Y-96463904D01*
X191230761Y-96178190D01*
X191183142Y-96082952D01*
X191135523Y-96035333D01*
X191040285Y-95987714D01*
X190849809Y-95987714D01*
X190754571Y-96035333D01*
X189516476Y-96559142D02*
X189468857Y-96606761D01*
X189516476Y-96654380D01*
X189564095Y-96606761D01*
X189516476Y-96559142D01*
X189516476Y-96654380D01*
X189516476Y-96035333D02*
X189468857Y-96082952D01*
X189516476Y-96130571D01*
X189564095Y-96082952D01*
X189516476Y-96035333D01*
X189516476Y-96130571D01*
X189040285Y-96654380D02*
X189040285Y-95654380D01*
X188659333Y-95654380D01*
X188564095Y-95702000D01*
X188516476Y-95749619D01*
X188468857Y-95844857D01*
X188468857Y-95987714D01*
X188516476Y-96082952D01*
X188564095Y-96130571D01*
X188659333Y-96178190D01*
X189040285Y-96178190D01*
D13*
X195326000Y-90424000D02*
X195326000Y-93599000D01*
X195961000Y-90424000D02*
X194691000Y-90424000D01*
X195326000Y-89789000D02*
X195961000Y-90424000D01*
X195326000Y-89789000D02*
X194691000Y-90424000D01*
D10*
X164835642Y-120038880D02*
X164264214Y-120038880D01*
X164549928Y-121038880D02*
X164549928Y-120038880D01*
X163930880Y-121038880D02*
X163930880Y-120038880D01*
X163502309Y-121038880D02*
X163502309Y-120515071D01*
X163549928Y-120419833D01*
X163645166Y-120372214D01*
X163788023Y-120372214D01*
X163883261Y-120419833D01*
X163930880Y-120467452D01*
X163026119Y-121038880D02*
X163026119Y-120372214D01*
X163026119Y-120038880D02*
X163073738Y-120086500D01*
X163026119Y-120134119D01*
X162978500Y-120086500D01*
X163026119Y-120038880D01*
X163026119Y-120134119D01*
X162597547Y-120991261D02*
X162502309Y-121038880D01*
X162311833Y-121038880D01*
X162216595Y-120991261D01*
X162168976Y-120896023D01*
X162168976Y-120848404D01*
X162216595Y-120753166D01*
X162311833Y-120705547D01*
X162454690Y-120705547D01*
X162549928Y-120657928D01*
X162597547Y-120562690D01*
X162597547Y-120515071D01*
X162549928Y-120419833D01*
X162454690Y-120372214D01*
X162311833Y-120372214D01*
X162216595Y-120419833D01*
X160978500Y-121038880D02*
X160978500Y-120038880D01*
X160978500Y-120419833D02*
X160883261Y-120372214D01*
X160692785Y-120372214D01*
X160597547Y-120419833D01*
X160549928Y-120467452D01*
X160502309Y-120562690D01*
X160502309Y-120848404D01*
X160549928Y-120943642D01*
X160597547Y-120991261D01*
X160692785Y-121038880D01*
X160883261Y-121038880D01*
X160978500Y-120991261D01*
X159930880Y-121038880D02*
X160026119Y-120991261D01*
X160073738Y-120943642D01*
X160121357Y-120848404D01*
X160121357Y-120562690D01*
X160073738Y-120467452D01*
X160026119Y-120419833D01*
X159930880Y-120372214D01*
X159788023Y-120372214D01*
X159692785Y-120419833D01*
X159645166Y-120467452D01*
X159597547Y-120562690D01*
X159597547Y-120848404D01*
X159645166Y-120943642D01*
X159692785Y-120991261D01*
X159788023Y-121038880D01*
X159930880Y-121038880D01*
X158740404Y-121038880D02*
X158740404Y-120515071D01*
X158788023Y-120419833D01*
X158883261Y-120372214D01*
X159073738Y-120372214D01*
X159168976Y-120419833D01*
X158740404Y-120991261D02*
X158835642Y-121038880D01*
X159073738Y-121038880D01*
X159168976Y-120991261D01*
X159216595Y-120896023D01*
X159216595Y-120800785D01*
X159168976Y-120705547D01*
X159073738Y-120657928D01*
X158835642Y-120657928D01*
X158740404Y-120610309D01*
X158264214Y-121038880D02*
X158264214Y-120372214D01*
X158264214Y-120562690D02*
X158216595Y-120467452D01*
X158168976Y-120419833D01*
X158073738Y-120372214D01*
X157978500Y-120372214D01*
X157216595Y-121038880D02*
X157216595Y-120038880D01*
X157216595Y-120991261D02*
X157311833Y-121038880D01*
X157502309Y-121038880D01*
X157597547Y-120991261D01*
X157645166Y-120943642D01*
X157692785Y-120848404D01*
X157692785Y-120562690D01*
X157645166Y-120467452D01*
X157597547Y-120419833D01*
X157502309Y-120372214D01*
X157311833Y-120372214D01*
X157216595Y-120419833D01*
X155978500Y-121038880D02*
X155978500Y-120372214D01*
X155978500Y-120038880D02*
X156026119Y-120086500D01*
X155978500Y-120134119D01*
X155930880Y-120086500D01*
X155978500Y-120038880D01*
X155978500Y-120134119D01*
X155549928Y-120991261D02*
X155454690Y-121038880D01*
X155264214Y-121038880D01*
X155168976Y-120991261D01*
X155121357Y-120896023D01*
X155121357Y-120848404D01*
X155168976Y-120753166D01*
X155264214Y-120705547D01*
X155407071Y-120705547D01*
X155502309Y-120657928D01*
X155549928Y-120562690D01*
X155549928Y-120515071D01*
X155502309Y-120419833D01*
X155407071Y-120372214D01*
X155264214Y-120372214D01*
X155168976Y-120419833D01*
X154026119Y-120372214D02*
X153835642Y-121038880D01*
X153645166Y-120562690D01*
X153454690Y-121038880D01*
X153264214Y-120372214D01*
X152454690Y-121038880D02*
X152454690Y-120515071D01*
X152502309Y-120419833D01*
X152597547Y-120372214D01*
X152788023Y-120372214D01*
X152883261Y-120419833D01*
X152454690Y-120991261D02*
X152549928Y-121038880D01*
X152788023Y-121038880D01*
X152883261Y-120991261D01*
X152930880Y-120896023D01*
X152930880Y-120800785D01*
X152883261Y-120705547D01*
X152788023Y-120657928D01*
X152549928Y-120657928D01*
X152454690Y-120610309D01*
X152073738Y-120372214D02*
X151835642Y-121038880D01*
X151597547Y-120372214D02*
X151835642Y-121038880D01*
X151930880Y-121276976D01*
X151978500Y-121324595D01*
X152073738Y-121372214D01*
X150597547Y-120372214D02*
X150216595Y-120372214D01*
X150454690Y-120038880D02*
X150454690Y-120896023D01*
X150407071Y-120991261D01*
X150311833Y-121038880D01*
X150216595Y-121038880D01*
X149740404Y-121038880D02*
X149835642Y-120991261D01*
X149883261Y-120943642D01*
X149930880Y-120848404D01*
X149930880Y-120562690D01*
X149883261Y-120467452D01*
X149835642Y-120419833D01*
X149740404Y-120372214D01*
X149597547Y-120372214D01*
X149502309Y-120419833D01*
X149454690Y-120467452D01*
X149407071Y-120562690D01*
X149407071Y-120848404D01*
X149454690Y-120943642D01*
X149502309Y-120991261D01*
X149597547Y-121038880D01*
X149740404Y-121038880D01*
X148835642Y-121038880D02*
X148930880Y-120991261D01*
X148978500Y-120943642D01*
X149026119Y-120848404D01*
X149026119Y-120562690D01*
X148978500Y-120467452D01*
X148930880Y-120419833D01*
X148835642Y-120372214D01*
X148692785Y-120372214D01*
X148597547Y-120419833D01*
X148549928Y-120467452D01*
X148502309Y-120562690D01*
X148502309Y-120848404D01*
X148549928Y-120943642D01*
X148597547Y-120991261D01*
X148692785Y-121038880D01*
X148835642Y-121038880D01*
X147311833Y-121038880D02*
X147311833Y-120372214D01*
X147311833Y-120467452D02*
X147264214Y-120419833D01*
X147168976Y-120372214D01*
X147026119Y-120372214D01*
X146930880Y-120419833D01*
X146883261Y-120515071D01*
X146883261Y-121038880D01*
X146883261Y-120515071D02*
X146835642Y-120419833D01*
X146740404Y-120372214D01*
X146597547Y-120372214D01*
X146502309Y-120419833D01*
X146454690Y-120515071D01*
X146454690Y-121038880D01*
X145549928Y-120372214D02*
X145549928Y-121038880D01*
X145978500Y-120372214D02*
X145978500Y-120896023D01*
X145930880Y-120991261D01*
X145835642Y-121038880D01*
X145692785Y-121038880D01*
X145597547Y-120991261D01*
X145549928Y-120943642D01*
X144645166Y-120991261D02*
X144740404Y-121038880D01*
X144930880Y-121038880D01*
X145026119Y-120991261D01*
X145073738Y-120943642D01*
X145121357Y-120848404D01*
X145121357Y-120562690D01*
X145073738Y-120467452D01*
X145026119Y-120419833D01*
X144930880Y-120372214D01*
X144740404Y-120372214D01*
X144645166Y-120419833D01*
X144216595Y-121038880D02*
X144216595Y-120038880D01*
X143788023Y-121038880D02*
X143788023Y-120515071D01*
X143835642Y-120419833D01*
X143930880Y-120372214D01*
X144073738Y-120372214D01*
X144168976Y-120419833D01*
X144216595Y-120467452D01*
X142407071Y-121038880D02*
X142502309Y-120991261D01*
X142549928Y-120943642D01*
X142597547Y-120848404D01*
X142597547Y-120562690D01*
X142549928Y-120467452D01*
X142502309Y-120419833D01*
X142407071Y-120372214D01*
X142264214Y-120372214D01*
X142168976Y-120419833D01*
X142121357Y-120467452D01*
X142073738Y-120562690D01*
X142073738Y-120848404D01*
X142121357Y-120943642D01*
X142168976Y-120991261D01*
X142264214Y-121038880D01*
X142407071Y-121038880D01*
X141788023Y-120372214D02*
X141407071Y-120372214D01*
X141645166Y-121038880D02*
X141645166Y-120181738D01*
X141597547Y-120086500D01*
X141502309Y-120038880D01*
X141407071Y-120038880D01*
X139883261Y-121038880D02*
X139883261Y-120515071D01*
X139930880Y-120419833D01*
X140026119Y-120372214D01*
X140216595Y-120372214D01*
X140311833Y-120419833D01*
X139883261Y-120991261D02*
X139978500Y-121038880D01*
X140216595Y-121038880D01*
X140311833Y-120991261D01*
X140359452Y-120896023D01*
X140359452Y-120800785D01*
X140311833Y-120705547D01*
X140216595Y-120657928D01*
X139978500Y-120657928D01*
X139883261Y-120610309D01*
X138216595Y-120991261D02*
X138311833Y-121038880D01*
X138502309Y-121038880D01*
X138597547Y-120991261D01*
X138645166Y-120943642D01*
X138692785Y-120848404D01*
X138692785Y-120562690D01*
X138645166Y-120467452D01*
X138597547Y-120419833D01*
X138502309Y-120372214D01*
X138311833Y-120372214D01*
X138216595Y-120419833D01*
X137359452Y-121038880D02*
X137359452Y-120515071D01*
X137407071Y-120419833D01*
X137502309Y-120372214D01*
X137692785Y-120372214D01*
X137788023Y-120419833D01*
X137359452Y-120991261D02*
X137454690Y-121038880D01*
X137692785Y-121038880D01*
X137788023Y-120991261D01*
X137835642Y-120896023D01*
X137835642Y-120800785D01*
X137788023Y-120705547D01*
X137692785Y-120657928D01*
X137454690Y-120657928D01*
X137359452Y-120610309D01*
X136883261Y-120372214D02*
X136883261Y-121038880D01*
X136883261Y-120467452D02*
X136835642Y-120419833D01*
X136740404Y-120372214D01*
X136597547Y-120372214D01*
X136502309Y-120419833D01*
X136454690Y-120515071D01*
X136454690Y-121038880D01*
X136073738Y-120372214D02*
X135835642Y-121038880D01*
X135597547Y-120372214D01*
X134788023Y-121038880D02*
X134788023Y-120515071D01*
X134835642Y-120419833D01*
X134930880Y-120372214D01*
X135121357Y-120372214D01*
X135216595Y-120419833D01*
X134788023Y-120991261D02*
X134883261Y-121038880D01*
X135121357Y-121038880D01*
X135216595Y-120991261D01*
X135264214Y-120896023D01*
X135264214Y-120800785D01*
X135216595Y-120705547D01*
X135121357Y-120657928D01*
X134883261Y-120657928D01*
X134788023Y-120610309D01*
X134359452Y-120991261D02*
X134264214Y-121038880D01*
X134073738Y-121038880D01*
X133978500Y-120991261D01*
X133930880Y-120896023D01*
X133930880Y-120848404D01*
X133978500Y-120753166D01*
X134073738Y-120705547D01*
X134216595Y-120705547D01*
X134311833Y-120657928D01*
X134359452Y-120562690D01*
X134359452Y-120515071D01*
X134311833Y-120419833D01*
X134216595Y-120372214D01*
X134073738Y-120372214D01*
X133978500Y-120419833D01*
X132883261Y-120372214D02*
X132502309Y-120372214D01*
X132740404Y-121038880D02*
X132740404Y-120181738D01*
X132692785Y-120086500D01*
X132597547Y-120038880D01*
X132502309Y-120038880D01*
X132026119Y-121038880D02*
X132121357Y-120991261D01*
X132168976Y-120943642D01*
X132216595Y-120848404D01*
X132216595Y-120562690D01*
X132168976Y-120467452D01*
X132121357Y-120419833D01*
X132026119Y-120372214D01*
X131883261Y-120372214D01*
X131788023Y-120419833D01*
X131740404Y-120467452D01*
X131692785Y-120562690D01*
X131692785Y-120848404D01*
X131740404Y-120943642D01*
X131788023Y-120991261D01*
X131883261Y-121038880D01*
X132026119Y-121038880D01*
X131264214Y-121038880D02*
X131264214Y-120372214D01*
X131264214Y-120562690D02*
X131216595Y-120467452D01*
X131168976Y-120419833D01*
X131073738Y-120372214D01*
X130978500Y-120372214D01*
X129883261Y-121038880D02*
X129883261Y-120372214D01*
X129883261Y-120467452D02*
X129835642Y-120419833D01*
X129740404Y-120372214D01*
X129597547Y-120372214D01*
X129502309Y-120419833D01*
X129454690Y-120515071D01*
X129454690Y-121038880D01*
X129454690Y-120515071D02*
X129407071Y-120419833D01*
X129311833Y-120372214D01*
X129168976Y-120372214D01*
X129073738Y-120419833D01*
X129026119Y-120515071D01*
X129026119Y-121038880D01*
X128168976Y-120991261D02*
X128264214Y-121038880D01*
X128454690Y-121038880D01*
X128549928Y-120991261D01*
X128597547Y-120896023D01*
X128597547Y-120515071D01*
X128549928Y-120419833D01*
X128454690Y-120372214D01*
X128264214Y-120372214D01*
X128168976Y-120419833D01*
X128121357Y-120515071D01*
X128121357Y-120610309D01*
X128597547Y-120705547D01*
X126883261Y-120991261D02*
X126883261Y-121038880D01*
X126930880Y-121134119D01*
X126978500Y-121181738D01*
X126930880Y-120419833D02*
X126883261Y-120467452D01*
X126930880Y-120515071D01*
X126978500Y-120467452D01*
X126930880Y-120419833D01*
X126930880Y-120515071D01*
X126549928Y-121419833D02*
X126502309Y-121372214D01*
X126407071Y-121229357D01*
X126359452Y-121134119D01*
X126311833Y-120991261D01*
X126264214Y-120753166D01*
X126264214Y-120562690D01*
X126311833Y-120324595D01*
X126359452Y-120181738D01*
X126407071Y-120086500D01*
X126502309Y-119943642D01*
X126549928Y-119896023D01*
X207667380Y-110577380D02*
X207667380Y-111386904D01*
X207619761Y-111482142D01*
X207572142Y-111529761D01*
X207476904Y-111577380D01*
X207286428Y-111577380D01*
X207191190Y-111529761D01*
X207143571Y-111482142D01*
X207095952Y-111386904D01*
X207095952Y-110577380D01*
X206048333Y-111577380D02*
X206381666Y-111101190D01*
X206619761Y-111577380D02*
X206619761Y-110577380D01*
X206238809Y-110577380D01*
X206143571Y-110625000D01*
X206095952Y-110672619D01*
X206048333Y-110767857D01*
X206048333Y-110910714D01*
X206095952Y-111005952D01*
X206143571Y-111053571D01*
X206238809Y-111101190D01*
X206619761Y-111101190D01*
X204334047Y-111577380D02*
X204905476Y-111577380D01*
X204619761Y-111577380D02*
X204619761Y-110577380D01*
X204715000Y-110720238D01*
X204810238Y-110815476D01*
X204905476Y-110863095D01*
X203857857Y-111577380D02*
X203667380Y-111577380D01*
X203572142Y-111529761D01*
X203524523Y-111482142D01*
X203429285Y-111339285D01*
X203381666Y-111148809D01*
X203381666Y-110767857D01*
X203429285Y-110672619D01*
X203476904Y-110625000D01*
X203572142Y-110577380D01*
X203762619Y-110577380D01*
X203857857Y-110625000D01*
X203905476Y-110672619D01*
X203953095Y-110767857D01*
X203953095Y-111005952D01*
X203905476Y-111101190D01*
X203857857Y-111148809D01*
X203762619Y-111196428D01*
X203572142Y-111196428D01*
X203476904Y-111148809D01*
X203429285Y-111101190D01*
X203381666Y-111005952D01*
X202429285Y-111577380D02*
X203000714Y-111577380D01*
X202715000Y-111577380D02*
X202715000Y-110577380D01*
X202810238Y-110720238D01*
X202905476Y-110815476D01*
X203000714Y-110863095D01*
X202048333Y-110672619D02*
X202000714Y-110625000D01*
X201905476Y-110577380D01*
X201667380Y-110577380D01*
X201572142Y-110625000D01*
X201524523Y-110672619D01*
X201476904Y-110767857D01*
X201476904Y-110863095D01*
X201524523Y-111005952D01*
X202095952Y-111577380D01*
X201476904Y-111577380D01*
X201095952Y-110672619D02*
X201048333Y-110625000D01*
X200953095Y-110577380D01*
X200715000Y-110577380D01*
X200619761Y-110625000D01*
X200572142Y-110672619D01*
X200524523Y-110767857D01*
X200524523Y-110863095D01*
X200572142Y-111005952D01*
X201143571Y-111577380D01*
X200524523Y-111577380D01*
X199619761Y-110577380D02*
X200095952Y-110577380D01*
X200143571Y-111053571D01*
X200095952Y-111005952D01*
X200000714Y-110958333D01*
X199762619Y-110958333D01*
X199667380Y-111005952D01*
X199619761Y-111053571D01*
X199572142Y-111148809D01*
X199572142Y-111386904D01*
X199619761Y-111482142D01*
X199667380Y-111529761D01*
X199762619Y-111577380D01*
X200000714Y-111577380D01*
X200095952Y-111529761D01*
X200143571Y-111482142D01*
X198381666Y-111196428D02*
X197619761Y-111196428D01*
X196381666Y-111577380D02*
X196381666Y-110577380D01*
X196381666Y-111053571D02*
X195810238Y-111053571D01*
X195810238Y-111577380D02*
X195810238Y-110577380D01*
X194905476Y-111577380D02*
X194905476Y-111053571D01*
X194953095Y-110958333D01*
X195048333Y-110910714D01*
X195238809Y-110910714D01*
X195334047Y-110958333D01*
X194905476Y-111529761D02*
X195000714Y-111577380D01*
X195238809Y-111577380D01*
X195334047Y-111529761D01*
X195381666Y-111434523D01*
X195381666Y-111339285D01*
X195334047Y-111244047D01*
X195238809Y-111196428D01*
X195000714Y-111196428D01*
X194905476Y-111148809D01*
X194429285Y-110910714D02*
X194429285Y-111910714D01*
X194429285Y-110958333D02*
X194334047Y-110910714D01*
X194143571Y-110910714D01*
X194048333Y-110958333D01*
X194000714Y-111005952D01*
X193953095Y-111101190D01*
X193953095Y-111386904D01*
X194000714Y-111482142D01*
X194048333Y-111529761D01*
X194143571Y-111577380D01*
X194334047Y-111577380D01*
X194429285Y-111529761D01*
X193524523Y-110910714D02*
X193524523Y-111910714D01*
X193524523Y-110958333D02*
X193429285Y-110910714D01*
X193238809Y-110910714D01*
X193143571Y-110958333D01*
X193095952Y-111005952D01*
X193048333Y-111101190D01*
X193048333Y-111386904D01*
X193095952Y-111482142D01*
X193143571Y-111529761D01*
X193238809Y-111577380D01*
X193429285Y-111577380D01*
X193524523Y-111529761D01*
X192715000Y-110910714D02*
X192476904Y-111577380D01*
X192238809Y-110910714D02*
X192476904Y-111577380D01*
X192572142Y-111815476D01*
X192619761Y-111863095D01*
X192715000Y-111910714D01*
X191095952Y-111577380D02*
X191095952Y-110577380D01*
X191095952Y-111053571D02*
X190524523Y-111053571D01*
X190524523Y-111577380D02*
X190524523Y-110577380D01*
X189905476Y-111577380D02*
X190000714Y-111529761D01*
X190048333Y-111482142D01*
X190095952Y-111386904D01*
X190095952Y-111101190D01*
X190048333Y-111005952D01*
X190000714Y-110958333D01*
X189905476Y-110910714D01*
X189762619Y-110910714D01*
X189667380Y-110958333D01*
X189619761Y-111005952D01*
X189572142Y-111101190D01*
X189572142Y-111386904D01*
X189619761Y-111482142D01*
X189667380Y-111529761D01*
X189762619Y-111577380D01*
X189905476Y-111577380D01*
X189000714Y-111577380D02*
X189095952Y-111529761D01*
X189143571Y-111434523D01*
X189143571Y-110577380D01*
X188619761Y-111577380D02*
X188619761Y-110910714D01*
X188619761Y-110577380D02*
X188667380Y-110625000D01*
X188619761Y-110672619D01*
X188572142Y-110625000D01*
X188619761Y-110577380D01*
X188619761Y-110672619D01*
X187715000Y-111577380D02*
X187715000Y-110577380D01*
X187715000Y-111529761D02*
X187810238Y-111577380D01*
X188000714Y-111577380D01*
X188095952Y-111529761D01*
X188143571Y-111482142D01*
X188191190Y-111386904D01*
X188191190Y-111101190D01*
X188143571Y-111005952D01*
X188095952Y-110958333D01*
X188000714Y-110910714D01*
X187810238Y-110910714D01*
X187715000Y-110958333D01*
X186810238Y-111577380D02*
X186810238Y-111053571D01*
X186857857Y-110958333D01*
X186953095Y-110910714D01*
X187143571Y-110910714D01*
X187238809Y-110958333D01*
X186810238Y-111529761D02*
X186905476Y-111577380D01*
X187143571Y-111577380D01*
X187238809Y-111529761D01*
X187286428Y-111434523D01*
X187286428Y-111339285D01*
X187238809Y-111244047D01*
X187143571Y-111196428D01*
X186905476Y-111196428D01*
X186810238Y-111148809D01*
X186429285Y-110910714D02*
X186191190Y-111577380D01*
X185953095Y-110910714D02*
X186191190Y-111577380D01*
X186286428Y-111815476D01*
X186334047Y-111863095D01*
X186429285Y-111910714D01*
X185619761Y-111529761D02*
X185524523Y-111577380D01*
X185334047Y-111577380D01*
X185238809Y-111529761D01*
X185191190Y-111434523D01*
X185191190Y-111386904D01*
X185238809Y-111291666D01*
X185334047Y-111244047D01*
X185476904Y-111244047D01*
X185572142Y-111196428D01*
X185619761Y-111101190D01*
X185619761Y-111053571D01*
X185572142Y-110958333D01*
X185476904Y-110910714D01*
X185334047Y-110910714D01*
X185238809Y-110958333D01*
X184762619Y-111482142D02*
X184715000Y-111529761D01*
X184762619Y-111577380D01*
X184810238Y-111529761D01*
X184762619Y-111482142D01*
X184762619Y-111577380D01*
X184762619Y-111196428D02*
X184810238Y-110625000D01*
X184762619Y-110577380D01*
X184715000Y-110625000D01*
X184762619Y-111196428D01*
X184762619Y-110577380D01*
X199259523Y-44077380D02*
X199259523Y-43077380D01*
X199259523Y-43553571D02*
X198688095Y-43553571D01*
X198688095Y-44077380D02*
X198688095Y-43077380D01*
X197783333Y-44077380D02*
X197783333Y-43553571D01*
X197830952Y-43458333D01*
X197926190Y-43410714D01*
X198116666Y-43410714D01*
X198211904Y-43458333D01*
X197783333Y-44029761D02*
X197878571Y-44077380D01*
X198116666Y-44077380D01*
X198211904Y-44029761D01*
X198259523Y-43934523D01*
X198259523Y-43839285D01*
X198211904Y-43744047D01*
X198116666Y-43696428D01*
X197878571Y-43696428D01*
X197783333Y-43648809D01*
X197354761Y-44029761D02*
X197259523Y-44077380D01*
X197069047Y-44077380D01*
X196973809Y-44029761D01*
X196926190Y-43934523D01*
X196926190Y-43886904D01*
X196973809Y-43791666D01*
X197069047Y-43744047D01*
X197211904Y-43744047D01*
X197307142Y-43696428D01*
X197354761Y-43601190D01*
X197354761Y-43553571D01*
X197307142Y-43458333D01*
X197211904Y-43410714D01*
X197069047Y-43410714D01*
X196973809Y-43458333D01*
X195307142Y-43410714D02*
X195307142Y-44077380D01*
X195545238Y-43029761D02*
X195783333Y-43744047D01*
X195164285Y-43744047D01*
X193878571Y-43505952D02*
X193973809Y-43458333D01*
X194021428Y-43410714D01*
X194069047Y-43315476D01*
X194069047Y-43267857D01*
X194021428Y-43172619D01*
X193973809Y-43125000D01*
X193878571Y-43077380D01*
X193688095Y-43077380D01*
X193592857Y-43125000D01*
X193545238Y-43172619D01*
X193497619Y-43267857D01*
X193497619Y-43315476D01*
X193545238Y-43410714D01*
X193592857Y-43458333D01*
X193688095Y-43505952D01*
X193878571Y-43505952D01*
X193973809Y-43553571D01*
X194021428Y-43601190D01*
X194069047Y-43696428D01*
X194069047Y-43886904D01*
X194021428Y-43982142D01*
X193973809Y-44029761D01*
X193878571Y-44077380D01*
X193688095Y-44077380D01*
X193592857Y-44029761D01*
X193545238Y-43982142D01*
X193497619Y-43886904D01*
X193497619Y-43696428D01*
X193545238Y-43601190D01*
X193592857Y-43553571D01*
X193688095Y-43505952D01*
X193069047Y-43696428D02*
X192307142Y-43696428D01*
X191830952Y-44077380D02*
X191830952Y-43077380D01*
X191830952Y-43458333D02*
X191735714Y-43410714D01*
X191545238Y-43410714D01*
X191450000Y-43458333D01*
X191402380Y-43505952D01*
X191354761Y-43601190D01*
X191354761Y-43886904D01*
X191402380Y-43982142D01*
X191450000Y-44029761D01*
X191545238Y-44077380D01*
X191735714Y-44077380D01*
X191830952Y-44029761D01*
X190926190Y-44077380D02*
X190926190Y-43410714D01*
X190926190Y-43077380D02*
X190973809Y-43125000D01*
X190926190Y-43172619D01*
X190878571Y-43125000D01*
X190926190Y-43077380D01*
X190926190Y-43172619D01*
X190592857Y-43410714D02*
X190211904Y-43410714D01*
X190450000Y-43077380D02*
X190450000Y-43934523D01*
X190402380Y-44029761D01*
X190307142Y-44077380D01*
X190211904Y-44077380D01*
X189164285Y-44029761D02*
X189069047Y-44077380D01*
X188878571Y-44077380D01*
X188783333Y-44029761D01*
X188735714Y-43934523D01*
X188735714Y-43886904D01*
X188783333Y-43791666D01*
X188878571Y-43744047D01*
X189021428Y-43744047D01*
X189116666Y-43696428D01*
X189164285Y-43601190D01*
X189164285Y-43553571D01*
X189116666Y-43458333D01*
X189021428Y-43410714D01*
X188878571Y-43410714D01*
X188783333Y-43458333D01*
X188307142Y-44077380D02*
X188307142Y-43077380D01*
X187878571Y-44077380D02*
X187878571Y-43553571D01*
X187926190Y-43458333D01*
X188021428Y-43410714D01*
X188164285Y-43410714D01*
X188259523Y-43458333D01*
X188307142Y-43505952D01*
X187402380Y-44077380D02*
X187402380Y-43410714D01*
X187402380Y-43077380D02*
X187450000Y-43125000D01*
X187402380Y-43172619D01*
X187354761Y-43125000D01*
X187402380Y-43077380D01*
X187402380Y-43172619D01*
X187069047Y-43410714D02*
X186688095Y-43410714D01*
X186926190Y-44077380D02*
X186926190Y-43220238D01*
X186878571Y-43125000D01*
X186783333Y-43077380D01*
X186688095Y-43077380D01*
X186497619Y-43410714D02*
X186116666Y-43410714D01*
X186354761Y-43077380D02*
X186354761Y-43934523D01*
X186307142Y-44029761D01*
X186211904Y-44077380D01*
X186116666Y-44077380D01*
X185021428Y-44077380D02*
X185021428Y-43410714D01*
X185021428Y-43601190D02*
X184973809Y-43505952D01*
X184926190Y-43458333D01*
X184830952Y-43410714D01*
X184735714Y-43410714D01*
X184021428Y-44029761D02*
X184116666Y-44077380D01*
X184307142Y-44077380D01*
X184402380Y-44029761D01*
X184450000Y-43934523D01*
X184450000Y-43553571D01*
X184402380Y-43458333D01*
X184307142Y-43410714D01*
X184116666Y-43410714D01*
X184021428Y-43458333D01*
X183973809Y-43553571D01*
X183973809Y-43648809D01*
X184450000Y-43744047D01*
X183116666Y-43410714D02*
X183116666Y-44220238D01*
X183164285Y-44315476D01*
X183211904Y-44363095D01*
X183307142Y-44410714D01*
X183450000Y-44410714D01*
X183545238Y-44363095D01*
X183116666Y-44029761D02*
X183211904Y-44077380D01*
X183402380Y-44077380D01*
X183497619Y-44029761D01*
X183545238Y-43982142D01*
X183592857Y-43886904D01*
X183592857Y-43601190D01*
X183545238Y-43505952D01*
X183497619Y-43458333D01*
X183402380Y-43410714D01*
X183211904Y-43410714D01*
X183116666Y-43458333D01*
X182640476Y-44077380D02*
X182640476Y-43410714D01*
X182640476Y-43077380D02*
X182688095Y-43125000D01*
X182640476Y-43172619D01*
X182592857Y-43125000D01*
X182640476Y-43077380D01*
X182640476Y-43172619D01*
X182211904Y-44029761D02*
X182116666Y-44077380D01*
X181926190Y-44077380D01*
X181830952Y-44029761D01*
X181783333Y-43934523D01*
X181783333Y-43886904D01*
X181830952Y-43791666D01*
X181926190Y-43744047D01*
X182069047Y-43744047D01*
X182164285Y-43696428D01*
X182211904Y-43601190D01*
X182211904Y-43553571D01*
X182164285Y-43458333D01*
X182069047Y-43410714D01*
X181926190Y-43410714D01*
X181830952Y-43458333D01*
X181497619Y-43410714D02*
X181116666Y-43410714D01*
X181354761Y-43077380D02*
X181354761Y-43934523D01*
X181307142Y-44029761D01*
X181211904Y-44077380D01*
X181116666Y-44077380D01*
X180402380Y-44029761D02*
X180497619Y-44077380D01*
X180688095Y-44077380D01*
X180783333Y-44029761D01*
X180830952Y-43934523D01*
X180830952Y-43553571D01*
X180783333Y-43458333D01*
X180688095Y-43410714D01*
X180497619Y-43410714D01*
X180402380Y-43458333D01*
X180354761Y-43553571D01*
X180354761Y-43648809D01*
X180830952Y-43744047D01*
X179926190Y-44077380D02*
X179926190Y-43410714D01*
X179926190Y-43601190D02*
X179878571Y-43505952D01*
X179830952Y-43458333D01*
X179735714Y-43410714D01*
X179640476Y-43410714D01*
X178402380Y-44077380D02*
X178497619Y-44029761D01*
X178545238Y-43934523D01*
X178545238Y-43077380D01*
X177592857Y-44077380D02*
X177592857Y-43553571D01*
X177640476Y-43458333D01*
X177735714Y-43410714D01*
X177926190Y-43410714D01*
X178021428Y-43458333D01*
X177592857Y-44029761D02*
X177688095Y-44077380D01*
X177926190Y-44077380D01*
X178021428Y-44029761D01*
X178069047Y-43934523D01*
X178069047Y-43839285D01*
X178021428Y-43744047D01*
X177926190Y-43696428D01*
X177688095Y-43696428D01*
X177592857Y-43648809D01*
X177259523Y-43410714D02*
X176878571Y-43410714D01*
X177116666Y-43077380D02*
X177116666Y-43934523D01*
X177069047Y-44029761D01*
X176973809Y-44077380D01*
X176878571Y-44077380D01*
X176116666Y-44029761D02*
X176211904Y-44077380D01*
X176402380Y-44077380D01*
X176497619Y-44029761D01*
X176545238Y-43982142D01*
X176592857Y-43886904D01*
X176592857Y-43601190D01*
X176545238Y-43505952D01*
X176497619Y-43458333D01*
X176402380Y-43410714D01*
X176211904Y-43410714D01*
X176116666Y-43458333D01*
X175688095Y-44077380D02*
X175688095Y-43077380D01*
X175259523Y-44077380D02*
X175259523Y-43553571D01*
X175307142Y-43458333D01*
X175402380Y-43410714D01*
X175545238Y-43410714D01*
X175640476Y-43458333D01*
X175688095Y-43505952D01*
X174402380Y-44029761D02*
X174497619Y-44077380D01*
X174688095Y-44077380D01*
X174783333Y-44029761D01*
X174830952Y-43934523D01*
X174830952Y-43553571D01*
X174783333Y-43458333D01*
X174688095Y-43410714D01*
X174497619Y-43410714D01*
X174402380Y-43458333D01*
X174354761Y-43553571D01*
X174354761Y-43648809D01*
X174830952Y-43744047D01*
X173973809Y-44029761D02*
X173878571Y-44077380D01*
X173688095Y-44077380D01*
X173592857Y-44029761D01*
X173545238Y-43934523D01*
X173545238Y-43886904D01*
X173592857Y-43791666D01*
X173688095Y-43744047D01*
X173830952Y-43744047D01*
X173926190Y-43696428D01*
X173973809Y-43601190D01*
X173973809Y-43553571D01*
X173926190Y-43458333D01*
X173830952Y-43410714D01*
X173688095Y-43410714D01*
X173592857Y-43458333D01*
X173069047Y-44029761D02*
X173069047Y-44077380D01*
X173116666Y-44172619D01*
X173164285Y-44220238D01*
X171926190Y-43172619D02*
X171878571Y-43125000D01*
X171783333Y-43077380D01*
X171545238Y-43077380D01*
X171450000Y-43125000D01*
X171402380Y-43172619D01*
X171354761Y-43267857D01*
X171354761Y-43363095D01*
X171402380Y-43505952D01*
X171973809Y-44077380D01*
X171354761Y-44077380D01*
X170164285Y-44077380D02*
X170164285Y-43077380D01*
X170164285Y-43458333D02*
X170069047Y-43410714D01*
X169878571Y-43410714D01*
X169783333Y-43458333D01*
X169735714Y-43505952D01*
X169688095Y-43601190D01*
X169688095Y-43886904D01*
X169735714Y-43982142D01*
X169783333Y-44029761D01*
X169878571Y-44077380D01*
X170069047Y-44077380D01*
X170164285Y-44029761D01*
X169259523Y-44077380D02*
X169259523Y-43410714D01*
X169259523Y-43077380D02*
X169307142Y-43125000D01*
X169259523Y-43172619D01*
X169211904Y-43125000D01*
X169259523Y-43077380D01*
X169259523Y-43172619D01*
X168354761Y-43410714D02*
X168354761Y-44220238D01*
X168402380Y-44315476D01*
X168450000Y-44363095D01*
X168545238Y-44410714D01*
X168688095Y-44410714D01*
X168783333Y-44363095D01*
X168354761Y-44029761D02*
X168450000Y-44077380D01*
X168640476Y-44077380D01*
X168735714Y-44029761D01*
X168783333Y-43982142D01*
X168830952Y-43886904D01*
X168830952Y-43601190D01*
X168783333Y-43505952D01*
X168735714Y-43458333D01*
X168640476Y-43410714D01*
X168450000Y-43410714D01*
X168354761Y-43458333D01*
X167878571Y-43696428D02*
X167116666Y-43696428D01*
X166211904Y-44077380D02*
X166211904Y-43553571D01*
X166259523Y-43458333D01*
X166354761Y-43410714D01*
X166545238Y-43410714D01*
X166640476Y-43458333D01*
X166211904Y-44029761D02*
X166307142Y-44077380D01*
X166545238Y-44077380D01*
X166640476Y-44029761D01*
X166688095Y-43934523D01*
X166688095Y-43839285D01*
X166640476Y-43744047D01*
X166545238Y-43696428D01*
X166307142Y-43696428D01*
X166211904Y-43648809D01*
X165783333Y-44029761D02*
X165688095Y-44077380D01*
X165497619Y-44077380D01*
X165402380Y-44029761D01*
X165354761Y-43934523D01*
X165354761Y-43886904D01*
X165402380Y-43791666D01*
X165497619Y-43744047D01*
X165640476Y-43744047D01*
X165735714Y-43696428D01*
X165783333Y-43601190D01*
X165783333Y-43553571D01*
X165735714Y-43458333D01*
X165640476Y-43410714D01*
X165497619Y-43410714D01*
X165402380Y-43458333D01*
X164973809Y-44029761D02*
X164878571Y-44077380D01*
X164688095Y-44077380D01*
X164592857Y-44029761D01*
X164545238Y-43934523D01*
X164545238Y-43886904D01*
X164592857Y-43791666D01*
X164688095Y-43744047D01*
X164830952Y-43744047D01*
X164926190Y-43696428D01*
X164973809Y-43601190D01*
X164973809Y-43553571D01*
X164926190Y-43458333D01*
X164830952Y-43410714D01*
X164688095Y-43410714D01*
X164592857Y-43458333D01*
X162830952Y-44077380D02*
X163402380Y-44077380D01*
X163116666Y-44077380D02*
X163116666Y-43077380D01*
X163211904Y-43220238D01*
X163307142Y-43315476D01*
X163402380Y-43363095D01*
X161973809Y-43077380D02*
X162164285Y-43077380D01*
X162259523Y-43125000D01*
X162307142Y-43172619D01*
X162402380Y-43315476D01*
X162450000Y-43505952D01*
X162450000Y-43886904D01*
X162402380Y-43982142D01*
X162354761Y-44029761D01*
X162259523Y-44077380D01*
X162069047Y-44077380D01*
X161973809Y-44029761D01*
X161926190Y-43982142D01*
X161878571Y-43886904D01*
X161878571Y-43648809D01*
X161926190Y-43553571D01*
X161973809Y-43505952D01*
X162069047Y-43458333D01*
X162259523Y-43458333D01*
X162354761Y-43505952D01*
X162402380Y-43553571D01*
X162450000Y-43648809D01*
X161450000Y-43696428D02*
X160688095Y-43696428D01*
X160259523Y-44029761D02*
X160164285Y-44077380D01*
X159973809Y-44077380D01*
X159878571Y-44029761D01*
X159830952Y-43934523D01*
X159830952Y-43886904D01*
X159878571Y-43791666D01*
X159973809Y-43744047D01*
X160116666Y-43744047D01*
X160211904Y-43696428D01*
X160259523Y-43601190D01*
X160259523Y-43553571D01*
X160211904Y-43458333D01*
X160116666Y-43410714D01*
X159973809Y-43410714D01*
X159878571Y-43458333D01*
X159021428Y-44029761D02*
X159116666Y-44077380D01*
X159307142Y-44077380D01*
X159402380Y-44029761D01*
X159450000Y-43934523D01*
X159450000Y-43553571D01*
X159402380Y-43458333D01*
X159307142Y-43410714D01*
X159116666Y-43410714D01*
X159021428Y-43458333D01*
X158973809Y-43553571D01*
X158973809Y-43648809D01*
X159450000Y-43744047D01*
X158116666Y-43410714D02*
X158116666Y-44220238D01*
X158164285Y-44315476D01*
X158211904Y-44363095D01*
X158307142Y-44410714D01*
X158450000Y-44410714D01*
X158545238Y-44363095D01*
X158116666Y-44029761D02*
X158211904Y-44077380D01*
X158402380Y-44077380D01*
X158497619Y-44029761D01*
X158545238Y-43982142D01*
X158592857Y-43886904D01*
X158592857Y-43601190D01*
X158545238Y-43505952D01*
X158497619Y-43458333D01*
X158402380Y-43410714D01*
X158211904Y-43410714D01*
X158116666Y-43458333D01*
X157640476Y-44077380D02*
X157640476Y-43410714D01*
X157640476Y-43505952D02*
X157592857Y-43458333D01*
X157497619Y-43410714D01*
X157354761Y-43410714D01*
X157259523Y-43458333D01*
X157211904Y-43553571D01*
X157211904Y-44077380D01*
X157211904Y-43553571D02*
X157164285Y-43458333D01*
X157069047Y-43410714D01*
X156926190Y-43410714D01*
X156830952Y-43458333D01*
X156783333Y-43553571D01*
X156783333Y-44077380D01*
X155926190Y-44029761D02*
X156021428Y-44077380D01*
X156211904Y-44077380D01*
X156307142Y-44029761D01*
X156354761Y-43934523D01*
X156354761Y-43553571D01*
X156307142Y-43458333D01*
X156211904Y-43410714D01*
X156021428Y-43410714D01*
X155926190Y-43458333D01*
X155878571Y-43553571D01*
X155878571Y-43648809D01*
X156354761Y-43744047D01*
X155450000Y-43410714D02*
X155450000Y-44077380D01*
X155450000Y-43505952D02*
X155402380Y-43458333D01*
X155307142Y-43410714D01*
X155164285Y-43410714D01*
X155069047Y-43458333D01*
X155021428Y-43553571D01*
X155021428Y-44077380D01*
X154688095Y-43410714D02*
X154307142Y-43410714D01*
X154545238Y-43077380D02*
X154545238Y-43934523D01*
X154497619Y-44029761D01*
X154402380Y-44077380D01*
X154307142Y-44077380D01*
X152735714Y-44077380D02*
X153211904Y-44077380D01*
X153211904Y-43077380D01*
X152402380Y-43553571D02*
X152069047Y-43553571D01*
X151926190Y-44077380D02*
X152402380Y-44077380D01*
X152402380Y-43077380D01*
X151926190Y-43077380D01*
X151497619Y-44077380D02*
X151497619Y-43077380D01*
X151259523Y-43077380D01*
X151116666Y-43125000D01*
X151021428Y-43220238D01*
X150973809Y-43315476D01*
X150926190Y-43505952D01*
X150926190Y-43648809D01*
X150973809Y-43839285D01*
X151021428Y-43934523D01*
X151116666Y-44029761D01*
X151259523Y-44077380D01*
X151497619Y-44077380D01*
X149307142Y-44077380D02*
X149307142Y-43077380D01*
X149307142Y-44029761D02*
X149402380Y-44077380D01*
X149592857Y-44077380D01*
X149688095Y-44029761D01*
X149735714Y-43982142D01*
X149783333Y-43886904D01*
X149783333Y-43601190D01*
X149735714Y-43505952D01*
X149688095Y-43458333D01*
X149592857Y-43410714D01*
X149402380Y-43410714D01*
X149307142Y-43458333D01*
X148830952Y-44077380D02*
X148830952Y-43410714D01*
X148830952Y-43077380D02*
X148878571Y-43125000D01*
X148830952Y-43172619D01*
X148783333Y-43125000D01*
X148830952Y-43077380D01*
X148830952Y-43172619D01*
X148402380Y-44029761D02*
X148307142Y-44077380D01*
X148116666Y-44077380D01*
X148021428Y-44029761D01*
X147973809Y-43934523D01*
X147973809Y-43886904D01*
X148021428Y-43791666D01*
X148116666Y-43744047D01*
X148259523Y-43744047D01*
X148354761Y-43696428D01*
X148402380Y-43601190D01*
X148402380Y-43553571D01*
X148354761Y-43458333D01*
X148259523Y-43410714D01*
X148116666Y-43410714D01*
X148021428Y-43458333D01*
X147545238Y-43410714D02*
X147545238Y-44410714D01*
X147545238Y-43458333D02*
X147450000Y-43410714D01*
X147259523Y-43410714D01*
X147164285Y-43458333D01*
X147116666Y-43505952D01*
X147069047Y-43601190D01*
X147069047Y-43886904D01*
X147116666Y-43982142D01*
X147164285Y-44029761D01*
X147259523Y-44077380D01*
X147450000Y-44077380D01*
X147545238Y-44029761D01*
X146497619Y-44077380D02*
X146592857Y-44029761D01*
X146640476Y-43934523D01*
X146640476Y-43077380D01*
X145688095Y-44077380D02*
X145688095Y-43553571D01*
X145735714Y-43458333D01*
X145830952Y-43410714D01*
X146021428Y-43410714D01*
X146116666Y-43458333D01*
X145688095Y-44029761D02*
X145783333Y-44077380D01*
X146021428Y-44077380D01*
X146116666Y-44029761D01*
X146164285Y-43934523D01*
X146164285Y-43839285D01*
X146116666Y-43744047D01*
X146021428Y-43696428D01*
X145783333Y-43696428D01*
X145688095Y-43648809D01*
X145307142Y-43410714D02*
X145069047Y-44077380D01*
X144830952Y-43410714D02*
X145069047Y-44077380D01*
X145164285Y-44315476D01*
X145211904Y-44363095D01*
X145307142Y-44410714D01*
X144497619Y-44029761D02*
X144402380Y-44077380D01*
X144211904Y-44077380D01*
X144116666Y-44029761D01*
X144069047Y-43934523D01*
X144069047Y-43886904D01*
X144116666Y-43791666D01*
X144211904Y-43744047D01*
X144354761Y-43744047D01*
X144450000Y-43696428D01*
X144497619Y-43601190D01*
X144497619Y-43553571D01*
X144450000Y-43458333D01*
X144354761Y-43410714D01*
X144211904Y-43410714D01*
X144116666Y-43458333D01*
X143592857Y-44029761D02*
X143592857Y-44077380D01*
X143640476Y-44172619D01*
X143688095Y-44220238D01*
X190640476Y-45727380D02*
X190640476Y-45203571D01*
X190688095Y-45108333D01*
X190783333Y-45060714D01*
X190973809Y-45060714D01*
X191069047Y-45108333D01*
X190640476Y-45679761D02*
X190735714Y-45727380D01*
X190973809Y-45727380D01*
X191069047Y-45679761D01*
X191116666Y-45584523D01*
X191116666Y-45489285D01*
X191069047Y-45394047D01*
X190973809Y-45346428D01*
X190735714Y-45346428D01*
X190640476Y-45298809D01*
X190164285Y-45060714D02*
X190164285Y-45727380D01*
X190164285Y-45155952D02*
X190116666Y-45108333D01*
X190021428Y-45060714D01*
X189878571Y-45060714D01*
X189783333Y-45108333D01*
X189735714Y-45203571D01*
X189735714Y-45727380D01*
X188830952Y-45727380D02*
X188830952Y-44727380D01*
X188830952Y-45679761D02*
X188926190Y-45727380D01*
X189116666Y-45727380D01*
X189211904Y-45679761D01*
X189259523Y-45632142D01*
X189307142Y-45536904D01*
X189307142Y-45251190D01*
X189259523Y-45155952D01*
X189211904Y-45108333D01*
X189116666Y-45060714D01*
X188926190Y-45060714D01*
X188830952Y-45108333D01*
X187735714Y-45060714D02*
X187354761Y-45060714D01*
X187592857Y-44727380D02*
X187592857Y-45584523D01*
X187545238Y-45679761D01*
X187450000Y-45727380D01*
X187354761Y-45727380D01*
X187116666Y-45060714D02*
X186926190Y-45727380D01*
X186735714Y-45251190D01*
X186545238Y-45727380D01*
X186354761Y-45060714D01*
X185830952Y-45727380D02*
X185926190Y-45679761D01*
X185973809Y-45632142D01*
X186021428Y-45536904D01*
X186021428Y-45251190D01*
X185973809Y-45155952D01*
X185926190Y-45108333D01*
X185830952Y-45060714D01*
X185688095Y-45060714D01*
X185592857Y-45108333D01*
X185545238Y-45155952D01*
X185497619Y-45251190D01*
X185497619Y-45536904D01*
X185545238Y-45632142D01*
X185592857Y-45679761D01*
X185688095Y-45727380D01*
X185830952Y-45727380D01*
X184307142Y-45727380D02*
X184307142Y-44727380D01*
X184307142Y-45108333D02*
X184211904Y-45060714D01*
X184021428Y-45060714D01*
X183926190Y-45108333D01*
X183878571Y-45155952D01*
X183830952Y-45251190D01*
X183830952Y-45536904D01*
X183878571Y-45632142D01*
X183926190Y-45679761D01*
X184021428Y-45727380D01*
X184211904Y-45727380D01*
X184307142Y-45679761D01*
X182973809Y-45060714D02*
X182973809Y-45727380D01*
X183402380Y-45060714D02*
X183402380Y-45584523D01*
X183354761Y-45679761D01*
X183259523Y-45727380D01*
X183116666Y-45727380D01*
X183021428Y-45679761D01*
X182973809Y-45632142D01*
X182640476Y-45060714D02*
X182259523Y-45060714D01*
X182497619Y-44727380D02*
X182497619Y-45584523D01*
X182450000Y-45679761D01*
X182354761Y-45727380D01*
X182259523Y-45727380D01*
X182069047Y-45060714D02*
X181688095Y-45060714D01*
X181926190Y-44727380D02*
X181926190Y-45584523D01*
X181878571Y-45679761D01*
X181783333Y-45727380D01*
X181688095Y-45727380D01*
X181211904Y-45727380D02*
X181307142Y-45679761D01*
X181354761Y-45632142D01*
X181402380Y-45536904D01*
X181402380Y-45251190D01*
X181354761Y-45155952D01*
X181307142Y-45108333D01*
X181211904Y-45060714D01*
X181069047Y-45060714D01*
X180973809Y-45108333D01*
X180926190Y-45155952D01*
X180878571Y-45251190D01*
X180878571Y-45536904D01*
X180926190Y-45632142D01*
X180973809Y-45679761D01*
X181069047Y-45727380D01*
X181211904Y-45727380D01*
X180450000Y-45060714D02*
X180450000Y-45727380D01*
X180450000Y-45155952D02*
X180402380Y-45108333D01*
X180307142Y-45060714D01*
X180164285Y-45060714D01*
X180069047Y-45108333D01*
X180021428Y-45203571D01*
X180021428Y-45727380D01*
X179592857Y-45679761D02*
X179497619Y-45727380D01*
X179307142Y-45727380D01*
X179211904Y-45679761D01*
X179164285Y-45584523D01*
X179164285Y-45536904D01*
X179211904Y-45441666D01*
X179307142Y-45394047D01*
X179450000Y-45394047D01*
X179545238Y-45346428D01*
X179592857Y-45251190D01*
X179592857Y-45203571D01*
X179545238Y-45108333D01*
X179450000Y-45060714D01*
X179307142Y-45060714D01*
X179211904Y-45108333D01*
X178735714Y-45632142D02*
X178688095Y-45679761D01*
X178735714Y-45727380D01*
X178783333Y-45679761D01*
X178735714Y-45632142D01*
X178735714Y-45727380D01*
X177307142Y-44727380D02*
X177116666Y-44727380D01*
X177021428Y-44775000D01*
X176926190Y-44870238D01*
X176878571Y-45060714D01*
X176878571Y-45394047D01*
X176926190Y-45584523D01*
X177021428Y-45679761D01*
X177116666Y-45727380D01*
X177307142Y-45727380D01*
X177402380Y-45679761D01*
X177497619Y-45584523D01*
X177545238Y-45394047D01*
X177545238Y-45060714D01*
X177497619Y-44870238D01*
X177402380Y-44775000D01*
X177307142Y-44727380D01*
X176450000Y-45727380D02*
X176450000Y-44727380D01*
X176021428Y-45727380D02*
X176021428Y-45203571D01*
X176069047Y-45108333D01*
X176164285Y-45060714D01*
X176307142Y-45060714D01*
X176402380Y-45108333D01*
X176450000Y-45155952D01*
X174354761Y-45727380D02*
X174354761Y-45203571D01*
X174402380Y-45108333D01*
X174497619Y-45060714D01*
X174688095Y-45060714D01*
X174783333Y-45108333D01*
X174354761Y-45679761D02*
X174450000Y-45727380D01*
X174688095Y-45727380D01*
X174783333Y-45679761D01*
X174830952Y-45584523D01*
X174830952Y-45489285D01*
X174783333Y-45394047D01*
X174688095Y-45346428D01*
X174450000Y-45346428D01*
X174354761Y-45298809D01*
X173878571Y-45060714D02*
X173878571Y-45727380D01*
X173878571Y-45155952D02*
X173830952Y-45108333D01*
X173735714Y-45060714D01*
X173592857Y-45060714D01*
X173497619Y-45108333D01*
X173450000Y-45203571D01*
X173450000Y-45727380D01*
X172545238Y-45727380D02*
X172545238Y-44727380D01*
X172545238Y-45679761D02*
X172640476Y-45727380D01*
X172830952Y-45727380D01*
X172926190Y-45679761D01*
X172973809Y-45632142D01*
X173021428Y-45536904D01*
X173021428Y-45251190D01*
X172973809Y-45155952D01*
X172926190Y-45108333D01*
X172830952Y-45060714D01*
X172640476Y-45060714D01*
X172545238Y-45108333D01*
X171450000Y-45060714D02*
X171069047Y-45060714D01*
X171307142Y-44727380D02*
X171307142Y-45584523D01*
X171259523Y-45679761D01*
X171164285Y-45727380D01*
X171069047Y-45727380D01*
X170830952Y-45060714D02*
X170640476Y-45727380D01*
X170450000Y-45251190D01*
X170259523Y-45727380D01*
X170069047Y-45060714D01*
X169545238Y-45727380D02*
X169640476Y-45679761D01*
X169688095Y-45632142D01*
X169735714Y-45536904D01*
X169735714Y-45251190D01*
X169688095Y-45155952D01*
X169640476Y-45108333D01*
X169545238Y-45060714D01*
X169402380Y-45060714D01*
X169307142Y-45108333D01*
X169259523Y-45155952D01*
X169211904Y-45251190D01*
X169211904Y-45536904D01*
X169259523Y-45632142D01*
X169307142Y-45679761D01*
X169402380Y-45727380D01*
X169545238Y-45727380D01*
X167592857Y-45727380D02*
X167592857Y-44727380D01*
X167592857Y-45679761D02*
X167688095Y-45727380D01*
X167878571Y-45727380D01*
X167973809Y-45679761D01*
X168021428Y-45632142D01*
X168069047Y-45536904D01*
X168069047Y-45251190D01*
X168021428Y-45155952D01*
X167973809Y-45108333D01*
X167878571Y-45060714D01*
X167688095Y-45060714D01*
X167592857Y-45108333D01*
X166973809Y-45727380D02*
X167069047Y-45679761D01*
X167116666Y-45632142D01*
X167164285Y-45536904D01*
X167164285Y-45251190D01*
X167116666Y-45155952D01*
X167069047Y-45108333D01*
X166973809Y-45060714D01*
X166830952Y-45060714D01*
X166735714Y-45108333D01*
X166688095Y-45155952D01*
X166640476Y-45251190D01*
X166640476Y-45536904D01*
X166688095Y-45632142D01*
X166735714Y-45679761D01*
X166830952Y-45727380D01*
X166973809Y-45727380D01*
X166354761Y-45060714D02*
X165973809Y-45060714D01*
X166211904Y-44727380D02*
X166211904Y-45584523D01*
X166164285Y-45679761D01*
X166069047Y-45727380D01*
X165973809Y-45727380D01*
X165688095Y-45679761D02*
X165592857Y-45727380D01*
X165402380Y-45727380D01*
X165307142Y-45679761D01*
X165259523Y-45584523D01*
X165259523Y-45536904D01*
X165307142Y-45441666D01*
X165402380Y-45394047D01*
X165545238Y-45394047D01*
X165640476Y-45346428D01*
X165688095Y-45251190D01*
X165688095Y-45203571D01*
X165640476Y-45108333D01*
X165545238Y-45060714D01*
X165402380Y-45060714D01*
X165307142Y-45108333D01*
X164830952Y-45632142D02*
X164783333Y-45679761D01*
X164830952Y-45727380D01*
X164878571Y-45679761D01*
X164830952Y-45632142D01*
X164830952Y-45727380D01*
X163402380Y-45251190D02*
X163402380Y-45727380D01*
X163735714Y-44727380D02*
X163402380Y-45251190D01*
X163069047Y-44727380D01*
X162592857Y-45727380D02*
X162688095Y-45679761D01*
X162735714Y-45632142D01*
X162783333Y-45536904D01*
X162783333Y-45251190D01*
X162735714Y-45155952D01*
X162688095Y-45108333D01*
X162592857Y-45060714D01*
X162450000Y-45060714D01*
X162354761Y-45108333D01*
X162307142Y-45155952D01*
X162259523Y-45251190D01*
X162259523Y-45536904D01*
X162307142Y-45632142D01*
X162354761Y-45679761D01*
X162450000Y-45727380D01*
X162592857Y-45727380D01*
X161402380Y-45060714D02*
X161402380Y-45727380D01*
X161830952Y-45060714D02*
X161830952Y-45584523D01*
X161783333Y-45679761D01*
X161688095Y-45727380D01*
X161545238Y-45727380D01*
X161450000Y-45679761D01*
X161402380Y-45632142D01*
X160878571Y-44727380D02*
X160973809Y-44917857D01*
X160450000Y-45727380D02*
X160450000Y-45060714D01*
X160450000Y-45251190D02*
X160402380Y-45155952D01*
X160354761Y-45108333D01*
X160259523Y-45060714D01*
X160164285Y-45060714D01*
X159450000Y-45679761D02*
X159545238Y-45727380D01*
X159735714Y-45727380D01*
X159830952Y-45679761D01*
X159878571Y-45584523D01*
X159878571Y-45203571D01*
X159830952Y-45108333D01*
X159735714Y-45060714D01*
X159545238Y-45060714D01*
X159450000Y-45108333D01*
X159402380Y-45203571D01*
X159402380Y-45298809D01*
X159878571Y-45394047D01*
X158307142Y-45060714D02*
X158116666Y-45727380D01*
X157926190Y-45251190D01*
X157735714Y-45727380D01*
X157545238Y-45060714D01*
X156783333Y-45679761D02*
X156878571Y-45727380D01*
X157069047Y-45727380D01*
X157164285Y-45679761D01*
X157211904Y-45584523D01*
X157211904Y-45203571D01*
X157164285Y-45108333D01*
X157069047Y-45060714D01*
X156878571Y-45060714D01*
X156783333Y-45108333D01*
X156735714Y-45203571D01*
X156735714Y-45298809D01*
X157211904Y-45394047D01*
X156164285Y-45727380D02*
X156259523Y-45679761D01*
X156307142Y-45584523D01*
X156307142Y-44727380D01*
X155354761Y-45679761D02*
X155450000Y-45727380D01*
X155640476Y-45727380D01*
X155735714Y-45679761D01*
X155783333Y-45632142D01*
X155830952Y-45536904D01*
X155830952Y-45251190D01*
X155783333Y-45155952D01*
X155735714Y-45108333D01*
X155640476Y-45060714D01*
X155450000Y-45060714D01*
X155354761Y-45108333D01*
X154783333Y-45727380D02*
X154878571Y-45679761D01*
X154926190Y-45632142D01*
X154973809Y-45536904D01*
X154973809Y-45251190D01*
X154926190Y-45155952D01*
X154878571Y-45108333D01*
X154783333Y-45060714D01*
X154640476Y-45060714D01*
X154545238Y-45108333D01*
X154497619Y-45155952D01*
X154450000Y-45251190D01*
X154450000Y-45536904D01*
X154497619Y-45632142D01*
X154545238Y-45679761D01*
X154640476Y-45727380D01*
X154783333Y-45727380D01*
X154021428Y-45727380D02*
X154021428Y-45060714D01*
X154021428Y-45155952D02*
X153973809Y-45108333D01*
X153878571Y-45060714D01*
X153735714Y-45060714D01*
X153640476Y-45108333D01*
X153592857Y-45203571D01*
X153592857Y-45727380D01*
X153592857Y-45203571D02*
X153545238Y-45108333D01*
X153450000Y-45060714D01*
X153307142Y-45060714D01*
X153211904Y-45108333D01*
X153164285Y-45203571D01*
X153164285Y-45727380D01*
X152307142Y-45679761D02*
X152402380Y-45727380D01*
X152592857Y-45727380D01*
X152688095Y-45679761D01*
X152735714Y-45584523D01*
X152735714Y-45203571D01*
X152688095Y-45108333D01*
X152592857Y-45060714D01*
X152402380Y-45060714D01*
X152307142Y-45108333D01*
X152259523Y-45203571D01*
X152259523Y-45298809D01*
X152735714Y-45394047D01*
X151830952Y-45632142D02*
X151783333Y-45679761D01*
X151830952Y-45727380D01*
X151878571Y-45679761D01*
X151830952Y-45632142D01*
X151830952Y-45727380D01*
X197414142Y-52137571D02*
X197128428Y-52137571D01*
X196985571Y-52209000D01*
X196842714Y-52351857D01*
X196771285Y-52637571D01*
X196771285Y-53137571D01*
X196842714Y-53423285D01*
X196985571Y-53566142D01*
X197128428Y-53637571D01*
X197414142Y-53637571D01*
X197557000Y-53566142D01*
X197699857Y-53423285D01*
X197771285Y-53137571D01*
X197771285Y-52637571D01*
X197699857Y-52351857D01*
X197557000Y-52209000D01*
X197414142Y-52137571D01*
X196128428Y-52637571D02*
X196128428Y-53637571D01*
X196128428Y-52780428D02*
X196057000Y-52709000D01*
X195914142Y-52637571D01*
X195699857Y-52637571D01*
X195557000Y-52709000D01*
X195485571Y-52851857D01*
X195485571Y-53637571D01*
X194199857Y-53566142D02*
X194342714Y-53637571D01*
X194628428Y-53637571D01*
X194771285Y-53566142D01*
X194842714Y-53423285D01*
X194842714Y-52851857D01*
X194771285Y-52709000D01*
X194628428Y-52637571D01*
X194342714Y-52637571D01*
X194199857Y-52709000D01*
X194128428Y-52851857D01*
X194128428Y-52994714D01*
X194842714Y-53137571D01*
X191699857Y-53566142D02*
X191842714Y-53637571D01*
X192128428Y-53637571D01*
X192271285Y-53566142D01*
X192342714Y-53494714D01*
X192414142Y-53351857D01*
X192414142Y-52923285D01*
X192342714Y-52780428D01*
X192271285Y-52709000D01*
X192128428Y-52637571D01*
X191842714Y-52637571D01*
X191699857Y-52709000D01*
X190842714Y-53637571D02*
X190985571Y-53566142D01*
X191057000Y-53494714D01*
X191128428Y-53351857D01*
X191128428Y-52923285D01*
X191057000Y-52780428D01*
X190985571Y-52709000D01*
X190842714Y-52637571D01*
X190628428Y-52637571D01*
X190485571Y-52709000D01*
X190414142Y-52780428D01*
X190342714Y-52923285D01*
X190342714Y-53351857D01*
X190414142Y-53494714D01*
X190485571Y-53566142D01*
X190628428Y-53637571D01*
X190842714Y-53637571D01*
X189057000Y-52637571D02*
X189057000Y-53637571D01*
X189699857Y-52637571D02*
X189699857Y-53423285D01*
X189628428Y-53566142D01*
X189485571Y-53637571D01*
X189271285Y-53637571D01*
X189128428Y-53566142D01*
X189057000Y-53494714D01*
X188128428Y-53637571D02*
X188271285Y-53566142D01*
X188342714Y-53423285D01*
X188342714Y-52137571D01*
X186914142Y-53637571D02*
X186914142Y-52137571D01*
X186914142Y-53566142D02*
X187057000Y-53637571D01*
X187342714Y-53637571D01*
X187485571Y-53566142D01*
X187557000Y-53494714D01*
X187628428Y-53351857D01*
X187628428Y-52923285D01*
X187557000Y-52780428D01*
X187485571Y-52709000D01*
X187342714Y-52637571D01*
X187057000Y-52637571D01*
X186914142Y-52709000D01*
X185199857Y-52637571D02*
X184914142Y-53637571D01*
X184628428Y-52923285D01*
X184342714Y-53637571D01*
X184057000Y-52637571D01*
X183485571Y-53637571D02*
X183485571Y-52637571D01*
X183485571Y-52137571D02*
X183557000Y-52209000D01*
X183485571Y-52280428D01*
X183414142Y-52209000D01*
X183485571Y-52137571D01*
X183485571Y-52280428D01*
X182771285Y-52637571D02*
X182771285Y-54137571D01*
X182771285Y-52709000D02*
X182628428Y-52637571D01*
X182342714Y-52637571D01*
X182199857Y-52709000D01*
X182128428Y-52780428D01*
X182057000Y-52923285D01*
X182057000Y-53351857D01*
X182128428Y-53494714D01*
X182199857Y-53566142D01*
X182342714Y-53637571D01*
X182628428Y-53637571D01*
X182771285Y-53566142D01*
X180842714Y-53566142D02*
X180985571Y-53637571D01*
X181271285Y-53637571D01*
X181414142Y-53566142D01*
X181485571Y-53423285D01*
X181485571Y-52851857D01*
X181414142Y-52709000D01*
X181271285Y-52637571D01*
X180985571Y-52637571D01*
X180842714Y-52709000D01*
X180771285Y-52851857D01*
X180771285Y-52994714D01*
X181485571Y-53137571D01*
X178771285Y-53637571D02*
X178914142Y-53566142D01*
X178985571Y-53494714D01*
X179057000Y-53351857D01*
X179057000Y-52923285D01*
X178985571Y-52780428D01*
X178914142Y-52709000D01*
X178771285Y-52637571D01*
X178557000Y-52637571D01*
X178414142Y-52709000D01*
X178342714Y-52780428D01*
X178271285Y-52923285D01*
X178271285Y-53351857D01*
X178342714Y-53494714D01*
X178414142Y-53566142D01*
X178557000Y-53637571D01*
X178771285Y-53637571D01*
X176985571Y-52637571D02*
X176985571Y-53637571D01*
X177628428Y-52637571D02*
X177628428Y-53423285D01*
X177557000Y-53566142D01*
X177414142Y-53637571D01*
X177199857Y-53637571D01*
X177057000Y-53566142D01*
X176985571Y-53494714D01*
X176485571Y-52637571D02*
X175914142Y-52637571D01*
X176271285Y-52137571D02*
X176271285Y-53423285D01*
X176199857Y-53566142D01*
X176057000Y-53637571D01*
X175914142Y-53637571D01*
X174485571Y-52637571D02*
X173914142Y-52637571D01*
X174271285Y-52137571D02*
X174271285Y-53423285D01*
X174199857Y-53566142D01*
X174057000Y-53637571D01*
X173914142Y-53637571D01*
X173414142Y-53637571D02*
X173414142Y-52137571D01*
X172771285Y-53637571D02*
X172771285Y-52851857D01*
X172842714Y-52709000D01*
X172985571Y-52637571D01*
X173199857Y-52637571D01*
X173342714Y-52709000D01*
X173414142Y-52780428D01*
X171485571Y-53566142D02*
X171628428Y-53637571D01*
X171914142Y-53637571D01*
X172057000Y-53566142D01*
X172128428Y-53423285D01*
X172128428Y-52851857D01*
X172057000Y-52709000D01*
X171914142Y-52637571D01*
X171628428Y-52637571D01*
X171485571Y-52709000D01*
X171414142Y-52851857D01*
X171414142Y-52994714D01*
X172128428Y-53137571D01*
X169699857Y-53566142D02*
X169557000Y-53637571D01*
X169271285Y-53637571D01*
X169128428Y-53566142D01*
X169057000Y-53423285D01*
X169057000Y-53351857D01*
X169128428Y-53209000D01*
X169271285Y-53137571D01*
X169485571Y-53137571D01*
X169628428Y-53066142D01*
X169699857Y-52923285D01*
X169699857Y-52851857D01*
X169628428Y-52709000D01*
X169485571Y-52637571D01*
X169271285Y-52637571D01*
X169128428Y-52709000D01*
X168414142Y-53637571D02*
X168414142Y-52637571D01*
X168414142Y-52137571D02*
X168485571Y-52209000D01*
X168414142Y-52280428D01*
X168342714Y-52209000D01*
X168414142Y-52137571D01*
X168414142Y-52280428D01*
X167485571Y-53637571D02*
X167628428Y-53566142D01*
X167699857Y-53423285D01*
X167699857Y-52137571D01*
X166914142Y-53637571D02*
X166914142Y-52137571D01*
X166771285Y-53066142D02*
X166342714Y-53637571D01*
X166342714Y-52637571D02*
X166914142Y-53209000D01*
X165771285Y-53566142D02*
X165628428Y-53637571D01*
X165342714Y-53637571D01*
X165199857Y-53566142D01*
X165128428Y-53423285D01*
X165128428Y-53351857D01*
X165199857Y-53209000D01*
X165342714Y-53137571D01*
X165557000Y-53137571D01*
X165699857Y-53066142D01*
X165771285Y-52923285D01*
X165771285Y-52851857D01*
X165699857Y-52709000D01*
X165557000Y-52637571D01*
X165342714Y-52637571D01*
X165199857Y-52709000D01*
X163842714Y-53566142D02*
X163985571Y-53637571D01*
X164271285Y-53637571D01*
X164414142Y-53566142D01*
X164485571Y-53494714D01*
X164557000Y-53351857D01*
X164557000Y-52923285D01*
X164485571Y-52780428D01*
X164414142Y-52709000D01*
X164271285Y-52637571D01*
X163985571Y-52637571D01*
X163842714Y-52709000D01*
X163199857Y-53637571D02*
X163199857Y-52637571D01*
X163199857Y-52923285D02*
X163128428Y-52780428D01*
X163057000Y-52709000D01*
X162914142Y-52637571D01*
X162771285Y-52637571D01*
X161699857Y-53566142D02*
X161842714Y-53637571D01*
X162128428Y-53637571D01*
X162271285Y-53566142D01*
X162342714Y-53423285D01*
X162342714Y-52851857D01*
X162271285Y-52709000D01*
X162128428Y-52637571D01*
X161842714Y-52637571D01*
X161699857Y-52709000D01*
X161628428Y-52851857D01*
X161628428Y-52994714D01*
X162342714Y-53137571D01*
X160414142Y-53566142D02*
X160557000Y-53637571D01*
X160842714Y-53637571D01*
X160985571Y-53566142D01*
X161057000Y-53423285D01*
X161057000Y-52851857D01*
X160985571Y-52709000D01*
X160842714Y-52637571D01*
X160557000Y-52637571D01*
X160414142Y-52709000D01*
X160342714Y-52851857D01*
X160342714Y-52994714D01*
X161057000Y-53137571D01*
X159699857Y-52637571D02*
X159699857Y-53637571D01*
X159699857Y-52780428D02*
X159628428Y-52709000D01*
X159485571Y-52637571D01*
X159271285Y-52637571D01*
X159128428Y-52709000D01*
X159057000Y-52851857D01*
X159057000Y-53637571D01*
X158271285Y-53566142D02*
X158271285Y-53637571D01*
X158342714Y-53780428D01*
X158414142Y-53851857D01*
X156485571Y-53637571D02*
X156485571Y-52137571D01*
X156485571Y-52709000D02*
X156342714Y-52637571D01*
X156057000Y-52637571D01*
X155914142Y-52709000D01*
X155842714Y-52780428D01*
X155771285Y-52923285D01*
X155771285Y-53351857D01*
X155842714Y-53494714D01*
X155914142Y-53566142D01*
X156057000Y-53637571D01*
X156342714Y-53637571D01*
X156485571Y-53566142D01*
X154485571Y-52637571D02*
X154485571Y-53637571D01*
X155128428Y-52637571D02*
X155128428Y-53423285D01*
X155057000Y-53566142D01*
X154914142Y-53637571D01*
X154699857Y-53637571D01*
X154557000Y-53566142D01*
X154485571Y-53494714D01*
X153985571Y-52637571D02*
X153414142Y-52637571D01*
X153771285Y-52137571D02*
X153771285Y-53423285D01*
X153699857Y-53566142D01*
X153557000Y-53637571D01*
X153414142Y-53637571D01*
X151771285Y-52637571D02*
X151771285Y-53637571D01*
X151771285Y-52780428D02*
X151699857Y-52709000D01*
X151557000Y-52637571D01*
X151342714Y-52637571D01*
X151199857Y-52709000D01*
X151128428Y-52851857D01*
X151128428Y-53637571D01*
X150199857Y-53637571D02*
X150342714Y-53566142D01*
X150414142Y-53494714D01*
X150485571Y-53351857D01*
X150485571Y-52923285D01*
X150414142Y-52780428D01*
X150342714Y-52709000D01*
X150199857Y-52637571D01*
X149985571Y-52637571D01*
X149842714Y-52709000D01*
X149771285Y-52780428D01*
X149699857Y-52923285D01*
X149699857Y-53351857D01*
X149771285Y-53494714D01*
X149842714Y-53566142D01*
X149985571Y-53637571D01*
X150199857Y-53637571D01*
X149271285Y-52637571D02*
X148699857Y-52637571D01*
X149057000Y-52137571D02*
X149057000Y-53423285D01*
X148985571Y-53566142D01*
X148842714Y-53637571D01*
X148699857Y-53637571D01*
X147271285Y-52637571D02*
X146699857Y-52637571D01*
X147057000Y-52137571D02*
X147057000Y-53423285D01*
X146985571Y-53566142D01*
X146842714Y-53637571D01*
X146699857Y-53637571D01*
X146199857Y-53637571D02*
X146199857Y-52137571D01*
X145557000Y-53637571D02*
X145557000Y-52851857D01*
X145628428Y-52709000D01*
X145771285Y-52637571D01*
X145985571Y-52637571D01*
X146128428Y-52709000D01*
X146199857Y-52780428D01*
X144842714Y-53637571D02*
X144842714Y-52637571D01*
X144842714Y-52137571D02*
X144914142Y-52209000D01*
X144842714Y-52280428D01*
X144771285Y-52209000D01*
X144842714Y-52137571D01*
X144842714Y-52280428D01*
X144199857Y-53566142D02*
X144057000Y-53637571D01*
X143771285Y-53637571D01*
X143628428Y-53566142D01*
X143557000Y-53423285D01*
X143557000Y-53351857D01*
X143628428Y-53209000D01*
X143771285Y-53137571D01*
X143985571Y-53137571D01*
X144128428Y-53066142D01*
X144199857Y-52923285D01*
X144199857Y-52851857D01*
X144128428Y-52709000D01*
X143985571Y-52637571D01*
X143771285Y-52637571D01*
X143628428Y-52709000D01*
X142914142Y-53494714D02*
X142842714Y-53566142D01*
X142914142Y-53637571D01*
X142985571Y-53566142D01*
X142914142Y-53494714D01*
X142914142Y-53637571D01*
X142914142Y-52709000D02*
X142842714Y-52780428D01*
X142914142Y-52851857D01*
X142985571Y-52780428D01*
X142914142Y-52709000D01*
X142914142Y-52851857D01*
D13*
X198755000Y-79395000D02*
X202205000Y-79395000D01*
X198755000Y-79395000D02*
X196805000Y-79395000D01*
X198755000Y-89515000D02*
X200705000Y-89515000D01*
X198755000Y-89515000D02*
X196805000Y-89515000D01*
X180340000Y-79395000D02*
X183790000Y-79395000D01*
X180340000Y-79395000D02*
X178390000Y-79395000D01*
X180340000Y-89515000D02*
X182290000Y-89515000D01*
X180340000Y-89515000D02*
X178390000Y-89515000D01*
X154305000Y-79522000D02*
X157755000Y-79522000D01*
X154305000Y-79522000D02*
X152355000Y-79522000D01*
X154305000Y-89642000D02*
X156255000Y-89642000D01*
X154305000Y-89642000D02*
X152355000Y-89642000D01*
X133350000Y-79395000D02*
X136800000Y-79395000D01*
X133350000Y-79395000D02*
X131400000Y-79395000D01*
X133350000Y-89515000D02*
X135300000Y-89515000D01*
X133350000Y-89515000D02*
X131400000Y-89515000D01*
X128653000Y-80727733D02*
X128653000Y-81070267D01*
X127633000Y-80727733D02*
X127633000Y-81070267D01*
X190306000Y-67116000D02*
X190306000Y-65786000D01*
X188976000Y-67116000D02*
X190306000Y-67116000D01*
X187706000Y-67116000D02*
X187706000Y-64456000D01*
X187706000Y-64456000D02*
X169866000Y-64456000D01*
X187706000Y-67116000D02*
X169866000Y-67116000D01*
X169866000Y-67116000D02*
X169866000Y-64456000D01*
X212150000Y-67116000D02*
X212150000Y-65786000D01*
X210820000Y-67116000D02*
X212150000Y-67116000D01*
X209550000Y-67116000D02*
X209550000Y-64456000D01*
X209550000Y-64456000D02*
X191710000Y-64456000D01*
X209550000Y-67116000D02*
X191710000Y-67116000D01*
X191710000Y-67116000D02*
X191710000Y-64456000D01*
X212150000Y-115376000D02*
X212150000Y-114046000D01*
X210820000Y-115376000D02*
X212150000Y-115376000D01*
X209550000Y-115376000D02*
X209550000Y-112716000D01*
X209550000Y-112716000D02*
X196790000Y-112716000D01*
X209550000Y-115376000D02*
X196790000Y-115376000D01*
X196790000Y-115376000D02*
X196790000Y-112716000D01*
X194370000Y-115376000D02*
X194370000Y-114046000D01*
X193040000Y-115376000D02*
X194370000Y-115376000D01*
X191770000Y-115376000D02*
X191770000Y-112716000D01*
X191770000Y-112716000D02*
X179010000Y-112716000D01*
X191770000Y-115376000D02*
X179010000Y-115376000D01*
X179010000Y-115376000D02*
X179010000Y-112716000D01*
X198583733Y-90930000D02*
X198926267Y-90930000D01*
X198583733Y-91950000D02*
X198926267Y-91950000D01*
X180168733Y-90930000D02*
X180511267Y-90930000D01*
X180168733Y-91950000D02*
X180511267Y-91950000D01*
X154133733Y-90930000D02*
X154476267Y-90930000D01*
X154133733Y-91950000D02*
X154476267Y-91950000D01*
X133178733Y-90930000D02*
X133521267Y-90930000D01*
X133178733Y-91950000D02*
X133521267Y-91950000D01*
D10*
X199516904Y-78007380D02*
X199516904Y-78816904D01*
X199469285Y-78912142D01*
X199421666Y-78959761D01*
X199326428Y-79007380D01*
X199135952Y-79007380D01*
X199040714Y-78959761D01*
X198993095Y-78912142D01*
X198945476Y-78816904D01*
X198945476Y-78007380D01*
X198040714Y-78340714D02*
X198040714Y-79007380D01*
X198278809Y-77959761D02*
X198516904Y-78674047D01*
X197897857Y-78674047D01*
X181101904Y-78007380D02*
X181101904Y-78816904D01*
X181054285Y-78912142D01*
X181006666Y-78959761D01*
X180911428Y-79007380D01*
X180720952Y-79007380D01*
X180625714Y-78959761D01*
X180578095Y-78912142D01*
X180530476Y-78816904D01*
X180530476Y-78007380D01*
X180149523Y-78007380D02*
X179530476Y-78007380D01*
X179863809Y-78388333D01*
X179720952Y-78388333D01*
X179625714Y-78435952D01*
X179578095Y-78483571D01*
X179530476Y-78578809D01*
X179530476Y-78816904D01*
X179578095Y-78912142D01*
X179625714Y-78959761D01*
X179720952Y-79007380D01*
X180006666Y-79007380D01*
X180101904Y-78959761D01*
X180149523Y-78912142D01*
X155066904Y-78134380D02*
X155066904Y-78943904D01*
X155019285Y-79039142D01*
X154971666Y-79086761D01*
X154876428Y-79134380D01*
X154685952Y-79134380D01*
X154590714Y-79086761D01*
X154543095Y-79039142D01*
X154495476Y-78943904D01*
X154495476Y-78134380D01*
X154066904Y-78229619D02*
X154019285Y-78182000D01*
X153924047Y-78134380D01*
X153685952Y-78134380D01*
X153590714Y-78182000D01*
X153543095Y-78229619D01*
X153495476Y-78324857D01*
X153495476Y-78420095D01*
X153543095Y-78562952D01*
X154114523Y-79134380D01*
X153495476Y-79134380D01*
X134111904Y-78007380D02*
X134111904Y-78816904D01*
X134064285Y-78912142D01*
X134016666Y-78959761D01*
X133921428Y-79007380D01*
X133730952Y-79007380D01*
X133635714Y-78959761D01*
X133588095Y-78912142D01*
X133540476Y-78816904D01*
X133540476Y-78007380D01*
X132540476Y-79007380D02*
X133111904Y-79007380D01*
X132826190Y-79007380D02*
X132826190Y-78007380D01*
X132921428Y-78150238D01*
X133016666Y-78245476D01*
X133111904Y-78293095D01*
X127165380Y-80732333D02*
X126689190Y-80399000D01*
X127165380Y-80160904D02*
X126165380Y-80160904D01*
X126165380Y-80541857D01*
X126213000Y-80637095D01*
X126260619Y-80684714D01*
X126355857Y-80732333D01*
X126498714Y-80732333D01*
X126593952Y-80684714D01*
X126641571Y-80637095D01*
X126689190Y-80541857D01*
X126689190Y-80160904D01*
X127165380Y-81684714D02*
X127165380Y-81113285D01*
X127165380Y-81399000D02*
X126165380Y-81399000D01*
X126308238Y-81303761D01*
X126403476Y-81208523D01*
X126451095Y-81113285D01*
X198921666Y-93227142D02*
X198969285Y-93274761D01*
X199112142Y-93322380D01*
X199207380Y-93322380D01*
X199350238Y-93274761D01*
X199445476Y-93179523D01*
X199493095Y-93084285D01*
X199540714Y-92893809D01*
X199540714Y-92750952D01*
X199493095Y-92560476D01*
X199445476Y-92465238D01*
X199350238Y-92370000D01*
X199207380Y-92322380D01*
X199112142Y-92322380D01*
X198969285Y-92370000D01*
X198921666Y-92417619D01*
X198064523Y-92655714D02*
X198064523Y-93322380D01*
X198302619Y-92274761D02*
X198540714Y-92989047D01*
X197921666Y-92989047D01*
X180506666Y-93227142D02*
X180554285Y-93274761D01*
X180697142Y-93322380D01*
X180792380Y-93322380D01*
X180935238Y-93274761D01*
X181030476Y-93179523D01*
X181078095Y-93084285D01*
X181125714Y-92893809D01*
X181125714Y-92750952D01*
X181078095Y-92560476D01*
X181030476Y-92465238D01*
X180935238Y-92370000D01*
X180792380Y-92322380D01*
X180697142Y-92322380D01*
X180554285Y-92370000D01*
X180506666Y-92417619D01*
X180173333Y-92322380D02*
X179554285Y-92322380D01*
X179887619Y-92703333D01*
X179744761Y-92703333D01*
X179649523Y-92750952D01*
X179601904Y-92798571D01*
X179554285Y-92893809D01*
X179554285Y-93131904D01*
X179601904Y-93227142D01*
X179649523Y-93274761D01*
X179744761Y-93322380D01*
X180030476Y-93322380D01*
X180125714Y-93274761D01*
X180173333Y-93227142D01*
X154471666Y-93227142D02*
X154519285Y-93274761D01*
X154662142Y-93322380D01*
X154757380Y-93322380D01*
X154900238Y-93274761D01*
X154995476Y-93179523D01*
X155043095Y-93084285D01*
X155090714Y-92893809D01*
X155090714Y-92750952D01*
X155043095Y-92560476D01*
X154995476Y-92465238D01*
X154900238Y-92370000D01*
X154757380Y-92322380D01*
X154662142Y-92322380D01*
X154519285Y-92370000D01*
X154471666Y-92417619D01*
X154090714Y-92417619D02*
X154043095Y-92370000D01*
X153947857Y-92322380D01*
X153709761Y-92322380D01*
X153614523Y-92370000D01*
X153566904Y-92417619D01*
X153519285Y-92512857D01*
X153519285Y-92608095D01*
X153566904Y-92750952D01*
X154138333Y-93322380D01*
X153519285Y-93322380D01*
X133516666Y-93227142D02*
X133564285Y-93274761D01*
X133707142Y-93322380D01*
X133802380Y-93322380D01*
X133945238Y-93274761D01*
X134040476Y-93179523D01*
X134088095Y-93084285D01*
X134135714Y-92893809D01*
X134135714Y-92750952D01*
X134088095Y-92560476D01*
X134040476Y-92465238D01*
X133945238Y-92370000D01*
X133802380Y-92322380D01*
X133707142Y-92322380D01*
X133564285Y-92370000D01*
X133516666Y-92417619D01*
X132564285Y-93322380D02*
X133135714Y-93322380D01*
X132850000Y-93322380D02*
X132850000Y-92322380D01*
X132945238Y-92465238D01*
X133040476Y-92560476D01*
X133135714Y-92608095D01*
M02*
